<svg xmlns="http://www.w3.org/2000/svg" xmlns:xlink="http://www.w3.org/1999/xlink" width="997pt" height="761pt" viewBox="0.00 0.00 997.00 761.00">
<g id="graph0" class="graph" transform="scale(1 1) rotate(0) translate(4 757)">
<title>G</title>
<polygon fill="white" stroke="none" points="-4,4 -4,-757 993,-757 993,4 -4,4"/>
<!-- tasty&#45;plant -->
<g id="node1" class="node"><title>tasty-plant</title>
<path fill="aliceblue" stroke="black" stroke-width="0.5" d="M112.012,-560.671C112.012,-560.671 150.012,-560.671 150.012,-560.671 156.012,-560.671 162.012,-566.671 162.012,-572.671 162.012,-572.671 162.012,-584.671 162.012,-584.671 162.012,-590.671 156.012,-596.671 150.012,-596.671 150.012,-596.671 112.012,-596.671 112.012,-596.671 106.012,-596.671 100.012,-590.671 100.012,-584.671 100.012,-584.671 100.012,-572.671 100.012,-572.671 100.012,-566.671 106.012,-560.671 112.012,-560.671"/>
<text text-anchor="middle" x="131.012" y="-575.871" font-family="Times New Roman,serif" font-size="11.00">tasty-plant</text>
</g>
<!-- plant -->
<g id="node2" class="node"><title>plant</title>
<path fill="aliceblue" stroke="black" stroke-width="0.5" d="M265.155,-534.032C265.155,-534.032 295.155,-534.032 295.155,-534.032 301.155,-534.032 307.155,-540.032 307.155,-546.032 307.155,-546.032 307.155,-558.032 307.155,-558.032 307.155,-564.032 301.155,-570.032 295.155,-570.032 295.155,-570.032 265.155,-570.032 265.155,-570.032 259.155,-570.032 253.155,-564.032 253.155,-558.032 253.155,-558.032 253.155,-546.032 253.155,-546.032 253.155,-540.032 259.155,-534.032 265.155,-534.032"/>
<text text-anchor="middle" x="280.155" y="-549.232" font-family="Times New Roman,serif" font-size="11.00">plant</text>
</g>
<!-- plant&#45;&#45;tasty&#45;plant -->
<g id="edge1" class="edge"><title>plant--tasty-plant</title>
<path fill="none" stroke="black" stroke-width="0.5" d="M242.991,-558.67C218.114,-563.114 185.741,-568.896 162.206,-573.1"/>
<polygon fill="none" stroke="black" stroke-width="0.5" points="243.918,-562.06 253.146,-556.856 242.687,-555.169 243.918,-562.06"/>
</g>
<!-- carnivorous&#45;plant -->
<g id="node15" class="node"><title>carnivorous-plant</title>
<path fill="aliceblue" stroke="black" stroke-width="0.5" d="M109.09,-648.935C109.09,-648.935 177.09,-648.935 177.09,-648.935 183.09,-648.935 189.09,-654.935 189.09,-660.935 189.09,-660.935 189.09,-672.935 189.09,-672.935 189.09,-678.935 183.09,-684.935 177.09,-684.935 177.09,-684.935 109.09,-684.935 109.09,-684.935 103.09,-684.935 97.0899,-678.935 97.0899,-672.935 97.0899,-672.935 97.0899,-660.935 97.0899,-660.935 97.0899,-654.935 103.09,-648.935 109.09,-648.935"/>
<text text-anchor="middle" x="143.09" y="-664.135" font-family="Times New Roman,serif" font-size="11.00">carnivorous-plant</text>
</g>
<!-- plant&#45;&#45;carnivorous&#45;plant -->
<g id="edge12" class="edge"><title>plant--carnivorous-plant</title>
<path fill="none" stroke="black" stroke-width="0.5" d="M250.469,-576.919C224.642,-598.569 187.825,-629.433 164.707,-648.814"/>
<polygon fill="none" stroke="black" stroke-width="0.5" points="253.022,-579.346 258.437,-570.239 248.525,-573.981 253.022,-579.346"/>
</g>
<!-- palm&#45;tree -->
<g id="node20" class="node"><title>palm-tree</title>
<path fill="aliceblue" stroke="black" stroke-width="0.5" d="M388.678,-411.058C388.678,-411.058 423.678,-411.058 423.678,-411.058 429.678,-411.058 435.678,-417.058 435.678,-423.058 435.678,-423.058 435.678,-435.058 435.678,-435.058 435.678,-441.058 429.678,-447.058 423.678,-447.058 423.678,-447.058 388.678,-447.058 388.678,-447.058 382.678,-447.058 376.678,-441.058 376.678,-435.058 376.678,-435.058 376.678,-423.058 376.678,-423.058 376.678,-417.058 382.678,-411.058 388.678,-411.058"/>
<text text-anchor="middle" x="406.178" y="-426.258" font-family="Times New Roman,serif" font-size="11.00">palm-tree</text>
</g>
<!-- plant&#45;&#45;palm&#45;tree -->
<g id="edge17" class="edge"><title>plant--palm-tree</title>
<path fill="none" stroke="black" stroke-width="0.5" d="M306.192,-526.625C330.434,-502.97 365.974,-468.29 387.507,-447.278"/>
<polygon fill="none" stroke="black" stroke-width="0.5" points="303.463,-524.398 298.75,-533.887 308.352,-529.408 303.463,-524.398"/>
</g>
<!-- tree -->
<g id="node22" class="node"><title>tree</title>
<path fill="aliceblue" stroke="black" stroke-width="0.5" d="M334.387,-673.341C334.387,-673.341 364.387,-673.341 364.387,-673.341 370.387,-673.341 376.387,-679.341 376.387,-685.341 376.387,-685.341 376.387,-697.341 376.387,-697.341 376.387,-703.341 370.387,-709.341 364.387,-709.341 364.387,-709.341 334.387,-709.341 334.387,-709.341 328.387,-709.341 322.387,-703.341 322.387,-697.341 322.387,-697.341 322.387,-685.341 322.387,-685.341 322.387,-679.341 328.387,-673.341 334.387,-673.341"/>
<text text-anchor="middle" x="349.387" y="-688.541" font-family="Times New Roman,serif" font-size="11.00">tree</text>
</g>
<!-- plant&#45;&#45;tree -->
<g id="edge19" class="edge"><title>plant--tree</title>
<path fill="none" stroke="black" stroke-width="0.5" d="M293.755,-579.399C307.535,-607.127 328.464,-649.24 340.334,-673.125"/>
<polygon fill="none" stroke="black" stroke-width="0.5" points="296.791,-577.642 289.206,-570.245 290.522,-580.757 296.791,-577.642"/>
</g>
<!-- grass -->
<g id="node26" class="node"><title>grass</title>
<path fill="aliceblue" stroke="black" stroke-width="0.5" d="M233.531,-716.811C233.531,-716.811 263.531,-716.811 263.531,-716.811 269.531,-716.811 275.531,-722.811 275.531,-728.811 275.531,-728.811 275.531,-740.811 275.531,-740.811 275.531,-746.811 269.531,-752.811 263.531,-752.811 263.531,-752.811 233.531,-752.811 233.531,-752.811 227.531,-752.811 221.531,-746.811 221.531,-740.811 221.531,-740.811 221.531,-728.811 221.531,-728.811 221.531,-722.811 227.531,-716.811 233.531,-716.811"/>
<text text-anchor="middle" x="248.531" y="-732.011" font-family="Times New Roman,serif" font-size="11.00">grass</text>
</g>
<!-- plant&#45;&#45;grass -->
<g id="edge23" class="edge"><title>plant--grass</title>
<path fill="none" stroke="black" stroke-width="0.5" d="M275.295,-580.124C268.725,-618.095 257.198,-684.72 251.666,-716.691"/>
<polygon fill="none" stroke="black" stroke-width="0.5" points="278.751,-580.676 277.007,-570.226 271.854,-579.483 278.751,-580.676"/>
</g>
<!-- apple -->
<g id="node3" class="node"><title>apple</title>
<path fill="aliceblue" stroke="black" stroke-width="0.5" d="M428.079,-562.001C428.079,-562.001 458.079,-562.001 458.079,-562.001 464.079,-562.001 470.079,-568.001 470.079,-574.001 470.079,-574.001 470.079,-586.001 470.079,-586.001 470.079,-592.001 464.079,-598.001 458.079,-598.001 458.079,-598.001 428.079,-598.001 428.079,-598.001 422.079,-598.001 416.079,-592.001 416.079,-586.001 416.079,-586.001 416.079,-574.001 416.079,-574.001 416.079,-568.001 422.079,-562.001 428.079,-562.001"/>
<text text-anchor="middle" x="443.079" y="-577.201" font-family="Times New Roman,serif" font-size="11.00">apple</text>
</g>
<!-- fruiting&#45;body -->
<g id="node4" class="node"><title>fruiting-body</title>
<path fill="aliceblue" stroke="black" stroke-width="0.5" d="M299.916,-419.387C299.916,-419.387 347.916,-419.387 347.916,-419.387 353.916,-419.387 359.916,-425.387 359.916,-431.387 359.916,-431.387 359.916,-443.387 359.916,-443.387 359.916,-449.387 353.916,-455.387 347.916,-455.387 347.916,-455.387 299.916,-455.387 299.916,-455.387 293.916,-455.387 287.916,-449.387 287.916,-443.387 287.916,-443.387 287.916,-431.387 287.916,-431.387 287.916,-425.387 293.916,-419.387 299.916,-419.387"/>
<text text-anchor="middle" x="323.916" y="-434.587" font-family="Times New Roman,serif" font-size="11.00">fruiting-body</text>
</g>
<!-- fruiting&#45;body&#45;&#45;apple -->
<g id="edge2" class="edge"><title>fruiting-body--apple</title>
<path fill="none" stroke="black" stroke-width="0.5" d="M345.612,-463.353C369.367,-491.781 406.85,-536.641 427.733,-561.635"/>
<polygon fill="none" stroke="black" stroke-width="0.5" points="348.106,-460.879 339.008,-455.449 342.735,-465.367 348.106,-460.879"/>
</g>
<!-- berry -->
<g id="node12" class="node"><title>berry</title>
<path fill="aliceblue" stroke="black" stroke-width="0.5" d="M452.169,-472.642C452.169,-472.642 482.169,-472.642 482.169,-472.642 488.169,-472.642 494.169,-478.642 494.169,-484.642 494.169,-484.642 494.169,-496.642 494.169,-496.642 494.169,-502.642 488.169,-508.642 482.169,-508.642 482.169,-508.642 452.169,-508.642 452.169,-508.642 446.169,-508.642 440.169,-502.642 440.169,-496.642 440.169,-496.642 440.169,-484.642 440.169,-484.642 440.169,-478.642 446.169,-472.642 452.169,-472.642"/>
<text text-anchor="middle" x="467.169" y="-487.842" font-family="Times New Roman,serif" font-size="11.00">berry</text>
</g>
<!-- fruiting&#45;body&#45;&#45;berry -->
<g id="edge9" class="edge"><title>fruiting-body--berry</title>
<path fill="none" stroke="black" stroke-width="0.5" d="M369.713,-454.412C392.901,-463.033 420.259,-473.203 440.077,-480.57"/>
<polygon fill="none" stroke="black" stroke-width="0.5" points="370.658,-451.029 360.065,-450.825 368.219,-457.591 370.658,-451.029"/>
</g>
<!-- rock&#45;dassie -->
<g id="node5" class="node"><title>rock-dassie</title>
<path fill="aliceblue" stroke="black" stroke-width="0.5" d="M902.809,-528.597C902.809,-528.597 945.809,-528.597 945.809,-528.597 951.809,-528.597 957.809,-534.597 957.809,-540.597 957.809,-540.597 957.809,-552.597 957.809,-552.597 957.809,-558.597 951.809,-564.597 945.809,-564.597 945.809,-564.597 902.809,-564.597 902.809,-564.597 896.809,-564.597 890.809,-558.597 890.809,-552.597 890.809,-552.597 890.809,-540.597 890.809,-540.597 890.809,-534.597 896.809,-528.597 902.809,-528.597"/>
<text text-anchor="middle" x="924.309" y="-543.797" font-family="Times New Roman,serif" font-size="11.00">rock-dassie</text>
</g>
<!-- animal -->
<g id="node6" class="node"><title>animal</title>
<path fill="aliceblue" stroke="black" stroke-width="0.5" d="M788.97,-393.826C788.97,-393.826 818.97,-393.826 818.97,-393.826 824.97,-393.826 830.97,-399.826 830.97,-405.826 830.97,-405.826 830.97,-417.826 830.97,-417.826 830.97,-423.826 824.97,-429.826 818.97,-429.826 818.97,-429.826 788.97,-429.826 788.97,-429.826 782.97,-429.826 776.97,-423.826 776.97,-417.826 776.97,-417.826 776.97,-405.826 776.97,-405.826 776.97,-399.826 782.97,-393.826 788.97,-393.826"/>
<text text-anchor="middle" x="803.97" y="-409.026" font-family="Times New Roman,serif" font-size="11.00">animal</text>
</g>
<!-- animal&#45;&#45;rock&#45;dassie -->
<g id="edge3" class="edge"><title>animal--rock-dassie</title>
<path fill="none" stroke="black" stroke-width="0.5" d="M827.124,-437.756C850.831,-464.306 887.076,-504.898 907.953,-528.279"/>
<polygon fill="none" stroke="black" stroke-width="0.5" points="829.471,-435.13 820.2,-430.002 824.25,-439.792 829.471,-435.13"/>
</g>
<!-- warthog -->
<g id="node11" class="node"><title>warthog</title>
<path fill="aliceblue" stroke="black" stroke-width="0.5" d="M774.291,-539.903C774.291,-539.903 804.291,-539.903 804.291,-539.903 810.291,-539.903 816.291,-545.903 816.291,-551.903 816.291,-551.903 816.291,-563.903 816.291,-563.903 816.291,-569.903 810.291,-575.903 804.291,-575.903 804.291,-575.903 774.291,-575.903 774.291,-575.903 768.291,-575.903 762.291,-569.903 762.291,-563.903 762.291,-563.903 762.291,-551.903 762.291,-551.903 762.291,-545.903 768.291,-539.903 774.291,-539.903"/>
<text text-anchor="middle" x="789.291" y="-555.103" font-family="Times New Roman,serif" font-size="11.00">warthog</text>
</g>
<!-- animal&#45;&#45;warthog -->
<g id="edge7" class="edge"><title>animal--warthog</title>
<path fill="none" stroke="black" stroke-width="0.5" d="M801.133,-440.059C798.186,-469.385 793.661,-514.415 791.144,-539.468"/>
<polygon fill="none" stroke="black" stroke-width="0.5" points="804.624,-440.331 802.141,-430.031 797.659,-439.631 804.624,-440.331"/>
</g>
<!-- herbivore -->
<g id="node13" class="node"><title>herbivore</title>
<path fill="aliceblue" stroke="black" stroke-width="0.5" d="M644.871,-293.81C644.871,-293.81 678.871,-293.81 678.871,-293.81 684.871,-293.81 690.871,-299.81 690.871,-305.81 690.871,-305.81 690.871,-317.81 690.871,-317.81 690.871,-323.81 684.871,-329.81 678.871,-329.81 678.871,-329.81 644.871,-329.81 644.871,-329.81 638.871,-329.81 632.871,-323.81 632.871,-317.81 632.871,-317.81 632.871,-305.81 632.871,-305.81 632.871,-299.81 638.871,-293.81 644.871,-293.81"/>
<text text-anchor="middle" x="661.871" y="-309.01" font-family="Times New Roman,serif" font-size="11.00">herbivore</text>
</g>
<!-- animal&#45;&#45;herbivore -->
<g id="edge10" class="edge"><title>animal--herbivore</title>
<path fill="none" stroke="black" stroke-width="0.5" d="M770.051,-387.952C744.848,-370.213 710.977,-346.373 687.893,-330.125"/>
<polygon fill="none" stroke="black" stroke-width="0.5" points="768.045,-390.82 778.237,-393.714 772.074,-385.096 768.045,-390.82"/>
</g>
<!-- omnivore -->
<g id="node14" class="node"><title>omnivore</title>
<path fill="aliceblue" stroke="black" stroke-width="0.5" d="M704.566,-460.419C704.566,-460.419 737.566,-460.419 737.566,-460.419 743.566,-460.419 749.566,-466.419 749.566,-472.419 749.566,-472.419 749.566,-484.419 749.566,-484.419 749.566,-490.419 743.566,-496.419 737.566,-496.419 737.566,-496.419 704.566,-496.419 704.566,-496.419 698.566,-496.419 692.566,-490.419 692.566,-484.419 692.566,-484.419 692.566,-472.419 692.566,-472.419 692.566,-466.419 698.566,-460.419 704.566,-460.419"/>
<text text-anchor="middle" x="721.066" y="-475.619" font-family="Times New Roman,serif" font-size="11.00">omnivore</text>
</g>
<!-- animal&#45;&#45;omnivore -->
<g id="edge11" class="edge"><title>animal--omnivore</title>
<path fill="none" stroke="black" stroke-width="0.5" d="M773.329,-436.439C763.514,-444.323 752.829,-452.906 743.693,-460.244"/>
<polygon fill="none" stroke="black" stroke-width="0.5" points="775.712,-439.014 781.317,-430.023 771.328,-433.556 775.712,-439.014"/>
</g>
<!-- carnivore -->
<g id="node17" class="node"><title>carnivore</title>
<path fill="aliceblue" stroke="black" stroke-width="0.5" d="M863.265,-253.413C863.265,-253.413 897.265,-253.413 897.265,-253.413 903.265,-253.413 909.265,-259.413 909.265,-265.413 909.265,-265.413 909.265,-277.413 909.265,-277.413 909.265,-283.413 903.265,-289.413 897.265,-289.413 897.265,-289.413 863.265,-289.413 863.265,-289.413 857.265,-289.413 851.265,-283.413 851.265,-277.413 851.265,-277.413 851.265,-265.413 851.265,-265.413 851.265,-259.413 857.265,-253.413 863.265,-253.413"/>
<text text-anchor="middle" x="880.265" y="-268.613" font-family="Times New Roman,serif" font-size="11.00">carnivore</text>
</g>
<!-- animal&#45;&#45;carnivore -->
<g id="edge14" class="edge"><title>animal--carnivore</title>
<path fill="none" stroke="black" stroke-width="0.5" d="M819.369,-384.745C825.673,-373.567 833,-360.459 839.501,-348.528 850.441,-328.449 862.658,-305.227 870.839,-289.556"/>
<polygon fill="none" stroke="black" stroke-width="0.5" points="816.231,-383.184 814.355,-393.612 822.324,-386.63 816.231,-383.184"/>
</g>
<!-- impala -->
<g id="node21" class="node"><title>impala</title>
<path fill="aliceblue" stroke="black" stroke-width="0.5" d="M947.012,-401.172C947.012,-401.172 977.012,-401.172 977.012,-401.172 983.012,-401.172 989.012,-407.172 989.012,-413.172 989.012,-413.172 989.012,-425.172 989.012,-425.172 989.012,-431.172 983.012,-437.172 977.012,-437.172 977.012,-437.172 947.012,-437.172 947.012,-437.172 941.012,-437.172 935.012,-431.172 935.012,-425.172 935.012,-425.172 935.012,-413.172 935.012,-413.172 935.012,-407.172 941.012,-401.172 947.012,-401.172"/>
<text text-anchor="middle" x="962.012" y="-416.372" font-family="Times New Roman,serif" font-size="11.00">impala</text>
</g>
<!-- animal&#45;&#45;impala -->
<g id="edge18" class="edge"><title>animal--impala</title>
<path fill="none" stroke="black" stroke-width="0.5" d="M841.222,-413.557C869.984,-414.894 909.105,-416.713 934.934,-417.914"/>
<polygon fill="none" stroke="black" stroke-width="0.5" points="841.29,-410.057 831.139,-413.089 840.965,-417.049 841.29,-410.057"/>
</g>
<!-- giraffe -->
<g id="node28" class="node"><title>giraffe</title>
<path fill="aliceblue" stroke="black" stroke-width="0.5" d="M794.301,-309.328C794.301,-309.328 824.301,-309.328 824.301,-309.328 830.301,-309.328 836.301,-315.328 836.301,-321.328 836.301,-321.328 836.301,-333.328 836.301,-333.328 836.301,-339.328 830.301,-345.328 824.301,-345.328 824.301,-345.328 794.301,-345.328 794.301,-345.328 788.301,-345.328 782.301,-339.328 782.301,-333.328 782.301,-333.328 782.301,-321.328 782.301,-321.328 782.301,-315.328 788.301,-309.328 794.301,-309.328"/>
<text text-anchor="middle" x="809.301" y="-324.528" font-family="Times New Roman,serif" font-size="11.00">giraffe</text>
</g>
<!-- animal&#45;&#45;giraffe -->
<g id="edge25" class="edge"><title>animal--giraffe</title>
<path fill="none" stroke="black" stroke-width="0.5" d="M805.76,-383.462C806.554,-370.867 807.466,-356.42 808.165,-345.337"/>
<polygon fill="none" stroke="black" stroke-width="0.5" points="802.264,-383.29 805.127,-393.491 809.25,-383.731 802.264,-383.29"/>
</g>
<!-- twig -->
<g id="node7" class="node"><title>twig</title>
<path fill="aliceblue" stroke="black" stroke-width="0.5" d="M11.9334,-298.504C11.9334,-298.504 41.9334,-298.504 41.9334,-298.504 47.9334,-298.504 53.9334,-304.504 53.9334,-310.504 53.9334,-310.504 53.9334,-322.504 53.9334,-322.504 53.9334,-328.504 47.9334,-334.504 41.9334,-334.504 41.9334,-334.504 11.9334,-334.504 11.9334,-334.504 5.93337,-334.504 -0.0666343,-328.504 -0.0666343,-322.504 -0.0666343,-322.504 -0.0666343,-310.504 -0.0666343,-310.504 -0.0666343,-304.504 5.93337,-298.504 11.9334,-298.504"/>
<text text-anchor="middle" x="26.9334" y="-313.704" font-family="Times New Roman,serif" font-size="11.00">twig</text>
</g>
<!-- plant&#45;part -->
<g id="node8" class="node"><title>plant-part</title>
<path fill="aliceblue" stroke="black" stroke-width="0.5" d="M185.527,-260.708C185.527,-260.708 220.527,-260.708 220.527,-260.708 226.527,-260.708 232.527,-266.708 232.527,-272.708 232.527,-272.708 232.527,-284.708 232.527,-284.708 232.527,-290.708 226.527,-296.708 220.527,-296.708 220.527,-296.708 185.527,-296.708 185.527,-296.708 179.527,-296.708 173.527,-290.708 173.527,-284.708 173.527,-284.708 173.527,-272.708 173.527,-272.708 173.527,-266.708 179.527,-260.708 185.527,-260.708"/>
<text text-anchor="middle" x="203.027" y="-275.908" font-family="Times New Roman,serif" font-size="11.00">plant-part</text>
</g>
<!-- plant&#45;part&#45;&#45;fruiting&#45;body -->
<g id="edge8" class="edge"><title>plant-part--fruiting-body</title>
<path fill="none" stroke="black" stroke-width="0.5" d="M223.046,-304.985C247.549,-337.148 288.417,-390.791 309.838,-418.908"/>
<polygon fill="none" stroke="black" stroke-width="0.5" points="225.739,-302.744 216.894,-296.911 220.17,-306.986 225.739,-302.744"/>
</g>
<!-- plant&#45;part&#45;&#45;twig -->
<g id="edge4" class="edge"><title>plant-part--twig</title>
<path fill="none" stroke="black" stroke-width="0.5" d="M163.274,-287.24C129.942,-294.395 83.2397,-304.419 54.056,-310.683"/>
<polygon fill="none" stroke="black" stroke-width="0.5" points="164.112,-290.64 173.155,-285.12 162.643,-283.796 164.112,-290.64"/>
</g>
<!-- stem -->
<g id="node9" class="node"><title>stem</title>
<path fill="aliceblue" stroke="black" stroke-width="0.5" d="M78.0264,-368.393C78.0264,-368.393 108.026,-368.393 108.026,-368.393 114.026,-368.393 120.026,-374.393 120.026,-380.393 120.026,-380.393 120.026,-392.393 120.026,-392.393 120.026,-398.393 114.026,-404.393 108.026,-404.393 108.026,-404.393 78.0264,-404.393 78.0264,-404.393 72.0264,-404.393 66.0264,-398.393 66.0264,-392.393 66.0264,-392.393 66.0264,-380.393 66.0264,-380.393 66.0264,-374.393 72.0264,-368.393 78.0264,-368.393"/>
<text text-anchor="middle" x="93.0264" y="-383.593" font-family="Times New Roman,serif" font-size="11.00">stem</text>
</g>
<!-- plant&#45;part&#45;&#45;stem -->
<g id="edge5" class="edge"><title>plant-part--stem</title>
<path fill="none" stroke="black" stroke-width="0.5" d="M177.07,-304.119C157.019,-323.748 129.746,-350.446 111.778,-368.036"/>
<polygon fill="none" stroke="black" stroke-width="0.5" points="179.669,-306.472 184.367,-296.975 174.772,-301.47 179.669,-306.472"/>
</g>
<!-- leaf -->
<g id="node10" class="node"><title>leaf</title>
<path fill="aliceblue" stroke="black" stroke-width="0.5" d="M234.36,-122.853C234.36,-122.853 264.36,-122.853 264.36,-122.853 270.36,-122.853 276.36,-128.853 276.36,-134.853 276.36,-134.853 276.36,-146.853 276.36,-146.853 276.36,-152.853 270.36,-158.853 264.36,-158.853 264.36,-158.853 234.36,-158.853 234.36,-158.853 228.36,-158.853 222.36,-152.853 222.36,-146.853 222.36,-146.853 222.36,-134.853 222.36,-134.853 222.36,-128.853 228.36,-122.853 234.36,-122.853"/>
<text text-anchor="middle" x="249.36" y="-138.053" font-family="Times New Roman,serif" font-size="11.00">leaf</text>
</g>
<!-- plant&#45;part&#45;&#45;leaf -->
<g id="edge6" class="edge"><title>plant-part--leaf</title>
<path fill="none" stroke="black" stroke-width="0.5" d="M210.514,-250.735C215.139,-234.139 221.416,-212.758 227.913,-194.068 232.033,-182.213 237.294,-169.137 241.573,-158.913"/>
<polygon fill="none" stroke="black" stroke-width="0.5" points="207.137,-249.814 207.861,-260.384 213.887,-251.67 207.137,-249.814"/>
</g>
<!-- phloem -->
<g id="node16" class="node"><title>phloem</title>
<path fill="aliceblue" stroke="black" stroke-width="0.5" d="M298.651,-284.183C298.651,-284.183 328.651,-284.183 328.651,-284.183 334.651,-284.183 340.651,-290.183 340.651,-296.183 340.651,-296.183 340.651,-308.183 340.651,-308.183 340.651,-314.183 334.651,-320.183 328.651,-320.183 328.651,-320.183 298.651,-320.183 298.651,-320.183 292.651,-320.183 286.651,-314.183 286.651,-308.183 286.651,-308.183 286.651,-296.183 286.651,-296.183 286.651,-290.183 292.651,-284.183 298.651,-284.183"/>
<text text-anchor="middle" x="313.651" y="-299.383" font-family="Times New Roman,serif" font-size="11.00">phloem</text>
</g>
<!-- plant&#45;part&#45;&#45;phloem -->
<g id="edge13" class="edge"><title>plant-part--phloem</title>
<path fill="none" stroke="black" stroke-width="0.5" d="M242.474,-287.079C257.087,-290.18 273.313,-293.623 286.578,-296.438"/>
<polygon fill="none" stroke="black" stroke-width="0.5" points="243.181,-283.651 232.672,-284.999 241.728,-290.499 243.181,-283.651"/>
</g>
<!-- branch -->
<g id="node18" class="node"><title>branch</title>
<path fill="aliceblue" stroke="black" stroke-width="0.5" d="M31.4277,-224.059C31.4277,-224.059 61.4277,-224.059 61.4277,-224.059 67.4277,-224.059 73.4277,-230.059 73.4277,-236.059 73.4277,-236.059 73.4277,-248.059 73.4277,-248.059 73.4277,-254.059 67.4277,-260.059 61.4277,-260.059 61.4277,-260.059 31.4277,-260.059 31.4277,-260.059 25.4277,-260.059 19.4277,-254.059 19.4277,-248.059 19.4277,-248.059 19.4277,-236.059 19.4277,-236.059 19.4277,-230.059 25.4277,-224.059 31.4277,-224.059"/>
<text text-anchor="middle" x="46.4277" y="-239.259" font-family="Times New Roman,serif" font-size="11.00">branch</text>
</g>
<!-- plant&#45;part&#45;&#45;branch -->
<g id="edge15" class="edge"><title>plant-part--branch</title>
<path fill="none" stroke="black" stroke-width="0.5" d="M163.292,-269.409C135.199,-262.834 98.2804,-254.194 73.5236,-248.4"/>
<polygon fill="none" stroke="black" stroke-width="0.5" points="162.669,-272.858 173.203,-271.728 164.264,-266.042 162.669,-272.858"/>
</g>
<!-- root -->
<g id="node24" class="node"><title>root</title>
<path fill="aliceblue" stroke="black" stroke-width="0.5" d="M114.439,-158.954C114.439,-158.954 144.439,-158.954 144.439,-158.954 150.439,-158.954 156.439,-164.954 156.439,-170.954 156.439,-170.954 156.439,-182.954 156.439,-182.954 156.439,-188.954 150.439,-194.954 144.439,-194.954 144.439,-194.954 114.439,-194.954 114.439,-194.954 108.439,-194.954 102.439,-188.954 102.439,-182.954 102.439,-182.954 102.439,-170.954 102.439,-170.954 102.439,-164.954 108.439,-158.954 114.439,-158.954"/>
<text text-anchor="middle" x="129.439" y="-174.154" font-family="Times New Roman,serif" font-size="11.00">root</text>
</g>
<!-- plant&#45;part&#45;&#45;root -->
<g id="edge21" class="edge"><title>plant-part--root</title>
<path fill="none" stroke="black" stroke-width="0.5" d="M183.83,-252.164C170.815,-234.167 153.956,-210.855 142.481,-194.988"/>
<polygon fill="none" stroke="black" stroke-width="0.5" points="181.174,-254.464 189.871,-260.516 186.847,-250.362 181.174,-254.464"/>
</g>
<!-- xylem -->
<g id="node27" class="node"><title>xylem</title>
<path fill="aliceblue" stroke="black" stroke-width="0.5" d="M243.113,-197.268C243.113,-197.268 273.113,-197.268 273.113,-197.268 279.113,-197.268 285.113,-203.268 285.113,-209.268 285.113,-209.268 285.113,-221.268 285.113,-221.268 285.113,-227.268 279.113,-233.268 273.113,-233.268 273.113,-233.268 243.113,-233.268 243.113,-233.268 237.113,-233.268 231.113,-227.268 231.113,-221.268 231.113,-221.268 231.113,-209.268 231.113,-209.268 231.113,-203.268 237.113,-197.268 243.113,-197.268"/>
<text text-anchor="middle" x="258.113" y="-212.468" font-family="Times New Roman,serif" font-size="11.00">xylem</text>
</g>
<!-- plant&#45;part&#45;&#45;xylem -->
<g id="edge24" class="edge"><title>plant-part--xylem</title>
<path fill="none" stroke="black" stroke-width="0.5" d="M225.537,-252.784C231.142,-246.329 237.035,-239.542 242.244,-233.543"/>
<polygon fill="none" stroke="black" stroke-width="0.5" points="222.578,-250.853 218.665,-260.698 227.864,-255.442 222.578,-250.853"/>
</g>
<!-- elephant -->
<g id="node25" class="node"><title>elephant</title>
<path fill="aliceblue" stroke="black" stroke-width="0.5" d="M548.394,-147.3C548.394,-147.3 578.394,-147.3 578.394,-147.3 584.394,-147.3 590.394,-153.3 590.394,-159.3 590.394,-159.3 590.394,-171.3 590.394,-171.3 590.394,-177.3 584.394,-183.3 578.394,-183.3 578.394,-183.3 548.394,-183.3 548.394,-183.3 542.394,-183.3 536.394,-177.3 536.394,-171.3 536.394,-171.3 536.394,-159.3 536.394,-159.3 536.394,-153.3 542.394,-147.3 548.394,-147.3"/>
<text text-anchor="middle" x="563.394" y="-162.5" font-family="Times New Roman,serif" font-size="11.00">elephant</text>
</g>
<!-- herbivore&#45;&#45;elephant -->
<g id="edge22" class="edge"><title>herbivore--elephant</title>
<path fill="none" stroke="black" stroke-width="0.5" d="M643.835,-284.977C623.983,-255.442 592.622,-208.784 575.512,-183.329"/>
<polygon fill="none" stroke="black" stroke-width="0.5" points="641.114,-287.204 649.598,-293.551 646.924,-283.299 641.114,-287.204"/>
</g>
<!-- Mary&#45;01 -->
<g id="node30" class="node"><title>Mary-01</title>
<path fill="whitesmoke" stroke="black" stroke-width="0.5" d="M516.574,-217.442C516.574,-217.442 547.574,-217.442 547.574,-217.442 553.574,-217.442 559.574,-223.442 559.574,-229.442 559.574,-229.442 559.574,-241.442 559.574,-241.442 559.574,-247.442 553.574,-253.442 547.574,-253.442 547.574,-253.442 516.574,-253.442 516.574,-253.442 510.574,-253.442 504.574,-247.442 504.574,-241.442 504.574,-241.442 504.574,-229.442 504.574,-229.442 504.574,-223.442 510.574,-217.442 516.574,-217.442"/>
<text text-anchor="middle" x="532.074" y="-232.642" font-family="Times New Roman,serif" font-size="11.00">Mary-01</text>
</g>
<!-- herbivore&#45;&#45;Mary&#45;01 -->
<g id="edge29" class="edge"><title>herbivore--Mary-01</title>
<path fill="none" stroke="black" stroke-width="0.5" stroke-dasharray="5,2" d="M623.945,-289.496C603.403,-277.409 578.475,-262.743 559.772,-251.738"/>
<polygon fill="none" stroke="black" stroke-width="0.5" points="622.348,-292.617 632.742,-294.671 625.898,-286.584 622.348,-292.617"/>
</g>
<!-- Sophie&#45;01 -->
<g id="node31" class="node"><title>Sophie-01</title>
<path fill="whitesmoke" stroke="black" stroke-width="0.5" d="M712.058,-189.906C712.058,-189.906 748.058,-189.906 748.058,-189.906 754.058,-189.906 760.058,-195.906 760.058,-201.906 760.058,-201.906 760.058,-213.906 760.058,-213.906 760.058,-219.906 754.058,-225.906 748.058,-225.906 748.058,-225.906 712.058,-225.906 712.058,-225.906 706.058,-225.906 700.058,-219.906 700.058,-213.906 700.058,-213.906 700.058,-201.906 700.058,-201.906 700.058,-195.906 706.058,-189.906 712.058,-189.906"/>
<text text-anchor="middle" x="730.058" y="-205.106" font-family="Times New Roman,serif" font-size="11.00">Sophie-01</text>
</g>
<!-- herbivore&#45;&#45;Sophie&#45;01 -->
<g id="edge31" class="edge"><title>herbivore--Sophie-01</title>
<path fill="none" stroke="black" stroke-width="0.5" stroke-dasharray="5,2" d="M679.372,-285.142C691.514,-266.64 707.369,-242.48 718.088,-226.146"/>
<polygon fill="none" stroke="black" stroke-width="0.5" points="676.309,-283.43 673.748,-293.711 682.161,-287.271 676.309,-283.43"/>
</g>
<!-- lion -->
<g id="node19" class="node"><title>lion</title>
<path fill="aliceblue" stroke="black" stroke-width="0.5" d="M840.682,-140.501C840.682,-140.501 870.682,-140.501 870.682,-140.501 876.682,-140.501 882.682,-146.501 882.682,-152.501 882.682,-152.501 882.682,-164.501 882.682,-164.501 882.682,-170.501 876.682,-176.501 870.682,-176.501 870.682,-176.501 840.682,-176.501 840.682,-176.501 834.682,-176.501 828.682,-170.501 828.682,-164.501 828.682,-164.501 828.682,-152.501 828.682,-152.501 828.682,-146.501 834.682,-140.501 840.682,-140.501"/>
<text text-anchor="middle" x="855.682" y="-155.701" font-family="Times New Roman,serif" font-size="11.00">lion</text>
</g>
<!-- carnivore&#45;&#45;lion -->
<g id="edge16" class="edge"><title>carnivore--lion</title>
<path fill="none" stroke="black" stroke-width="0.5" d="M874.16,-243.372C869.614,-222.495 863.543,-194.606 859.622,-176.597"/>
<polygon fill="none" stroke="black" stroke-width="0.5" points="870.768,-244.245 876.315,-253.272 877.607,-242.756 870.768,-244.245"/>
</g>
<!-- Leo&#45;01 -->
<g id="node32" class="node"><title>Leo-01</title>
<path fill="whitesmoke" stroke="black" stroke-width="0.5" d="M681.858,-118.46C681.858,-118.46 711.858,-118.46 711.858,-118.46 717.858,-118.46 723.858,-124.46 723.858,-130.46 723.858,-130.46 723.858,-142.46 723.858,-142.46 723.858,-148.46 717.858,-154.46 711.858,-154.46 711.858,-154.46 681.858,-154.46 681.858,-154.46 675.858,-154.46 669.858,-148.46 669.858,-142.46 669.858,-142.46 669.858,-130.46 669.858,-130.46 669.858,-124.46 675.858,-118.46 681.858,-118.46"/>
<text text-anchor="middle" x="696.858" y="-133.66" font-family="Times New Roman,serif" font-size="11.00">Leo-01</text>
</g>
<!-- lion&#45;&#45;Leo&#45;01 -->
<g id="edge32" class="edge"><title>lion--Leo-01</title>
<path fill="none" stroke="black" stroke-width="0.5" stroke-dasharray="5,2" d="M818.246,-153.305C789.342,-149.294 750.027,-143.838 724.07,-140.236"/>
<polygon fill="none" stroke="black" stroke-width="0.5" points="817.993,-156.804 828.379,-154.712 818.955,-149.87 817.993,-156.804"/>
</g>
<!-- palm&#45;tree&#45;&#45;Mary&#45;01 -->
<g id="edge28" class="edge"><title>palm-tree--Mary-01</title>
<path fill="none" stroke="black" stroke-width="0.5" stroke-dasharray="5,2" d="M423.524,-402.381C449.567,-362.33 498.085,-287.713 520.353,-253.467"/>
<polygon fill="none" stroke="black" stroke-width="0.5" points="420.539,-400.551 418.022,-410.843 426.408,-404.367 420.539,-400.551"/>
</g>
<!-- parsnip -->
<g id="node23" class="node"><title>parsnip</title>
<path fill="aliceblue" stroke="black" stroke-width="0.5" d="M78.798,-0.724756C78.798,-0.724756 108.798,-0.724756 108.798,-0.724756 114.798,-0.724756 120.798,-6.72476 120.798,-12.7248 120.798,-12.7248 120.798,-24.7248 120.798,-24.7248 120.798,-30.7248 114.798,-36.7248 108.798,-36.7248 108.798,-36.7248 78.798,-36.7248 78.798,-36.7248 72.798,-36.7248 66.798,-30.7248 66.798,-24.7248 66.798,-24.7248 66.798,-12.7248 66.798,-12.7248 66.798,-6.72476 72.798,-0.724756 78.798,-0.724756"/>
<text text-anchor="middle" x="93.798" y="-15.9248" font-family="Times New Roman,serif" font-size="11.00">parsnip</text>
</g>
<!-- root&#45;&#45;parsnip -->
<g id="edge20" class="edge"><title>root--parsnip</title>
<path fill="none" stroke="black" stroke-width="0.5" d="M123.069,-148.676C115.802,-116.415 104.129,-64.5917 97.9485,-37.1513"/>
<polygon fill="none" stroke="black" stroke-width="0.5" points="119.738,-149.816 125.35,-158.803 126.567,-148.278 119.738,-149.816"/>
</g>
<!-- giraffe&#45;&#45;Sophie&#45;01 -->
<g id="edge30" class="edge"><title>giraffe--Sophie-01</title>
<path fill="none" stroke="black" stroke-width="0.5" stroke-dasharray="5,2" d="M791.637,-300.708C776.602,-278.049 755.401,-246.099 742.207,-226.214"/>
<polygon fill="none" stroke="black" stroke-width="0.5" points="788.82,-302.793 797.266,-309.19 794.653,-298.923 788.82,-302.793"/>
</g>
<!-- herb -->
<g id="node29" class="node"><title>herb</title>
<path fill="aliceblue" stroke="black" stroke-width="0.5" d="M196.922,-443.481C196.922,-443.481 226.922,-443.481 226.922,-443.481 232.922,-443.481 238.922,-449.481 238.922,-455.481 238.922,-455.481 238.922,-467.481 238.922,-467.481 238.922,-473.481 232.922,-479.481 226.922,-479.481 226.922,-479.481 196.922,-479.481 196.922,-479.481 190.922,-479.481 184.922,-473.481 184.922,-467.481 184.922,-467.481 184.922,-455.481 184.922,-455.481 184.922,-449.481 190.922,-443.481 196.922,-443.481"/>
<text text-anchor="middle" x="211.922" y="-458.681" font-family="Times New Roman,serif" font-size="11.00">herb</text>
</g>
<!-- herb&#45;&#45;plant -->
<g id="edge26" class="edge"><title>herb--plant</title>
<path fill="none" stroke="black" stroke-width="0.5" d="M231.925,-488.027C242.997,-502.721 256.477,-520.609 266.368,-533.735"/>
<polygon fill="none" stroke="black" stroke-width="0.5" points="234.543,-485.686 225.73,-479.806 228.953,-489.898 234.543,-485.686"/>
</g>
<!-- herb&#45;&#45;plant&#45;part -->
<g id="edge27" class="edge"><title>herb--plant-part</title>
<path fill="none" stroke="black" stroke-width="0.5" d="M210.531,-432.902C208.679,-394.852 205.458,-328.661 203.909,-296.828"/>
<polygon fill="none" stroke="black" stroke-width="0.5" points="207.054,-433.47 211.036,-443.288 214.046,-433.13 207.054,-433.47"/>
</g>
<!-- Leo&#45;01&#45;&#45;Mary&#45;01 -->
<g id="edge33" class="edge"><title>Leo-01--Mary-01</title>
<path fill="none" stroke="black" stroke-width="0.5" d="M669.647,-152.805C641.942,-169.447 598.83,-195.343 568.259,-213.706"/>
<polygon fill="black" stroke="black" stroke-width="0.5" points="559.6,-218.907 565.855,-209.901 563.886,-216.333 568.172,-213.758 568.172,-213.758 568.172,-213.758 563.886,-216.333 570.489,-217.616 559.6,-218.907 559.6,-218.907"/>
<text text-anchor="middle" x="605.017" y="-189.12" font-family="Times New Roman,serif" font-size="11.00">eats</text>
</g>
<!-- Leo&#45;01&#45;&#45;Sophie&#45;01 -->
<g id="edge34" class="edge"><title>Leo-01--Sophie-01</title>
<path fill="none" stroke="black" stroke-width="0.5" d="M705.236,-154.489C708.904,-162.382 713.288,-171.817 717.344,-180.546"/>
<polygon fill="black" stroke="black" stroke-width="0.5" points="721.568,-189.634 713.273,-182.462 719.461,-185.1 717.353,-180.565 717.353,-180.565 717.353,-180.565 719.461,-185.1 721.434,-178.669 721.568,-189.634 721.568,-189.634"/>
<text text-anchor="middle" x="703.782" y="-175.004" font-family="Times New Roman,serif" font-size="11.00">eats</text>
</g>
</g>
</svg>