<svg xmlns="http://www.w3.org/2000/svg" xmlns:xlink="http://www.w3.org/1999/xlink" width="1008pt" height="793pt" viewBox="0.00 0.00 1008.00 793.00">
<g id="graph0" class="graph" transform="scale(1 1) rotate(0) translate(4 789)">
<title>G</title>
<polygon fill="white" stroke="none" points="-4,4 -4,-789 1004,-789 1004,4 -4,4"/>
<!-- tasty&#45;plant -->
<g id="node1" class="node"><title>tasty-plant</title>
<path fill="aliceblue" stroke="black" stroke-width="0.5" d="M83.8652,-552.214C83.8652,-552.214 121.865,-552.214 121.865,-552.214 127.865,-552.214 133.865,-558.214 133.865,-564.214 133.865,-564.214 133.865,-576.214 133.865,-576.214 133.865,-582.214 127.865,-588.214 121.865,-588.214 121.865,-588.214 83.8652,-588.214 83.8652,-588.214 77.8652,-588.214 71.8652,-582.214 71.8652,-576.214 71.8652,-576.214 71.8652,-564.214 71.8652,-564.214 71.8652,-558.214 77.8652,-552.214 83.8652,-552.214"/>
<text text-anchor="middle" x="102.865" y="-567.414" font-family="Times New Roman,serif" font-size="11.00">tasty-plant</text>
</g>
<!-- plant -->
<g id="node2" class="node"><title>plant</title>
<path fill="aliceblue" stroke="black" stroke-width="0.5" d="M259.493,-569.639C259.493,-569.639 289.493,-569.639 289.493,-569.639 295.493,-569.639 301.493,-575.639 301.493,-581.639 301.493,-581.639 301.493,-593.639 301.493,-593.639 301.493,-599.639 295.493,-605.639 289.493,-605.639 289.493,-605.639 259.493,-605.639 259.493,-605.639 253.493,-605.639 247.493,-599.639 247.493,-593.639 247.493,-593.639 247.493,-581.639 247.493,-581.639 247.493,-575.639 253.493,-569.639 259.493,-569.639"/>
<text text-anchor="middle" x="274.493" y="-584.839" font-family="Times New Roman,serif" font-size="11.00">plant</text>
</g>
<!-- plant&#45;&#45;tasty&#45;plant -->
<g id="edge1" class="edge"><title>plant--tasty-plant</title>
<path fill="none" stroke="black" stroke-width="0.5" d="M236.947,-583.827C206.108,-580.696 162.943,-576.314 134,-573.375"/>
<polygon fill="none" stroke="black" stroke-width="0.5" points="236.996,-587.35 247.298,-584.878 237.703,-580.385 236.996,-587.35"/>
</g>
<!-- carnivorous&#45;plant -->
<g id="node15" class="node"><title>carnivorous-plant</title>
<path fill="aliceblue" stroke="black" stroke-width="0.5" d="M100.573,-713.107C100.573,-713.107 168.573,-713.107 168.573,-713.107 174.573,-713.107 180.573,-719.107 180.573,-725.107 180.573,-725.107 180.573,-737.107 180.573,-737.107 180.573,-743.107 174.573,-749.107 168.573,-749.107 168.573,-749.107 100.573,-749.107 100.573,-749.107 94.573,-749.107 88.573,-743.107 88.573,-737.107 88.573,-737.107 88.573,-725.107 88.573,-725.107 88.573,-719.107 94.573,-713.107 100.573,-713.107"/>
<text text-anchor="middle" x="134.573" y="-728.307" font-family="Times New Roman,serif" font-size="11.00">carnivorous-plant</text>
</g>
<!-- plant&#45;&#45;carnivorous&#45;plant -->
<g id="edge12" class="edge"><title>plant--carnivorous-plant</title>
<path fill="none" stroke="black" stroke-width="0.5" d="M249.691,-613.069C221.672,-641.799 176.778,-687.832 152.15,-713.084"/>
<polygon fill="none" stroke="black" stroke-width="0.5" points="252.296,-615.412 256.772,-605.809 247.284,-610.524 252.296,-615.412"/>
</g>
<!-- palm&#45;tree -->
<g id="node20" class="node"><title>palm-tree</title>
<path fill="aliceblue" stroke="black" stroke-width="0.5" d="M395.187,-428.052C395.187,-428.052 430.187,-428.052 430.187,-428.052 436.187,-428.052 442.187,-434.052 442.187,-440.052 442.187,-440.052 442.187,-452.052 442.187,-452.052 442.187,-458.052 436.187,-464.052 430.187,-464.052 430.187,-464.052 395.187,-464.052 395.187,-464.052 389.187,-464.052 383.187,-458.052 383.187,-452.052 383.187,-452.052 383.187,-440.052 383.187,-440.052 383.187,-434.052 389.187,-428.052 395.187,-428.052"/>
<text text-anchor="middle" x="412.687" y="-443.252" font-family="Times New Roman,serif" font-size="11.00">palm-tree</text>
</g>
<!-- plant&#45;&#45;palm&#45;tree -->
<g id="edge17" class="edge"><title>plant--palm-tree</title>
<path fill="none" stroke="black" stroke-width="0.5" d="M298.085,-561.754C311.588,-547.09 328.942,-528.498 344.768,-512.315 361.008,-495.708 379.963,-477.293 393.715,-464.1"/>
<polygon fill="none" stroke="black" stroke-width="0.5" points="295.198,-559.723 291.013,-569.456 300.355,-564.457 295.198,-559.723"/>
</g>
<!-- tree -->
<g id="node22" class="node"><title>tree</title>
<path fill="aliceblue" stroke="black" stroke-width="0.5" d="M390.372,-706.243C390.372,-706.243 420.372,-706.243 420.372,-706.243 426.372,-706.243 432.372,-712.243 432.372,-718.243 432.372,-718.243 432.372,-730.243 432.372,-730.243 432.372,-736.243 426.372,-742.243 420.372,-742.243 420.372,-742.243 390.372,-742.243 390.372,-742.243 384.372,-742.243 378.372,-736.243 378.372,-730.243 378.372,-730.243 378.372,-718.243 378.372,-718.243 378.372,-712.243 384.372,-706.243 390.372,-706.243"/>
<text text-anchor="middle" x="405.372" y="-721.443" font-family="Times New Roman,serif" font-size="11.00">tree</text>
</g>
<!-- plant&#45;&#45;tree -->
<g id="edge19" class="edge"><title>plant--tree</title>
<path fill="none" stroke="black" stroke-width="0.5" d="M299.096,-613.318C324.992,-640.347 365.101,-682.21 387.921,-706.028"/>
<polygon fill="none" stroke="black" stroke-width="0.5" points="301.318,-610.578 291.873,-605.779 296.264,-615.421 301.318,-610.578"/>
</g>
<!-- grass -->
<g id="node26" class="node"><title>grass</title>
<path fill="aliceblue" stroke="black" stroke-width="0.5" d="M248.156,-748.896C248.156,-748.896 278.156,-748.896 278.156,-748.896 284.156,-748.896 290.156,-754.896 290.156,-760.896 290.156,-760.896 290.156,-772.896 290.156,-772.896 290.156,-778.896 284.156,-784.896 278.156,-784.896 278.156,-784.896 248.156,-784.896 248.156,-784.896 242.156,-784.896 236.156,-778.896 236.156,-772.896 236.156,-772.896 236.156,-760.896 236.156,-760.896 236.156,-754.896 242.156,-748.896 248.156,-748.896"/>
<text text-anchor="middle" x="263.156" y="-764.096" font-family="Times New Roman,serif" font-size="11.00">grass</text>
</g>
<!-- plant&#45;&#45;grass -->
<g id="edge23" class="edge"><title>plant--grass</title>
<path fill="none" stroke="black" stroke-width="0.5" d="M272.701,-615.979C270.349,-653.166 266.288,-717.369 264.308,-748.673"/>
<polygon fill="none" stroke="black" stroke-width="0.5" points="276.205,-616.014 273.344,-605.813 269.219,-615.572 276.205,-616.014"/>
</g>
<!-- apple -->
<g id="node3" class="node"><title>apple</title>
<path fill="aliceblue" stroke="black" stroke-width="0.5" d="M450.963,-609.472C450.963,-609.472 480.963,-609.472 480.963,-609.472 486.963,-609.472 492.963,-615.472 492.963,-621.472 492.963,-621.472 492.963,-633.472 492.963,-633.472 492.963,-639.472 486.963,-645.472 480.963,-645.472 480.963,-645.472 450.963,-645.472 450.963,-645.472 444.963,-645.472 438.963,-639.472 438.963,-633.472 438.963,-633.472 438.963,-621.472 438.963,-621.472 438.963,-615.472 444.963,-609.472 450.963,-609.472"/>
<text text-anchor="middle" x="465.963" y="-624.672" font-family="Times New Roman,serif" font-size="11.00">apple</text>
</g>
<!-- fruiting&#45;body -->
<g id="node4" class="node"><title>fruiting-body</title>
<path fill="aliceblue" stroke="black" stroke-width="0.5" d="M359.968,-515.515C359.968,-515.515 407.968,-515.515 407.968,-515.515 413.968,-515.515 419.968,-521.515 419.968,-527.515 419.968,-527.515 419.968,-539.515 419.968,-539.515 419.968,-545.515 413.968,-551.515 407.968,-551.515 407.968,-551.515 359.968,-551.515 359.968,-551.515 353.968,-551.515 347.968,-545.515 347.968,-539.515 347.968,-539.515 347.968,-527.515 347.968,-527.515 347.968,-521.515 353.968,-515.515 359.968,-515.515"/>
<text text-anchor="middle" x="383.968" y="-530.715" font-family="Times New Roman,serif" font-size="11.00">fruiting-body</text>
</g>
<!-- fruiting&#45;body&#45;&#45;apple -->
<g id="edge2" class="edge"><title>fruiting-body--apple</title>
<path fill="none" stroke="black" stroke-width="0.5" d="M406.653,-559.509C420.498,-575.375 437.851,-595.259 450.202,-609.412"/>
<polygon fill="none" stroke="black" stroke-width="0.5" points="408.99,-556.864 399.777,-551.631 403.716,-561.467 408.99,-556.864"/>
</g>
<!-- berry -->
<g id="node12" class="node"><title>berry</title>
<path fill="aliceblue" stroke="black" stroke-width="0.5" d="M468.568,-508.738C468.568,-508.738 498.568,-508.738 498.568,-508.738 504.568,-508.738 510.568,-514.738 510.568,-520.738 510.568,-520.738 510.568,-532.738 510.568,-532.738 510.568,-538.738 504.568,-544.738 498.568,-544.738 498.568,-544.738 468.568,-544.738 468.568,-544.738 462.568,-544.738 456.568,-538.738 456.568,-532.738 456.568,-532.738 456.568,-520.738 456.568,-520.738 456.568,-514.738 462.568,-508.738 468.568,-508.738"/>
<text text-anchor="middle" x="483.568" y="-523.938" font-family="Times New Roman,serif" font-size="11.00">berry</text>
</g>
<!-- fruiting&#45;body&#45;&#45;berry -->
<g id="edge9" class="edge"><title>fruiting-body--berry</title>
<path fill="none" stroke="black" stroke-width="0.5" d="M430.449,-530.352C439.285,-529.751 448.262,-529.14 456.258,-528.596"/>
<polygon fill="none" stroke="black" stroke-width="0.5" points="429.947,-526.878 420.208,-531.049 430.422,-533.862 429.947,-526.878"/>
</g>
<!-- rock&#45;dassie -->
<g id="node5" class="node"><title>rock-dassie</title>
<path fill="aliceblue" stroke="black" stroke-width="0.5" d="M944.928,-454.431C944.928,-454.431 987.928,-454.431 987.928,-454.431 993.928,-454.431 999.928,-460.431 999.928,-466.431 999.928,-466.431 999.928,-478.431 999.928,-478.431 999.928,-484.431 993.928,-490.431 987.928,-490.431 987.928,-490.431 944.928,-490.431 944.928,-490.431 938.928,-490.431 932.928,-484.431 932.928,-478.431 932.928,-478.431 932.928,-466.431 932.928,-466.431 932.928,-460.431 938.928,-454.431 944.928,-454.431"/>
<text text-anchor="middle" x="966.428" y="-469.631" font-family="Times New Roman,serif" font-size="11.00">rock-dassie</text>
</g>
<!-- animal -->
<g id="node6" class="node"><title>animal</title>
<path fill="aliceblue" stroke="black" stroke-width="0.5" d="M788.747,-383.974C788.747,-383.974 818.747,-383.974 818.747,-383.974 824.747,-383.974 830.747,-389.974 830.747,-395.974 830.747,-395.974 830.747,-407.974 830.747,-407.974 830.747,-413.974 824.747,-419.974 818.747,-419.974 818.747,-419.974 788.747,-419.974 788.747,-419.974 782.747,-419.974 776.747,-413.974 776.747,-407.974 776.747,-407.974 776.747,-395.974 776.747,-395.974 776.747,-389.974 782.747,-383.974 788.747,-383.974"/>
<text text-anchor="middle" x="803.747" y="-399.174" font-family="Times New Roman,serif" font-size="11.00">animal</text>
</g>
<!-- animal&#45;&#45;rock&#45;dassie -->
<g id="edge3" class="edge"><title>animal--rock-dassie</title>
<path fill="none" stroke="black" stroke-width="0.5" d="M840.338,-417.821C868.092,-429.842 905.937,-446.232 932.907,-457.913"/>
<polygon fill="none" stroke="black" stroke-width="0.5" points="841.544,-414.529 830.976,-413.767 838.762,-420.953 841.544,-414.529"/>
</g>
<!-- warthog -->
<g id="node11" class="node"><title>warthog</title>
<path fill="aliceblue" stroke="black" stroke-width="0.5" d="M848.497,-571.78C848.497,-571.78 878.497,-571.78 878.497,-571.78 884.497,-571.78 890.497,-577.78 890.497,-583.78 890.497,-583.78 890.497,-595.78 890.497,-595.78 890.497,-601.78 884.497,-607.78 878.497,-607.78 878.497,-607.78 848.497,-607.78 848.497,-607.78 842.497,-607.78 836.497,-601.78 836.497,-595.78 836.497,-595.78 836.497,-583.78 836.497,-583.78 836.497,-577.78 842.497,-571.78 848.497,-571.78"/>
<text text-anchor="middle" x="863.497" y="-586.98" font-family="Times New Roman,serif" font-size="11.00">warthog</text>
</g>
<!-- animal&#45;&#45;warthog -->
<g id="edge7" class="edge"><title>animal--warthog</title>
<path fill="none" stroke="black" stroke-width="0.5" d="M812.547,-429.632C824.938,-468.581 847.188,-538.517 857.698,-571.551"/>
<polygon fill="none" stroke="black" stroke-width="0.5" points="815.844,-428.45 809.476,-419.981 809.173,-430.572 815.844,-428.45"/>
</g>
<!-- herbivore -->
<g id="node13" class="node"><title>herbivore</title>
<path fill="aliceblue" stroke="black" stroke-width="0.5" d="M753.556,-306.171C753.556,-306.171 787.556,-306.171 787.556,-306.171 793.556,-306.171 799.556,-312.171 799.556,-318.171 799.556,-318.171 799.556,-330.171 799.556,-330.171 799.556,-336.171 793.556,-342.171 787.556,-342.171 787.556,-342.171 753.556,-342.171 753.556,-342.171 747.556,-342.171 741.556,-336.171 741.556,-330.171 741.556,-330.171 741.556,-318.171 741.556,-318.171 741.556,-312.171 747.556,-306.171 753.556,-306.171"/>
<text text-anchor="middle" x="770.556" y="-321.371" font-family="Times New Roman,serif" font-size="11.00">herbivore</text>
</g>
<!-- animal&#45;&#45;herbivore -->
<g id="edge10" class="edge"><title>animal--herbivore</title>
<path fill="none" stroke="black" stroke-width="0.5" d="M792.065,-374.588C787.511,-363.915 782.416,-351.971 778.327,-342.388"/>
<polygon fill="none" stroke="black" stroke-width="0.5" points="788.906,-376.104 796.049,-383.929 795.345,-373.357 788.906,-376.104"/>
</g>
<!-- omnivore -->
<g id="node14" class="node"><title>omnivore</title>
<path fill="aliceblue" stroke="black" stroke-width="0.5" d="M710.992,-526.823C710.992,-526.823 743.992,-526.823 743.992,-526.823 749.992,-526.823 755.992,-532.823 755.992,-538.823 755.992,-538.823 755.992,-550.823 755.992,-550.823 755.992,-556.823 749.992,-562.823 743.992,-562.823 743.992,-562.823 710.992,-562.823 710.992,-562.823 704.992,-562.823 698.992,-556.823 698.992,-550.823 698.992,-550.823 698.992,-538.823 698.992,-538.823 698.992,-532.823 704.992,-526.823 710.992,-526.823"/>
<text text-anchor="middle" x="727.492" y="-542.023" font-family="Times New Roman,serif" font-size="11.00">omnivore</text>
</g>
<!-- animal&#45;&#45;omnivore -->
<g id="edge11" class="edge"><title>animal--omnivore</title>
<path fill="none" stroke="black" stroke-width="0.5" d="M789.272,-429.09C774.047,-457.612 750.504,-501.714 737.313,-526.427"/>
<polygon fill="none" stroke="black" stroke-width="0.5" points="792.468,-430.536 794.09,-420.066 786.293,-427.239 792.468,-430.536"/>
</g>
<!-- carnivore -->
<g id="node17" class="node"><title>carnivore</title>
<path fill="aliceblue" stroke="black" stroke-width="0.5" d="M762.399,-215.201C762.399,-215.201 796.399,-215.201 796.399,-215.201 802.399,-215.201 808.399,-221.201 808.399,-227.201 808.399,-227.201 808.399,-239.201 808.399,-239.201 808.399,-245.201 802.399,-251.201 796.399,-251.201 796.399,-251.201 762.399,-251.201 762.399,-251.201 756.399,-251.201 750.399,-245.201 750.399,-239.201 750.399,-239.201 750.399,-227.201 750.399,-227.201 750.399,-221.201 756.399,-215.201 762.399,-215.201"/>
<text text-anchor="middle" x="779.399" y="-230.401" font-family="Times New Roman,serif" font-size="11.00">carnivore</text>
</g>
<!-- animal&#45;&#45;carnivore -->
<g id="edge14" class="edge"><title>animal--carnivore</title>
<path fill="none" stroke="black" stroke-width="0.5" d="M805.793,-373.696C806.668,-353.781 806.723,-326.57 802.756,-302.971 799.728,-284.958 792.795,-265.298 787.264,-251.453"/>
<polygon fill="none" stroke="black" stroke-width="0.5" points="802.284,-373.767 805.243,-383.94 809.274,-374.143 802.284,-373.767"/>
</g>
<!-- impala -->
<g id="node21" class="node"><title>impala</title>
<path fill="aliceblue" stroke="black" stroke-width="0.5" d="M944.339,-298.958C944.339,-298.958 974.339,-298.958 974.339,-298.958 980.339,-298.958 986.339,-304.958 986.339,-310.958 986.339,-310.958 986.339,-322.958 986.339,-322.958 986.339,-328.958 980.339,-334.958 974.339,-334.958 974.339,-334.958 944.339,-334.958 944.339,-334.958 938.339,-334.958 932.339,-328.958 932.339,-322.958 932.339,-322.958 932.339,-310.958 932.339,-310.958 932.339,-304.958 938.339,-298.958 944.339,-298.958"/>
<text text-anchor="middle" x="959.339" y="-314.158" font-family="Times New Roman,serif" font-size="11.00">impala</text>
</g>
<!-- animal&#45;&#45;impala -->
<g id="edge18" class="edge"><title>animal--impala</title>
<path fill="none" stroke="black" stroke-width="0.5" d="M839.987,-382.172C868.197,-366.759 906.725,-345.707 932.287,-331.739"/>
<polygon fill="none" stroke="black" stroke-width="0.5" points="837.947,-379.299 830.849,-387.165 841.303,-385.442 837.947,-379.299"/>
</g>
<!-- giraffe -->
<g id="node28" class="node"><title>giraffe</title>
<path fill="aliceblue" stroke="black" stroke-width="0.5" d="M678.865,-420.24C678.865,-420.24 708.865,-420.24 708.865,-420.24 714.865,-420.24 720.865,-426.24 720.865,-432.24 720.865,-432.24 720.865,-444.24 720.865,-444.24 720.865,-450.24 714.865,-456.24 708.865,-456.24 708.865,-456.24 678.865,-456.24 678.865,-456.24 672.865,-456.24 666.865,-450.24 666.865,-444.24 666.865,-444.24 666.865,-432.24 666.865,-432.24 666.865,-426.24 672.865,-420.24 678.865,-420.24"/>
<text text-anchor="middle" x="693.865" y="-435.44" font-family="Times New Roman,serif" font-size="11.00">giraffe</text>
</g>
<!-- animal&#45;&#45;giraffe -->
<g id="edge25" class="edge"><title>animal--giraffe</title>
<path fill="none" stroke="black" stroke-width="0.5" d="M767.067,-414.08C752.047,-419.037 734.974,-424.672 721.096,-429.253"/>
<polygon fill="none" stroke="black" stroke-width="0.5" points="768.186,-417.396 776.586,-410.938 765.992,-410.749 768.186,-417.396"/>
</g>
<!-- twig -->
<g id="node7" class="node"><title>twig</title>
<path fill="aliceblue" stroke="black" stroke-width="0.5" d="M44.6031,-427.994C44.6031,-427.994 74.6031,-427.994 74.6031,-427.994 80.6031,-427.994 86.6031,-433.994 86.6031,-439.994 86.6031,-439.994 86.6031,-451.994 86.6031,-451.994 86.6031,-457.994 80.6031,-463.994 74.6031,-463.994 74.6031,-463.994 44.6031,-463.994 44.6031,-463.994 38.6031,-463.994 32.6031,-457.994 32.6031,-451.994 32.6031,-451.994 32.6031,-439.994 32.6031,-439.994 32.6031,-433.994 38.6031,-427.994 44.6031,-427.994"/>
<text text-anchor="middle" x="59.6031" y="-443.194" font-family="Times New Roman,serif" font-size="11.00">twig</text>
</g>
<!-- plant&#45;part -->
<g id="node8" class="node"><title>plant-part</title>
<path fill="aliceblue" stroke="black" stroke-width="0.5" d="M199.137,-313.632C199.137,-313.632 234.137,-313.632 234.137,-313.632 240.137,-313.632 246.137,-319.632 246.137,-325.632 246.137,-325.632 246.137,-337.632 246.137,-337.632 246.137,-343.632 240.137,-349.632 234.137,-349.632 234.137,-349.632 199.137,-349.632 199.137,-349.632 193.137,-349.632 187.137,-343.632 187.137,-337.632 187.137,-337.632 187.137,-325.632 187.137,-325.632 187.137,-319.632 193.137,-313.632 199.137,-313.632"/>
<text text-anchor="middle" x="216.637" y="-328.832" font-family="Times New Roman,serif" font-size="11.00">plant-part</text>
</g>
<!-- plant&#45;part&#45;&#45;fruiting&#45;body -->
<g id="edge8" class="edge"><title>plant-part--fruiting-body</title>
<path fill="none" stroke="black" stroke-width="0.5" d="M230.658,-358.553C239.428,-374.431 251.446,-394.578 264.161,-411.068 295.214,-451.344 338.238,-492.448 363.385,-515.303"/>
<polygon fill="none" stroke="black" stroke-width="0.5" points="233.733,-356.88 225.889,-349.758 227.579,-360.217 233.733,-356.88"/>
</g>
<!-- plant&#45;part&#45;&#45;twig -->
<g id="edge4" class="edge"><title>plant-part--twig</title>
<path fill="none" stroke="black" stroke-width="0.5" d="M183.392,-355.843C153.768,-377.417 111.085,-408.501 84.3692,-427.957"/>
<polygon fill="none" stroke="black" stroke-width="0.5" points="185.731,-358.469 191.754,-349.753 181.61,-352.811 185.731,-358.469"/>
</g>
<!-- stem -->
<g id="node9" class="node"><title>stem</title>
<path fill="aliceblue" stroke="black" stroke-width="0.5" d="M11.9949,-315.569C11.9949,-315.569 41.9949,-315.569 41.9949,-315.569 47.9949,-315.569 53.9949,-321.569 53.9949,-327.569 53.9949,-327.569 53.9949,-339.569 53.9949,-339.569 53.9949,-345.569 47.9949,-351.569 41.9949,-351.569 41.9949,-351.569 11.9949,-351.569 11.9949,-351.569 5.99489,-351.569 -0.00510659,-345.569 -0.00510659,-339.569 -0.00510659,-339.569 -0.00510659,-327.569 -0.00510659,-327.569 -0.00510659,-321.569 5.99489,-315.569 11.9949,-315.569"/>
<text text-anchor="middle" x="26.9949" y="-330.769" font-family="Times New Roman,serif" font-size="11.00">stem</text>
</g>
<!-- plant&#45;part&#45;&#45;stem -->
<g id="edge5" class="edge"><title>plant-part--stem</title>
<path fill="none" stroke="black" stroke-width="0.5" d="M176.643,-332.04C139.872,-332.416 86.3438,-332.963 54.2669,-333.291"/>
<polygon fill="none" stroke="black" stroke-width="0.5" points="177.042,-335.537 187.005,-331.935 176.97,-328.537 177.042,-335.537"/>
</g>
<!-- leaf -->
<g id="node10" class="node"><title>leaf</title>
<path fill="aliceblue" stroke="black" stroke-width="0.5" d="M245.966,-221.89C245.966,-221.89 275.966,-221.89 275.966,-221.89 281.966,-221.89 287.966,-227.89 287.966,-233.89 287.966,-233.89 287.966,-245.89 287.966,-245.89 287.966,-251.89 281.966,-257.89 275.966,-257.89 275.966,-257.89 245.966,-257.89 245.966,-257.89 239.966,-257.89 233.966,-251.89 233.966,-245.89 233.966,-245.89 233.966,-233.89 233.966,-233.89 233.966,-227.89 239.966,-221.89 245.966,-221.89"/>
<text text-anchor="middle" x="260.966" y="-237.09" font-family="Times New Roman,serif" font-size="11.00">leaf</text>
</g>
<!-- plant&#45;part&#45;&#45;leaf -->
<g id="edge6" class="edge"><title>plant-part--leaf</title>
<path fill="none" stroke="black" stroke-width="0.5" d="M229.884,-304.215C237.111,-289.259 245.855,-271.162 252.226,-257.978"/>
<polygon fill="none" stroke="black" stroke-width="0.5" points="226.594,-302.98 225.395,-313.507 232.897,-306.025 226.594,-302.98"/>
</g>
<!-- phloem -->
<g id="node16" class="node"><title>phloem</title>
<path fill="aliceblue" stroke="black" stroke-width="0.5" d="M279.361,-371.868C279.361,-371.868 309.361,-371.868 309.361,-371.868 315.361,-371.868 321.361,-377.868 321.361,-383.868 321.361,-383.868 321.361,-395.868 321.361,-395.868 321.361,-401.868 315.361,-407.868 309.361,-407.868 309.361,-407.868 279.361,-407.868 279.361,-407.868 273.361,-407.868 267.361,-401.868 267.361,-395.868 267.361,-395.868 267.361,-383.868 267.361,-383.868 267.361,-377.868 273.361,-371.868 279.361,-371.868"/>
<text text-anchor="middle" x="294.361" y="-387.068" font-family="Times New Roman,serif" font-size="11.00">phloem</text>
</g>
<!-- plant&#45;part&#45;&#45;phloem -->
<g id="edge13" class="edge"><title>plant-part--phloem</title>
<path fill="none" stroke="black" stroke-width="0.5" d="M248.956,-355.848C256.07,-361.178 263.484,-366.733 270.209,-371.772"/>
<polygon fill="none" stroke="black" stroke-width="0.5" points="250.905,-352.934 240.803,-349.739 246.707,-358.536 250.905,-352.934"/>
</g>
<!-- branch -->
<g id="node18" class="node"><title>branch</title>
<path fill="aliceblue" stroke="black" stroke-width="0.5" d="M146.419,-231.172C146.419,-231.172 176.419,-231.172 176.419,-231.172 182.419,-231.172 188.419,-237.172 188.419,-243.172 188.419,-243.172 188.419,-255.172 188.419,-255.172 188.419,-261.172 182.419,-267.172 176.419,-267.172 176.419,-267.172 146.419,-267.172 146.419,-267.172 140.419,-267.172 134.419,-261.172 134.419,-255.172 134.419,-255.172 134.419,-243.172 134.419,-243.172 134.419,-237.172 140.419,-231.172 146.419,-231.172"/>
<text text-anchor="middle" x="161.419" y="-246.372" font-family="Times New Roman,serif" font-size="11.00">branch</text>
</g>
<!-- plant&#45;part&#45;&#45;branch -->
<g id="edge15" class="edge"><title>plant-part--branch</title>
<path fill="none" stroke="black" stroke-width="0.5" d="M198.692,-304.834C190.495,-292.592 180.996,-278.408 173.64,-267.422"/>
<polygon fill="none" stroke="black" stroke-width="0.5" points="195.91,-306.97 204.382,-313.331 201.726,-303.075 195.91,-306.97"/>
</g>
<!-- root -->
<g id="node24" class="node"><title>root</title>
<path fill="aliceblue" stroke="black" stroke-width="0.5" d="M156.754,-149.137C156.754,-149.137 186.754,-149.137 186.754,-149.137 192.754,-149.137 198.754,-155.137 198.754,-161.137 198.754,-161.137 198.754,-173.137 198.754,-173.137 198.754,-179.137 192.754,-185.137 186.754,-185.137 186.754,-185.137 156.754,-185.137 156.754,-185.137 150.754,-185.137 144.754,-179.137 144.754,-173.137 144.754,-173.137 144.754,-161.137 144.754,-161.137 144.754,-155.137 150.754,-149.137 156.754,-149.137"/>
<text text-anchor="middle" x="171.754" y="-164.337" font-family="Times New Roman,serif" font-size="11.00">root</text>
</g>
<!-- plant&#45;part&#45;&#45;root -->
<g id="edge21" class="edge"><title>plant-part--root</title>
<path fill="none" stroke="black" stroke-width="0.5" d="M210.524,-303.699C205.786,-282.746 198.832,-253.418 191.619,-227.972 187.529,-213.542 182.228,-197.413 178.131,-185.39"/>
<polygon fill="none" stroke="black" stroke-width="0.5" points="207.127,-304.548 212.725,-313.542 213.958,-303.019 207.127,-304.548"/>
</g>
<!-- xylem -->
<g id="node27" class="node"><title>xylem</title>
<path fill="aliceblue" stroke="black" stroke-width="0.5" d="M320.731,-265.591C320.731,-265.591 350.731,-265.591 350.731,-265.591 356.731,-265.591 362.731,-271.591 362.731,-277.591 362.731,-277.591 362.731,-289.591 362.731,-289.591 362.731,-295.591 356.731,-301.591 350.731,-301.591 350.731,-301.591 320.731,-301.591 320.731,-301.591 314.731,-301.591 308.731,-295.591 308.731,-289.591 308.731,-289.591 308.731,-277.591 308.731,-277.591 308.731,-271.591 314.731,-265.591 320.731,-265.591"/>
<text text-anchor="middle" x="335.731" y="-280.791" font-family="Times New Roman,serif" font-size="11.00">xylem</text>
</g>
<!-- plant&#45;part&#45;&#45;xylem -->
<g id="edge24" class="edge"><title>plant-part--xylem</title>
<path fill="none" stroke="black" stroke-width="0.5" d="M256.132,-315.7C273.269,-308.787 292.915,-300.862 308.402,-294.615"/>
<polygon fill="none" stroke="black" stroke-width="0.5" points="254.347,-312.646 246.382,-319.633 256.966,-319.138 254.347,-312.646"/>
</g>
<!-- elephant -->
<g id="node25" class="node"><title>elephant</title>
<path fill="aliceblue" stroke="black" stroke-width="0.5" d="M847.222,-208.51C847.222,-208.51 877.222,-208.51 877.222,-208.51 883.222,-208.51 889.222,-214.51 889.222,-220.51 889.222,-220.51 889.222,-232.51 889.222,-232.51 889.222,-238.51 883.222,-244.51 877.222,-244.51 877.222,-244.51 847.222,-244.51 847.222,-244.51 841.222,-244.51 835.222,-238.51 835.222,-232.51 835.222,-232.51 835.222,-220.51 835.222,-220.51 835.222,-214.51 841.222,-208.51 847.222,-208.51"/>
<text text-anchor="middle" x="862.222" y="-223.71" font-family="Times New Roman,serif" font-size="11.00">elephant</text>
</g>
<!-- herbivore&#45;&#45;elephant -->
<g id="edge22" class="edge"><title>herbivore--elephant</title>
<path fill="none" stroke="black" stroke-width="0.5" d="M794.719,-298.428C810.552,-281.559 830.868,-259.915 845.057,-244.797"/>
<polygon fill="none" stroke="black" stroke-width="0.5" points="792.089,-296.115 787.798,-305.802 797.193,-300.906 792.089,-296.115"/>
</g>
<!-- Mary&#45;01 -->
<g id="node30" class="node"><title>Mary-01</title>
<path fill="whitesmoke" stroke="black" stroke-width="0.5" d="M538.068,-287.023C538.068,-287.023 569.068,-287.023 569.068,-287.023 575.068,-287.023 581.068,-293.023 581.068,-299.023 581.068,-299.023 581.068,-311.023 581.068,-311.023 581.068,-317.023 575.068,-323.023 569.068,-323.023 569.068,-323.023 538.068,-323.023 538.068,-323.023 532.068,-323.023 526.068,-317.023 526.068,-311.023 526.068,-311.023 526.068,-299.023 526.068,-299.023 526.068,-293.023 532.068,-287.023 538.068,-287.023"/>
<text text-anchor="middle" x="553.568" y="-302.223" font-family="Times New Roman,serif" font-size="11.00">Mary-01</text>
</g>
<!-- herbivore&#45;&#45;Mary&#45;01 -->
<g id="edge29" class="edge"><title>herbivore--Mary-01</title>
<path fill="none" stroke="black" stroke-width="0.5" stroke-dasharray="5,2" d="M731.121,-320.691C687.806,-316.869 619.356,-310.828 581.341,-307.474"/>
<polygon fill="none" stroke="black" stroke-width="0.5" points="731.023,-324.196 741.292,-321.589 731.638,-317.223 731.023,-324.196"/>
</g>
<!-- Sophie&#45;01 -->
<g id="node31" class="node"><title>Sophie-01</title>
<path fill="whitesmoke" stroke="black" stroke-width="0.5" d="M606.246,-267.104C606.246,-267.104 642.246,-267.104 642.246,-267.104 648.246,-267.104 654.246,-273.104 654.246,-279.104 654.246,-279.104 654.246,-291.104 654.246,-291.104 654.246,-297.104 648.246,-303.104 642.246,-303.104 642.246,-303.104 606.246,-303.104 606.246,-303.104 600.246,-303.104 594.246,-297.104 594.246,-291.104 594.246,-291.104 594.246,-279.104 594.246,-279.104 594.246,-273.104 600.246,-267.104 606.246,-267.104"/>
<text text-anchor="middle" x="624.246" y="-282.304" font-family="Times New Roman,serif" font-size="11.00">Sophie-01</text>
</g>
<!-- herbivore&#45;&#45;Sophie&#45;01 -->
<g id="edge31" class="edge"><title>herbivore--Sophie-01</title>
<path fill="none" stroke="black" stroke-width="0.5" stroke-dasharray="5,2" d="M731.382,-313.711C707.233,-307.263 676.733,-299.119 654.457,-293.171"/>
<polygon fill="none" stroke="black" stroke-width="0.5" points="730.735,-317.161 741.3,-316.359 732.541,-310.398 730.735,-317.161"/>
</g>
<!-- lion -->
<g id="node19" class="node"><title>lion</title>
<path fill="aliceblue" stroke="black" stroke-width="0.5" d="M664.364,-71.6807C664.364,-71.6807 694.364,-71.6807 694.364,-71.6807 700.364,-71.6807 706.364,-77.6807 706.364,-83.6807 706.364,-83.6807 706.364,-95.6807 706.364,-95.6807 706.364,-101.681 700.364,-107.681 694.364,-107.681 694.364,-107.681 664.364,-107.681 664.364,-107.681 658.364,-107.681 652.364,-101.681 652.364,-95.6807 652.364,-95.6807 652.364,-83.6807 652.364,-83.6807 652.364,-77.6807 658.364,-71.6807 664.364,-71.6807"/>
<text text-anchor="middle" x="679.364" y="-86.8807" font-family="Times New Roman,serif" font-size="11.00">lion</text>
</g>
<!-- carnivore&#45;&#45;lion -->
<g id="edge16" class="edge"><title>carnivore--lion</title>
<path fill="none" stroke="black" stroke-width="0.5" d="M760.894,-206.652C740.818,-177.849 709.313,-132.649 691.93,-107.71"/>
<polygon fill="none" stroke="black" stroke-width="0.5" points="758.14,-208.822 766.729,-215.024 763.882,-204.819 758.14,-208.822"/>
</g>
<!-- Leo&#45;01 -->
<g id="node32" class="node"><title>Leo-01</title>
<path fill="whitesmoke" stroke="black" stroke-width="0.5" d="M557.941,-168.91C557.941,-168.91 587.941,-168.91 587.941,-168.91 593.941,-168.91 599.941,-174.91 599.941,-180.91 599.941,-180.91 599.941,-192.91 599.941,-192.91 599.941,-198.91 593.941,-204.91 587.941,-204.91 587.941,-204.91 557.941,-204.91 557.941,-204.91 551.941,-204.91 545.941,-198.91 545.941,-192.91 545.941,-192.91 545.941,-180.91 545.941,-180.91 545.941,-174.91 551.941,-168.91 557.941,-168.91"/>
<text text-anchor="middle" x="572.941" y="-184.11" font-family="Times New Roman,serif" font-size="11.00">Leo-01</text>
</g>
<!-- lion&#45;&#45;Leo&#45;01 -->
<g id="edge32" class="edge"><title>lion--Leo-01</title>
<path fill="none" stroke="black" stroke-width="0.5" stroke-dasharray="5,2" d="M651.807,-114.857C633.354,-131.716 609.491,-153.517 592.869,-168.704"/>
<polygon fill="none" stroke="black" stroke-width="0.5" points="654.325,-117.298 659.347,-107.969 649.603,-112.13 654.325,-117.298"/>
</g>
<!-- palm&#45;tree&#45;&#45;Mary&#45;01 -->
<g id="edge28" class="edge"><title>palm-tree--Mary-01</title>
<path fill="none" stroke="black" stroke-width="0.5" stroke-dasharray="5,2" d="M437.924,-420.789C466.015,-392.668 510.714,-347.922 535.509,-323.102"/>
<polygon fill="none" stroke="black" stroke-width="0.5" points="435.408,-418.355 430.817,-427.903 440.36,-423.302 435.408,-418.355"/>
</g>
<!-- parsnip -->
<g id="node23" class="node"><title>parsnip</title>
<path fill="aliceblue" stroke="black" stroke-width="0.5" d="M65.1395,-0.963371C65.1395,-0.963371 95.1395,-0.963371 95.1395,-0.963371 101.139,-0.963371 107.139,-6.96337 107.139,-12.9634 107.139,-12.9634 107.139,-24.9634 107.139,-24.9634 107.139,-30.9634 101.139,-36.9634 95.1395,-36.9634 95.1395,-36.9634 65.1395,-36.9634 65.1395,-36.9634 59.1395,-36.9634 53.1395,-30.9634 53.1395,-24.9634 53.1395,-24.9634 53.1395,-12.9634 53.1395,-12.9634 53.1395,-6.96337 59.1395,-0.963371 65.1395,-0.963371"/>
<text text-anchor="middle" x="80.1395" y="-16.1634" font-family="Times New Roman,serif" font-size="11.00">parsnip</text>
</g>
<!-- root&#45;&#45;parsnip -->
<g id="edge20" class="edge"><title>root--parsnip</title>
<path fill="none" stroke="black" stroke-width="0.5" d="M155.173,-140.32C136.735,-110.5 107.451,-63.136 91.465,-37.2809"/>
<polygon fill="none" stroke="black" stroke-width="0.5" points="152.284,-142.303 160.52,-148.968 158.238,-138.621 152.284,-142.303"/>
</g>
<!-- giraffe&#45;&#45;Sophie&#45;01 -->
<g id="edge30" class="edge"><title>giraffe--Sophie-01</title>
<path fill="none" stroke="black" stroke-width="0.5" stroke-dasharray="5,2" d="M681.335,-410.677C667.189,-379.563 644.579,-329.829 632.495,-303.248"/>
<polygon fill="none" stroke="black" stroke-width="0.5" points="678.281,-412.417 685.606,-420.072 684.653,-409.52 678.281,-412.417"/>
</g>
<!-- herb -->
<g id="node29" class="node"><title>herb</title>
<path fill="aliceblue" stroke="black" stroke-width="0.5" d="M186.22,-497.188C186.22,-497.188 216.22,-497.188 216.22,-497.188 222.22,-497.188 228.22,-503.188 228.22,-509.188 228.22,-509.188 228.22,-521.188 228.22,-521.188 228.22,-527.188 222.22,-533.188 216.22,-533.188 216.22,-533.188 186.22,-533.188 186.22,-533.188 180.22,-533.188 174.22,-527.188 174.22,-521.188 174.22,-521.188 174.22,-509.188 174.22,-509.188 174.22,-503.188 180.22,-497.188 186.22,-497.188"/>
<text text-anchor="middle" x="201.22" y="-512.388" font-family="Times New Roman,serif" font-size="11.00">herb</text>
</g>
<!-- herb&#45;&#45;plant -->
<g id="edge26" class="edge"><title>herb--plant</title>
<path fill="none" stroke="black" stroke-width="0.5" d="M226.853,-540.533C236.551,-550.122 247.382,-560.831 256.263,-569.613"/>
<polygon fill="none" stroke="black" stroke-width="0.5" points="229.282,-538.012 219.71,-533.47 224.36,-542.99 229.282,-538.012"/>
</g>
<!-- herb&#45;&#45;plant&#45;part -->
<g id="edge27" class="edge"><title>herb--plant-part</title>
<path fill="none" stroke="black" stroke-width="0.5" d="M203.63,-486.486C206.84,-448.273 212.423,-381.799 215.109,-349.829"/>
<polygon fill="none" stroke="black" stroke-width="0.5" points="200.104,-486.659 202.754,-496.916 207.079,-487.245 200.104,-486.659"/>
</g>
<!-- Leo&#45;01&#45;&#45;Mary&#45;01 -->
<g id="edge33" class="edge"><title>Leo-01--Mary-01</title>
<path fill="none" stroke="black" stroke-width="0.5" d="M569.957,-205.106C566.805,-224.323 561.796,-254.862 558.144,-277.124"/>
<polygon fill="black" stroke="black" stroke-width="0.5" points="556.525,-287 553.703,-276.403 557.334,-282.066 558.143,-277.132 558.143,-277.132 558.143,-277.132 557.334,-282.066 562.584,-277.86 556.525,-287 556.525,-287"/>
<text text-anchor="middle" x="553.749" y="-249.201" font-family="Times New Roman,serif" font-size="11.00">eats</text>
</g>
<!-- Leo&#45;01&#45;&#45;Sophie&#45;01 -->
<g id="edge34" class="edge"><title>Leo-01--Sophie-01</title>
<path fill="none" stroke="black" stroke-width="0.5" d="M582.351,-204.92C590.113,-219.776 601.245,-241.082 610.083,-257.998"/>
<polygon fill="black" stroke="black" stroke-width="0.5" points="614.722,-266.875 606.102,-260.096 612.406,-262.444 610.091,-258.012 610.091,-258.012 610.091,-258.012 612.406,-262.444 614.079,-255.928 614.722,-266.875 614.722,-266.875"/>
<text text-anchor="middle" x="589.056" y="-239.135" font-family="Times New Roman,serif" font-size="11.00">eats</text>
</g>
</g>
</svg>