<svg xmlns="http://www.w3.org/2000/svg" xmlns:xlink="http://www.w3.org/1999/xlink" width="1662pt" height="1808pt" viewBox="0.00 0.00 1662.00 1808.00">
<g id="graph0" class="graph" transform="scale(1 1) rotate(0) translate(4 1804)">
<title>G</title>
<polygon fill="white" stroke="none" points="-4,4 -4,-1804 1658,-1804 1658,4 -4,4"/>
<!-- lockdown -->
<g id="node1" class="node"><title>lockdown</title>
<path fill="aliceblue" stroke="black" stroke-width="0.5" d="M486.087,-784.326C486.087,-784.326 521.087,-784.326 521.087,-784.326 527.087,-784.326 533.087,-790.326 533.087,-796.326 533.087,-796.326 533.087,-808.326 533.087,-808.326 533.087,-814.326 527.087,-820.326 521.087,-820.326 521.087,-820.326 486.087,-820.326 486.087,-820.326 480.087,-820.326 474.087,-814.326 474.087,-808.326 474.087,-808.326 474.087,-796.326 474.087,-796.326 474.087,-790.326 480.087,-784.326 486.087,-784.326"/>
<text text-anchor="middle" x="503.587" y="-799.526" font-family="Times New Roman,serif" font-size="11.00">lockdown</text>
</g>
<!-- Lockdown&#45;California -->
<g id="node17" class="node"><title>Lockdown-California</title>
<path fill="whitesmoke" stroke="black" stroke-width="0.5" d="M12.2371,-1017.75C12.2371,-1017.75 211.237,-1017.75 211.237,-1017.75 217.237,-1017.75 223.237,-1023.75 223.237,-1029.75 223.237,-1029.75 223.237,-1065.75 223.237,-1065.75 223.237,-1071.75 217.237,-1077.75 211.237,-1077.75 211.237,-1077.75 12.2371,-1077.75 12.2371,-1077.75 6.23712,-1077.75 0.237116,-1071.75 0.237116,-1065.75 0.237116,-1065.75 0.237116,-1029.75 0.237116,-1029.75 0.237116,-1023.75 6.23712,-1017.75 12.2371,-1017.75"/>
<text text-anchor="middle" x="111.737" y="-1064.95" font-family="Times New Roman,serif" font-size="11.00">Lockdown-California</text>
<polyline fill="none" stroke="black" stroke-width="0.5" points="0.237116,-1057.75 223.237,-1057.75 "/>
<text text-anchor="middle" x="42.7371" y="-1044.95" font-family="Times New Roman,serif" font-size="11.00">was-withdrawn</text>
<polyline fill="none" stroke="black" stroke-width="0.5" points="85.2371,-1037.75 85.2371,-1057.75 "/>
<text text-anchor="middle" x="154.237" y="-1044.95" font-family="Times New Roman,serif" font-size="11.00">2020-05-08T00:00:00+02:00</text>
<polyline fill="none" stroke="black" stroke-width="0.5" points="0.237116,-1037.75 223.237,-1037.75 "/>
<text text-anchor="middle" x="42.2371" y="-1024.95" font-family="Times New Roman,serif" font-size="11.00">was-introduced</text>
<polyline fill="none" stroke="black" stroke-width="0.5" points="84.2371,-1017.75 84.2371,-1037.75 "/>
<text text-anchor="middle" x="153.737" y="-1024.95" font-family="Times New Roman,serif" font-size="11.00">2020-03-19T00:00:00+01:00</text>
</g>
<!-- lockdown&#45;&#45;Lockdown&#45;California -->
<g id="edge14" class="edge"><title>lockdown--Lockdown-California</title>
<path fill="none" stroke="black" stroke-width="0.5" stroke-dasharray="5,2" d="M493.313,-829.988C481.869,-857.337 460.915,-898.682 430.713,-924.157 412.044,-939.904 285.66,-986.448 197.701,-1017.71"/>
<polygon fill="none" stroke="black" stroke-width="0.5" points="496.605,-831.184 497.099,-820.6 490.113,-828.566 496.605,-831.184"/>
</g>
<!-- Lockdown&#45;Australia -->
<g id="node19" class="node"><title>Lockdown-Australia</title>
<path fill="whitesmoke" stroke="black" stroke-width="0.5" d="M338.876,-403.394C338.876,-403.394 536.876,-403.394 536.876,-403.394 542.876,-403.394 548.876,-409.394 548.876,-415.394 548.876,-415.394 548.876,-431.394 548.876,-431.394 548.876,-437.394 542.876,-443.394 536.876,-443.394 536.876,-443.394 338.876,-443.394 338.876,-443.394 332.876,-443.394 326.876,-437.394 326.876,-431.394 326.876,-431.394 326.876,-415.394 326.876,-415.394 326.876,-409.394 332.876,-403.394 338.876,-403.394"/>
<text text-anchor="middle" x="437.876" y="-430.594" font-family="Times New Roman,serif" font-size="11.00">Lockdown-Australia</text>
<polyline fill="none" stroke="black" stroke-width="0.5" points="326.876,-423.394 548.876,-423.394 "/>
<text text-anchor="middle" x="368.876" y="-410.594" font-family="Times New Roman,serif" font-size="11.00">was-introduced</text>
<polyline fill="none" stroke="black" stroke-width="0.5" points="410.876,-403.394 410.876,-423.394 "/>
<text text-anchor="middle" x="479.876" y="-410.594" font-family="Times New Roman,serif" font-size="11.00">2020-03-23T00:00:00+01:00</text>
</g>
<!-- lockdown&#45;&#45;Lockdown&#45;Australia -->
<g id="edge16" class="edge"><title>lockdown--Lockdown-Australia</title>
<path fill="none" stroke="black" stroke-width="0.5" stroke-dasharray="5,2" d="M504.267,-773.738C504.49,-747.725 503.84,-708.33 499.167,-674.438 487.127,-587.106 457.459,-485.933 444.318,-443.622"/>
<polygon fill="none" stroke="black" stroke-width="0.5" points="500.763,-773.965 504.126,-784.012 507.763,-774.061 500.763,-773.965"/>
</g>
<!-- Lockdown&#45;Victoria -->
<g id="node21" class="node"><title>Lockdown-Victoria</title>
<path fill="whitesmoke" stroke="black" stroke-width="0.5" d="M162.103,-806.066C162.103,-806.066 360.103,-806.066 360.103,-806.066 366.103,-806.066 372.103,-812.066 372.103,-818.066 372.103,-818.066 372.103,-834.066 372.103,-834.066 372.103,-840.066 366.103,-846.066 360.103,-846.066 360.103,-846.066 162.103,-846.066 162.103,-846.066 156.103,-846.066 150.103,-840.066 150.103,-834.066 150.103,-834.066 150.103,-818.066 150.103,-818.066 150.103,-812.066 156.103,-806.066 162.103,-806.066"/>
<text text-anchor="middle" x="261.103" y="-833.266" font-family="Times New Roman,serif" font-size="11.00">Lockdown-Victoria</text>
<polyline fill="none" stroke="black" stroke-width="0.5" points="150.103,-826.066 372.103,-826.066 "/>
<text text-anchor="middle" x="192.103" y="-813.266" font-family="Times New Roman,serif" font-size="11.00">was-introduced</text>
<polyline fill="none" stroke="black" stroke-width="0.5" points="234.103,-806.066 234.103,-826.066 "/>
<text text-anchor="middle" x="303.103" y="-813.266" font-family="Times New Roman,serif" font-size="11.00">2020-08-06T00:00:00+02:00</text>
</g>
<!-- lockdown&#45;&#45;Lockdown&#45;Victoria -->
<g id="edge18" class="edge"><title>lockdown--Lockdown-Victoria</title>
<path fill="none" stroke="black" stroke-width="0.5" stroke-dasharray="5,2" d="M463.668,-806.234C438.607,-808.688 404.944,-811.983 372.266,-815.183"/>
<polygon fill="none" stroke="black" stroke-width="0.5" points="464.242,-809.695 473.854,-805.237 463.56,-802.728 464.242,-809.695"/>
</g>
<!-- Lockdown&#45;Poland -->
<g id="node27" class="node"><title>Lockdown-Poland</title>
<path fill="whitesmoke" stroke="black" stroke-width="0.5" d="M80.2791,-1114.09C80.2791,-1114.09 279.279,-1114.09 279.279,-1114.09 285.279,-1114.09 291.279,-1120.09 291.279,-1126.09 291.279,-1126.09 291.279,-1162.09 291.279,-1162.09 291.279,-1168.09 285.279,-1174.09 279.279,-1174.09 279.279,-1174.09 80.2791,-1174.09 80.2791,-1174.09 74.2791,-1174.09 68.2791,-1168.09 68.2791,-1162.09 68.2791,-1162.09 68.2791,-1126.09 68.2791,-1126.09 68.2791,-1120.09 74.2791,-1114.09 80.2791,-1114.09"/>
<text text-anchor="middle" x="179.779" y="-1161.29" font-family="Times New Roman,serif" font-size="11.00">Lockdown-Poland</text>
<polyline fill="none" stroke="black" stroke-width="0.5" points="68.2791,-1154.09 291.279,-1154.09 "/>
<text text-anchor="middle" x="110.779" y="-1141.29" font-family="Times New Roman,serif" font-size="11.00">was-withdrawn</text>
<polyline fill="none" stroke="black" stroke-width="0.5" points="153.279,-1134.09 153.279,-1154.09 "/>
<text text-anchor="middle" x="222.279" y="-1141.29" font-family="Times New Roman,serif" font-size="11.00">2020-04-11T00:00:00+02:00</text>
<polyline fill="none" stroke="black" stroke-width="0.5" points="68.2791,-1134.09 291.279,-1134.09 "/>
<text text-anchor="middle" x="110.279" y="-1121.29" font-family="Times New Roman,serif" font-size="11.00">was-introduced</text>
<polyline fill="none" stroke="black" stroke-width="0.5" points="152.279,-1114.09 152.279,-1134.09 "/>
<text text-anchor="middle" x="221.779" y="-1121.29" font-family="Times New Roman,serif" font-size="11.00">2020-03-13T00:00:00+01:00</text>
</g>
<!-- lockdown&#45;&#45;Lockdown&#45;Poland -->
<g id="edge24" class="edge"><title>lockdown--Lockdown-Poland</title>
<path fill="none" stroke="black" stroke-width="0.5" stroke-dasharray="5,2" d="M493.123,-829.767C481.53,-856.943 460.463,-898.155 430.713,-924.157 370.422,-976.854 322.249,-939.022 265.107,-995.119 235.249,-1024.43 247.584,-1044.85 226.437,-1080.95 219.893,-1092.13 211.781,-1103.7 204.165,-1113.84"/>
<polygon fill="none" stroke="black" stroke-width="0.5" points="496.391,-831.023 496.964,-820.444 489.919,-828.357 496.391,-831.023"/>
</g>
<!-- Lockdown&#45;New&#45;York -->
<g id="node28" class="node"><title>Lockdown-New-York</title>
<path fill="whitesmoke" stroke="black" stroke-width="0.5" d="M385.264,-1176.24C385.264,-1176.24 584.264,-1176.24 584.264,-1176.24 590.264,-1176.24 596.264,-1182.24 596.264,-1188.24 596.264,-1188.24 596.264,-1224.24 596.264,-1224.24 596.264,-1230.24 590.264,-1236.24 584.264,-1236.24 584.264,-1236.24 385.264,-1236.24 385.264,-1236.24 379.264,-1236.24 373.264,-1230.24 373.264,-1224.24 373.264,-1224.24 373.264,-1188.24 373.264,-1188.24 373.264,-1182.24 379.264,-1176.24 385.264,-1176.24"/>
<text text-anchor="middle" x="484.764" y="-1223.44" font-family="Times New Roman,serif" font-size="11.00">Lockdown-New-York</text>
<polyline fill="none" stroke="black" stroke-width="0.5" points="373.264,-1216.24 596.264,-1216.24 "/>
<text text-anchor="middle" x="415.764" y="-1203.44" font-family="Times New Roman,serif" font-size="11.00">was-withdrawn</text>
<polyline fill="none" stroke="black" stroke-width="0.5" points="458.264,-1196.24 458.264,-1216.24 "/>
<text text-anchor="middle" x="527.264" y="-1203.44" font-family="Times New Roman,serif" font-size="11.00">2020-06-13T00:00:00+02:00</text>
<polyline fill="none" stroke="black" stroke-width="0.5" points="373.264,-1196.24 596.264,-1196.24 "/>
<text text-anchor="middle" x="415.264" y="-1183.44" font-family="Times New Roman,serif" font-size="11.00">was-introduced</text>
<polyline fill="none" stroke="black" stroke-width="0.5" points="457.264,-1176.24 457.264,-1196.24 "/>
<text text-anchor="middle" x="526.764" y="-1183.44" font-family="Times New Roman,serif" font-size="11.00">2020-03-22T00:00:00+01:00</text>
</g>
<!-- lockdown&#45;&#45;Lockdown&#45;New&#45;York -->
<g id="edge25" class="edge"><title>lockdown--Lockdown-New-York</title>
<path fill="none" stroke="black" stroke-width="0.5" stroke-dasharray="5,2" d="M505.589,-830.846C508.054,-876.115 510.09,-966.93 493.507,-1041.52 489.952,-1057.51 482.529,-1059.47 479.311,-1075.53 475.261,-1095.75 478.645,-1101.32 479.311,-1121.93 479.894,-1139.96 481.175,-1160.13 482.35,-1176.21"/>
<polygon fill="none" stroke="black" stroke-width="0.5" points="509.068,-830.386 504.98,-820.612 502.08,-830.802 509.068,-830.386"/>
</g>
<!-- Lockdown&#45;Bavaria -->
<g id="node29" class="node"><title>Lockdown-Bavaria</title>
<path fill="whitesmoke" stroke="black" stroke-width="0.5" d="M661.076,-778.317C661.076,-778.317 860.076,-778.317 860.076,-778.317 866.076,-778.317 872.076,-784.317 872.076,-790.317 872.076,-790.317 872.076,-826.317 872.076,-826.317 872.076,-832.317 866.076,-838.317 860.076,-838.317 860.076,-838.317 661.076,-838.317 661.076,-838.317 655.076,-838.317 649.076,-832.317 649.076,-826.317 649.076,-826.317 649.076,-790.317 649.076,-790.317 649.076,-784.317 655.076,-778.317 661.076,-778.317"/>
<text text-anchor="middle" x="760.576" y="-825.517" font-family="Times New Roman,serif" font-size="11.00">Lockdown-Bavaria</text>
<polyline fill="none" stroke="black" stroke-width="0.5" points="649.076,-818.317 872.076,-818.317 "/>
<text text-anchor="middle" x="691.576" y="-805.517" font-family="Times New Roman,serif" font-size="11.00">was-withdrawn</text>
<polyline fill="none" stroke="black" stroke-width="0.5" points="734.076,-798.317 734.076,-818.317 "/>
<text text-anchor="middle" x="803.076" y="-805.517" font-family="Times New Roman,serif" font-size="11.00">2020-04-12T00:00:00+02:00</text>
<polyline fill="none" stroke="black" stroke-width="0.5" points="649.076,-798.317 872.076,-798.317 "/>
<text text-anchor="middle" x="691.076" y="-785.517" font-family="Times New Roman,serif" font-size="11.00">was-introduced</text>
<polyline fill="none" stroke="black" stroke-width="0.5" points="733.076,-778.317 733.076,-798.317 "/>
<text text-anchor="middle" x="802.576" y="-785.517" font-family="Times New Roman,serif" font-size="11.00">2020-03-20T00:00:00+01:00</text>
</g>
<!-- lockdown&#45;&#45;Lockdown&#45;Bavaria -->
<g id="edge26" class="edge"><title>lockdown--Lockdown-Bavaria</title>
<path fill="none" stroke="black" stroke-width="0.5" stroke-dasharray="5,2" d="M543.594,-803.259C571.901,-803.919 611.347,-804.838 648.853,-805.712"/>
<polygon fill="none" stroke="black" stroke-width="0.5" points="543.397,-799.753 533.318,-803.019 543.234,-806.751 543.397,-799.753"/>
</g>
<!-- Lockdown&#45;Berlin -->
<g id="node37" class="node"><title>Lockdown-Berlin</title>
<path fill="whitesmoke" stroke="black" stroke-width="0.5" d="M738.712,-1003.97C738.712,-1003.97 937.712,-1003.97 937.712,-1003.97 943.712,-1003.97 949.712,-1009.97 949.712,-1015.97 949.712,-1015.97 949.712,-1051.97 949.712,-1051.97 949.712,-1057.97 943.712,-1063.97 937.712,-1063.97 937.712,-1063.97 738.712,-1063.97 738.712,-1063.97 732.712,-1063.97 726.712,-1057.97 726.712,-1051.97 726.712,-1051.97 726.712,-1015.97 726.712,-1015.97 726.712,-1009.97 732.712,-1003.97 738.712,-1003.97"/>
<text text-anchor="middle" x="838.212" y="-1051.17" font-family="Times New Roman,serif" font-size="11.00">Lockdown-Berlin</text>
<polyline fill="none" stroke="black" stroke-width="0.5" points="726.712,-1043.97 949.712,-1043.97 "/>
<text text-anchor="middle" x="769.212" y="-1031.17" font-family="Times New Roman,serif" font-size="11.00">was-withdrawn</text>
<polyline fill="none" stroke="black" stroke-width="0.5" points="811.712,-1023.97 811.712,-1043.97 "/>
<text text-anchor="middle" x="880.712" y="-1031.17" font-family="Times New Roman,serif" font-size="11.00">2020-04-12T00:00:00+02:00</text>
<polyline fill="none" stroke="black" stroke-width="0.5" points="726.712,-1023.97 949.712,-1023.97 "/>
<text text-anchor="middle" x="768.712" y="-1011.17" font-family="Times New Roman,serif" font-size="11.00">was-introduced</text>
<polyline fill="none" stroke="black" stroke-width="0.5" points="810.712,-1003.97 810.712,-1023.97 "/>
<text text-anchor="middle" x="880.212" y="-1011.17" font-family="Times New Roman,serif" font-size="11.00">2020-03-23T00:00:00+01:00</text>
</g>
<!-- lockdown&#45;&#45;Lockdown&#45;Berlin -->
<g id="edge34" class="edge"><title>lockdown--Lockdown-Berlin</title>
<path fill="none" stroke="black" stroke-width="0.5" stroke-dasharray="5,2" d="M538.426,-826.443C599.943,-869.029 727.644,-957.431 794.793,-1003.92"/>
<polygon fill="none" stroke="black" stroke-width="0.5" points="540.059,-823.317 529.844,-820.503 536.074,-829.073 540.059,-823.317"/>
</g>
<!-- Lockdown&#45;England -->
<g id="node41" class="node"><title>Lockdown-England</title>
<path fill="whitesmoke" stroke="black" stroke-width="0.5" d="M649.777,-420.61C649.777,-420.61 848.777,-420.61 848.777,-420.61 854.777,-420.61 860.777,-426.61 860.777,-432.61 860.777,-432.61 860.777,-468.61 860.777,-468.61 860.777,-474.61 854.777,-480.61 848.777,-480.61 848.777,-480.61 649.777,-480.61 649.777,-480.61 643.777,-480.61 637.777,-474.61 637.777,-468.61 637.777,-468.61 637.777,-432.61 637.777,-432.61 637.777,-426.61 643.777,-420.61 649.777,-420.61"/>
<text text-anchor="middle" x="749.277" y="-467.81" font-family="Times New Roman,serif" font-size="11.00">Lockdown-England</text>
<polyline fill="none" stroke="black" stroke-width="0.5" points="637.777,-460.61 860.777,-460.61 "/>
<text text-anchor="middle" x="680.277" y="-447.81" font-family="Times New Roman,serif" font-size="11.00">was-withdrawn</text>
<polyline fill="none" stroke="black" stroke-width="0.5" points="722.777,-440.61 722.777,-460.61 "/>
<text text-anchor="middle" x="791.777" y="-447.81" font-family="Times New Roman,serif" font-size="11.00">2020-05-11T00:00:00+02:00</text>
<polyline fill="none" stroke="black" stroke-width="0.5" points="637.777,-440.61 860.777,-440.61 "/>
<text text-anchor="middle" x="679.777" y="-427.81" font-family="Times New Roman,serif" font-size="11.00">was-introduced</text>
<polyline fill="none" stroke="black" stroke-width="0.5" points="721.777,-420.61 721.777,-440.61 "/>
<text text-anchor="middle" x="791.277" y="-427.81" font-family="Times New Roman,serif" font-size="11.00">2020-03-23T00:00:00+01:00</text>
</g>
<!-- lockdown&#45;&#45;Lockdown&#45;England -->
<g id="edge38" class="edge"><title>lockdown--Lockdown-England</title>
<path fill="none" stroke="black" stroke-width="0.5" stroke-dasharray="5,2" d="M522.324,-775.503C567.288,-711.135 681.065,-548.258 728.26,-480.695"/>
<polygon fill="none" stroke="black" stroke-width="0.5" points="519.308,-773.709 516.45,-783.911 525.046,-777.718 519.308,-773.709"/>
</g>
<!-- restriction -->
<g id="node2" class="node"><title>restriction</title>
<path fill="aliceblue" stroke="black" stroke-width="0.5" d="M811.486,-893.631C811.486,-893.631 847.486,-893.631 847.486,-893.631 853.486,-893.631 859.486,-899.631 859.486,-905.631 859.486,-905.631 859.486,-917.631 859.486,-917.631 859.486,-923.631 853.486,-929.631 847.486,-929.631 847.486,-929.631 811.486,-929.631 811.486,-929.631 805.486,-929.631 799.486,-923.631 799.486,-917.631 799.486,-917.631 799.486,-905.631 799.486,-905.631 799.486,-899.631 805.486,-893.631 811.486,-893.631"/>
<text text-anchor="middle" x="829.486" y="-908.831" font-family="Times New Roman,serif" font-size="11.00">restriction</text>
</g>
<!-- restriction&#45;&#45;lockdown -->
<g id="edge1" class="edge"><title>restriction--lockdown</title>
<path fill="none" stroke="black" stroke-width="0.5" d="M789.739,-898.3C723.465,-876.072 591.877,-831.938 533.119,-812.231"/>
<polygon fill="none" stroke="black" stroke-width="0.5" points="788.816,-901.682 799.41,-901.544 791.042,-895.045 788.816,-901.682"/>
</g>
<!-- face&#45;cover -->
<g id="node3" class="node"><title>face-cover</title>
<path fill="aliceblue" stroke="black" stroke-width="0.5" d="M612.646,-685.821C612.646,-685.821 653.646,-685.821 653.646,-685.821 659.646,-685.821 665.646,-691.821 665.646,-697.821 665.646,-697.821 665.646,-709.821 665.646,-709.821 665.646,-715.821 659.646,-721.821 653.646,-721.821 653.646,-721.821 612.646,-721.821 612.646,-721.821 606.646,-721.821 600.646,-715.821 600.646,-709.821 600.646,-709.821 600.646,-697.821 600.646,-697.821 600.646,-691.821 606.646,-685.821 612.646,-685.821"/>
<text text-anchor="middle" x="633.146" y="-701.021" font-family="Times New Roman,serif" font-size="11.00">face-cover</text>
</g>
<!-- restriction&#45;&#45;face&#45;cover -->
<g id="edge2" class="edge"><title>restriction--face-cover</title>
<path fill="none" stroke="black" stroke-width="0.5" d="M789.203,-908.342C746.268,-902.511 679.889,-886.341 645.876,-841.517 619.175,-806.327 624.28,-750.588 629.264,-722.019"/>
<polygon fill="none" stroke="black" stroke-width="0.5" points="788.962,-911.839 799.314,-909.584 789.816,-904.891 788.962,-911.839"/>
</g>
<!-- border&#45;cross&#45;quarantine -->
<g id="node4" class="node"><title>border-cross-quarantine</title>
<path fill="aliceblue" stroke="black" stroke-width="0.5" d="M1118.18,-1021.96C1118.18,-1021.96 1216.18,-1021.96 1216.18,-1021.96 1222.18,-1021.96 1228.18,-1027.96 1228.18,-1033.96 1228.18,-1033.96 1228.18,-1045.96 1228.18,-1045.96 1228.18,-1051.96 1222.18,-1057.96 1216.18,-1057.96 1216.18,-1057.96 1118.18,-1057.96 1118.18,-1057.96 1112.18,-1057.96 1106.18,-1051.96 1106.18,-1045.96 1106.18,-1045.96 1106.18,-1033.96 1106.18,-1033.96 1106.18,-1027.96 1112.18,-1021.96 1118.18,-1021.96"/>
<text text-anchor="middle" x="1167.18" y="-1037.16" font-family="Times New Roman,serif" font-size="11.00">border-cross-quarantine</text>
</g>
<!-- restriction&#45;&#45;border&#45;cross&#45;quarantine -->
<g id="edge3" class="edge"><title>restriction--border-cross-quarantine</title>
<path fill="none" stroke="black" stroke-width="0.5" d="M869.264,-926.748C931.779,-950.506 1052.78,-996.491 1119.74,-1021.94"/>
<polygon fill="none" stroke="black" stroke-width="0.5" points="870.342,-923.413 859.751,-923.133 867.855,-929.957 870.342,-923.413"/>
</g>
<!-- Face&#45;Cover&#45;Poland -->
<g id="node7" class="node"><title>Face-Cover-Poland</title>
<path fill="whitesmoke" stroke="black" stroke-width="0.5" d="M280.307,-998.319C280.307,-998.319 478.307,-998.319 478.307,-998.319 484.307,-998.319 490.307,-1004.32 490.307,-1010.32 490.307,-1010.32 490.307,-1026.32 490.307,-1026.32 490.307,-1032.32 484.307,-1038.32 478.307,-1038.32 478.307,-1038.32 280.307,-1038.32 280.307,-1038.32 274.307,-1038.32 268.307,-1032.32 268.307,-1026.32 268.307,-1026.32 268.307,-1010.32 268.307,-1010.32 268.307,-1004.32 274.307,-998.319 280.307,-998.319"/>
<text text-anchor="middle" x="379.307" y="-1025.52" font-family="Times New Roman,serif" font-size="11.00">Face-Cover-Poland</text>
<polyline fill="none" stroke="black" stroke-width="0.5" points="268.307,-1018.32 490.307,-1018.32 "/>
<text text-anchor="middle" x="310.307" y="-1005.52" font-family="Times New Roman,serif" font-size="11.00">was-introduced</text>
<polyline fill="none" stroke="black" stroke-width="0.5" points="352.307,-998.319 352.307,-1018.32 "/>
<text text-anchor="middle" x="421.307" y="-1005.52" font-family="Times New Roman,serif" font-size="11.00">2020-04-16T00:00:00+02:00</text>
</g>
<!-- face&#45;cover&#45;&#45;Face&#45;Cover&#45;Poland -->
<g id="edge5" class="edge"><title>face-cover--Face-Cover-Poland</title>
<path fill="none" stroke="black" stroke-width="0.5" stroke-dasharray="5,2" d="M611.912,-730.129C562.389,-791.487 440.084,-943.018 395.719,-997.986"/>
<polygon fill="none" stroke="black" stroke-width="0.5" points="614.844,-732.069 618.401,-722.089 609.397,-727.672 614.844,-732.069"/>
</g>
<!-- Face&#45;Cover&#45;England -->
<g id="node15" class="node"><title>Face-Cover-England</title>
<path fill="whitesmoke" stroke="black" stroke-width="0.5" d="M721.342,-271.256C721.342,-271.256 919.342,-271.256 919.342,-271.256 925.342,-271.256 931.342,-277.256 931.342,-283.256 931.342,-283.256 931.342,-299.256 931.342,-299.256 931.342,-305.256 925.342,-311.256 919.342,-311.256 919.342,-311.256 721.342,-311.256 721.342,-311.256 715.342,-311.256 709.342,-305.256 709.342,-299.256 709.342,-299.256 709.342,-283.256 709.342,-283.256 709.342,-277.256 715.342,-271.256 721.342,-271.256"/>
<text text-anchor="middle" x="820.342" y="-298.456" font-family="Times New Roman,serif" font-size="11.00">Face-Cover-England</text>
<polyline fill="none" stroke="black" stroke-width="0.5" points="709.342,-291.256 931.342,-291.256 "/>
<text text-anchor="middle" x="751.342" y="-278.456" font-family="Times New Roman,serif" font-size="11.00">was-introduced</text>
<polyline fill="none" stroke="black" stroke-width="0.5" points="793.342,-271.256 793.342,-291.256 "/>
<text text-anchor="middle" x="862.342" y="-278.456" font-family="Times New Roman,serif" font-size="11.00">2020-06-05T00:00:00+02:00</text>
</g>
<!-- face&#45;cover&#45;&#45;Face&#45;Cover&#45;England -->
<g id="edge12" class="edge"><title>face-cover--Face-Cover-England</title>
<path fill="none" stroke="black" stroke-width="0.5" stroke-dasharray="5,2" d="M625.189,-675.813C611.578,-622.039 589.415,-502.158 634.577,-417.41 662.261,-365.459 721.917,-330.903 766.196,-311.296"/>
<polygon fill="none" stroke="black" stroke-width="0.5" points="621.849,-676.874 627.775,-685.657 628.62,-675.096 621.849,-676.874"/>
</g>
<!-- Face&#45;Cover&#45;Victoria -->
<g id="node24" class="node"><title>Face-Cover-Victoria</title>
<path fill="whitesmoke" stroke="black" stroke-width="0.5" d="M285.967,-677.638C285.967,-677.638 483.967,-677.638 483.967,-677.638 489.967,-677.638 495.967,-683.638 495.967,-689.638 495.967,-689.638 495.967,-705.638 495.967,-705.638 495.967,-711.638 489.967,-717.638 483.967,-717.638 483.967,-717.638 285.967,-717.638 285.967,-717.638 279.967,-717.638 273.967,-711.638 273.967,-705.638 273.967,-705.638 273.967,-689.638 273.967,-689.638 273.967,-683.638 279.967,-677.638 285.967,-677.638"/>
<text text-anchor="middle" x="384.967" y="-704.838" font-family="Times New Roman,serif" font-size="11.00">Face-Cover-Victoria</text>
<polyline fill="none" stroke="black" stroke-width="0.5" points="273.967,-697.638 495.967,-697.638 "/>
<text text-anchor="middle" x="315.967" y="-684.838" font-family="Times New Roman,serif" font-size="11.00">was-introduced</text>
<polyline fill="none" stroke="black" stroke-width="0.5" points="357.967,-677.638 357.967,-697.638 "/>
<text text-anchor="middle" x="426.967" y="-684.838" font-family="Times New Roman,serif" font-size="11.00">2020-08-02T00:00:00+02:00</text>
</g>
<!-- face&#45;cover&#45;&#45;Face&#45;Cover&#45;Victoria -->
<g id="edge21" class="edge"><title>face-cover--Face-Cover-Victoria</title>
<path fill="none" stroke="black" stroke-width="0.5" stroke-dasharray="5,2" d="M590.18,-702.75C564.109,-702.101 529.535,-701.24 496.211,-700.409"/>
<polygon fill="none" stroke="black" stroke-width="0.5" points="590.361,-706.256 600.445,-703.006 590.536,-699.258 590.361,-706.256"/>
</g>
<!-- Face&#45;Cover&#45;Australia -->
<g id="node30" class="node"><title>Face-Cover-Australia</title>
<path fill="whitesmoke" stroke="black" stroke-width="0.5" d="M417.337,-222.66C417.337,-222.66 615.337,-222.66 615.337,-222.66 621.337,-222.66 627.337,-228.66 627.337,-234.66 627.337,-234.66 627.337,-250.66 627.337,-250.66 627.337,-256.66 621.337,-262.66 615.337,-262.66 615.337,-262.66 417.337,-262.66 417.337,-262.66 411.337,-262.66 405.337,-256.66 405.337,-250.66 405.337,-250.66 405.337,-234.66 405.337,-234.66 405.337,-228.66 411.337,-222.66 417.337,-222.66"/>
<text text-anchor="middle" x="516.337" y="-249.86" font-family="Times New Roman,serif" font-size="11.00">Face-Cover-Australia</text>
<polyline fill="none" stroke="black" stroke-width="0.5" points="405.337,-242.66 627.337,-242.66 "/>
<text text-anchor="middle" x="447.337" y="-229.86" font-family="Times New Roman,serif" font-size="11.00">was-introduced</text>
<polyline fill="none" stroke="black" stroke-width="0.5" points="489.337,-222.66 489.337,-242.66 "/>
<text text-anchor="middle" x="558.337" y="-229.86" font-family="Times New Roman,serif" font-size="11.00">2020-07-19T00:00:00+02:00</text>
</g>
<!-- face&#45;cover&#45;&#45;Face&#45;Cover&#45;Australia -->
<g id="edge27" class="edge"><title>face-cover--Face-Cover-Australia</title>
<path fill="none" stroke="black" stroke-width="0.5" stroke-dasharray="5,2" d="M626.108,-676.036C604.614,-591.178 540.156,-336.699 521.468,-262.917"/>
<polygon fill="none" stroke="black" stroke-width="0.5" points="622.718,-676.908 628.567,-685.743 629.504,-675.19 622.718,-676.908"/>
</g>
<!-- Face&#45;Cover&#45;New&#45;York -->
<g id="node34" class="node"><title>Face-Cover-New-York</title>
<path fill="whitesmoke" stroke="black" stroke-width="0.5" d="M494.511,-1078.73C494.511,-1078.73 692.511,-1078.73 692.511,-1078.73 698.511,-1078.73 704.511,-1084.73 704.511,-1090.73 704.511,-1090.73 704.511,-1106.73 704.511,-1106.73 704.511,-1112.73 698.511,-1118.73 692.511,-1118.73 692.511,-1118.73 494.511,-1118.73 494.511,-1118.73 488.511,-1118.73 482.511,-1112.73 482.511,-1106.73 482.511,-1106.73 482.511,-1090.73 482.511,-1090.73 482.511,-1084.73 488.511,-1078.73 494.511,-1078.73"/>
<text text-anchor="middle" x="593.511" y="-1105.93" font-family="Times New Roman,serif" font-size="11.00">Face-Cover-New-York</text>
<polyline fill="none" stroke="black" stroke-width="0.5" points="482.511,-1098.73 704.511,-1098.73 "/>
<text text-anchor="middle" x="524.511" y="-1085.93" font-family="Times New Roman,serif" font-size="11.00">was-introduced</text>
<polyline fill="none" stroke="black" stroke-width="0.5" points="566.511,-1078.73 566.511,-1098.73 "/>
<text text-anchor="middle" x="635.511" y="-1085.93" font-family="Times New Roman,serif" font-size="11.00">2020-04-15T00:00:00+02:00</text>
</g>
<!-- face&#45;cover&#45;&#45;Face&#45;Cover&#45;New&#45;York -->
<g id="edge31" class="edge"><title>face-cover--Face-Cover-New-York</title>
<path fill="none" stroke="black" stroke-width="0.5" stroke-dasharray="5,2" d="M623.791,-731.794C606.548,-786.483 572.251,-911.57 580.708,-1018.38 582.347,-1039.08 586.325,-1062.5 589.416,-1078.69"/>
<polygon fill="none" stroke="black" stroke-width="0.5" points="627.172,-732.712 626.896,-722.121 620.507,-730.572 627.172,-732.712"/>
</g>
<!-- Face&#45;Cover&#45;Berlin -->
<g id="node43" class="node"><title>Face-Cover-Berlin</title>
<path fill="whitesmoke" stroke="black" stroke-width="0.5" d="M942.936,-829.805C942.936,-829.805 1140.94,-829.805 1140.94,-829.805 1146.94,-829.805 1152.94,-835.805 1152.94,-841.805 1152.94,-841.805 1152.94,-857.805 1152.94,-857.805 1152.94,-863.805 1146.94,-869.805 1140.94,-869.805 1140.94,-869.805 942.936,-869.805 942.936,-869.805 936.936,-869.805 930.936,-863.805 930.936,-857.805 930.936,-857.805 930.936,-841.805 930.936,-841.805 930.936,-835.805 936.936,-829.805 942.936,-829.805"/>
<text text-anchor="middle" x="1041.94" y="-857.005" font-family="Times New Roman,serif" font-size="11.00">Face-Cover-Berlin</text>
<polyline fill="none" stroke="black" stroke-width="0.5" points="930.936,-849.805 1152.94,-849.805 "/>
<text text-anchor="middle" x="972.936" y="-837.005" font-family="Times New Roman,serif" font-size="11.00">was-introduced</text>
<polyline fill="none" stroke="black" stroke-width="0.5" points="1014.94,-829.805 1014.94,-849.805 "/>
<text text-anchor="middle" x="1083.94" y="-837.005" font-family="Times New Roman,serif" font-size="11.00">2020-04-21T00:00:00+02:00</text>
</g>
<!-- face&#45;cover&#45;&#45;Face&#45;Cover&#45;Berlin -->
<g id="edge40" class="edge"><title>face-cover--Face-Cover-Berlin</title>
<path fill="none" stroke="black" stroke-width="0.5" stroke-dasharray="5,2" d="M675.602,-714.461C724.394,-727.115 806.582,-749.742 875.276,-775.117 919.146,-791.321 967.79,-813.647 1001.14,-829.661"/>
<polygon fill="none" stroke="black" stroke-width="0.5" points="676.271,-711.019 665.714,-711.914 674.525,-717.798 676.271,-711.019"/>
</g>
<!-- Face&#45;Cover&#45;California -->
<g id="node44" class="node"><title>Face-Cover-California</title>
<path fill="whitesmoke" stroke="black" stroke-width="0.5" d="M217.513,-880.957C217.513,-880.957 415.513,-880.957 415.513,-880.957 421.513,-880.957 427.513,-886.957 427.513,-892.957 427.513,-892.957 427.513,-908.957 427.513,-908.957 427.513,-914.957 421.513,-920.957 415.513,-920.957 415.513,-920.957 217.513,-920.957 217.513,-920.957 211.513,-920.957 205.513,-914.957 205.513,-908.957 205.513,-908.957 205.513,-892.957 205.513,-892.957 205.513,-886.957 211.513,-880.957 217.513,-880.957"/>
<text text-anchor="middle" x="316.513" y="-908.157" font-family="Times New Roman,serif" font-size="11.00">Face-Cover-California</text>
<polyline fill="none" stroke="black" stroke-width="0.5" points="205.513,-900.957 427.513,-900.957 "/>
<text text-anchor="middle" x="247.513" y="-888.157" font-family="Times New Roman,serif" font-size="11.00">was-introduced</text>
<polyline fill="none" stroke="black" stroke-width="0.5" points="289.513,-880.957 289.513,-900.957 "/>
<text text-anchor="middle" x="358.513" y="-888.157" font-family="Times New Roman,serif" font-size="11.00">2020-06-18T00:00:00+02:00</text>
</g>
<!-- face&#45;cover&#45;&#45;Face&#45;Cover&#45;California -->
<g id="edge41" class="edge"><title>face-cover--Face-Cover-California</title>
<path fill="none" stroke="black" stroke-width="0.5" stroke-dasharray="5,2" d="M590.866,-720.977C557.339,-735.28 509.812,-757.135 470.887,-781.126 421.065,-811.834 368.293,-855.567 339.169,-880.828"/>
<polygon fill="none" stroke="black" stroke-width="0.5" points="592.513,-724.081 600.364,-716.967 589.79,-717.632 592.513,-724.081"/>
</g>
<!-- Face&#45;Cover&#45;Bavaria -->
<g id="node47" class="node"><title>Face-Cover-Bavaria</title>
<path fill="whitesmoke" stroke="black" stroke-width="0.5" d="M935.222,-671.292C935.222,-671.292 1133.22,-671.292 1133.22,-671.292 1139.22,-671.292 1145.22,-677.292 1145.22,-683.292 1145.22,-683.292 1145.22,-699.292 1145.22,-699.292 1145.22,-705.292 1139.22,-711.292 1133.22,-711.292 1133.22,-711.292 935.222,-711.292 935.222,-711.292 929.222,-711.292 923.222,-705.292 923.222,-699.292 923.222,-699.292 923.222,-683.292 923.222,-683.292 923.222,-677.292 929.222,-671.292 935.222,-671.292"/>
<text text-anchor="middle" x="1034.22" y="-698.492" font-family="Times New Roman,serif" font-size="11.00">Face-Cover-Bavaria</text>
<polyline fill="none" stroke="black" stroke-width="0.5" points="923.222,-691.292 1145.22,-691.292 "/>
<text text-anchor="middle" x="965.222" y="-678.492" font-family="Times New Roman,serif" font-size="11.00">was-introduced</text>
<polyline fill="none" stroke="black" stroke-width="0.5" points="1007.22,-671.292 1007.22,-691.292 "/>
<text text-anchor="middle" x="1076.22" y="-678.492" font-family="Times New Roman,serif" font-size="11.00">2020-03-16T00:00:00+01:00</text>
</g>
<!-- face&#45;cover&#45;&#45;Face&#45;Cover&#45;Bavaria -->
<g id="edge44" class="edge"><title>face-cover--Face-Cover-Bavaria</title>
<path fill="none" stroke="black" stroke-width="0.5" stroke-dasharray="5,2" d="M676.311,-702.472C734.787,-700.646 841.243,-697.32 922.905,-694.769"/>
<polygon fill="none" stroke="black" stroke-width="0.5" points="675.853,-698.985 665.967,-702.796 676.072,-705.982 675.853,-698.985"/>
</g>
<!-- Border&#45;Cross&#45;Quarantine&#45;Bavaria -->
<g id="node8" class="node"><title>Border-Cross-Quarantine-Bavaria</title>
<path fill="whitesmoke" stroke="black" stroke-width="0.5" d="M1398.77,-1066.95C1398.77,-1066.95 1597.77,-1066.95 1597.77,-1066.95 1603.77,-1066.95 1609.77,-1072.95 1609.77,-1078.95 1609.77,-1078.95 1609.77,-1114.95 1609.77,-1114.95 1609.77,-1120.95 1603.77,-1126.95 1597.77,-1126.95 1597.77,-1126.95 1398.77,-1126.95 1398.77,-1126.95 1392.77,-1126.95 1386.77,-1120.95 1386.77,-1114.95 1386.77,-1114.95 1386.77,-1078.95 1386.77,-1078.95 1386.77,-1072.95 1392.77,-1066.95 1398.77,-1066.95"/>
<text text-anchor="middle" x="1498.27" y="-1114.15" font-family="Times New Roman,serif" font-size="11.00">Border-Cross-Quarantine-Bavaria</text>
<polyline fill="none" stroke="black" stroke-width="0.5" points="1386.77,-1106.95 1609.77,-1106.95 "/>
<text text-anchor="middle" x="1429.27" y="-1094.15" font-family="Times New Roman,serif" font-size="11.00">was-withdrawn</text>
<polyline fill="none" stroke="black" stroke-width="0.5" points="1471.77,-1086.95 1471.77,-1106.95 "/>
<text text-anchor="middle" x="1540.77" y="-1094.15" font-family="Times New Roman,serif" font-size="11.00">2020-07-20T00:00:00+02:00</text>
<polyline fill="none" stroke="black" stroke-width="0.5" points="1386.77,-1086.95 1609.77,-1086.95 "/>
<text text-anchor="middle" x="1428.77" y="-1074.15" font-family="Times New Roman,serif" font-size="11.00">was-introduced</text>
<polyline fill="none" stroke="black" stroke-width="0.5" points="1470.77,-1066.95 1470.77,-1086.95 "/>
<text text-anchor="middle" x="1540.27" y="-1074.15" font-family="Times New Roman,serif" font-size="11.00">2020-04-18T00:00:00+02:00</text>
</g>
<!-- border&#45;cross&#45;quarantine&#45;&#45;Border&#45;Cross&#45;Quarantine&#45;Bavaria -->
<g id="edge6" class="edge"><title>border-cross-quarantine--Border-Cross-Quarantine-Bavaria</title>
<path fill="none" stroke="black" stroke-width="0.5" stroke-dasharray="5,2" d="M1238.42,-1052.23C1281.6,-1059.66 1337.63,-1069.3 1386.6,-1077.73"/>
<polygon fill="none" stroke="black" stroke-width="0.5" points="1238.74,-1048.73 1228.29,-1050.48 1237.55,-1055.63 1238.74,-1048.73"/>
</g>
<!-- Border&#45;Cross&#45;Quarantine&#45;Berlin -->
<g id="node10" class="node"><title>Border-Cross-Quarantine-Berlin</title>
<path fill="whitesmoke" stroke="black" stroke-width="0.5" d="M1442.52,-1227.28C1442.52,-1227.28 1641.52,-1227.28 1641.52,-1227.28 1647.52,-1227.28 1653.52,-1233.28 1653.52,-1239.28 1653.52,-1239.28 1653.52,-1275.28 1653.52,-1275.28 1653.52,-1281.28 1647.52,-1287.28 1641.52,-1287.28 1641.52,-1287.28 1442.52,-1287.28 1442.52,-1287.28 1436.52,-1287.28 1430.52,-1281.28 1430.52,-1275.28 1430.52,-1275.28 1430.52,-1239.28 1430.52,-1239.28 1430.52,-1233.28 1436.52,-1227.28 1442.52,-1227.28"/>
<text text-anchor="middle" x="1542.02" y="-1274.48" font-family="Times New Roman,serif" font-size="11.00">Border-Cross-Quarantine-Berlin</text>
<polyline fill="none" stroke="black" stroke-width="0.5" points="1430.52,-1267.28 1653.52,-1267.28 "/>
<text text-anchor="middle" x="1473.02" y="-1254.48" font-family="Times New Roman,serif" font-size="11.00">was-withdrawn</text>
<polyline fill="none" stroke="black" stroke-width="0.5" points="1515.52,-1247.28 1515.52,-1267.28 "/>
<text text-anchor="middle" x="1584.52" y="-1254.48" font-family="Times New Roman,serif" font-size="11.00">2020-07-22T00:00:00+02:00</text>
<polyline fill="none" stroke="black" stroke-width="0.5" points="1430.52,-1247.28 1653.52,-1247.28 "/>
<text text-anchor="middle" x="1472.52" y="-1234.48" font-family="Times New Roman,serif" font-size="11.00">was-introduced</text>
<polyline fill="none" stroke="black" stroke-width="0.5" points="1514.52,-1227.28 1514.52,-1247.28 "/>
<text text-anchor="middle" x="1584.02" y="-1234.48" font-family="Times New Roman,serif" font-size="11.00">2020-04-22T00:00:00+02:00</text>
</g>
<!-- border&#45;cross&#45;quarantine&#45;&#45;Border&#45;Cross&#45;Quarantine&#45;Berlin -->
<g id="edge8" class="edge"><title>border-cross-quarantine--Border-Cross-Quarantine-Berlin</title>
<path fill="none" stroke="black" stroke-width="0.5" stroke-dasharray="5,2" d="M1207.26,-1063.2C1275.59,-1102.81 1414.56,-1183.38 1490.18,-1227.22"/>
<polygon fill="none" stroke="black" stroke-width="0.5" points="1208.9,-1060.11 1198.49,-1058.12 1205.39,-1066.16 1208.9,-1060.11"/>
</g>
<!-- Border&#45;Cross&#45;Quarantine&#45;Switzerland -->
<g id="node13" class="node"><title>Border-Cross-Quarantine-Switzerland</title>
<path fill="whitesmoke" stroke="black" stroke-width="0.5" d="M1218.47,-1517.02C1218.47,-1517.02 1416.47,-1517.02 1416.47,-1517.02 1422.47,-1517.02 1428.47,-1523.02 1428.47,-1529.02 1428.47,-1529.02 1428.47,-1545.02 1428.47,-1545.02 1428.47,-1551.02 1422.47,-1557.02 1416.47,-1557.02 1416.47,-1557.02 1218.47,-1557.02 1218.47,-1557.02 1212.47,-1557.02 1206.47,-1551.02 1206.47,-1545.02 1206.47,-1545.02 1206.47,-1529.02 1206.47,-1529.02 1206.47,-1523.02 1212.47,-1517.02 1218.47,-1517.02"/>
<text text-anchor="middle" x="1317.47" y="-1544.22" font-family="Times New Roman,serif" font-size="11.00">Border-Cross-Quarantine-Switzerland</text>
<polyline fill="none" stroke="black" stroke-width="0.5" points="1206.47,-1537.02 1428.47,-1537.02 "/>
<text text-anchor="middle" x="1248.47" y="-1524.22" font-family="Times New Roman,serif" font-size="11.00">was-introduced</text>
<polyline fill="none" stroke="black" stroke-width="0.5" points="1290.47,-1517.02 1290.47,-1537.02 "/>
<text text-anchor="middle" x="1359.47" y="-1524.22" font-family="Times New Roman,serif" font-size="11.00">2020-07-06T00:00:00+02:00</text>
</g>
<!-- border&#45;cross&#45;quarantine&#45;&#45;Border&#45;Cross&#45;Quarantine&#45;Switzerland -->
<g id="edge10" class="edge"><title>border-cross-quarantine--Border-Cross-Quarantine-Switzerland</title>
<path fill="none" stroke="black" stroke-width="0.5" stroke-dasharray="5,2" d="M1175.67,-1068.04C1202.94,-1158.23 1287.92,-1439.29 1311.4,-1516.96"/>
<polygon fill="none" stroke="black" stroke-width="0.5" points="1178.95,-1066.8 1172.7,-1058.24 1172.25,-1068.83 1178.95,-1066.8"/>
</g>
<!-- Border&#45;Cross&#45;Quarantine&#45;Poland -->
<g id="node14" class="node"><title>Border-Cross-Quarantine-Poland</title>
<path fill="whitesmoke" stroke="black" stroke-width="0.5" d="M803.997,-1441.15C803.997,-1441.15 1003,-1441.15 1003,-1441.15 1009,-1441.15 1015,-1447.15 1015,-1453.15 1015,-1453.15 1015,-1489.15 1015,-1489.15 1015,-1495.15 1009,-1501.15 1003,-1501.15 1003,-1501.15 803.997,-1501.15 803.997,-1501.15 797.997,-1501.15 791.997,-1495.15 791.997,-1489.15 791.997,-1489.15 791.997,-1453.15 791.997,-1453.15 791.997,-1447.15 797.997,-1441.15 803.997,-1441.15"/>
<text text-anchor="middle" x="903.497" y="-1488.35" font-family="Times New Roman,serif" font-size="11.00">Border-Cross-Quarantine-Poland</text>
<polyline fill="none" stroke="black" stroke-width="0.5" points="791.997,-1481.15 1015,-1481.15 "/>
<text text-anchor="middle" x="834.497" y="-1468.35" font-family="Times New Roman,serif" font-size="11.00">was-withdrawn</text>
<polyline fill="none" stroke="black" stroke-width="0.5" points="876.997,-1461.15 876.997,-1481.15 "/>
<text text-anchor="middle" x="945.997" y="-1468.35" font-family="Times New Roman,serif" font-size="11.00">2020-05-22T00:00:00+02:00</text>
<polyline fill="none" stroke="black" stroke-width="0.5" points="791.997,-1461.15 1015,-1461.15 "/>
<text text-anchor="middle" x="833.997" y="-1448.35" font-family="Times New Roman,serif" font-size="11.00">was-introduced</text>
<polyline fill="none" stroke="black" stroke-width="0.5" points="875.997,-1441.15 875.997,-1461.15 "/>
<text text-anchor="middle" x="945.497" y="-1448.35" font-family="Times New Roman,serif" font-size="11.00">2020-03-23T00:00:00+01:00</text>
</g>
<!-- border&#45;cross&#45;quarantine&#45;&#45;Border&#45;Cross&#45;Quarantine&#45;Poland -->
<g id="edge11" class="edge"><title>border-cross-quarantine--Border-Cross-Quarantine-Poland</title>
<path fill="none" stroke="black" stroke-width="0.5" stroke-dasharray="5,2" d="M1150.77,-1066.8C1104.13,-1143.06 971.008,-1360.75 921.946,-1440.98"/>
<polygon fill="none" stroke="black" stroke-width="0.5" points="1153.78,-1068.57 1156.02,-1058.22 1147.81,-1064.92 1153.78,-1068.57"/>
</g>
<!-- Border&#45;Cross&#45;Quarantine&#45;New&#45;York -->
<g id="node20" class="node"><title>Border-Cross-Quarantine-New-York</title>
<path fill="whitesmoke" stroke="black" stroke-width="0.5" d="M1037.11,-1435.84C1037.11,-1435.84 1235.11,-1435.84 1235.11,-1435.84 1241.11,-1435.84 1247.11,-1441.84 1247.11,-1447.84 1247.11,-1447.84 1247.11,-1463.84 1247.11,-1463.84 1247.11,-1469.84 1241.11,-1475.84 1235.11,-1475.84 1235.11,-1475.84 1037.11,-1475.84 1037.11,-1475.84 1031.11,-1475.84 1025.11,-1469.84 1025.11,-1463.84 1025.11,-1463.84 1025.11,-1447.84 1025.11,-1447.84 1025.11,-1441.84 1031.11,-1435.84 1037.11,-1435.84"/>
<text text-anchor="middle" x="1136.11" y="-1463.04" font-family="Times New Roman,serif" font-size="11.00">Border-Cross-Quarantine-New-York</text>
<polyline fill="none" stroke="black" stroke-width="0.5" points="1025.11,-1455.84 1247.11,-1455.84 "/>
<text text-anchor="middle" x="1067.11" y="-1443.04" font-family="Times New Roman,serif" font-size="11.00">was-introduced</text>
<polyline fill="none" stroke="black" stroke-width="0.5" points="1109.11,-1435.84 1109.11,-1455.84 "/>
<text text-anchor="middle" x="1178.11" y="-1443.04" font-family="Times New Roman,serif" font-size="11.00">2020-06-24T00:00:00+02:00</text>
</g>
<!-- border&#45;cross&#45;quarantine&#45;&#45;Border&#45;Cross&#45;Quarantine&#45;New&#45;York -->
<g id="edge17" class="edge"><title>border-cross-quarantine--Border-Cross-Quarantine-New-York</title>
<path fill="none" stroke="black" stroke-width="0.5" stroke-dasharray="5,2" d="M1166.45,-1068.43C1165.49,-1101.77 1163.51,-1158.64 1160.13,-1207.41 1154.24,-1292.35 1143.24,-1393.26 1138.44,-1435.58"/>
<polygon fill="none" stroke="black" stroke-width="0.5" points="1169.96,-1068.16 1166.74,-1058.07 1162.96,-1067.97 1169.96,-1068.16"/>
</g>
<!-- Border&#45;Cross&#45;Quarantine&#45;England -->
<g id="node25" class="node"><title>Border-Cross-Quarantine-England</title>
<path fill="whitesmoke" stroke="black" stroke-width="0.5" d="M1286.09,-604.627C1286.09,-604.627 1485.09,-604.627 1485.09,-604.627 1491.09,-604.627 1497.09,-610.627 1497.09,-616.627 1497.09,-616.627 1497.09,-652.627 1497.09,-652.627 1497.09,-658.627 1491.09,-664.627 1485.09,-664.627 1485.09,-664.627 1286.09,-664.627 1286.09,-664.627 1280.09,-664.627 1274.09,-658.627 1274.09,-652.627 1274.09,-652.627 1274.09,-616.627 1274.09,-616.627 1274.09,-610.627 1280.09,-604.627 1286.09,-604.627"/>
<text text-anchor="middle" x="1385.59" y="-651.827" font-family="Times New Roman,serif" font-size="11.00">Border-Cross-Quarantine-England</text>
<polyline fill="none" stroke="black" stroke-width="0.5" points="1274.09,-644.627 1497.09,-644.627 "/>
<text text-anchor="middle" x="1316.59" y="-631.827" font-family="Times New Roman,serif" font-size="11.00">was-withdrawn</text>
<polyline fill="none" stroke="black" stroke-width="0.5" points="1359.09,-624.627 1359.09,-644.627 "/>
<text text-anchor="middle" x="1428.09" y="-631.827" font-family="Times New Roman,serif" font-size="11.00">2020-06-26T00:00:00+02:00</text>
<polyline fill="none" stroke="black" stroke-width="0.5" points="1274.09,-624.627 1497.09,-624.627 "/>
<text text-anchor="middle" x="1316.09" y="-611.827" font-family="Times New Roman,serif" font-size="11.00">was-introduced</text>
<polyline fill="none" stroke="black" stroke-width="0.5" points="1358.09,-604.627 1358.09,-624.627 "/>
<text text-anchor="middle" x="1427.59" y="-611.827" font-family="Times New Roman,serif" font-size="11.00">2020-05-10T00:00:00+02:00</text>
</g>
<!-- border&#45;cross&#45;quarantine&#45;&#45;Border&#45;Cross&#45;Quarantine&#45;England -->
<g id="edge22" class="edge"><title>border-cross-quarantine--Border-Cross-Quarantine-England</title>
<path fill="none" stroke="black" stroke-width="0.5" stroke-dasharray="5,2" d="M1174.18,-1011.81C1188.62,-957.098 1225.2,-833.875 1282.38,-743.584 1301.19,-713.866 1328.87,-685.191 1350.83,-664.724"/>
<polygon fill="none" stroke="black" stroke-width="0.5" points="1170.71,-1011.25 1171.59,-1021.81 1177.49,-1013.01 1170.71,-1011.25"/>
</g>
<!-- Border&#45;Cross&#45;Quarantine&#45;Australia -->
<g id="node32" class="node"><title>Border-Cross-Quarantine-Australia</title>
<path fill="whitesmoke" stroke="black" stroke-width="0.5" d="M993.684,-521.496C993.684,-521.496 1191.68,-521.496 1191.68,-521.496 1197.68,-521.496 1203.68,-527.496 1203.68,-533.496 1203.68,-533.496 1203.68,-549.496 1203.68,-549.496 1203.68,-555.496 1197.68,-561.496 1191.68,-561.496 1191.68,-561.496 993.684,-561.496 993.684,-561.496 987.684,-561.496 981.684,-555.496 981.684,-549.496 981.684,-549.496 981.684,-533.496 981.684,-533.496 981.684,-527.496 987.684,-521.496 993.684,-521.496"/>
<text text-anchor="middle" x="1092.68" y="-548.696" font-family="Times New Roman,serif" font-size="11.00">Border-Cross-Quarantine-Australia</text>
<polyline fill="none" stroke="black" stroke-width="0.5" points="981.684,-541.496 1203.68,-541.496 "/>
<text text-anchor="middle" x="1023.68" y="-528.696" font-family="Times New Roman,serif" font-size="11.00">was-introduced</text>
<polyline fill="none" stroke="black" stroke-width="0.5" points="1065.68,-521.496 1065.68,-541.496 "/>
<text text-anchor="middle" x="1134.68" y="-528.696" font-family="Times New Roman,serif" font-size="11.00">2020-03-15T00:00:00+01:00</text>
</g>
<!-- border&#45;cross&#45;quarantine&#45;&#45;Border&#45;Cross&#45;Quarantine&#45;Australia -->
<g id="edge29" class="edge"><title>border-cross-quarantine--Border-Cross-Quarantine-Australia</title>
<path fill="none" stroke="black" stroke-width="0.5" stroke-dasharray="5,2" d="M1169.21,-1011.53C1172.96,-948.62 1178.08,-793.299 1148.42,-668.092 1139.07,-628.6 1117.77,-586.079 1104.38,-561.738"/>
<polygon fill="none" stroke="black" stroke-width="0.5" points="1165.69,-1011.63 1168.56,-1021.84 1172.68,-1012.08 1165.69,-1011.63"/>
</g>
<!-- Border&#45;Cross&#45;Quarantine&#45;Sweden -->
<g id="node45" class="node"><title>Border-Cross-Quarantine-Sweden</title>
<path fill="whitesmoke" stroke="black" stroke-width="0.5" d="M1319.36,-1441.64C1319.36,-1441.64 1517.36,-1441.64 1517.36,-1441.64 1523.36,-1441.64 1529.36,-1447.64 1529.36,-1453.64 1529.36,-1453.64 1529.36,-1469.64 1529.36,-1469.64 1529.36,-1475.64 1523.36,-1481.64 1517.36,-1481.64 1517.36,-1481.64 1319.36,-1481.64 1319.36,-1481.64 1313.36,-1481.64 1307.36,-1475.64 1307.36,-1469.64 1307.36,-1469.64 1307.36,-1453.64 1307.36,-1453.64 1307.36,-1447.64 1313.36,-1441.64 1319.36,-1441.64"/>
<text text-anchor="middle" x="1418.36" y="-1468.84" font-family="Times New Roman,serif" font-size="11.00">Border-Cross-Quarantine-Sweden</text>
<polyline fill="none" stroke="black" stroke-width="0.5" points="1307.36,-1461.64 1529.36,-1461.64 "/>
<text text-anchor="middle" x="1349.36" y="-1448.84" font-family="Times New Roman,serif" font-size="11.00">was-introduced</text>
<polyline fill="none" stroke="black" stroke-width="0.5" points="1391.36,-1441.64 1391.36,-1461.64 "/>
<text text-anchor="middle" x="1460.36" y="-1448.84" font-family="Times New Roman,serif" font-size="11.00">2020-06-04T00:00:00+02:00</text>
</g>
<!-- border&#45;cross&#45;quarantine&#45;&#45;Border&#45;Cross&#45;Quarantine&#45;Sweden -->
<g id="edge42" class="edge"><title>border-cross-quarantine--Border-Cross-Quarantine-Sweden</title>
<path fill="none" stroke="black" stroke-width="0.5" stroke-dasharray="5,2" d="M1183.21,-1066.88C1229.85,-1145.18 1364.79,-1371.71 1406.16,-1441.16"/>
<polygon fill="none" stroke="black" stroke-width="0.5" points="1186.09,-1064.88 1177.97,-1058.08 1180.08,-1068.47 1186.09,-1064.88"/>
</g>
<!-- Border&#45;Cross&#45;Quarantine&#45;Victoria -->
<g id="node46" class="node"><title>Border-Cross-Quarantine-Victoria</title>
<path fill="whitesmoke" stroke="black" stroke-width="0.5" d="M813.468,-1198.27C813.468,-1198.27 1011.47,-1198.27 1011.47,-1198.27 1017.47,-1198.27 1023.47,-1204.27 1023.47,-1210.27 1023.47,-1210.27 1023.47,-1226.27 1023.47,-1226.27 1023.47,-1232.27 1017.47,-1238.27 1011.47,-1238.27 1011.47,-1238.27 813.468,-1238.27 813.468,-1238.27 807.468,-1238.27 801.468,-1232.27 801.468,-1226.27 801.468,-1226.27 801.468,-1210.27 801.468,-1210.27 801.468,-1204.27 807.468,-1198.27 813.468,-1198.27"/>
<text text-anchor="middle" x="912.468" y="-1225.47" font-family="Times New Roman,serif" font-size="11.00">Border-Cross-Quarantine-Victoria</text>
<polyline fill="none" stroke="black" stroke-width="0.5" points="801.468,-1218.27 1023.47,-1218.27 "/>
<text text-anchor="middle" x="843.468" y="-1205.47" font-family="Times New Roman,serif" font-size="11.00">was-introduced</text>
<polyline fill="none" stroke="black" stroke-width="0.5" points="885.468,-1198.27 885.468,-1218.27 "/>
<text text-anchor="middle" x="954.468" y="-1205.47" font-family="Times New Roman,serif" font-size="11.00">2020-03-15T00:00:00+01:00</text>
</g>
<!-- border&#45;cross&#45;quarantine&#45;&#45;Border&#45;Cross&#45;Quarantine&#45;Victoria -->
<g id="edge43" class="edge"><title>border-cross-quarantine--Border-Cross-Quarantine-Victoria</title>
<path fill="none" stroke="black" stroke-width="0.5" stroke-dasharray="5,2" d="M1139.74,-1064.93C1125.7,-1077.29 1108.1,-1092.15 1091.51,-1104.4 1043.2,-1140.06 983.824,-1176.47 947.059,-1198.22"/>
<polygon fill="none" stroke="black" stroke-width="0.5" points="1142.41,-1067.24 1147.57,-1057.98 1137.76,-1062 1142.41,-1067.24"/>
</g>
<!-- United&#45;Kingdom -->
<g id="node5" class="node"><title>United-Kingdom</title>
<path fill="whitesmoke" stroke="black" stroke-width="0.5" d="M781.302,-1763.59C781.302,-1763.59 846.302,-1763.59 846.302,-1763.59 852.302,-1763.59 858.302,-1769.59 858.302,-1775.59 858.302,-1775.59 858.302,-1787.59 858.302,-1787.59 858.302,-1793.59 852.302,-1799.59 846.302,-1799.59 846.302,-1799.59 781.302,-1799.59 781.302,-1799.59 775.302,-1799.59 769.302,-1793.59 769.302,-1787.59 769.302,-1787.59 769.302,-1775.59 769.302,-1775.59 769.302,-1769.59 775.302,-1763.59 781.302,-1763.59"/>
<text text-anchor="middle" x="813.802" y="-1778.79" font-family="Times New Roman,serif" font-size="11.00">United-Kingdom</text>
</g>
<!-- region -->
<g id="node6" class="node"><title>region</title>
<path fill="aliceblue" stroke="black" stroke-width="0.5" d="M763.109,-1363.63C763.109,-1363.63 793.109,-1363.63 793.109,-1363.63 799.109,-1363.63 805.109,-1369.63 805.109,-1375.63 805.109,-1375.63 805.109,-1387.63 805.109,-1387.63 805.109,-1393.63 799.109,-1399.63 793.109,-1399.63 793.109,-1399.63 763.109,-1399.63 763.109,-1399.63 757.109,-1399.63 751.109,-1393.63 751.109,-1387.63 751.109,-1387.63 751.109,-1375.63 751.109,-1375.63 751.109,-1369.63 757.109,-1363.63 763.109,-1363.63"/>
<text text-anchor="middle" x="778.109" y="-1378.83" font-family="Times New Roman,serif" font-size="11.00">region</text>
</g>
<!-- region&#45;&#45;United&#45;Kingdom -->
<g id="edge4" class="edge"><title>region--United-Kingdom</title>
<path fill="none" stroke="black" stroke-width="0.5" stroke-dasharray="5,2" d="M780.565,-1410.11C782.715,-1434.99 785.935,-1472.06 788.797,-1504.35 797.459,-1602.07 808.107,-1719.14 812.144,-1763.42"/>
<polygon fill="none" stroke="black" stroke-width="0.5" points="784.033,-1409.59 779.685,-1399.93 777.058,-1410.19 784.033,-1409.59"/>
</g>
<!-- Sweden -->
<g id="node9" class="node"><title>Sweden</title>
<path fill="whitesmoke" stroke="black" stroke-width="0.5" d="M1093.91,-1574.98C1093.91,-1574.98 1123.91,-1574.98 1123.91,-1574.98 1129.91,-1574.98 1135.91,-1580.98 1135.91,-1586.98 1135.91,-1586.98 1135.91,-1598.98 1135.91,-1598.98 1135.91,-1604.98 1129.91,-1610.98 1123.91,-1610.98 1123.91,-1610.98 1093.91,-1610.98 1093.91,-1610.98 1087.91,-1610.98 1081.91,-1604.98 1081.91,-1598.98 1081.91,-1598.98 1081.91,-1586.98 1081.91,-1586.98 1081.91,-1580.98 1087.91,-1574.98 1093.91,-1574.98"/>
<text text-anchor="middle" x="1108.91" y="-1590.18" font-family="Times New Roman,serif" font-size="11.00">Sweden</text>
</g>
<!-- region&#45;&#45;Sweden -->
<g id="edge7" class="edge"><title>region--Sweden</title>
<path fill="none" stroke="black" stroke-width="0.5" stroke-dasharray="5,2" d="M815.243,-1378.21C868.982,-1375.54 967.527,-1379.62 1018.2,-1437.95 1024.21,-1444.87 1018.58,-1470.49 1021.91,-1479.04 1036.89,-1517.54 1069.02,-1554.02 1089.76,-1574.91"/>
<polygon fill="none" stroke="black" stroke-width="0.5" points="814.892,-1374.72 805.12,-1378.82 815.313,-1381.71 814.892,-1374.72"/>
</g>
<!-- Berlin -->
<g id="node18" class="node"><title>Berlin</title>
<path fill="whitesmoke" stroke="black" stroke-width="0.5" d="M1114.93,-1168.21C1114.93,-1168.21 1144.93,-1168.21 1144.93,-1168.21 1150.93,-1168.21 1156.93,-1174.21 1156.93,-1180.21 1156.93,-1180.21 1156.93,-1192.21 1156.93,-1192.21 1156.93,-1198.21 1150.93,-1204.21 1144.93,-1204.21 1144.93,-1204.21 1114.93,-1204.21 1114.93,-1204.21 1108.93,-1204.21 1102.93,-1198.21 1102.93,-1192.21 1102.93,-1192.21 1102.93,-1180.21 1102.93,-1180.21 1102.93,-1174.21 1108.93,-1168.21 1114.93,-1168.21"/>
<text text-anchor="middle" x="1129.93" y="-1183.41" font-family="Times New Roman,serif" font-size="11.00">Berlin</text>
</g>
<!-- region&#45;&#45;Berlin -->
<g id="edge15" class="edge"><title>region--Berlin</title>
<path fill="none" stroke="black" stroke-width="0.5" stroke-dasharray="5,2" d="M814.117,-1361.63C884.751,-1322.39 1040.05,-1236.13 1102.81,-1201.27"/>
<polygon fill="none" stroke="black" stroke-width="0.5" points="812.174,-1358.7 805.131,-1366.62 815.573,-1364.82 812.174,-1358.7"/>
</g>
<!-- New&#45;York -->
<g id="node26" class="node"><title>New-York</title>
<path fill="whitesmoke" stroke="black" stroke-width="0.5" d="M659.373,-1420.76C659.373,-1420.76 700.373,-1420.76 700.373,-1420.76 706.373,-1420.76 712.373,-1426.76 712.373,-1432.76 712.373,-1432.76 712.373,-1444.76 712.373,-1444.76 712.373,-1450.76 706.373,-1456.76 700.373,-1456.76 700.373,-1456.76 659.373,-1456.76 659.373,-1456.76 653.373,-1456.76 647.373,-1450.76 647.373,-1444.76 647.373,-1444.76 647.373,-1432.76 647.373,-1432.76 647.373,-1426.76 653.373,-1420.76 659.373,-1420.76"/>
<text text-anchor="middle" x="679.873" y="-1435.96" font-family="Times New Roman,serif" font-size="11.00">New-York</text>
</g>
<!-- region&#45;&#45;New&#45;York -->
<g id="edge23" class="edge"><title>region--New-York</title>
<path fill="none" stroke="black" stroke-width="0.5" stroke-dasharray="5,2" d="M742.278,-1402.47C732.046,-1408.42 720.983,-1414.85 711.054,-1420.63"/>
<polygon fill="none" stroke="black" stroke-width="0.5" points="744.121,-1405.44 751.005,-1397.39 740.601,-1399.39 744.121,-1405.44"/>
</g>
<!-- Victoria -->
<g id="node31" class="node"><title>Victoria</title>
<path fill="whitesmoke" stroke="black" stroke-width="0.5" d="M595.908,-979.181C595.908,-979.181 625.908,-979.181 625.908,-979.181 631.908,-979.181 637.908,-985.181 637.908,-991.181 637.908,-991.181 637.908,-1003.18 637.908,-1003.18 637.908,-1009.18 631.908,-1015.18 625.908,-1015.18 625.908,-1015.18 595.908,-1015.18 595.908,-1015.18 589.908,-1015.18 583.908,-1009.18 583.908,-1003.18 583.908,-1003.18 583.908,-991.181 583.908,-991.181 583.908,-985.181 589.908,-979.181 595.908,-979.181"/>
<text text-anchor="middle" x="610.908" y="-994.381" font-family="Times New Roman,serif" font-size="11.00">Victoria</text>
</g>
<!-- region&#45;&#45;Victoria -->
<g id="edge28" class="edge"><title>region--Victoria</title>
<path fill="none" stroke="black" stroke-width="0.5" stroke-dasharray="5,2" d="M777.63,-1353.49C775.445,-1296.66 764.15,-1165.91 707.711,-1075.53 690.533,-1048.02 660.251,-1025.85 638.119,-1012.21"/>
<polygon fill="none" stroke="black" stroke-width="0.5" points="774.133,-1353.64 777.948,-1363.53 781.129,-1353.42 774.133,-1353.64"/>
</g>
<!-- Poland -->
<g id="node33" class="node"><title>Poland</title>
<path fill="whitesmoke" stroke="black" stroke-width="0.5" d="M482.584,-1357.63C482.584,-1357.63 512.584,-1357.63 512.584,-1357.63 518.584,-1357.63 524.584,-1363.63 524.584,-1369.63 524.584,-1369.63 524.584,-1381.63 524.584,-1381.63 524.584,-1387.63 518.584,-1393.63 512.584,-1393.63 512.584,-1393.63 482.584,-1393.63 482.584,-1393.63 476.584,-1393.63 470.584,-1387.63 470.584,-1381.63 470.584,-1381.63 470.584,-1369.63 470.584,-1369.63 470.584,-1363.63 476.584,-1357.63 482.584,-1357.63"/>
<text text-anchor="middle" x="497.584" y="-1372.83" font-family="Times New Roman,serif" font-size="11.00">Poland</text>
</g>
<!-- region&#45;&#45;Poland -->
<g id="edge30" class="edge"><title>region--Poland</title>
<path fill="none" stroke="black" stroke-width="0.5" stroke-dasharray="5,2" d="M740.883,-1380.83C683.616,-1379.61 575.247,-1377.29 524.752,-1376.21"/>
<polygon fill="none" stroke="black" stroke-width="0.5" points="740.884,-1384.33 750.956,-1381.05 741.033,-1377.33 740.884,-1384.33"/>
</g>
<!-- USA -->
<g id="node36" class="node"><title>USA</title>
<path fill="whitesmoke" stroke="black" stroke-width="0.5" d="M572.046,-1681.77C572.046,-1681.77 602.046,-1681.77 602.046,-1681.77 608.046,-1681.77 614.046,-1687.77 614.046,-1693.77 614.046,-1693.77 614.046,-1705.77 614.046,-1705.77 614.046,-1711.77 608.046,-1717.77 602.046,-1717.77 602.046,-1717.77 572.046,-1717.77 572.046,-1717.77 566.046,-1717.77 560.046,-1711.77 560.046,-1705.77 560.046,-1705.77 560.046,-1693.77 560.046,-1693.77 560.046,-1687.77 566.046,-1681.77 572.046,-1681.77"/>
<text text-anchor="middle" x="587.046" y="-1696.97" font-family="Times New Roman,serif" font-size="11.00">USA</text>
</g>
<!-- region&#45;&#45;USA -->
<g id="edge33" class="edge"><title>region--USA</title>
<path fill="none" stroke="black" stroke-width="0.5" stroke-dasharray="5,2" d="M762.134,-1408.23C724.322,-1471.19 630.114,-1628.05 597.984,-1681.55"/>
<polygon fill="none" stroke="black" stroke-width="0.5" points="765.141,-1410.02 767.289,-1399.64 759.14,-1406.41 765.141,-1410.02"/>
</g>
<!-- California -->
<g id="node38" class="node"><title>California</title>
<path fill="whitesmoke" stroke="black" stroke-width="0.5" d="M418.725,-1309.86C418.725,-1309.86 453.725,-1309.86 453.725,-1309.86 459.725,-1309.86 465.725,-1315.86 465.725,-1321.86 465.725,-1321.86 465.725,-1333.86 465.725,-1333.86 465.725,-1339.86 459.725,-1345.86 453.725,-1345.86 453.725,-1345.86 418.725,-1345.86 418.725,-1345.86 412.725,-1345.86 406.725,-1339.86 406.725,-1333.86 406.725,-1333.86 406.725,-1321.86 406.725,-1321.86 406.725,-1315.86 412.725,-1309.86 418.725,-1309.86"/>
<text text-anchor="middle" x="436.225" y="-1325.06" font-family="Times New Roman,serif" font-size="11.00">California</text>
</g>
<!-- region&#45;&#45;California -->
<g id="edge35" class="edge"><title>region--California</title>
<path fill="none" stroke="black" stroke-width="0.5" stroke-dasharray="5,2" d="M741.095,-1375.81C672.748,-1365.06 528.039,-1342.3 465.753,-1332.5"/>
<polygon fill="none" stroke="black" stroke-width="0.5" points="740.574,-1379.27 750.996,-1377.36 741.661,-1372.35 740.574,-1379.27"/>
</g>
<!-- Bavaria -->
<g id="node39" class="node"><title>Bavaria</title>
<path fill="whitesmoke" stroke="black" stroke-width="0.5" d="M1046.31,-1065.2C1046.31,-1065.2 1076.31,-1065.2 1076.31,-1065.2 1082.31,-1065.2 1088.31,-1071.2 1088.31,-1077.2 1088.31,-1077.2 1088.31,-1089.2 1088.31,-1089.2 1088.31,-1095.2 1082.31,-1101.2 1076.31,-1101.2 1076.31,-1101.2 1046.31,-1101.2 1046.31,-1101.2 1040.31,-1101.2 1034.31,-1095.2 1034.31,-1089.2 1034.31,-1089.2 1034.31,-1077.2 1034.31,-1077.2 1034.31,-1071.2 1040.31,-1065.2 1046.31,-1065.2"/>
<text text-anchor="middle" x="1061.31" y="-1080.4" font-family="Times New Roman,serif" font-size="11.00">Bavaria</text>
</g>
<!-- region&#45;&#45;Bavaria -->
<g id="edge36" class="edge"><title>region--Bavaria</title>
<path fill="none" stroke="black" stroke-width="0.5" stroke-dasharray="5,2" d="M814.829,-1371.49C869.875,-1354.3 973.035,-1314.04 1026.67,-1241.47 1058.26,-1198.71 1062.09,-1132.82 1061.92,-1101.26"/>
<polygon fill="none" stroke="black" stroke-width="0.5" points="813.686,-1368.18 805.133,-1374.43 815.719,-1374.87 813.686,-1368.18"/>
</g>
<!-- Switzerland -->
<g id="node40" class="node"><title>Switzerland</title>
<path fill="whitesmoke" stroke="black" stroke-width="0.5" d="M987.847,-1670.25C987.847,-1670.25 1031.85,-1670.25 1031.85,-1670.25 1037.85,-1670.25 1043.85,-1676.25 1043.85,-1682.25 1043.85,-1682.25 1043.85,-1694.25 1043.85,-1694.25 1043.85,-1700.25 1037.85,-1706.25 1031.85,-1706.25 1031.85,-1706.25 987.847,-1706.25 987.847,-1706.25 981.847,-1706.25 975.847,-1700.25 975.847,-1694.25 975.847,-1694.25 975.847,-1682.25 975.847,-1682.25 975.847,-1676.25 981.847,-1670.25 987.847,-1670.25"/>
<text text-anchor="middle" x="1009.85" y="-1685.45" font-family="Times New Roman,serif" font-size="11.00">Switzerland</text>
</g>
<!-- region&#45;&#45;Switzerland -->
<g id="edge37" class="edge"><title>region--Switzerland</title>
<path fill="none" stroke="black" stroke-width="0.5" stroke-dasharray="5,2" d="M774.634,-1409.86C772.752,-1435.9 773.378,-1474.87 788.797,-1504.35 830.904,-1584.86 924.866,-1643.84 975.669,-1671.21"/>
<polygon fill="none" stroke="black" stroke-width="0.5" points="778.12,-1410.16 775.522,-1399.89 771.148,-1409.54 778.12,-1410.16"/>
</g>
<!-- Germany -->
<g id="node42" class="node"><title>Germany</title>
<path fill="whitesmoke" stroke="black" stroke-width="0.5" d="M684.778,-1718.8C684.778,-1718.8 717.778,-1718.8 717.778,-1718.8 723.778,-1718.8 729.778,-1724.8 729.778,-1730.8 729.778,-1730.8 729.778,-1742.8 729.778,-1742.8 729.778,-1748.8 723.778,-1754.8 717.778,-1754.8 717.778,-1754.8 684.778,-1754.8 684.778,-1754.8 678.778,-1754.8 672.778,-1748.8 672.778,-1742.8 672.778,-1742.8 672.778,-1730.8 672.778,-1730.8 672.778,-1724.8 678.778,-1718.8 684.778,-1718.8"/>
<text text-anchor="middle" x="701.278" y="-1734" font-family="Times New Roman,serif" font-size="11.00">Germany</text>
</g>
<!-- region&#45;&#45;Germany -->
<g id="edge39" class="edge"><title>region--Germany</title>
<path fill="none" stroke="black" stroke-width="0.5" stroke-dasharray="5,2" d="M772.059,-1409.6C756.918,-1479.59 717.711,-1660.84 705.186,-1718.74"/>
<polygon fill="none" stroke="black" stroke-width="0.5" points="775.5,-1410.24 774.193,-1399.73 768.658,-1408.76 775.5,-1410.24"/>
</g>
<!-- Sweden&#45;&#45;Border&#45;Cross&#45;Quarantine&#45;Sweden -->
<g id="edge45" class="edge"><title>Sweden--Border-Cross-Quarantine-Sweden</title>
<path fill="none" stroke="black" stroke-width="0.5" d="M1125.55,-1574.78C1143.14,-1556.66 1172.54,-1529.35 1203.27,-1513.82 1232.33,-1499.13 1265.71,-1488.45 1297.38,-1480.73"/>
<polygon fill="black" stroke="black" stroke-width="0.5" points="1307.14,-1478.43 1298.44,-1485.1 1302.28,-1479.58 1297.41,-1480.72 1297.41,-1480.72 1297.41,-1480.72 1302.28,-1479.58 1296.38,-1476.34 1307.14,-1478.43 1307.14,-1478.43"/>
<text text-anchor="middle" x="1183.61" y="-1502.14" font-family="Times New Roman,serif" font-size="11.00">introduceds</text>
</g>
<!-- Mass&#45;Coronavirus&#45;Testing&#45;Berlin -->
<g id="node11" class="node"><title>Mass-Coronavirus-Testing-Berlin</title>
<path fill="whitesmoke" stroke="black" stroke-width="0.5" d="M1374.3,-825.066C1374.3,-825.066 1572.3,-825.066 1572.3,-825.066 1578.3,-825.066 1584.3,-831.066 1584.3,-837.066 1584.3,-837.066 1584.3,-853.066 1584.3,-853.066 1584.3,-859.066 1578.3,-865.066 1572.3,-865.066 1572.3,-865.066 1374.3,-865.066 1374.3,-865.066 1368.3,-865.066 1362.3,-859.066 1362.3,-853.066 1362.3,-853.066 1362.3,-837.066 1362.3,-837.066 1362.3,-831.066 1368.3,-825.066 1374.3,-825.066"/>
<text text-anchor="middle" x="1473.3" y="-852.266" font-family="Times New Roman,serif" font-size="11.00">Mass-Coronavirus-Testing-Berlin</text>
<polyline fill="none" stroke="black" stroke-width="0.5" points="1362.3,-845.066 1584.3,-845.066 "/>
<text text-anchor="middle" x="1404.3" y="-832.266" font-family="Times New Roman,serif" font-size="11.00">was-introduced</text>
<polyline fill="none" stroke="black" stroke-width="0.5" points="1446.3,-825.066 1446.3,-845.066 "/>
<text text-anchor="middle" x="1515.3" y="-832.266" font-family="Times New Roman,serif" font-size="11.00">2020-06-29T00:00:00+02:00</text>
</g>
<!-- mass&#45;coronavirus&#45;testing -->
<g id="node12" class="node"><title>mass-coronavirus-testing</title>
<path fill="aliceblue" stroke="black" stroke-width="0.5" d="M1269.59,-439.556C1269.59,-439.556 1371.59,-439.556 1371.59,-439.556 1377.59,-439.556 1383.59,-445.556 1383.59,-451.556 1383.59,-451.556 1383.59,-463.556 1383.59,-463.556 1383.59,-469.556 1377.59,-475.556 1371.59,-475.556 1371.59,-475.556 1269.59,-475.556 1269.59,-475.556 1263.59,-475.556 1257.59,-469.556 1257.59,-463.556 1257.59,-463.556 1257.59,-451.556 1257.59,-451.556 1257.59,-445.556 1263.59,-439.556 1269.59,-439.556"/>
<text text-anchor="middle" x="1320.59" y="-454.756" font-family="Times New Roman,serif" font-size="11.00">mass-coronavirus-testing</text>
</g>
<!-- mass&#45;coronavirus&#45;testing&#45;&#45;Mass&#45;Coronavirus&#45;Testing&#45;Berlin -->
<g id="edge9" class="edge"><title>mass-coronavirus-testing--Mass-Coronavirus-Testing-Berlin</title>
<path fill="none" stroke="black" stroke-width="0.5" stroke-dasharray="5,2" d="M1367.06,-480.413C1409.85,-504.21 1471,-545.798 1500.29,-601.427 1539.4,-675.694 1535.48,-709.769 1510.78,-789.984 1506.86,-802.697 1498.9,-815.103 1491.32,-824.913"/>
<polygon fill="none" stroke="black" stroke-width="0.5" points="1368.68,-477.311 1358.22,-475.606 1365.33,-483.46 1368.68,-477.311"/>
</g>
<!-- Mass&#45;Coronavirus&#45;Testing&#45;Australia -->
<g id="node16" class="node"><title>Mass-Coronavirus-Testing-Australia</title>
<path fill="whitesmoke" stroke="black" stroke-width="0.5" d="M1010.75,-0.204298C1010.75,-0.204298 1208.75,-0.204298 1208.75,-0.204298 1214.75,-0.204298 1220.75,-6.2043 1220.75,-12.2043 1220.75,-12.2043 1220.75,-28.2043 1220.75,-28.2043 1220.75,-34.2043 1214.75,-40.2043 1208.75,-40.2043 1208.75,-40.2043 1010.75,-40.2043 1010.75,-40.2043 1004.75,-40.2043 998.748,-34.2043 998.748,-28.2043 998.748,-28.2043 998.748,-12.2043 998.748,-12.2043 998.748,-6.2043 1004.75,-0.204298 1010.75,-0.204298"/>
<text text-anchor="middle" x="1109.75" y="-27.4043" font-family="Times New Roman,serif" font-size="11.00">Mass-Coronavirus-Testing-Australia</text>
<polyline fill="none" stroke="black" stroke-width="0.5" points="998.748,-20.2043 1220.75,-20.2043 "/>
<text text-anchor="middle" x="1040.75" y="-7.4043" font-family="Times New Roman,serif" font-size="11.00">was-introduced</text>
<polyline fill="none" stroke="black" stroke-width="0.5" points="1082.75,-0.204298 1082.75,-20.2043 "/>
<text text-anchor="middle" x="1151.75" y="-7.4043" font-family="Times New Roman,serif" font-size="11.00">2020-04-19T00:00:00+02:00</text>
</g>
<!-- mass&#45;coronavirus&#45;testing&#45;&#45;Mass&#45;Coronavirus&#45;Testing&#45;Australia -->
<g id="edge13" class="edge"><title>mass-coronavirus-testing--Mass-Coronavirus-Testing-Australia</title>
<path fill="none" stroke="black" stroke-width="0.5" stroke-dasharray="5,2" d="M1307.42,-430.229C1268.31,-349.119 1153.52,-111.009 1119.41,-40.2539"/>
<polygon fill="none" stroke="black" stroke-width="0.5" points="1304.3,-431.832 1311.8,-439.32 1310.61,-428.793 1304.3,-431.832"/>
</g>
<!-- Mass&#45;Coronavirus&#45;Testing&#45;Victoria -->
<g id="node22" class="node"><title>Mass-Coronavirus-Testing-Victoria</title>
<path fill="whitesmoke" stroke="black" stroke-width="0.5" d="M825.57,-594.308C825.57,-594.308 1023.57,-594.308 1023.57,-594.308 1029.57,-594.308 1035.57,-600.308 1035.57,-606.308 1035.57,-606.308 1035.57,-622.308 1035.57,-622.308 1035.57,-628.308 1029.57,-634.308 1023.57,-634.308 1023.57,-634.308 825.57,-634.308 825.57,-634.308 819.57,-634.308 813.57,-628.308 813.57,-622.308 813.57,-622.308 813.57,-606.308 813.57,-606.308 813.57,-600.308 819.57,-594.308 825.57,-594.308"/>
<text text-anchor="middle" x="924.57" y="-621.508" font-family="Times New Roman,serif" font-size="11.00">Mass-Coronavirus-Testing-Victoria</text>
<polyline fill="none" stroke="black" stroke-width="0.5" points="813.57,-614.308 1035.57,-614.308 "/>
<text text-anchor="middle" x="855.57" y="-601.508" font-family="Times New Roman,serif" font-size="11.00">was-introduced</text>
<polyline fill="none" stroke="black" stroke-width="0.5" points="897.57,-594.308 897.57,-614.308 "/>
<text text-anchor="middle" x="966.57" y="-601.508" font-family="Times New Roman,serif" font-size="11.00">2020-04-14T00:00:00+02:00</text>
</g>
<!-- mass&#45;coronavirus&#45;testing&#45;&#45;Mass&#45;Coronavirus&#45;Testing&#45;Victoria -->
<g id="edge19" class="edge"><title>mass-coronavirus-testing--Mass-Coronavirus-Testing-Victoria</title>
<path fill="none" stroke="black" stroke-width="0.5" stroke-dasharray="5,2" d="M1300.6,-483.708C1279.97,-508.705 1245.44,-545.361 1206.88,-564.696 1154.17,-591.13 1089.77,-603.722 1035.79,-609.623"/>
<polygon fill="none" stroke="black" stroke-width="0.5" points="1303.49,-485.699 1307.05,-475.72 1298.04,-481.302 1303.49,-485.699"/>
</g>
<!-- Mass&#45;Coronavirus&#45;Testing&#45;Bavaria -->
<g id="node23" class="node"><title>Mass-Coronavirus-Testing-Bavaria</title>
<path fill="whitesmoke" stroke="black" stroke-width="0.5" d="M1297.58,-746.784C1297.58,-746.784 1495.58,-746.784 1495.58,-746.784 1501.58,-746.784 1507.58,-752.784 1507.58,-758.784 1507.58,-758.784 1507.58,-774.784 1507.58,-774.784 1507.58,-780.784 1501.58,-786.784 1495.58,-786.784 1495.58,-786.784 1297.58,-786.784 1297.58,-786.784 1291.58,-786.784 1285.58,-780.784 1285.58,-774.784 1285.58,-774.784 1285.58,-758.784 1285.58,-758.784 1285.58,-752.784 1291.58,-746.784 1297.58,-746.784"/>
<text text-anchor="middle" x="1396.58" y="-773.984" font-family="Times New Roman,serif" font-size="11.00">Mass-Coronavirus-Testing-Bavaria</text>
<polyline fill="none" stroke="black" stroke-width="0.5" points="1285.58,-766.784 1507.58,-766.784 "/>
<text text-anchor="middle" x="1327.58" y="-753.984" font-family="Times New Roman,serif" font-size="11.00">was-introduced</text>
<polyline fill="none" stroke="black" stroke-width="0.5" points="1369.58,-746.784 1369.58,-766.784 "/>
<text text-anchor="middle" x="1438.58" y="-753.984" font-family="Times New Roman,serif" font-size="11.00">2020-06-23T00:00:00+02:00</text>
</g>
<!-- mass&#45;coronavirus&#45;testing&#45;&#45;Mass&#45;Coronavirus&#45;Testing&#45;Bavaria -->
<g id="edge20" class="edge"><title>mass-coronavirus-testing--Mass-Coronavirus-Testing-Bavaria</title>
<path fill="none" stroke="black" stroke-width="0.5" stroke-dasharray="5,2" d="M1303.33,-484.248C1279.06,-525.439 1240.97,-606.179 1270.89,-667.827 1288.17,-703.429 1325.16,-730.058 1354.56,-746.672"/>
<polygon fill="none" stroke="black" stroke-width="0.5" points="1306.38,-485.973 1308.57,-475.606 1300.39,-482.346 1306.38,-485.973"/>
</g>
<!-- Mass&#45;Coronavirus&#45;Testing&#45;England -->
<g id="node35" class="node"><title>Mass-Coronavirus-Testing-England</title>
<path fill="whitesmoke" stroke="black" stroke-width="0.5" d="M1349.36,-50.1335C1349.36,-50.1335 1547.36,-50.1335 1547.36,-50.1335 1553.36,-50.1335 1559.36,-56.1335 1559.36,-62.1335 1559.36,-62.1335 1559.36,-78.1335 1559.36,-78.1335 1559.36,-84.1335 1553.36,-90.1335 1547.36,-90.1335 1547.36,-90.1335 1349.36,-90.1335 1349.36,-90.1335 1343.36,-90.1335 1337.36,-84.1335 1337.36,-78.1335 1337.36,-78.1335 1337.36,-62.1335 1337.36,-62.1335 1337.36,-56.1335 1343.36,-50.1335 1349.36,-50.1335"/>
<text text-anchor="middle" x="1448.36" y="-77.3335" font-family="Times New Roman,serif" font-size="11.00">Mass-Coronavirus-Testing-England</text>
<polyline fill="none" stroke="black" stroke-width="0.5" points="1337.36,-70.1335 1559.36,-70.1335 "/>
<text text-anchor="middle" x="1379.36" y="-57.3335" font-family="Times New Roman,serif" font-size="11.00">was-introduced</text>
<polyline fill="none" stroke="black" stroke-width="0.5" points="1421.36,-50.1335 1421.36,-70.1335 "/>
<text text-anchor="middle" x="1490.36" y="-57.3335" font-family="Times New Roman,serif" font-size="11.00">2020-09-09T00:00:00+02:00</text>
</g>
<!-- mass&#45;coronavirus&#45;testing&#45;&#45;Mass&#45;Coronavirus&#45;Testing&#45;England -->
<g id="edge32" class="edge"><title>mass-coronavirus-testing--Mass-Coronavirus-Testing-England</title>
<path fill="none" stroke="black" stroke-width="0.5" stroke-dasharray="5,2" d="M1329.73,-429.825C1354.12,-355.891 1420.28,-155.29 1441.62,-90.5639"/>
<polygon fill="none" stroke="black" stroke-width="0.5" points="1326.39,-428.796 1326.58,-439.39 1333.04,-430.989 1326.39,-428.796"/>
</g>
<!-- Berlin&#45;&#45;Border&#45;Cross&#45;Quarantine&#45;Berlin -->
<g id="edge50" class="edge"><title>Berlin--Border-Cross-Quarantine-Berlin</title>
<path fill="none" stroke="black" stroke-width="0.5" d="M1156.97,-1190.87C1209.57,-1199.94 1328.59,-1220.47 1420.49,-1236.32"/>
<polygon fill="black" stroke="black" stroke-width="0.5" points="1430.42,-1238.03 1419.8,-1240.76 1425.49,-1237.18 1420.56,-1236.33 1420.56,-1236.33 1420.56,-1236.33 1425.49,-1237.18 1421.33,-1231.9 1430.42,-1238.03 1430.42,-1238.03"/>
<text text-anchor="middle" x="1268.35" y="-1217.68" font-family="Times New Roman,serif" font-size="11.00">introduceds</text>
</g>
<!-- Berlin&#45;&#45;Mass&#45;Coronavirus&#45;Testing&#45;Berlin -->
<g id="edge51" class="edge"><title>Berlin--Mass-Coronavirus-Testing-Berlin</title>
<path fill="none" stroke="black" stroke-width="0.5" d="M1148.39,-1167.87C1205.26,-1111.37 1378.02,-939.723 1445.69,-872.491"/>
<polygon fill="black" stroke="black" stroke-width="0.5" points="1453.04,-865.196 1449.11,-875.436 1449.49,-868.72 1445.94,-872.244 1445.94,-872.244 1445.94,-872.244 1449.49,-868.72 1442.77,-869.051 1453.04,-865.196 1453.04,-865.196"/>
<text text-anchor="middle" x="1275.07" y="-1019.87" font-family="Times New Roman,serif" font-size="11.00">introduceds</text>
</g>
<!-- Berlin&#45;&#45;Lockdown&#45;Berlin -->
<g id="edge52" class="edge"><title>Berlin--Lockdown-Berlin</title>
<path fill="none" stroke="black" stroke-width="0.5" d="M1102.75,-1172.02C1057.99,-1148.67 967.51,-1101.45 904.921,-1068.79"/>
<polygon fill="black" stroke="black" stroke-width="0.5" points="895.898,-1064.08 906.845,-1064.71 900.33,-1066.39 904.763,-1068.7 904.763,-1068.7 904.763,-1068.7 900.33,-1066.39 902.681,-1072.69 895.898,-1064.08 895.898,-1064.08"/>
<text text-anchor="middle" x="973.981" y="-1121.33" font-family="Times New Roman,serif" font-size="11.00">introduceds</text>
</g>
<!-- Berlin&#45;&#45;Face&#45;Cover&#45;Berlin -->
<g id="edge53" class="edge"><title>Berlin--Face-Cover-Berlin</title>
<path fill="none" stroke="black" stroke-width="0.5" d="M1125.2,-1168.12C1110.84,-1113.21 1067.63,-948.032 1049.78,-879.797"/>
<polygon fill="black" stroke="black" stroke-width="0.5" points="1047.24,-870.083 1054.12,-878.619 1048.51,-874.921 1049.77,-879.758 1049.77,-879.758 1049.77,-879.758 1048.51,-874.921 1045.42,-880.897 1047.24,-870.083 1047.24,-870.083"/>
<text text-anchor="middle" x="1060.69" y="-1022.18" font-family="Times New Roman,serif" font-size="11.00">introduceds</text>
</g>
<!-- New&#45;York&#45;&#45;Border&#45;Cross&#45;Quarantine&#45;New&#45;York -->
<g id="edge54" class="edge"><title>New-York--Border-Cross-Quarantine-New-York</title>
<path fill="none" stroke="black" stroke-width="0.5" d="M712.762,-1438.45C734.373,-1438.26 763.267,-1438.04 788.797,-1437.95 887.466,-1437.58 914.79,-1430.74 1014.83,-1437.77"/>
<polygon fill="black" stroke="black" stroke-width="0.5" points="1025.07,-1438.52 1014.77,-1442.27 1020.09,-1438.15 1015.1,-1437.79 1015.1,-1437.79 1015.1,-1437.79 1020.09,-1438.15 1015.43,-1433.3 1025.07,-1438.52 1025.07,-1438.52"/>
<text text-anchor="middle" x="843.258" y="-1427.39" font-family="Times New Roman,serif" font-size="11.00">introduceds</text>
</g>
<!-- New&#45;York&#45;&#45;Lockdown&#45;New&#45;York -->
<g id="edge55" class="edge"><title>New-York--Lockdown-New-York</title>
<path fill="none" stroke="black" stroke-width="0.5" d="M664.563,-1420.52C632.842,-1382.71 559.355,-1295.13 516.799,-1244.42"/>
<polygon fill="black" stroke="black" stroke-width="0.5" points="510.246,-1236.61 520.121,-1241.37 513.46,-1240.44 516.674,-1244.27 516.674,-1244.27 516.674,-1244.27 513.46,-1240.44 513.227,-1247.16 510.246,-1236.61 510.246,-1236.61"/>
<text text-anchor="middle" x="561.764" y="-1331.59" font-family="Times New Roman,serif" font-size="11.00">introduceds</text>
</g>
<!-- New&#45;York&#45;&#45;Face&#45;Cover&#45;New&#45;York -->
<g id="edge56" class="edge"><title>New-York--Face-Cover-New-York</title>
<path fill="none" stroke="black" stroke-width="0.5" d="M675.23,-1420.48C661.1,-1364.85 618.527,-1197.23 601.087,-1128.56"/>
<polygon fill="black" stroke="black" stroke-width="0.5" points="598.607,-1118.79 605.43,-1127.38 599.838,-1123.64 601.069,-1128.49 601.069,-1128.49 601.069,-1128.49 599.838,-1123.64 596.707,-1129.59 598.607,-1118.79 598.607,-1118.79"/>
<text text-anchor="middle" x="611.332" y="-1272.5" font-family="Times New Roman,serif" font-size="11.00">introduceds</text>
</g>
<!-- Victoria&#45;&#45;Lockdown&#45;Victoria -->
<g id="edge61" class="edge"><title>Victoria--Lockdown-Victoria</title>
<path fill="none" stroke="black" stroke-width="0.5" d="M588.301,-979.044C555.366,-953.378 491.479,-906.405 430.713,-877.757 406.517,-866.35 379.205,-856.73 353.679,-849"/>
<polygon fill="black" stroke="black" stroke-width="0.5" points="343.994,-846.13 354.861,-844.657 348.788,-847.551 353.582,-848.971 353.582,-848.971 353.582,-848.971 348.788,-847.551 352.303,-853.286 343.994,-846.13 343.994,-846.13"/>
<text text-anchor="middle" x="498.661" y="-903.405" font-family="Times New Roman,serif" font-size="11.00">introduceds</text>
</g>
<!-- Victoria&#45;&#45;Mass&#45;Coronavirus&#45;Testing&#45;Victoria -->
<g id="edge62" class="edge"><title>Victoria--Mass-Coronavirus-Testing-Victoria</title>
<path fill="none" stroke="black" stroke-width="0.5" d="M638.216,-981.487C704.971,-943.07 871.287,-847.033 875.276,-841.517 897.896,-810.241 914.23,-698.887 921.046,-644.559"/>
<polygon fill="black" stroke="black" stroke-width="0.5" points="922.282,-634.494 925.53,-644.968 921.672,-639.457 921.063,-644.42 921.063,-644.42 921.063,-644.42 921.672,-639.457 916.597,-643.872 922.282,-634.494 922.282,-634.494"/>
<text text-anchor="middle" x="794.991" y="-878.71" font-family="Times New Roman,serif" font-size="11.00">introduceds</text>
</g>
<!-- Victoria&#45;&#45;Face&#45;Cover&#45;Victoria -->
<g id="edge63" class="edge"><title>Victoria--Face-Cover-Victoria</title>
<path fill="none" stroke="black" stroke-width="0.5" d="M595.496,-979.057C569.168,-947.881 514.179,-881.825 470.887,-823.526 446.756,-791.03 420.787,-752.422 403.791,-726.608"/>
<polygon fill="black" stroke="black" stroke-width="0.5" points="398.172,-718.042 407.42,-723.935 400.914,-722.223 403.657,-726.404 403.657,-726.404 403.657,-726.404 400.914,-722.223 399.894,-728.872 398.172,-718.042 398.172,-718.042"/>
<text text-anchor="middle" x="445.385" y="-826.723" font-family="Times New Roman,serif" font-size="11.00">introduceds</text>
</g>
<!-- Victoria&#45;&#45;Border&#45;Cross&#45;Quarantine&#45;Victoria -->
<g id="edge64" class="edge"><title>Victoria--Border-Cross-Quarantine-Victoria</title>
<path fill="none" stroke="black" stroke-width="0.5" d="M635.586,-1015.27C688.787,-1054.28 814.475,-1146.43 876.528,-1191.92"/>
<polygon fill="black" stroke="black" stroke-width="0.5" points="884.848,-1198.02 874.122,-1195.74 880.816,-1195.06 876.783,-1192.11 876.783,-1192.11 876.783,-1192.11 880.816,-1195.06 879.444,-1188.48 884.848,-1198.02 884.848,-1198.02"/>
<text text-anchor="middle" x="734.764" y="-1109.88" font-family="Times New Roman,serif" font-size="11.00">introduceds</text>
</g>
<!-- Poland&#45;&#45;Face&#45;Cover&#45;Poland -->
<g id="edge65" class="edge"><title>Poland--Face-Cover-Poland</title>
<path fill="none" stroke="black" stroke-width="0.5" d="M493.146,-1357.4C488.836,-1342.54 481.13,-1321.63 468.925,-1306.66 435.362,-1265.47 394.921,-1286.4 370.064,-1239.44 337.463,-1177.85 355.696,-1092.54 369.097,-1048.03"/>
<polygon fill="black" stroke="black" stroke-width="0.5" points="372.114,-1038.41 373.417,-1049.3 370.619,-1043.18 369.123,-1047.95 369.123,-1047.95 369.123,-1047.95 370.619,-1043.18 364.829,-1046.6 372.114,-1038.41 372.114,-1038.41"/>
<text text-anchor="middle" x="344.573" y="-1242.65" font-family="Times New Roman,serif" font-size="11.00">introduceds</text>
</g>
<!-- Poland&#45;&#45;Border&#45;Cross&#45;Quarantine&#45;Poland -->
<g id="edge66" class="edge"><title>Poland--Border-Cross-Quarantine-Poland</title>
<path fill="none" stroke="black" stroke-width="0.5" d="M524.594,-1380.04C565.949,-1386.97 647.342,-1401.3 715.573,-1417.56 741.325,-1423.7 768.838,-1431.07 794.646,-1438.36"/>
<polygon fill="black" stroke="black" stroke-width="0.5" points="804.446,-1441.15 793.597,-1442.74 799.637,-1439.78 794.827,-1438.41 794.827,-1438.41 794.827,-1438.41 799.637,-1439.78 796.058,-1434.08 804.446,-1441.15 804.446,-1441.15"/>
<text text-anchor="middle" x="639.776" y="-1409.54" font-family="Times New Roman,serif" font-size="11.00">introduceds</text>
</g>
<!-- Poland&#45;&#45;Lockdown&#45;Poland -->
<g id="edge67" class="edge"><title>Poland--Lockdown-Poland</title>
<path fill="none" stroke="black" stroke-width="0.5" d="M470.347,-1371.41C450.836,-1367.58 424.424,-1360.7 403.525,-1349.06 324.576,-1305.05 250.949,-1227.97 210.973,-1181.91"/>
<polygon fill="black" stroke="black" stroke-width="0.5" points="204.378,-1174.24 214.31,-1178.89 207.638,-1178.03 210.898,-1181.82 210.898,-1181.82 210.898,-1181.82 207.638,-1178.03 207.486,-1184.75 204.378,-1174.24 204.378,-1174.24"/>
<text text-anchor="middle" x="295.866" y="-1294.62" font-family="Times New Roman,serif" font-size="11.00">introduceds</text>
</g>
<!-- California&#45;&#45;Lockdown&#45;California -->
<g id="edge68" class="edge"><title>California--Lockdown-California</title>
<path fill="none" stroke="black" stroke-width="0.5" d="M421.674,-1309.66C407.842,-1292.08 386.735,-1264.5 370.064,-1239.44 333.358,-1184.25 345.764,-1152.87 294.479,-1110.89 276.524,-1096.2 254.942,-1084.83 233,-1076.07"/>
<polygon fill="black" stroke="black" stroke-width="0.5" points="223.584,-1072.48 234.532,-1071.84 228.255,-1074.26 232.926,-1076.05 232.926,-1076.05 232.926,-1076.05 228.255,-1074.26 231.321,-1080.25 223.584,-1072.48 223.584,-1072.48"/>
<text text-anchor="middle" x="317.307" y="-1186.81" font-family="Times New Roman,serif" font-size="11.00">introduceds</text>
</g>
<!-- California&#45;&#45;Face&#45;Cover&#45;California -->
<g id="edge69" class="edge"><title>California--Face-Cover-California</title>
<path fill="none" stroke="black" stroke-width="0.5" d="M421.425,-1309.82C407.413,-1292.35 386.18,-1264.86 370.064,-1239.44 343.41,-1197.39 277.124,-1089.83 265.107,-1041.52 260.129,-1021.51 260.008,-1015.1 265.107,-995.119 271.107,-971.606 284.315,-947.637 295.84,-929.766"/>
<polygon fill="black" stroke="black" stroke-width="0.5" points="301.667,-921.011 299.873,-931.829 298.897,-925.173 296.126,-929.336 296.126,-929.336 296.126,-929.336 298.897,-925.173 292.38,-926.843 301.667,-921.011 301.667,-921.011"/>
<text text-anchor="middle" x="337.471" y="-1145.8" font-family="Times New Roman,serif" font-size="11.00">introduceds</text>
</g>
<!-- Bavaria&#45;&#45;Border&#45;Cross&#45;Quarantine&#45;Bavaria -->
<g id="edge70" class="edge"><title>Bavaria--Border-Cross-Quarantine-Bavaria</title>
<path fill="none" stroke="black" stroke-width="0.5" d="M1088.31,-1084.05C1144.53,-1085.82 1277.15,-1089.99 1376.42,-1093.12"/>
<polygon fill="black" stroke="black" stroke-width="0.5" points="1386.53,-1093.44 1376.39,-1097.62 1381.53,-1093.28 1376.54,-1093.12 1376.54,-1093.12 1376.54,-1093.12 1381.53,-1093.28 1376.68,-1088.62 1386.53,-1093.44 1386.53,-1093.44"/>
<text text-anchor="middle" x="1211.93" y="-1091.94" font-family="Times New Roman,serif" font-size="11.00">introduceds</text>
</g>
<!-- Bavaria&#45;&#45;Mass&#45;Coronavirus&#45;Testing&#45;Bavaria -->
<g id="edge71" class="edge"><title>Bavaria--Mass-Coronavirus-Testing-Bavaria</title>
<path fill="none" stroke="black" stroke-width="0.5" d="M1071.17,-1065.01C1078.91,-1051.54 1090.45,-1033.11 1102.98,-1018.76 1184.46,-925.448 1300.92,-835.805 1359.67,-792.976"/>
<polygon fill="black" stroke="black" stroke-width="0.5" points="1367.91,-787.001 1362.45,-796.515 1363.86,-789.937 1359.81,-792.872 1359.81,-792.872 1359.81,-792.872 1363.86,-789.937 1357.17,-789.229 1367.91,-787.001 1367.91,-787.001"/>
<text text-anchor="middle" x="1183.17" y="-917.108" font-family="Times New Roman,serif" font-size="11.00">introduceds</text>
</g>
<!-- Bavaria&#45;&#45;Lockdown&#45;Bavaria -->
<g id="edge72" class="edge"><title>Bavaria--Lockdown-Bavaria</title>
<path fill="none" stroke="black" stroke-width="0.5" d="M1043.77,-1065.08C1009.78,-1030.23 932.173,-951.853 862.686,-890.431 845.245,-875.014 825.432,-858.802 807.93,-844.894"/>
<polygon fill="black" stroke="black" stroke-width="0.5" points="800.069,-838.677 810.704,-841.35 803.991,-841.779 807.913,-844.88 807.913,-844.88 807.913,-844.88 803.991,-841.779 805.121,-848.41 800.069,-838.677 800.069,-838.677"/>
<text text-anchor="middle" x="900.274" y="-951.623" font-family="Times New Roman,serif" font-size="11.00">introduceds</text>
</g>
<!-- Bavaria&#45;&#45;Face&#45;Cover&#45;Bavaria -->
<g id="edge73" class="edge"><title>Bavaria--Face-Cover-Bavaria</title>
<path fill="none" stroke="black" stroke-width="0.5" d="M1072.76,-1065C1094.24,-1029.65 1139.89,-948.543 1156.14,-873.005 1160.47,-852.844 1163.53,-845.856 1156.14,-826.605 1138.88,-781.681 1099.06,-742.348 1069.59,-717.835"/>
<polygon fill="black" stroke="black" stroke-width="0.5" points="1061.58,-711.322 1072.18,-714.141 1065.46,-714.477 1069.34,-717.632 1069.34,-717.632 1069.34,-717.632 1065.46,-714.477 1066.5,-721.123 1061.58,-711.322 1061.58,-711.322"/>
<text text-anchor="middle" x="1130.64" y="-876.201" font-family="Times New Roman,serif" font-size="11.00">introduceds</text>
</g>
<!-- Switzerland&#45;&#45;Border&#45;Cross&#45;Quarantine&#45;Switzerland -->
<g id="edge74" class="edge"><title>Switzerland--Border-Cross-Quarantine-Switzerland</title>
<path fill="none" stroke="black" stroke-width="0.5" d="M1043.94,-1671.48C1098.18,-1644.82 1204.38,-1592.61 1267.31,-1561.68"/>
<polygon fill="black" stroke="black" stroke-width="0.5" points="1276.64,-1557.09 1269.65,-1565.54 1272.16,-1559.29 1267.67,-1561.5 1267.67,-1561.5 1267.67,-1561.5 1272.16,-1559.29 1265.68,-1557.46 1276.64,-1557.09 1276.64,-1557.09"/>
<text text-anchor="middle" x="1135.09" y="-1617.34" font-family="Times New Roman,serif" font-size="11.00">introduceds</text>
</g>
<!-- Australia -->
<g id="node48" class="node"><title>Australia</title>
<path fill="whitesmoke" stroke="black" stroke-width="0.5" d="M798.959,-159.704C798.959,-159.704 830.959,-159.704 830.959,-159.704 836.959,-159.704 842.959,-165.704 842.959,-171.704 842.959,-171.704 842.959,-183.704 842.959,-183.704 842.959,-189.704 836.959,-195.704 830.959,-195.704 830.959,-195.704 798.959,-195.704 798.959,-195.704 792.959,-195.704 786.959,-189.704 786.959,-183.704 786.959,-183.704 786.959,-171.704 786.959,-171.704 786.959,-165.704 792.959,-159.704 798.959,-159.704"/>
<text text-anchor="middle" x="814.959" y="-174.904" font-family="Times New Roman,serif" font-size="11.00">Australia</text>
</g>
<!-- Australia&#45;&#45;Mass&#45;Coronavirus&#45;Testing&#45;Australia -->
<g id="edge46" class="edge"><title>Australia--Mass-Coronavirus-Testing-Australia</title>
<path fill="none" stroke="black" stroke-width="0.5" d="M843.225,-162.603C893.941,-135.506 1000.86,-78.38 1062.76,-45.31"/>
<polygon fill="black" stroke="black" stroke-width="0.5" points="1071.92,-40.4145 1065.22,-49.096 1067.51,-42.7708 1063.1,-45.127 1063.1,-45.127 1063.1,-45.127 1067.51,-42.7708 1060.98,-41.1579 1071.92,-40.4145 1071.92,-40.4145"/>
<text text-anchor="middle" x="931.923" y="-104.789" font-family="Times New Roman,serif" font-size="11.00">introduceds</text>
</g>
<!-- Australia&#45;&#45;Lockdown&#45;Australia -->
<g id="edge47" class="edge"><title>Australia--Lockdown-Australia</title>
<path fill="none" stroke="black" stroke-width="0.5" d="M787.232,-195.771C721.068,-238.88 553.772,-347.882 477.215,-397.763"/>
<polygon fill="black" stroke="black" stroke-width="0.5" points="468.779,-403.259 474.701,-394.03 472.968,-400.53 477.157,-397.8 477.157,-397.8 477.157,-397.8 472.968,-400.53 479.614,-401.57 468.779,-403.259 468.779,-403.259"/>
<text text-anchor="middle" x="602.574" y="-302.67" font-family="Times New Roman,serif" font-size="11.00">introduceds</text>
</g>
<!-- Australia&#45;&#45;Face&#45;Cover&#45;Australia -->
<g id="edge48" class="edge"><title>Australia--Face-Cover-Australia</title>
<path fill="none" stroke="black" stroke-width="0.5" d="M786.866,-183.815C748.562,-192.147 677.908,-207.516 618.41,-220.457"/>
<polygon fill="black" stroke="black" stroke-width="0.5" points="608.584,-222.595 617.399,-216.072 613.47,-221.532 618.356,-220.469 618.356,-220.469 618.356,-220.469 613.47,-221.532 619.312,-224.866 608.584,-222.595 608.584,-222.595"/>
<text text-anchor="middle" x="672.334" y="-206.381" font-family="Times New Roman,serif" font-size="11.00">introduceds</text>
</g>
<!-- Australia&#45;&#45;Border&#45;Cross&#45;Quarantine&#45;Australia -->
<g id="edge49" class="edge"><title>Australia--Border-Cross-Quarantine-Australia</title>
<path fill="none" stroke="black" stroke-width="0.5" d="M843.136,-194.373C869.129,-210.748 907.653,-237.647 934.542,-268.056 1003.48,-346.018 1057.11,-458.652 1080.25,-511.714"/>
<polygon fill="black" stroke="black" stroke-width="0.5" points="1084.34,-521.206 1076.25,-513.803 1082.36,-516.614 1080.38,-512.022 1080.38,-512.022 1080.38,-512.022 1082.36,-516.614 1084.51,-510.242 1084.34,-521.206 1084.34,-521.206"/>
<text text-anchor="middle" x="963.93" y="-332.223" font-family="Times New Roman,serif" font-size="11.00">introduceds</text>
</g>
<!-- England -->
<g id="node49" class="node"><title>England</title>
<path fill="whitesmoke" stroke="black" stroke-width="0.5" d="M1117.12,-253.736C1117.12,-253.736 1147.12,-253.736 1147.12,-253.736 1153.12,-253.736 1159.12,-259.736 1159.12,-265.736 1159.12,-265.736 1159.12,-277.736 1159.12,-277.736 1159.12,-283.736 1153.12,-289.736 1147.12,-289.736 1147.12,-289.736 1117.12,-289.736 1117.12,-289.736 1111.12,-289.736 1105.12,-283.736 1105.12,-277.736 1105.12,-277.736 1105.12,-265.736 1105.12,-265.736 1105.12,-259.736 1111.12,-253.736 1117.12,-253.736"/>
<text text-anchor="middle" x="1132.12" y="-268.936" font-family="Times New Roman,serif" font-size="11.00">England</text>
</g>
<!-- England&#45;&#45;Face&#45;Cover&#45;England -->
<g id="edge57" class="edge"><title>England--Face-Cover-England</title>
<path fill="none" stroke="black" stroke-width="0.5" d="M1105,-273.434C1068.66,-275.71 1001.79,-279.896 942,-283.639"/>
<polygon fill="black" stroke="black" stroke-width="0.5" points="931.701,-284.284 941.4,-279.168 936.691,-283.972 941.681,-283.659 941.681,-283.659 941.681,-283.659 936.691,-283.972 941.962,-288.15 931.701,-284.284 931.701,-284.284"/>
<text text-anchor="middle" x="992.782" y="-282.063" font-family="Times New Roman,serif" font-size="11.00">introduceds</text>
</g>
<!-- England&#45;&#45;Border&#45;Cross&#45;Quarantine&#45;England -->
<g id="edge58" class="edge"><title>England--Border-Cross-Quarantine-England</title>
<path fill="none" stroke="black" stroke-width="0.5" d="M1141.47,-289.803C1160.78,-326.555 1207.2,-412.178 1254.39,-478.756 1284.46,-521.189 1323.27,-566.3 1350.86,-597.013"/>
<polygon fill="black" stroke="black" stroke-width="0.5" points="1357.62,-604.501 1347.58,-600.094 1354.27,-600.79 1350.92,-597.079 1350.92,-597.079 1350.92,-597.079 1354.27,-600.79 1354.26,-594.063 1357.62,-604.501 1357.62,-604.501"/>
<text text-anchor="middle" x="1228.89" y="-481.96" font-family="Times New Roman,serif" font-size="11.00">introduceds</text>
</g>
<!-- England&#45;&#45;Mass&#45;Coronavirus&#45;Testing&#45;England -->
<g id="edge59" class="edge"><title>England--Mass-Coronavirus-Testing-England</title>
<path fill="none" stroke="black" stroke-width="0.5" d="M1159.36,-254.373C1215.16,-218.797 1342.73,-137.474 1408.11,-95.7949"/>
<polygon fill="black" stroke="black" stroke-width="0.5" points="1416.91,-90.1857 1410.89,-99.3559 1412.69,-92.8735 1408.47,-95.5614 1408.47,-95.5614 1408.47,-95.5614 1412.69,-92.8735 1406.05,-91.7668 1416.91,-90.1857 1416.91,-90.1857"/>
<text text-anchor="middle" x="1262.92" y="-175.296" font-family="Times New Roman,serif" font-size="11.00">introduceds</text>
</g>
<!-- England&#45;&#45;Lockdown&#45;England -->
<g id="edge60" class="edge"><title>England--Lockdown-England</title>
<path fill="none" stroke="black" stroke-width="0.5" d="M1104.9,-284.457C1046.8,-311.603 908.964,-376 822.965,-416.181"/>
<polygon fill="black" stroke="black" stroke-width="0.5" points="813.778,-420.473 820.933,-412.163 818.308,-418.357 822.838,-416.24 822.838,-416.24 822.838,-416.24 818.308,-418.357 824.742,-420.317 813.778,-420.473 813.778,-420.473"/>
<text text-anchor="middle" x="933.747" y="-355.707" font-family="Times New Roman,serif" font-size="11.00">introduceds</text>
</g>
</g>
</svg>