<svg xmlns="http://www.w3.org/2000/svg" xmlns:xlink="http://www.w3.org/1999/xlink" width="1035pt" height="820pt" viewBox="0.00 0.00 1035.00 820.00">
<g id="graph0" class="graph" transform="scale(1 1) rotate(0) translate(4 816)">
<title>G</title>
<polygon fill="white" stroke="none" points="-4,4 -4,-816 1031,-816 1031,4 -4,4"/>
<!-- tasty&#45;plant -->
<g id="node1" class="node"><title>tasty-plant</title>
<path fill="aliceblue" stroke="black" stroke-width="0.5" d="M65.0039,-544.13C65.0039,-544.13 103.004,-544.13 103.004,-544.13 109.004,-544.13 115.004,-550.13 115.004,-556.13 115.004,-556.13 115.004,-568.13 115.004,-568.13 115.004,-574.13 109.004,-580.13 103.004,-580.13 103.004,-580.13 65.0039,-580.13 65.0039,-580.13 59.0039,-580.13 53.0039,-574.13 53.0039,-568.13 53.0039,-568.13 53.0039,-556.13 53.0039,-556.13 53.0039,-550.13 59.0039,-544.13 65.0039,-544.13"/>
<text text-anchor="middle" x="84.0039" y="-559.33" font-family="Times New Roman,serif" font-size="11.00">tasty-plant</text>
</g>
<!-- plant -->
<g id="node2" class="node"><title>plant</title>
<path fill="aliceblue" stroke="black" stroke-width="0.5" d="M232.525,-596.642C232.525,-596.642 262.525,-596.642 262.525,-596.642 268.525,-596.642 274.525,-602.642 274.525,-608.642 274.525,-608.642 274.525,-620.642 274.525,-620.642 274.525,-626.642 268.525,-632.642 262.525,-632.642 262.525,-632.642 232.525,-632.642 232.525,-632.642 226.525,-632.642 220.525,-626.642 220.525,-620.642 220.525,-620.642 220.525,-608.642 220.525,-608.642 220.525,-602.642 226.525,-596.642 232.525,-596.642"/>
<text text-anchor="middle" x="247.525" y="-611.842" font-family="Times New Roman,serif" font-size="11.00">plant</text>
</g>
<!-- plant&#45;&#45;tasty&#45;plant -->
<g id="edge1" class="edge"><title>plant--tasty-plant</title>
<path fill="none" stroke="black" stroke-width="0.5" d="M210.839,-602.861C182.08,-593.626 142.498,-580.915 115.239,-572.161"/>
<polygon fill="none" stroke="black" stroke-width="0.5" points="209.931,-606.246 220.523,-605.971 212.072,-599.581 209.931,-606.246"/>
</g>
<!-- carnivorous&#45;plant -->
<g id="node15" class="node"><title>carnivorous-plant</title>
<path fill="aliceblue" stroke="black" stroke-width="0.5" d="M52.5364,-704.535C52.5364,-704.535 120.536,-704.535 120.536,-704.535 126.536,-704.535 132.536,-710.535 132.536,-716.535 132.536,-716.535 132.536,-728.535 132.536,-728.535 132.536,-734.535 126.536,-740.535 120.536,-740.535 120.536,-740.535 52.5364,-740.535 52.5364,-740.535 46.5364,-740.535 40.5364,-734.535 40.5364,-728.535 40.5364,-728.535 40.5364,-716.535 40.5364,-716.535 40.5364,-710.535 46.5364,-704.535 52.5364,-704.535"/>
<text text-anchor="middle" x="86.5364" y="-719.735" font-family="Times New Roman,serif" font-size="11.00">carnivorous-plant</text>
</g>
<!-- plant&#45;&#45;carnivorous&#45;plant -->
<g id="edge12" class="edge"><title>plant--carnivorous-plant</title>
<path fill="none" stroke="black" stroke-width="0.5" d="M212.163,-638.341C182.463,-658.246 140.65,-686.269 113.57,-704.417"/>
<polygon fill="none" stroke="black" stroke-width="0.5" points="214.22,-641.176 220.579,-632.701 210.323,-635.361 214.22,-641.176"/>
</g>
<!-- palm&#45;tree -->
<g id="node20" class="node"><title>palm-tree</title>
<path fill="aliceblue" stroke="black" stroke-width="0.5" d="M402.833,-466.014C402.833,-466.014 437.833,-466.014 437.833,-466.014 443.833,-466.014 449.833,-472.014 449.833,-478.014 449.833,-478.014 449.833,-490.014 449.833,-490.014 449.833,-496.014 443.833,-502.014 437.833,-502.014 437.833,-502.014 402.833,-502.014 402.833,-502.014 396.833,-502.014 390.833,-496.014 390.833,-490.014 390.833,-490.014 390.833,-478.014 390.833,-478.014 390.833,-472.014 396.833,-466.014 402.833,-466.014"/>
<text text-anchor="middle" x="420.333" y="-481.214" font-family="Times New Roman,serif" font-size="11.00">palm-tree</text>
</g>
<!-- plant&#45;&#45;palm&#45;tree -->
<g id="edge17" class="edge"><title>plant--palm-tree</title>
<path fill="none" stroke="black" stroke-width="0.5" d="M269.059,-588.777C282.725,-573.327 301.345,-553.955 320.244,-539.469 342.16,-522.671 369.784,-507.766 390.457,-497.65"/>
<polygon fill="none" stroke="black" stroke-width="0.5" points="266.306,-586.608 262.388,-596.452 271.59,-591.2 266.306,-586.608"/>
</g>
<!-- tree -->
<g id="node22" class="node"><title>tree</title>
<path fill="aliceblue" stroke="black" stroke-width="0.5" d="M335.796,-745.563C335.796,-745.563 365.796,-745.563 365.796,-745.563 371.796,-745.563 377.796,-751.563 377.796,-757.563 377.796,-757.563 377.796,-769.563 377.796,-769.563 377.796,-775.563 371.796,-781.563 365.796,-781.563 365.796,-781.563 335.796,-781.563 335.796,-781.563 329.796,-781.563 323.796,-775.563 323.796,-769.563 323.796,-769.563 323.796,-757.563 323.796,-757.563 323.796,-751.563 329.796,-745.563 335.796,-745.563"/>
<text text-anchor="middle" x="350.796" y="-760.763" font-family="Times New Roman,serif" font-size="11.00">tree</text>
</g>
<!-- plant&#45;&#45;tree -->
<g id="edge19" class="edge"><title>plant--tree</title>
<path fill="none" stroke="black" stroke-width="0.5" d="M265.947,-641.208C286.714,-671.154 319.932,-719.056 338.03,-745.153"/>
<polygon fill="none" stroke="black" stroke-width="0.5" points="268.763,-639.126 260.188,-632.903 263.01,-643.115 268.763,-639.126"/>
</g>
<!-- grass -->
<g id="node26" class="node"><title>grass</title>
<path fill="aliceblue" stroke="black" stroke-width="0.5" d="M183.975,-775.37C183.975,-775.37 213.975,-775.37 213.975,-775.37 219.975,-775.37 225.975,-781.37 225.975,-787.37 225.975,-787.37 225.975,-799.37 225.975,-799.37 225.975,-805.37 219.975,-811.37 213.975,-811.37 213.975,-811.37 183.975,-811.37 183.975,-811.37 177.975,-811.37 171.975,-805.37 171.975,-799.37 171.975,-799.37 171.975,-787.37 171.975,-787.37 171.975,-781.37 177.975,-775.37 183.975,-775.37"/>
<text text-anchor="middle" x="198.975" y="-790.57" font-family="Times New Roman,serif" font-size="11.00">grass</text>
</g>
<!-- plant&#45;&#45;grass -->
<g id="edge23" class="edge"><title>plant--grass</title>
<path fill="none" stroke="black" stroke-width="0.5" d="M239.978,-642.423C229.927,-679.426 212.425,-743.856 203.91,-775.201"/>
<polygon fill="none" stroke="black" stroke-width="0.5" points="243.358,-643.331 242.602,-632.763 236.603,-641.496 243.358,-643.331"/>
</g>
<!-- apple -->
<g id="node3" class="node"><title>apple</title>
<path fill="aliceblue" stroke="black" stroke-width="0.5" d="M408.013,-655.704C408.013,-655.704 438.013,-655.704 438.013,-655.704 444.013,-655.704 450.013,-661.704 450.013,-667.704 450.013,-667.704 450.013,-679.704 450.013,-679.704 450.013,-685.704 444.013,-691.704 438.013,-691.704 438.013,-691.704 408.013,-691.704 408.013,-691.704 402.013,-691.704 396.013,-685.704 396.013,-679.704 396.013,-679.704 396.013,-667.704 396.013,-667.704 396.013,-661.704 402.013,-655.704 408.013,-655.704"/>
<text text-anchor="middle" x="423.013" y="-670.904" font-family="Times New Roman,serif" font-size="11.00">apple</text>
</g>
<!-- fruiting&#45;body -->
<g id="node4" class="node"><title>fruiting-body</title>
<path fill="aliceblue" stroke="black" stroke-width="0.5" d="M335.444,-542.669C335.444,-542.669 383.444,-542.669 383.444,-542.669 389.444,-542.669 395.444,-548.669 395.444,-554.669 395.444,-554.669 395.444,-566.669 395.444,-566.669 395.444,-572.669 389.444,-578.669 383.444,-578.669 383.444,-578.669 335.444,-578.669 335.444,-578.669 329.444,-578.669 323.444,-572.669 323.444,-566.669 323.444,-566.669 323.444,-554.669 323.444,-554.669 323.444,-548.669 329.444,-542.669 335.444,-542.669"/>
<text text-anchor="middle" x="359.444" y="-557.869" font-family="Times New Roman,serif" font-size="11.00">fruiting-body</text>
</g>
<!-- fruiting&#45;body&#45;&#45;apple -->
<g id="edge2" class="edge"><title>fruiting-body--apple</title>
<path fill="none" stroke="black" stroke-width="0.5" d="M374.591,-587.602C386.409,-608.617 402.501,-637.23 412.825,-655.588"/>
<polygon fill="none" stroke="black" stroke-width="0.5" points="377.61,-585.831 369.657,-578.83 371.509,-589.262 377.61,-585.831"/>
</g>
<!-- berry -->
<g id="node12" class="node"><title>berry</title>
<path fill="aliceblue" stroke="black" stroke-width="0.5" d="M446.037,-565.97C446.037,-565.97 476.037,-565.97 476.037,-565.97 482.037,-565.97 488.037,-571.97 488.037,-577.97 488.037,-577.97 488.037,-589.97 488.037,-589.97 488.037,-595.97 482.037,-601.97 476.037,-601.97 476.037,-601.97 446.037,-601.97 446.037,-601.97 440.037,-601.97 434.037,-595.97 434.037,-589.97 434.037,-589.97 434.037,-577.97 434.037,-577.97 434.037,-571.97 440.037,-565.97 446.037,-565.97"/>
<text text-anchor="middle" x="461.037" y="-581.17" font-family="Times New Roman,serif" font-size="11.00">berry</text>
</g>
<!-- fruiting&#45;body&#45;&#45;berry -->
<g id="edge9" class="edge"><title>fruiting-body--berry</title>
<path fill="none" stroke="black" stroke-width="0.5" d="M405.546,-571.243C415.278,-573.475 425.242,-575.761 433.993,-577.768"/>
<polygon fill="none" stroke="black" stroke-width="0.5" points="406.077,-567.774 395.548,-568.95 404.512,-574.597 406.077,-567.774"/>
</g>
<!-- rock&#45;dassie -->
<g id="node5" class="node"><title>rock-dassie</title>
<path fill="aliceblue" stroke="black" stroke-width="0.5" d="M972.437,-550.616C972.437,-550.616 1015.44,-550.616 1015.44,-550.616 1021.44,-550.616 1027.44,-556.616 1027.44,-562.616 1027.44,-562.616 1027.44,-574.616 1027.44,-574.616 1027.44,-580.616 1021.44,-586.616 1015.44,-586.616 1015.44,-586.616 972.437,-586.616 972.437,-586.616 966.437,-586.616 960.437,-580.616 960.437,-574.616 960.437,-574.616 960.437,-562.616 960.437,-562.616 960.437,-556.616 966.437,-550.616 972.437,-550.616"/>
<text text-anchor="middle" x="993.937" y="-565.816" font-family="Times New Roman,serif" font-size="11.00">rock-dassie</text>
</g>
<!-- animal -->
<g id="node6" class="node"><title>animal</title>
<path fill="aliceblue" stroke="black" stroke-width="0.5" d="M807.316,-469.895C807.316,-469.895 837.316,-469.895 837.316,-469.895 843.316,-469.895 849.316,-475.895 849.316,-481.895 849.316,-481.895 849.316,-493.895 849.316,-493.895 849.316,-499.895 843.316,-505.895 837.316,-505.895 837.316,-505.895 807.316,-505.895 807.316,-505.895 801.316,-505.895 795.316,-499.895 795.316,-493.895 795.316,-493.895 795.316,-481.895 795.316,-481.895 795.316,-475.895 801.316,-469.895 807.316,-469.895"/>
<text text-anchor="middle" x="822.316" y="-485.095" font-family="Times New Roman,serif" font-size="11.00">animal</text>
</g>
<!-- animal&#45;&#45;rock&#45;dassie -->
<g id="edge3" class="edge"><title>animal--rock-dassie</title>
<path fill="none" stroke="black" stroke-width="0.5" d="M858.809,-505.06C888.873,-519.2 931.164,-539.091 960.39,-552.837"/>
<polygon fill="none" stroke="black" stroke-width="0.5" points="860.049,-501.775 849.51,-500.686 857.069,-508.109 860.049,-501.775"/>
</g>
<!-- warthog -->
<g id="node11" class="node"><title>warthog</title>
<path fill="aliceblue" stroke="black" stroke-width="0.5" d="M846.808,-611.891C846.808,-611.891 876.808,-611.891 876.808,-611.891 882.808,-611.891 888.808,-617.891 888.808,-623.891 888.808,-623.891 888.808,-635.891 888.808,-635.891 888.808,-641.891 882.808,-647.891 876.808,-647.891 876.808,-647.891 846.808,-647.891 846.808,-647.891 840.808,-647.891 834.808,-641.891 834.808,-635.891 834.808,-635.891 834.808,-623.891 834.808,-623.891 834.808,-617.891 840.808,-611.891 846.808,-611.891"/>
<text text-anchor="middle" x="861.808" y="-627.091" font-family="Times New Roman,serif" font-size="11.00">warthog</text>
</g>
<!-- animal&#45;&#45;warthog -->
<g id="edge7" class="edge"><title>animal--warthog</title>
<path fill="none" stroke="black" stroke-width="0.5" d="M830.106,-515.905C838.007,-544.311 850.002,-587.442 856.746,-611.688"/>
<polygon fill="none" stroke="black" stroke-width="0.5" points="833.45,-514.865 827.398,-506.168 826.706,-516.74 833.45,-514.865"/>
</g>
<!-- herbivore -->
<g id="node13" class="node"><title>herbivore</title>
<path fill="aliceblue" stroke="black" stroke-width="0.5" d="M764.87,-354.879C764.87,-354.879 798.87,-354.879 798.87,-354.879 804.87,-354.879 810.87,-360.879 810.87,-366.879 810.87,-366.879 810.87,-378.879 810.87,-378.879 810.87,-384.879 804.87,-390.879 798.87,-390.879 798.87,-390.879 764.87,-390.879 764.87,-390.879 758.87,-390.879 752.87,-384.879 752.87,-378.879 752.87,-378.879 752.87,-366.879 752.87,-366.879 752.87,-360.879 758.87,-354.879 764.87,-354.879"/>
<text text-anchor="middle" x="781.87" y="-370.079" font-family="Times New Roman,serif" font-size="11.00">herbivore</text>
</g>
<!-- animal&#45;&#45;herbivore -->
<g id="edge10" class="edge"><title>animal--herbivore</title>
<path fill="none" stroke="black" stroke-width="0.5" d="M812.549,-460.12C805.002,-438.659 794.775,-409.578 788.249,-391.018"/>
<polygon fill="none" stroke="black" stroke-width="0.5" points="809.288,-461.398 815.907,-469.671 815.892,-459.076 809.288,-461.398"/>
</g>
<!-- omnivore -->
<g id="node14" class="node"><title>omnivore</title>
<path fill="aliceblue" stroke="black" stroke-width="0.5" d="M737.576,-562.855C737.576,-562.855 770.576,-562.855 770.576,-562.855 776.576,-562.855 782.576,-568.855 782.576,-574.855 782.576,-574.855 782.576,-586.855 782.576,-586.855 782.576,-592.855 776.576,-598.855 770.576,-598.855 770.576,-598.855 737.576,-598.855 737.576,-598.855 731.576,-598.855 725.576,-592.855 725.576,-586.855 725.576,-586.855 725.576,-574.855 725.576,-574.855 725.576,-568.855 731.576,-562.855 737.576,-562.855"/>
<text text-anchor="middle" x="754.076" y="-578.055" font-family="Times New Roman,serif" font-size="11.00">omnivore</text>
</g>
<!-- animal&#45;&#45;omnivore -->
<g id="edge11" class="edge"><title>animal--omnivore</title>
<path fill="none" stroke="black" stroke-width="0.5" d="M802.83,-514.441C791.45,-529.943 777.39,-549.096 767.298,-562.844"/>
<polygon fill="none" stroke="black" stroke-width="0.5" points="805.738,-516.394 808.834,-506.261 800.095,-512.251 805.738,-516.394"/>
</g>
<!-- carnivore -->
<g id="node17" class="node"><title>carnivore</title>
<path fill="aliceblue" stroke="black" stroke-width="0.5" d="M827.185,-301.708C827.185,-301.708 861.185,-301.708 861.185,-301.708 867.185,-301.708 873.185,-307.708 873.185,-313.708 873.185,-313.708 873.185,-325.708 873.185,-325.708 873.185,-331.708 867.185,-337.708 861.185,-337.708 861.185,-337.708 827.185,-337.708 827.185,-337.708 821.185,-337.708 815.185,-331.708 815.185,-325.708 815.185,-325.708 815.185,-313.708 815.185,-313.708 815.185,-307.708 821.185,-301.708 827.185,-301.708"/>
<text text-anchor="middle" x="844.185" y="-316.908" font-family="Times New Roman,serif" font-size="11.00">carnivore</text>
</g>
<!-- animal&#45;&#45;carnivore -->
<g id="edge14" class="edge"><title>animal--carnivore</title>
<path fill="none" stroke="black" stroke-width="0.5" d="M825.996,-459.595C830.513,-424.855 838.04,-366.966 841.839,-337.75"/>
<polygon fill="none" stroke="black" stroke-width="0.5" points="822.517,-459.208 824.698,-469.576 829.458,-460.111 822.517,-459.208"/>
</g>
<!-- impala -->
<g id="node21" class="node"><title>impala</title>
<path fill="aliceblue" stroke="black" stroke-width="0.5" d="M983.029,-395.804C983.029,-395.804 1013.03,-395.804 1013.03,-395.804 1019.03,-395.804 1025.03,-401.804 1025.03,-407.804 1025.03,-407.804 1025.03,-419.804 1025.03,-419.804 1025.03,-425.804 1019.03,-431.804 1013.03,-431.804 1013.03,-431.804 983.029,-431.804 983.029,-431.804 977.029,-431.804 971.029,-425.804 971.029,-419.804 971.029,-419.804 971.029,-407.804 971.029,-407.804 971.029,-401.804 977.029,-395.804 983.029,-395.804"/>
<text text-anchor="middle" x="998.029" y="-411.004" font-family="Times New Roman,serif" font-size="11.00">impala</text>
</g>
<!-- animal&#45;&#45;impala -->
<g id="edge18" class="edge"><title>animal--impala</title>
<path fill="none" stroke="black" stroke-width="0.5" d="M858.797,-472.513C892.195,-458.43 940.862,-437.909 970.928,-425.231"/>
<polygon fill="none" stroke="black" stroke-width="0.5" points="857.241,-469.371 849.386,-476.481 859.96,-475.821 857.241,-469.371"/>
</g>
<!-- giraffe -->
<g id="node28" class="node"><title>giraffe</title>
<path fill="aliceblue" stroke="black" stroke-width="0.5" d="M687.381,-459.995C687.381,-459.995 717.381,-459.995 717.381,-459.995 723.381,-459.995 729.381,-465.995 729.381,-471.995 729.381,-471.995 729.381,-483.995 729.381,-483.995 729.381,-489.995 723.381,-495.995 717.381,-495.995 717.381,-495.995 687.381,-495.995 687.381,-495.995 681.381,-495.995 675.381,-489.995 675.381,-483.995 675.381,-483.995 675.381,-471.995 675.381,-471.995 675.381,-465.995 681.381,-459.995 687.381,-459.995"/>
<text text-anchor="middle" x="702.381" y="-475.195" font-family="Times New Roman,serif" font-size="11.00">giraffe</text>
</g>
<!-- animal&#45;&#45;giraffe -->
<g id="edge25" class="edge"><title>animal--giraffe</title>
<path fill="none" stroke="black" stroke-width="0.5" d="M784.955,-484.811C766.999,-483.329 745.876,-481.586 729.488,-480.233"/>
<polygon fill="none" stroke="black" stroke-width="0.5" points="784.847,-488.314 795.101,-485.649 785.423,-481.338 784.847,-488.314"/>
</g>
<!-- twig -->
<g id="node7" class="node"><title>twig</title>
<path fill="aliceblue" stroke="black" stroke-width="0.5" d="M100.967,-261.257C100.967,-261.257 130.967,-261.257 130.967,-261.257 136.967,-261.257 142.967,-267.257 142.967,-273.257 142.967,-273.257 142.967,-285.257 142.967,-285.257 142.967,-291.257 136.967,-297.257 130.967,-297.257 130.967,-297.257 100.967,-297.257 100.967,-297.257 94.967,-297.257 88.967,-291.257 88.967,-285.257 88.967,-285.257 88.967,-273.257 88.967,-273.257 88.967,-267.257 94.967,-261.257 100.967,-261.257"/>
<text text-anchor="middle" x="115.967" y="-276.457" font-family="Times New Roman,serif" font-size="11.00">twig</text>
</g>
<!-- plant&#45;part -->
<g id="node8" class="node"><title>plant-part</title>
<path fill="aliceblue" stroke="black" stroke-width="0.5" d="M219.003,-310.495C219.003,-310.495 254.003,-310.495 254.003,-310.495 260.003,-310.495 266.003,-316.495 266.003,-322.495 266.003,-322.495 266.003,-334.495 266.003,-334.495 266.003,-340.495 260.003,-346.495 254.003,-346.495 254.003,-346.495 219.003,-346.495 219.003,-346.495 213.003,-346.495 207.003,-340.495 207.003,-334.495 207.003,-334.495 207.003,-322.495 207.003,-322.495 207.003,-316.495 213.003,-310.495 219.003,-310.495"/>
<text text-anchor="middle" x="236.503" y="-325.695" font-family="Times New Roman,serif" font-size="11.00">plant-part</text>
</g>
<!-- plant&#45;part&#45;&#45;fruiting&#45;body -->
<g id="edge8" class="edge"><title>plant-part--fruiting-body</title>
<path fill="none" stroke="black" stroke-width="0.5" d="M250.85,-355.589C276.218,-403.496 328.339,-501.927 349.842,-542.536"/>
<polygon fill="none" stroke="black" stroke-width="0.5" points="253.923,-353.913 246.15,-346.713 247.737,-357.189 253.923,-353.913"/>
</g>
<!-- plant&#45;part&#45;&#45;twig -->
<g id="edge4" class="edge"><title>plant-part--twig</title>
<path fill="none" stroke="black" stroke-width="0.5" d="M197.251,-312.461C179.639,-305.267 159.29,-296.955 143.359,-290.447"/>
<polygon fill="none" stroke="black" stroke-width="0.5" points="196.127,-315.782 206.708,-316.324 198.774,-309.302 196.127,-315.782"/>
</g>
<!-- stem -->
<g id="node9" class="node"><title>stem</title>
<path fill="aliceblue" stroke="black" stroke-width="0.5" d="M87.8037,-430.887C87.8037,-430.887 117.804,-430.887 117.804,-430.887 123.804,-430.887 129.804,-436.887 129.804,-442.887 129.804,-442.887 129.804,-454.887 129.804,-454.887 129.804,-460.887 123.804,-466.887 117.804,-466.887 117.804,-466.887 87.8037,-466.887 87.8037,-466.887 81.8037,-466.887 75.8037,-460.887 75.8037,-454.887 75.8037,-454.887 75.8037,-442.887 75.8037,-442.887 75.8037,-436.887 81.8037,-430.887 87.8037,-430.887"/>
<text text-anchor="middle" x="102.804" y="-446.087" font-family="Times New Roman,serif" font-size="11.00">stem</text>
</g>
<!-- plant&#45;part&#45;&#45;stem -->
<g id="edge5" class="edge"><title>plant-part--stem</title>
<path fill="none" stroke="black" stroke-width="0.5" d="M208.957,-353.3C183.365,-376.344 145.857,-410.119 122.957,-430.74"/>
<polygon fill="none" stroke="black" stroke-width="0.5" points="211.398,-355.811 216.487,-346.519 206.714,-350.61 211.398,-355.811"/>
</g>
<!-- leaf -->
<g id="node10" class="node"><title>leaf</title>
<path fill="aliceblue" stroke="black" stroke-width="0.5" d="M298.911,-196.002C298.911,-196.002 328.911,-196.002 328.911,-196.002 334.911,-196.002 340.911,-202.002 340.911,-208.002 340.911,-208.002 340.911,-220.002 340.911,-220.002 340.911,-226.002 334.911,-232.002 328.911,-232.002 328.911,-232.002 298.911,-232.002 298.911,-232.002 292.911,-232.002 286.911,-226.002 286.911,-220.002 286.911,-220.002 286.911,-208.002 286.911,-208.002 286.911,-202.002 292.911,-196.002 298.911,-196.002"/>
<text text-anchor="middle" x="313.911" y="-211.202" font-family="Times New Roman,serif" font-size="11.00">leaf</text>
</g>
<!-- plant&#45;part&#45;&#45;leaf -->
<g id="edge6" class="edge"><title>plant-part--leaf</title>
<path fill="none" stroke="black" stroke-width="0.5" d="M254.417,-301.998C268.929,-280.534 288.985,-250.869 301.703,-232.059"/>
<polygon fill="none" stroke="black" stroke-width="0.5" points="251.47,-300.109 248.769,-310.353 257.269,-304.029 251.47,-300.109"/>
</g>
<!-- phloem -->
<g id="node16" class="node"><title>phloem</title>
<path fill="aliceblue" stroke="black" stroke-width="0.5" d="M311.401,-356.279C311.401,-356.279 341.401,-356.279 341.401,-356.279 347.401,-356.279 353.401,-362.279 353.401,-368.279 353.401,-368.279 353.401,-380.279 353.401,-380.279 353.401,-386.279 347.401,-392.279 341.401,-392.279 341.401,-392.279 311.401,-392.279 311.401,-392.279 305.401,-392.279 299.401,-386.279 299.401,-380.279 299.401,-380.279 299.401,-368.279 299.401,-368.279 299.401,-362.279 305.401,-356.279 311.401,-356.279"/>
<text text-anchor="middle" x="326.401" y="-371.479" font-family="Times New Roman,serif" font-size="11.00">phloem</text>
</g>
<!-- plant&#45;part&#45;&#45;phloem -->
<g id="edge13" class="edge"><title>plant-part--phloem</title>
<path fill="none" stroke="black" stroke-width="0.5" d="M275.38,-348.295C283.45,-352.405 291.786,-356.65 299.322,-360.488"/>
<polygon fill="none" stroke="black" stroke-width="0.5" points="276.937,-345.16 266.438,-343.741 273.761,-351.398 276.937,-345.16"/>
</g>
<!-- branch -->
<g id="node18" class="node"><title>branch</title>
<path fill="aliceblue" stroke="black" stroke-width="0.5" d="M12.2889,-309.896C12.2889,-309.896 42.2889,-309.896 42.2889,-309.896 48.2889,-309.896 54.2889,-315.896 54.2889,-321.896 54.2889,-321.896 54.2889,-333.896 54.2889,-333.896 54.2889,-339.896 48.2889,-345.896 42.2889,-345.896 42.2889,-345.896 12.2889,-345.896 12.2889,-345.896 6.28888,-345.896 0.28888,-339.896 0.28888,-333.896 0.28888,-333.896 0.28888,-321.896 0.28888,-321.896 0.28888,-315.896 6.28888,-309.896 12.2889,-309.896"/>
<text text-anchor="middle" x="27.2889" y="-325.096" font-family="Times New Roman,serif" font-size="11.00">branch</text>
</g>
<!-- plant&#45;part&#45;&#45;branch -->
<g id="edge15" class="edge"><title>plant-part--branch</title>
<path fill="none" stroke="black" stroke-width="0.5" d="M196.887,-328.382C155.162,-328.262 90.5894,-328.077 54.3461,-327.973"/>
<polygon fill="none" stroke="black" stroke-width="0.5" points="196.962,-331.882 206.972,-328.41 196.982,-324.882 196.962,-331.882"/>
</g>
<!-- root -->
<g id="node24" class="node"><title>root</title>
<path fill="aliceblue" stroke="black" stroke-width="0.5" d="M185.958,-188.552C185.958,-188.552 215.958,-188.552 215.958,-188.552 221.958,-188.552 227.958,-194.552 227.958,-200.552 227.958,-200.552 227.958,-212.552 227.958,-212.552 227.958,-218.552 221.958,-224.552 215.958,-224.552 215.958,-224.552 185.958,-224.552 185.958,-224.552 179.958,-224.552 173.958,-218.552 173.958,-212.552 173.958,-212.552 173.958,-200.552 173.958,-200.552 173.958,-194.552 179.958,-188.552 185.958,-188.552"/>
<text text-anchor="middle" x="200.958" y="-203.752" font-family="Times New Roman,serif" font-size="11.00">root</text>
</g>
<!-- plant&#45;part&#45;&#45;root -->
<g id="edge21" class="edge"><title>plant-part--root</title>
<path fill="none" stroke="black" stroke-width="0.5" d="M228.374,-300.607C221.608,-277.396 212.168,-245.009 206.315,-224.933"/>
<polygon fill="none" stroke="black" stroke-width="0.5" points="225.023,-301.618 231.182,-310.239 231.743,-299.659 225.023,-301.618"/>
</g>
<!-- xylem -->
<g id="node27" class="node"><title>xylem</title>
<path fill="aliceblue" stroke="black" stroke-width="0.5" d="M343.206,-269.23C343.206,-269.23 373.206,-269.23 373.206,-269.23 379.206,-269.23 385.206,-275.23 385.206,-281.23 385.206,-281.23 385.206,-293.23 385.206,-293.23 385.206,-299.23 379.206,-305.23 373.206,-305.23 373.206,-305.23 343.206,-305.23 343.206,-305.23 337.206,-305.23 331.206,-299.23 331.206,-293.23 331.206,-293.23 331.206,-281.23 331.206,-281.23 331.206,-275.23 337.206,-269.23 343.206,-269.23"/>
<text text-anchor="middle" x="358.206" y="-284.43" font-family="Times New Roman,serif" font-size="11.00">xylem</text>
</g>
<!-- plant&#45;part&#45;&#45;xylem -->
<g id="edge24" class="edge"><title>plant-part--xylem</title>
<path fill="none" stroke="black" stroke-width="0.5" d="M275.899,-315.137C293.836,-309.055 314.625,-302.006 330.822,-296.515"/>
<polygon fill="none" stroke="black" stroke-width="0.5" points="274.622,-311.875 266.275,-318.4 276.869,-318.504 274.622,-311.875"/>
</g>
<!-- elephant -->
<g id="node25" class="node"><title>elephant</title>
<path fill="aliceblue" stroke="black" stroke-width="0.5" d="M824.247,-225.471C824.247,-225.471 854.247,-225.471 854.247,-225.471 860.247,-225.471 866.247,-231.471 866.247,-237.471 866.247,-237.471 866.247,-249.471 866.247,-249.471 866.247,-255.471 860.247,-261.471 854.247,-261.471 854.247,-261.471 824.247,-261.471 824.247,-261.471 818.247,-261.471 812.247,-255.471 812.247,-249.471 812.247,-249.471 812.247,-237.471 812.247,-237.471 812.247,-231.471 818.247,-225.471 824.247,-225.471"/>
<text text-anchor="middle" x="839.247" y="-240.671" font-family="Times New Roman,serif" font-size="11.00">elephant</text>
</g>
<!-- herbivore&#45;&#45;elephant -->
<g id="edge22" class="edge"><title>herbivore--elephant</title>
<path fill="none" stroke="black" stroke-width="0.5" d="M792.55,-345.086C798.1,-331.02 805.139,-313.743 811.985,-298.508 817.579,-286.059 824.395,-272.299 829.812,-261.652"/>
<polygon fill="none" stroke="black" stroke-width="0.5" points="789.179,-344.097 788.796,-354.684 795.698,-346.646 789.179,-344.097"/>
</g>
<!-- Mary&#45;01 -->
<g id="node30" class="node"><title>Mary-01</title>
<path fill="whitesmoke" stroke="black" stroke-width="0.5" d="M554.387,-345.878C554.387,-345.878 585.387,-345.878 585.387,-345.878 591.387,-345.878 597.387,-351.878 597.387,-357.878 597.387,-357.878 597.387,-369.878 597.387,-369.878 597.387,-375.878 591.387,-381.878 585.387,-381.878 585.387,-381.878 554.387,-381.878 554.387,-381.878 548.387,-381.878 542.387,-375.878 542.387,-369.878 542.387,-369.878 542.387,-357.878 542.387,-357.878 542.387,-351.878 548.387,-345.878 554.387,-345.878"/>
<text text-anchor="middle" x="569.887" y="-361.078" font-family="Times New Roman,serif" font-size="11.00">Mary-01</text>
</g>
<!-- herbivore&#45;&#45;Mary&#45;01 -->
<g id="edge29" class="edge"><title>herbivore--Mary-01</title>
<path fill="none" stroke="black" stroke-width="0.5" stroke-dasharray="5,2" d="M742.669,-371.214C700.524,-369.425 634.603,-366.625 597.558,-365.052"/>
<polygon fill="none" stroke="black" stroke-width="0.5" points="742.7,-374.718 752.839,-371.646 742.997,-367.725 742.7,-374.718"/>
</g>
<!-- Sophie&#45;01 -->
<g id="node31" class="node"><title>Sophie-01</title>
<path fill="whitesmoke" stroke="black" stroke-width="0.5" d="M624.502,-300.248C624.502,-300.248 660.502,-300.248 660.502,-300.248 666.502,-300.248 672.502,-306.248 672.502,-312.248 672.502,-312.248 672.502,-324.248 672.502,-324.248 672.502,-330.248 666.502,-336.248 660.502,-336.248 660.502,-336.248 624.502,-336.248 624.502,-336.248 618.502,-336.248 612.502,-330.248 612.502,-324.248 612.502,-324.248 612.502,-312.248 612.502,-312.248 612.502,-306.248 618.502,-300.248 624.502,-300.248"/>
<text text-anchor="middle" x="642.502" y="-315.448" font-family="Times New Roman,serif" font-size="11.00">Sophie-01</text>
</g>
<!-- herbivore&#45;&#45;Sophie&#45;01 -->
<g id="edge31" class="edge"><title>herbivore--Sophie-01</title>
<path fill="none" stroke="black" stroke-width="0.5" stroke-dasharray="5,2" d="M743.151,-357.701C720.873,-348.968 693.294,-338.158 672.642,-330.062"/>
<polygon fill="none" stroke="black" stroke-width="0.5" points="742.066,-361.035 752.654,-361.426 744.621,-354.518 742.066,-361.035"/>
</g>
<!-- lion -->
<g id="node19" class="node"><title>lion</title>
<path fill="aliceblue" stroke="black" stroke-width="0.5" d="M733.626,-189.368C733.626,-189.368 763.626,-189.368 763.626,-189.368 769.626,-189.368 775.626,-195.368 775.626,-201.368 775.626,-201.368 775.626,-213.368 775.626,-213.368 775.626,-219.368 769.626,-225.368 763.626,-225.368 763.626,-225.368 733.626,-225.368 733.626,-225.368 727.626,-225.368 721.626,-219.368 721.626,-213.368 721.626,-213.368 721.626,-201.368 721.626,-201.368 721.626,-195.368 727.626,-189.368 733.626,-189.368"/>
<text text-anchor="middle" x="748.626" y="-204.568" font-family="Times New Roman,serif" font-size="11.00">lion</text>
</g>
<!-- carnivore&#45;&#45;lion -->
<g id="edge16" class="edge"><title>carnivore--lion</title>
<path fill="none" stroke="black" stroke-width="0.5" d="M822.129,-293.779C804.302,-272.822 779.669,-243.863 763.941,-225.373"/>
<polygon fill="none" stroke="black" stroke-width="0.5" points="819.686,-296.31 828.832,-301.659 825.018,-291.774 819.686,-296.31"/>
</g>
<!-- Leo&#45;01 -->
<g id="node32" class="node"><title>Leo-01</title>
<path fill="whitesmoke" stroke="black" stroke-width="0.5" d="M581.761,-220.578C581.761,-220.578 611.761,-220.578 611.761,-220.578 617.761,-220.578 623.761,-226.578 623.761,-232.578 623.761,-232.578 623.761,-244.578 623.761,-244.578 623.761,-250.578 617.761,-256.578 611.761,-256.578 611.761,-256.578 581.761,-256.578 581.761,-256.578 575.761,-256.578 569.761,-250.578 569.761,-244.578 569.761,-244.578 569.761,-232.578 569.761,-232.578 569.761,-226.578 575.761,-220.578 581.761,-220.578"/>
<text text-anchor="middle" x="596.761" y="-235.778" font-family="Times New Roman,serif" font-size="11.00">Leo-01</text>
</g>
<!-- lion&#45;&#45;Leo&#45;01 -->
<g id="edge32" class="edge"><title>lion--Leo-01</title>
<path fill="none" stroke="black" stroke-width="0.5" stroke-dasharray="5,2" d="M711.581,-214.981C684.498,-220.547 648.374,-227.971 623.932,-232.994"/>
<polygon fill="none" stroke="black" stroke-width="0.5" points="712.385,-218.389 721.475,-212.948 710.976,-211.533 712.385,-218.389"/>
</g>
<!-- palm&#45;tree&#45;&#45;Mary&#45;01 -->
<g id="edge28" class="edge"><title>palm-tree--Mary-01</title>
<path fill="none" stroke="black" stroke-width="0.5" stroke-dasharray="5,2" d="M451.116,-459.286C479.782,-436.259 521.834,-402.479 547.449,-381.902"/>
<polygon fill="none" stroke="black" stroke-width="0.5" points="448.651,-456.777 443.047,-465.768 453.035,-462.234 448.651,-456.777"/>
</g>
<!-- parsnip -->
<g id="node23" class="node"><title>parsnip</title>
<path fill="aliceblue" stroke="black" stroke-width="0.5" d="M151.739,-0.651288C151.739,-0.651288 181.739,-0.651288 181.739,-0.651288 187.739,-0.651288 193.739,-6.65129 193.739,-12.6513 193.739,-12.6513 193.739,-24.6513 193.739,-24.6513 193.739,-30.6513 187.739,-36.6513 181.739,-36.6513 181.739,-36.6513 151.739,-36.6513 151.739,-36.6513 145.739,-36.6513 139.739,-30.6513 139.739,-24.6513 139.739,-24.6513 139.739,-12.6513 139.739,-12.6513 139.739,-6.65129 145.739,-0.651288 151.739,-0.651288"/>
<text text-anchor="middle" x="166.739" y="-15.8513" font-family="Times New Roman,serif" font-size="11.00">parsnip</text>
</g>
<!-- root&#45;&#45;parsnip -->
<g id="edge20" class="edge"><title>root--parsnip</title>
<path fill="none" stroke="black" stroke-width="0.5" d="M195.827,-178.381C188.713,-139.317 176.053,-69.7997 170.06,-36.8895"/>
<polygon fill="none" stroke="black" stroke-width="0.5" points="192.441,-179.324 197.676,-188.535 199.328,-178.07 192.441,-179.324"/>
</g>
<!-- giraffe&#45;&#45;Sophie&#45;01 -->
<g id="edge30" class="edge"><title>giraffe--Sophie-01</title>
<path fill="none" stroke="black" stroke-width="0.5" stroke-dasharray="5,2" d="M692.103,-450.576C679.87,-417.939 659.785,-364.356 649.322,-336.442"/>
<polygon fill="none" stroke="black" stroke-width="0.5" points="688.841,-451.846 695.629,-459.981 695.396,-449.389 688.841,-451.846"/>
</g>
<!-- herb -->
<g id="node29" class="node"><title>herb</title>
<path fill="aliceblue" stroke="black" stroke-width="0.5" d="M207.679,-484.773C207.679,-484.773 237.679,-484.773 237.679,-484.773 243.679,-484.773 249.679,-490.773 249.679,-496.773 249.679,-496.773 249.679,-508.773 249.679,-508.773 249.679,-514.773 243.679,-520.773 237.679,-520.773 237.679,-520.773 207.679,-520.773 207.679,-520.773 201.679,-520.773 195.679,-514.773 195.679,-508.773 195.679,-508.773 195.679,-496.773 195.679,-496.773 195.679,-490.773 201.679,-484.773 207.679,-484.773"/>
<text text-anchor="middle" x="222.679" y="-499.973" font-family="Times New Roman,serif" font-size="11.00">herb</text>
</g>
<!-- herb&#45;&#45;plant -->
<g id="edge26" class="edge"><title>herb--plant</title>
<path fill="none" stroke="black" stroke-width="0.5" d="M228.952,-531.015C233.517,-551.57 239.564,-578.797 243.498,-596.513"/>
<polygon fill="none" stroke="black" stroke-width="0.5" points="232.367,-530.25 226.782,-521.246 225.534,-531.767 232.367,-530.25"/>
</g>
<!-- herb&#45;&#45;plant&#45;part -->
<g id="edge27" class="edge"><title>herb--plant-part</title>
<path fill="none" stroke="black" stroke-width="0.5" d="M224.955,-474.089C227.824,-437.921 232.67,-376.818 235.07,-346.571"/>
<polygon fill="none" stroke="black" stroke-width="0.5" points="221.435,-474.206 224.133,-484.452 228.413,-474.76 221.435,-474.206"/>
</g>
<!-- Leo&#45;01&#45;&#45;Mary&#45;01 -->
<g id="edge33" class="edge"><title>Leo-01--Mary-01</title>
<path fill="none" stroke="black" stroke-width="0.5" d="M592.854,-256.798C588.415,-277.492 581.119,-311.509 575.942,-335.645"/>
<polygon fill="black" stroke="black" stroke-width="0.5" points="573.799,-345.636 571.497,-334.915 574.848,-340.747 575.897,-335.858 575.897,-335.858 575.897,-335.858 574.848,-340.747 580.296,-336.802 573.799,-345.636 573.799,-345.636"/>
<text text-anchor="middle" x="573.894" y="-304.1" font-family="Times New Roman,serif" font-size="11.00">eats</text>
</g>
<!-- Leo&#45;01&#45;&#45;Sophie&#45;01 -->
<g id="edge34" class="edge"><title>Leo-01--Sophie-01</title>
<path fill="none" stroke="black" stroke-width="0.5" d="M607.141,-256.657C613.047,-266.945 620.558,-280.026 627.136,-291.484"/>
<polygon fill="black" stroke="black" stroke-width="0.5" points="632.164,-300.241 623.282,-293.809 629.674,-295.905 627.185,-291.569 627.185,-291.569 627.185,-291.569 629.674,-295.905 631.087,-289.328 632.164,-300.241 632.164,-300.241"/>
<text text-anchor="middle" x="610.3" y="-281.907" font-family="Times New Roman,serif" font-size="11.00">eats</text>
</g>
</g>
</svg>