<svg xmlns="http://www.w3.org/2000/svg" xmlns:xlink="http://www.w3.org/1999/xlink" width="1033pt" height="893pt" viewBox="0.00 0.00 1033.00 893.00">
<g id="graph0" class="graph" transform="scale(1 1) rotate(0) translate(4 889)">
<title>G</title>
<polygon fill="white" stroke="none" points="-4,4 -4,-889 1029,-889 1029,4 -4,4"/>
<!-- warthog -->
<g id="node1" class="node"><title>warthog</title>
<path fill="aliceblue" stroke="black" stroke-width="0.5" d="M692.969,-848.783C692.969,-848.783 722.969,-848.783 722.969,-848.783 728.969,-848.783 734.969,-854.783 734.969,-860.783 734.969,-860.783 734.969,-872.783 734.969,-872.783 734.969,-878.783 728.969,-884.783 722.969,-884.783 722.969,-884.783 692.969,-884.783 692.969,-884.783 686.969,-884.783 680.969,-878.783 680.969,-872.783 680.969,-872.783 680.969,-860.783 680.969,-860.783 680.969,-854.783 686.969,-848.783 692.969,-848.783"/>
<text text-anchor="middle" x="707.969" y="-863.983" font-family="Times New Roman,serif" font-size="11.00">warthog</text>
</g>
<!-- animal -->
<g id="node2" class="node"><title>animal</title>
<path fill="aliceblue" stroke="black" stroke-width="0.5" d="M755.766,-650.506C755.766,-650.506 785.766,-650.506 785.766,-650.506 791.766,-650.506 797.766,-656.506 797.766,-662.506 797.766,-662.506 797.766,-674.506 797.766,-674.506 797.766,-680.506 791.766,-686.506 785.766,-686.506 785.766,-686.506 755.766,-686.506 755.766,-686.506 749.766,-686.506 743.766,-680.506 743.766,-674.506 743.766,-674.506 743.766,-662.506 743.766,-662.506 743.766,-656.506 749.766,-650.506 755.766,-650.506"/>
<text text-anchor="middle" x="770.766" y="-665.706" font-family="Times New Roman,serif" font-size="11.00">animal</text>
</g>
<!-- animal&#45;&#45;warthog -->
<g id="edge1" class="edge"><title>animal--warthog</title>
<path fill="none" stroke="black" stroke-width="0.5" d="M761.901,-696.497C748.835,-737.752 724.767,-813.742 713.75,-848.529"/>
<polygon fill="none" stroke="black" stroke-width="0.5" points="765.288,-697.394 764.971,-686.804 758.615,-695.28 765.288,-697.394"/>
</g>
<!-- impala -->
<g id="node3" class="node"><title>impala</title>
<path fill="aliceblue" stroke="black" stroke-width="0.5" d="M606.898,-754.075C606.898,-754.075 636.898,-754.075 636.898,-754.075 642.898,-754.075 648.898,-760.075 648.898,-766.075 648.898,-766.075 648.898,-778.075 648.898,-778.075 648.898,-784.075 642.898,-790.075 636.898,-790.075 636.898,-790.075 606.898,-790.075 606.898,-790.075 600.898,-790.075 594.898,-784.075 594.898,-778.075 594.898,-778.075 594.898,-766.075 594.898,-766.075 594.898,-760.075 600.898,-754.075 606.898,-754.075"/>
<text text-anchor="middle" x="621.898" y="-769.275" font-family="Times New Roman,serif" font-size="11.00">impala</text>
</g>
<!-- animal&#45;&#45;impala -->
<g id="edge2" class="edge"><title>animal--impala</title>
<path fill="none" stroke="black" stroke-width="0.5" d="M736.444,-692.384C709.423,-711.183 672.345,-736.978 647.781,-754.068"/>
<polygon fill="none" stroke="black" stroke-width="0.5" points="738.625,-695.13 744.835,-686.546 734.627,-689.384 738.625,-695.13"/>
</g>
<!-- rock&#45;dassie -->
<g id="node13" class="node"><title>rock-dassie</title>
<path fill="aliceblue" stroke="black" stroke-width="0.5" d="M813.661,-823.746C813.661,-823.746 856.661,-823.746 856.661,-823.746 862.661,-823.746 868.661,-829.746 868.661,-835.746 868.661,-835.746 868.661,-847.746 868.661,-847.746 868.661,-853.746 862.661,-859.746 856.661,-859.746 856.661,-859.746 813.661,-859.746 813.661,-859.746 807.661,-859.746 801.661,-853.746 801.661,-847.746 801.661,-847.746 801.661,-835.746 801.661,-835.746 801.661,-829.746 807.661,-823.746 813.661,-823.746"/>
<text text-anchor="middle" x="835.161" y="-838.946" font-family="Times New Roman,serif" font-size="11.00">rock-dassie</text>
</g>
<!-- animal&#45;&#45;rock&#45;dassie -->
<g id="edge9" class="edge"><title>animal--rock-dassie</title>
<path fill="none" stroke="black" stroke-width="0.5" d="M781.182,-696.528C794.484,-732.314 817.125,-793.224 828.385,-823.518"/>
<polygon fill="none" stroke="black" stroke-width="0.5" points="784.301,-694.872 777.536,-686.718 777.739,-697.311 784.301,-694.872"/>
</g>
<!-- herbivore -->
<g id="node15" class="node"><title>herbivore</title>
<path fill="aliceblue" stroke="black" stroke-width="0.5" d="M733.048,-490.642C733.048,-490.642 767.048,-490.642 767.048,-490.642 773.048,-490.642 779.048,-496.642 779.048,-502.642 779.048,-502.642 779.048,-514.642 779.048,-514.642 779.048,-520.642 773.048,-526.642 767.048,-526.642 767.048,-526.642 733.048,-526.642 733.048,-526.642 727.048,-526.642 721.048,-520.642 721.048,-514.642 721.048,-514.642 721.048,-502.642 721.048,-502.642 721.048,-496.642 727.048,-490.642 733.048,-490.642"/>
<text text-anchor="middle" x="750.048" y="-505.842" font-family="Times New Roman,serif" font-size="11.00">herbivore</text>
</g>
<!-- animal&#45;&#45;herbivore -->
<g id="edge19" class="edge"><title>animal--herbivore</title>
<path fill="none" stroke="black" stroke-width="0.5" d="M767.1,-640.217C762.858,-607.483 755.997,-554.544 752.408,-526.849"/>
<polygon fill="none" stroke="black" stroke-width="0.5" points="763.673,-641.011 768.43,-650.478 770.615,-640.111 763.673,-641.011"/>
</g>
<!-- giraffe -->
<g id="node21" class="node"><title>giraffe</title>
<path fill="aliceblue" stroke="black" stroke-width="0.5" d="M627.568,-595.003C627.568,-595.003 657.568,-595.003 657.568,-595.003 663.568,-595.003 669.568,-601.003 669.568,-607.003 669.568,-607.003 669.568,-619.003 669.568,-619.003 669.568,-625.003 663.568,-631.003 657.568,-631.003 657.568,-631.003 627.568,-631.003 627.568,-631.003 621.568,-631.003 615.568,-625.003 615.568,-619.003 615.568,-619.003 615.568,-607.003 615.568,-607.003 615.568,-601.003 621.568,-595.003 627.568,-595.003"/>
<text text-anchor="middle" x="642.568" y="-610.203" font-family="Times New Roman,serif" font-size="11.00">giraffe</text>
</g>
<!-- animal&#45;&#45;giraffe -->
<g id="edge16" class="edge"><title>animal--giraffe</title>
<path fill="none" stroke="black" stroke-width="0.5" d="M734.217,-652.682C713.682,-643.791 688.489,-632.884 669.716,-624.756"/>
<polygon fill="none" stroke="black" stroke-width="0.5" points="733.011,-655.974 743.579,-656.735 735.792,-649.55 733.011,-655.974"/>
</g>
<!-- carnivore -->
<g id="node23" class="node"><title>carnivore</title>
<path fill="aliceblue" stroke="black" stroke-width="0.5" d="M857.881,-512.248C857.881,-512.248 891.881,-512.248 891.881,-512.248 897.881,-512.248 903.881,-518.248 903.881,-524.248 903.881,-524.248 903.881,-536.248 903.881,-536.248 903.881,-542.248 897.881,-548.248 891.881,-548.248 891.881,-548.248 857.881,-548.248 857.881,-548.248 851.881,-548.248 845.881,-542.248 845.881,-536.248 845.881,-536.248 845.881,-524.248 845.881,-524.248 845.881,-518.248 851.881,-512.248 857.881,-512.248"/>
<text text-anchor="middle" x="874.881" y="-527.448" font-family="Times New Roman,serif" font-size="11.00">carnivore</text>
</g>
<!-- animal&#45;&#45;carnivore -->
<g id="edge23" class="edge"><title>animal--carnivore</title>
<path fill="none" stroke="black" stroke-width="0.5" d="M791.323,-642.407C802.421,-628.215 816.295,-610.308 828.432,-594.145 839.961,-578.792 852.772,-561.121 862.014,-548.26"/>
<polygon fill="none" stroke="black" stroke-width="0.5" points="788.558,-640.262 785.144,-650.292 794.067,-644.58 788.558,-640.262"/>
</g>
<!-- omnivore -->
<g id="node28" class="node"><title>omnivore</title>
<path fill="aliceblue" stroke="black" stroke-width="0.5" d="M914.805,-721.126C914.805,-721.126 947.805,-721.126 947.805,-721.126 953.805,-721.126 959.805,-727.126 959.805,-733.126 959.805,-733.126 959.805,-745.126 959.805,-745.126 959.805,-751.126 953.805,-757.126 947.805,-757.126 947.805,-757.126 914.805,-757.126 914.805,-757.126 908.805,-757.126 902.805,-751.126 902.805,-745.126 902.805,-745.126 902.805,-733.126 902.805,-733.126 902.805,-727.126 908.805,-721.126 914.805,-721.126"/>
<text text-anchor="middle" x="931.305" y="-736.326" font-family="Times New Roman,serif" font-size="11.00">omnivore</text>
</g>
<!-- animal&#45;&#45;omnivore -->
<g id="edge25" class="edge"><title>animal--omnivore</title>
<path fill="none" stroke="black" stroke-width="0.5" d="M807.343,-684.596C836.224,-697.3 875.959,-714.78 902.582,-726.491"/>
<polygon fill="none" stroke="black" stroke-width="0.5" points="808.562,-681.308 797.999,-680.485 805.743,-687.716 808.562,-681.308"/>
</g>
<!-- phloem -->
<g id="node4" class="node"><title>phloem</title>
<path fill="aliceblue" stroke="black" stroke-width="0.5" d="M252.768,-630.301C252.768,-630.301 282.768,-630.301 282.768,-630.301 288.768,-630.301 294.768,-636.301 294.768,-642.301 294.768,-642.301 294.768,-654.301 294.768,-654.301 294.768,-660.301 288.768,-666.301 282.768,-666.301 282.768,-666.301 252.768,-666.301 252.768,-666.301 246.768,-666.301 240.768,-660.301 240.768,-654.301 240.768,-654.301 240.768,-642.301 240.768,-642.301 240.768,-636.301 246.768,-630.301 252.768,-630.301"/>
<text text-anchor="middle" x="267.768" y="-645.501" font-family="Times New Roman,serif" font-size="11.00">phloem</text>
</g>
<!-- plant&#45;part -->
<g id="node5" class="node"><title>plant-part</title>
<path fill="aliceblue" stroke="black" stroke-width="0.5" d="M265.374,-491.454C265.374,-491.454 300.374,-491.454 300.374,-491.454 306.374,-491.454 312.374,-497.454 312.374,-503.454 312.374,-503.454 312.374,-515.454 312.374,-515.454 312.374,-521.454 306.374,-527.454 300.374,-527.454 300.374,-527.454 265.374,-527.454 265.374,-527.454 259.374,-527.454 253.374,-521.454 253.374,-515.454 253.374,-515.454 253.374,-503.454 253.374,-503.454 253.374,-497.454 259.374,-491.454 265.374,-491.454"/>
<text text-anchor="middle" x="282.874" y="-506.654" font-family="Times New Roman,serif" font-size="11.00">plant-part</text>
</g>
<!-- plant&#45;part&#45;&#45;phloem -->
<g id="edge3" class="edge"><title>plant-part--phloem</title>
<path fill="none" stroke="black" stroke-width="0.5" d="M279.787,-537.823C276.78,-565.462 272.299,-606.651 269.743,-630.145"/>
<polygon fill="none" stroke="black" stroke-width="0.5" points="283.297,-537.925 280.899,-527.605 276.338,-537.168 283.297,-537.925"/>
</g>
<!-- stem -->
<g id="node6" class="node"><title>stem</title>
<path fill="aliceblue" stroke="black" stroke-width="0.5" d="M116.649,-495.377C116.649,-495.377 146.649,-495.377 146.649,-495.377 152.649,-495.377 158.649,-501.377 158.649,-507.377 158.649,-507.377 158.649,-519.377 158.649,-519.377 158.649,-525.377 152.649,-531.377 146.649,-531.377 146.649,-531.377 116.649,-531.377 116.649,-531.377 110.649,-531.377 104.649,-525.377 104.649,-519.377 104.649,-519.377 104.649,-507.377 104.649,-507.377 104.649,-501.377 110.649,-495.377 116.649,-495.377"/>
<text text-anchor="middle" x="131.649" y="-510.577" font-family="Times New Roman,serif" font-size="11.00">stem</text>
</g>
<!-- plant&#45;part&#45;&#45;stem -->
<g id="edge4" class="edge"><title>plant-part--stem</title>
<path fill="none" stroke="black" stroke-width="0.5" d="M243.222,-510.482C216.636,-511.172 182.318,-512.063 158.804,-512.673"/>
<polygon fill="none" stroke="black" stroke-width="0.5" points="243.451,-513.978 253.357,-510.219 243.269,-506.98 243.451,-513.978"/>
</g>
<!-- branch -->
<g id="node7" class="node"><title>branch</title>
<path fill="aliceblue" stroke="black" stroke-width="0.5" d="M291.631,-385.459C291.631,-385.459 321.631,-385.459 321.631,-385.459 327.631,-385.459 333.631,-391.459 333.631,-397.459 333.631,-397.459 333.631,-409.459 333.631,-409.459 333.631,-415.459 327.631,-421.459 321.631,-421.459 321.631,-421.459 291.631,-421.459 291.631,-421.459 285.631,-421.459 279.631,-415.459 279.631,-409.459 279.631,-409.459 279.631,-397.459 279.631,-397.459 279.631,-391.459 285.631,-385.459 291.631,-385.459"/>
<text text-anchor="middle" x="306.631" y="-400.659" font-family="Times New Roman,serif" font-size="11.00">branch</text>
</g>
<!-- plant&#45;part&#45;&#45;branch -->
<g id="edge5" class="edge"><title>plant-part--branch</title>
<path fill="none" stroke="black" stroke-width="0.5" d="M289.217,-481.15C293.445,-462.29 298.876,-438.057 302.54,-421.71"/>
<polygon fill="none" stroke="black" stroke-width="0.5" points="285.784,-480.467 287.012,-490.991 292.614,-481.998 285.784,-480.467"/>
</g>
<!-- root -->
<g id="node9" class="node"><title>root</title>
<path fill="aliceblue" stroke="black" stroke-width="0.5" d="M116.632,-368.512C116.632,-368.512 146.632,-368.512 146.632,-368.512 152.632,-368.512 158.632,-374.512 158.632,-380.512 158.632,-380.512 158.632,-392.512 158.632,-392.512 158.632,-398.512 152.632,-404.512 146.632,-404.512 146.632,-404.512 116.632,-404.512 116.632,-404.512 110.632,-404.512 104.632,-398.512 104.632,-392.512 104.632,-392.512 104.632,-380.512 104.632,-380.512 104.632,-374.512 110.632,-368.512 116.632,-368.512"/>
<text text-anchor="middle" x="131.632" y="-383.712" font-family="Times New Roman,serif" font-size="11.00">root</text>
</g>
<!-- plant&#45;part&#45;&#45;root -->
<g id="edge22" class="edge"><title>plant-part--root</title>
<path fill="none" stroke="black" stroke-width="0.5" d="M252.753,-484.969C223.644,-461.307 180.217,-426.006 154.04,-404.727"/>
<polygon fill="none" stroke="black" stroke-width="0.5" points="250.59,-487.721 260.557,-491.313 255.005,-482.289 250.59,-487.721"/>
</g>
<!-- xylem -->
<g id="node10" class="node"><title>xylem</title>
<path fill="aliceblue" stroke="black" stroke-width="0.5" d="M121.89,-669.836C121.89,-669.836 151.89,-669.836 151.89,-669.836 157.89,-669.836 163.89,-675.836 163.89,-681.836 163.89,-681.836 163.89,-693.836 163.89,-693.836 163.89,-699.836 157.89,-705.836 151.89,-705.836 151.89,-705.836 121.89,-705.836 121.89,-705.836 115.89,-705.836 109.89,-699.836 109.89,-693.836 109.89,-693.836 109.89,-681.836 109.89,-681.836 109.89,-675.836 115.89,-669.836 121.89,-669.836"/>
<text text-anchor="middle" x="136.89" y="-685.036" font-family="Times New Roman,serif" font-size="11.00">xylem</text>
</g>
<!-- plant&#45;part&#45;&#45;xylem -->
<g id="edge7" class="edge"><title>plant-part--xylem</title>
<path fill="none" stroke="black" stroke-width="0.5" d="M261.713,-535.311C231.766,-571.904 177.771,-637.882 151.73,-669.702"/>
<polygon fill="none" stroke="black" stroke-width="0.5" points="264.448,-537.495 268.073,-527.54 259.031,-533.062 264.448,-537.495"/>
</g>
<!-- fruiting&#45;body -->
<g id="node17" class="node"><title>fruiting-body</title>
<path fill="aliceblue" stroke="black" stroke-width="0.5" d="M311.985,-710.152C311.985,-710.152 359.985,-710.152 359.985,-710.152 365.985,-710.152 371.985,-716.152 371.985,-722.152 371.985,-722.152 371.985,-734.152 371.985,-734.152 371.985,-740.152 365.985,-746.152 359.985,-746.152 359.985,-746.152 311.985,-746.152 311.985,-746.152 305.985,-746.152 299.985,-740.152 299.985,-734.152 299.985,-734.152 299.985,-722.152 299.985,-722.152 299.985,-716.152 305.985,-710.152 311.985,-710.152"/>
<text text-anchor="middle" x="335.985" y="-725.352" font-family="Times New Roman,serif" font-size="11.00">fruiting-body</text>
</g>
<!-- plant&#45;part&#45;&#45;fruiting&#45;body -->
<g id="edge12" class="edge"><title>plant-part--fruiting-body</title>
<path fill="none" stroke="black" stroke-width="0.5" d="M289.696,-537.547C300.769,-583.141 322.344,-671.983 331.598,-710.088"/>
<polygon fill="none" stroke="black" stroke-width="0.5" points="293.072,-536.615 287.31,-527.724 286.269,-538.267 293.072,-536.615"/>
</g>
<!-- twig -->
<g id="node24" class="node"><title>twig</title>
<path fill="aliceblue" stroke="black" stroke-width="0.5" d="M11.5197,-500.648C11.5197,-500.648 41.5197,-500.648 41.5197,-500.648 47.5197,-500.648 53.5197,-506.648 53.5197,-512.648 53.5197,-512.648 53.5197,-524.648 53.5197,-524.648 53.5197,-530.648 47.5197,-536.648 41.5197,-536.648 41.5197,-536.648 11.5197,-536.648 11.5197,-536.648 5.51972,-536.648 -0.480281,-530.648 -0.480281,-524.648 -0.480281,-524.648 -0.480281,-512.648 -0.480281,-512.648 -0.480281,-506.648 5.51972,-500.648 11.5197,-500.648"/>
<text text-anchor="middle" x="26.5197" y="-515.848" font-family="Times New Roman,serif" font-size="11.00">twig</text>
</g>
<!-- plant&#45;part&#45;&#45;twig -->
<g id="edge18" class="edge"><title>plant-part--twig</title>
<path fill="none" stroke="black" stroke-width="0.5" d="M243.359,-519.79C219.865,-525.399 189.37,-531.751 161.849,-534.577 135.145,-537.32 128.146,-537.384 101.449,-534.577 85.4448,-532.895 67.8302,-529.244 53.7028,-525.862"/>
<polygon fill="none" stroke="black" stroke-width="0.5" points="244.413,-523.136 253.297,-517.363 242.752,-516.336 244.413,-523.136"/>
</g>
<!-- leaf -->
<g id="node26" class="node"><title>leaf</title>
<path fill="aliceblue" stroke="black" stroke-width="0.5" d="M360.929,-595.583C360.929,-595.583 390.929,-595.583 390.929,-595.583 396.929,-595.583 402.929,-601.583 402.929,-607.583 402.929,-607.583 402.929,-619.583 402.929,-619.583 402.929,-625.583 396.929,-631.583 390.929,-631.583 390.929,-631.583 360.929,-631.583 360.929,-631.583 354.929,-631.583 348.929,-625.583 348.929,-619.583 348.929,-619.583 348.929,-607.583 348.929,-607.583 348.929,-601.583 354.929,-595.583 360.929,-595.583"/>
<text text-anchor="middle" x="375.929" y="-610.783" font-family="Times New Roman,serif" font-size="11.00">leaf</text>
</g>
<!-- plant&#45;part&#45;&#45;leaf -->
<g id="edge21" class="edge"><title>plant-part--leaf</title>
<path fill="none" stroke="black" stroke-width="0.5" d="M305.858,-535.174C322.538,-553.838 344.699,-578.636 359.594,-595.304"/>
<polygon fill="none" stroke="black" stroke-width="0.5" points="308.356,-532.716 299.083,-527.592 303.136,-537.38 308.356,-532.716"/>
</g>
<!-- Branch&#45;03 -->
<g id="node30" class="node"><title>Branch-03</title>
<path fill="whitesmoke" stroke="black" stroke-width="0.5" d="M201.503,-233.774C201.503,-233.774 240.503,-233.774 240.503,-233.774 246.503,-233.774 252.503,-239.774 252.503,-245.774 252.503,-245.774 252.503,-257.774 252.503,-257.774 252.503,-263.774 246.503,-269.774 240.503,-269.774 240.503,-269.774 201.503,-269.774 201.503,-269.774 195.503,-269.774 189.503,-263.774 189.503,-257.774 189.503,-257.774 189.503,-245.774 189.503,-245.774 189.503,-239.774 195.503,-233.774 201.503,-233.774"/>
<text text-anchor="middle" x="221.003" y="-248.974" font-family="Times New Roman,serif" font-size="11.00">Branch-03</text>
</g>
<!-- branch&#45;&#45;Branch&#45;03 -->
<g id="edge28" class="edge"><title>branch--Branch-03</title>
<path fill="none" stroke="black" stroke-width="0.5" stroke-dasharray="5,2" d="M291.289,-376.282C273.981,-345.622 246.304,-296.594 231.368,-270.136"/>
<polygon fill="none" stroke="black" stroke-width="0.5" points="288.338,-378.174 296.302,-385.162 294.434,-374.733 288.338,-378.174"/>
</g>
<!-- Branch&#45;01 -->
<g id="node31" class="node"><title>Branch-01</title>
<path fill="whitesmoke" stroke="black" stroke-width="0.5" d="M385.781,-433.658C385.781,-433.658 424.781,-433.658 424.781,-433.658 430.781,-433.658 436.781,-439.658 436.781,-445.658 436.781,-445.658 436.781,-457.658 436.781,-457.658 436.781,-463.658 430.781,-469.658 424.781,-469.658 424.781,-469.658 385.781,-469.658 385.781,-469.658 379.781,-469.658 373.781,-463.658 373.781,-457.658 373.781,-457.658 373.781,-445.658 373.781,-445.658 373.781,-439.658 379.781,-433.658 385.781,-433.658"/>
<text text-anchor="middle" x="405.281" y="-448.858" font-family="Times New Roman,serif" font-size="11.00">Branch-01</text>
</g>
<!-- branch&#45;&#45;Branch&#45;01 -->
<g id="edge29" class="edge"><title>branch--Branch-01</title>
<path fill="none" stroke="black" stroke-width="0.5" stroke-dasharray="5,2" d="M342.839,-421.15C352.928,-426.079 363.807,-431.394 373.613,-436.186"/>
<polygon fill="none" stroke="black" stroke-width="0.5" points="344.37,-418.002 333.848,-416.757 341.297,-424.292 344.37,-418.002"/>
</g>
<!-- Branch&#45;02 -->
<g id="node32" class="node"><title>Branch-02</title>
<path fill="whitesmoke" stroke="black" stroke-width="0.5" d="M401.014,-384.102C401.014,-384.102 440.014,-384.102 440.014,-384.102 446.014,-384.102 452.014,-390.102 452.014,-396.102 452.014,-396.102 452.014,-408.102 452.014,-408.102 452.014,-414.102 446.014,-420.102 440.014,-420.102 440.014,-420.102 401.014,-420.102 401.014,-420.102 395.014,-420.102 389.014,-414.102 389.014,-408.102 389.014,-408.102 389.014,-396.102 389.014,-396.102 389.014,-390.102 395.014,-384.102 401.014,-384.102"/>
<text text-anchor="middle" x="420.514" y="-399.302" font-family="Times New Roman,serif" font-size="11.00">Branch-02</text>
</g>
<!-- branch&#45;&#45;Branch&#45;02 -->
<g id="edge30" class="edge"><title>branch--Branch-02</title>
<path fill="none" stroke="black" stroke-width="0.5" stroke-dasharray="5,2" d="M344.01,-403.013C358.43,-402.842 374.756,-402.647 388.612,-402.482"/>
<polygon fill="none" stroke="black" stroke-width="0.5" points="343.866,-399.515 333.909,-403.134 343.95,-406.514 343.866,-399.515"/>
</g>
<!-- parsnip -->
<g id="node8" class="node"><title>parsnip</title>
<path fill="aliceblue" stroke="black" stroke-width="0.5" d="M47.9908,-293.442C47.9908,-293.442 77.9908,-293.442 77.9908,-293.442 83.9908,-293.442 89.9908,-299.442 89.9908,-305.442 89.9908,-305.442 89.9908,-317.442 89.9908,-317.442 89.9908,-323.442 83.9908,-329.442 77.9908,-329.442 77.9908,-329.442 47.9908,-329.442 47.9908,-329.442 41.9908,-329.442 35.9908,-323.442 35.9908,-317.442 35.9908,-317.442 35.9908,-305.442 35.9908,-305.442 35.9908,-299.442 41.9908,-293.442 47.9908,-293.442"/>
<text text-anchor="middle" x="62.9908" y="-308.642" font-family="Times New Roman,serif" font-size="11.00">parsnip</text>
</g>
<!-- root&#45;&#45;parsnip -->
<g id="edge6" class="edge"><title>root--parsnip</title>
<path fill="none" stroke="black" stroke-width="0.5" d="M108.095,-360.771C98.6668,-350.459 88.0294,-338.826 79.4538,-329.447"/>
<polygon fill="none" stroke="black" stroke-width="0.5" points="105.685,-363.321 115.016,-368.339 110.851,-358.598 105.685,-363.321"/>
</g>
<!-- palm&#45;tree -->
<g id="node11" class="node"><title>palm-tree</title>
<path fill="aliceblue" stroke="black" stroke-width="0.5" d="M548.909,-49.5353C548.909,-49.5353 583.909,-49.5353 583.909,-49.5353 589.909,-49.5353 595.909,-55.5353 595.909,-61.5353 595.909,-61.5353 595.909,-73.5353 595.909,-73.5353 595.909,-79.5353 589.909,-85.5353 583.909,-85.5353 583.909,-85.5353 548.909,-85.5353 548.909,-85.5353 542.909,-85.5353 536.909,-79.5353 536.909,-73.5353 536.909,-73.5353 536.909,-61.5353 536.909,-61.5353 536.909,-55.5353 542.909,-49.5353 548.909,-49.5353"/>
<text text-anchor="middle" x="566.409" y="-64.7353" font-family="Times New Roman,serif" font-size="11.00">palm-tree</text>
</g>
<!-- plant -->
<g id="node12" class="node"><title>plant</title>
<path fill="aliceblue" stroke="black" stroke-width="0.5" d="M498.778,-149.443C498.778,-149.443 528.778,-149.443 528.778,-149.443 534.778,-149.443 540.778,-155.443 540.778,-161.443 540.778,-161.443 540.778,-173.443 540.778,-173.443 540.778,-179.443 534.778,-185.443 528.778,-185.443 528.778,-185.443 498.778,-185.443 498.778,-185.443 492.778,-185.443 486.778,-179.443 486.778,-173.443 486.778,-173.443 486.778,-161.443 486.778,-161.443 486.778,-155.443 492.778,-149.443 498.778,-149.443"/>
<text text-anchor="middle" x="513.778" y="-164.643" font-family="Times New Roman,serif" font-size="11.00">plant</text>
</g>
<!-- plant&#45;&#45;palm&#45;tree -->
<g id="edge8" class="edge"><title>plant--palm-tree</title>
<path fill="none" stroke="black" stroke-width="0.5" d="M528.205,-140.056C537.312,-122.77 548.822,-100.92 556.817,-85.7437"/>
<polygon fill="none" stroke="black" stroke-width="0.5" points="524.996,-138.639 523.431,-149.118 531.189,-141.902 524.996,-138.639"/>
</g>
<!-- carnivorous&#45;plant -->
<g id="node16" class="node"><title>carnivorous-plant</title>
<path fill="aliceblue" stroke="black" stroke-width="0.5" d="M302.12,-81.8236C302.12,-81.8236 370.12,-81.8236 370.12,-81.8236 376.12,-81.8236 382.12,-87.8236 382.12,-93.8236 382.12,-93.8236 382.12,-105.824 382.12,-105.824 382.12,-111.824 376.12,-117.824 370.12,-117.824 370.12,-117.824 302.12,-117.824 302.12,-117.824 296.12,-117.824 290.12,-111.824 290.12,-105.824 290.12,-105.824 290.12,-93.8236 290.12,-93.8236 290.12,-87.8236 296.12,-81.8236 302.12,-81.8236"/>
<text text-anchor="middle" x="336.12" y="-97.0236" font-family="Times New Roman,serif" font-size="11.00">carnivorous-plant</text>
</g>
<!-- plant&#45;&#45;carnivorous&#45;plant -->
<g id="edge11" class="edge"><title>plant--carnivorous-plant</title>
<path fill="none" stroke="black" stroke-width="0.5" d="M476.777,-153.36C449.293,-142.899 411.629,-128.563 382.192,-117.359"/>
<polygon fill="none" stroke="black" stroke-width="0.5" points="475.817,-156.739 486.408,-157.025 478.307,-150.197 475.817,-156.739"/>
</g>
<!-- tasty&#45;plant -->
<g id="node19" class="node"><title>tasty-plant</title>
<path fill="aliceblue" stroke="black" stroke-width="0.5" d="M605.836,-158.809C605.836,-158.809 643.836,-158.809 643.836,-158.809 649.836,-158.809 655.836,-164.809 655.836,-170.809 655.836,-170.809 655.836,-182.809 655.836,-182.809 655.836,-188.809 649.836,-194.809 643.836,-194.809 643.836,-194.809 605.836,-194.809 605.836,-194.809 599.836,-194.809 593.836,-188.809 593.836,-182.809 593.836,-182.809 593.836,-170.809 593.836,-170.809 593.836,-164.809 599.836,-158.809 605.836,-158.809"/>
<text text-anchor="middle" x="624.836" y="-174.009" font-family="Times New Roman,serif" font-size="11.00">tasty-plant</text>
</g>
<!-- plant&#45;&#45;tasty&#45;plant -->
<g id="edge14" class="edge"><title>plant--tasty-plant</title>
<path fill="none" stroke="black" stroke-width="0.5" d="M551.111,-170.591C564.921,-171.756 580.418,-173.063 593.627,-174.177"/>
<polygon fill="none" stroke="black" stroke-width="0.5" points="551.204,-167.087 540.946,-169.734 550.616,-174.062 551.204,-167.087"/>
</g>
<!-- grass -->
<g id="node20" class="node"><title>grass</title>
<path fill="aliceblue" stroke="black" stroke-width="0.5" d="M442.726,-0.0850226C442.726,-0.0850226 472.726,-0.0850226 472.726,-0.0850226 478.726,-0.0850226 484.726,-6.08502 484.726,-12.085 484.726,-12.085 484.726,-24.085 484.726,-24.085 484.726,-30.085 478.726,-36.085 472.726,-36.085 472.726,-36.085 442.726,-36.085 442.726,-36.085 436.726,-36.085 430.726,-30.085 430.726,-24.085 430.726,-24.085 430.726,-12.085 430.726,-12.085 430.726,-6.08502 436.726,-0.0850226 442.726,-0.0850226"/>
<text text-anchor="middle" x="457.726" y="-15.285" font-family="Times New Roman,serif" font-size="11.00">grass</text>
</g>
<!-- plant&#45;&#45;grass -->
<g id="edge15" class="edge"><title>plant--grass</title>
<path fill="none" stroke="black" stroke-width="0.5" d="M503.441,-139.898C492.094,-109.663 474.204,-61.9926 464.511,-36.1649"/>
<polygon fill="none" stroke="black" stroke-width="0.5" points="500.226,-141.294 507.017,-149.427 506.78,-138.834 500.226,-141.294"/>
</g>
<!-- tree -->
<g id="node25" class="node"><title>tree</title>
<path fill="aliceblue" stroke="black" stroke-width="0.5" d="M547.577,-254.331C547.577,-254.331 577.577,-254.331 577.577,-254.331 583.577,-254.331 589.577,-260.331 589.577,-266.331 589.577,-266.331 589.577,-278.331 589.577,-278.331 589.577,-284.331 583.577,-290.331 577.577,-290.331 577.577,-290.331 547.577,-290.331 547.577,-290.331 541.577,-290.331 535.577,-284.331 535.577,-278.331 535.577,-278.331 535.577,-266.331 535.577,-266.331 535.577,-260.331 541.577,-254.331 547.577,-254.331"/>
<text text-anchor="middle" x="562.577" y="-269.531" font-family="Times New Roman,serif" font-size="11.00">tree</text>
</g>
<!-- plant&#45;&#45;tree -->
<g id="edge20" class="edge"><title>plant--tree</title>
<path fill="none" stroke="black" stroke-width="0.5" d="M526.568,-194.934C535.285,-213.669 546.579,-237.944 554.175,-254.27"/>
<polygon fill="none" stroke="black" stroke-width="0.5" points="529.67,-193.303 522.278,-185.713 523.323,-196.256 529.67,-193.303"/>
</g>
<!-- elephant -->
<g id="node14" class="node"><title>elephant</title>
<path fill="aliceblue" stroke="black" stroke-width="0.5" d="M786.862,-320.778C786.862,-320.778 816.862,-320.778 816.862,-320.778 822.862,-320.778 828.862,-326.778 828.862,-332.778 828.862,-332.778 828.862,-344.778 828.862,-344.778 828.862,-350.778 822.862,-356.778 816.862,-356.778 816.862,-356.778 786.862,-356.778 786.862,-356.778 780.862,-356.778 774.862,-350.778 774.862,-344.778 774.862,-344.778 774.862,-332.778 774.862,-332.778 774.862,-326.778 780.862,-320.778 786.862,-320.778"/>
<text text-anchor="middle" x="801.862" y="-335.978" font-family="Times New Roman,serif" font-size="11.00">elephant</text>
</g>
<!-- herbivore&#45;&#45;elephant -->
<g id="edge10" class="edge"><title>herbivore--elephant</title>
<path fill="none" stroke="black" stroke-width="0.5" d="M758.529,-480.84C769.224,-445.778 787.307,-386.496 796.357,-356.826"/>
<polygon fill="none" stroke="black" stroke-width="0.5" points="755.163,-479.878 755.593,-490.464 761.859,-481.92 755.163,-479.878"/>
</g>
<!-- Sophie&#45;01 -->
<g id="node35" class="node"><title>Sophie-01</title>
<path fill="whitesmoke" stroke="black" stroke-width="0.5" d="M636.892,-526.638C636.892,-526.638 672.892,-526.638 672.892,-526.638 678.892,-526.638 684.892,-532.638 684.892,-538.638 684.892,-538.638 684.892,-550.638 684.892,-550.638 684.892,-556.638 678.892,-562.638 672.892,-562.638 672.892,-562.638 636.892,-562.638 636.892,-562.638 630.892,-562.638 624.892,-556.638 624.892,-550.638 624.892,-550.638 624.892,-538.638 624.892,-538.638 624.892,-532.638 630.892,-526.638 636.892,-526.638"/>
<text text-anchor="middle" x="654.892" y="-541.838" font-family="Times New Roman,serif" font-size="11.00">Sophie-01</text>
</g>
<!-- herbivore&#45;&#45;Sophie&#45;01 -->
<g id="edge34" class="edge"><title>herbivore--Sophie-01</title>
<path fill="none" stroke="black" stroke-width="0.5" stroke-dasharray="5,2" d="M711.347,-523.282C702.599,-526.591 693.436,-530.058 685.098,-533.212"/>
<polygon fill="none" stroke="black" stroke-width="0.5" points="712.866,-526.45 720.981,-519.638 710.39,-519.902 712.866,-526.45"/>
</g>
<!-- berry -->
<g id="node18" class="node"><title>berry</title>
<path fill="aliceblue" stroke="black" stroke-width="0.5" d="M221.824,-840.045C221.824,-840.045 251.824,-840.045 251.824,-840.045 257.824,-840.045 263.824,-846.045 263.824,-852.045 263.824,-852.045 263.824,-864.045 263.824,-864.045 263.824,-870.045 257.824,-876.045 251.824,-876.045 251.824,-876.045 221.824,-876.045 221.824,-876.045 215.824,-876.045 209.824,-870.045 209.824,-864.045 209.824,-864.045 209.824,-852.045 209.824,-852.045 209.824,-846.045 215.824,-840.045 221.824,-840.045"/>
<text text-anchor="middle" x="236.824" y="-855.245" font-family="Times New Roman,serif" font-size="11.00">berry</text>
</g>
<!-- fruiting&#45;body&#45;&#45;berry -->
<g id="edge13" class="edge"><title>fruiting-body--berry</title>
<path fill="none" stroke="black" stroke-width="0.5" d="M316.031,-754.29C296.685,-779.633 267.834,-817.424 250.815,-839.719"/>
<polygon fill="none" stroke="black" stroke-width="0.5" points="318.911,-756.286 322.197,-746.213 313.347,-752.038 318.911,-756.286"/>
</g>
<!-- apple -->
<g id="node27" class="node"><title>apple</title>
<path fill="aliceblue" stroke="black" stroke-width="0.5" d="M461.283,-816.177C461.283,-816.177 491.283,-816.177 491.283,-816.177 497.283,-816.177 503.283,-822.177 503.283,-828.177 503.283,-828.177 503.283,-840.177 503.283,-840.177 503.283,-846.177 497.283,-852.177 491.283,-852.177 491.283,-852.177 461.283,-852.177 461.283,-852.177 455.283,-852.177 449.283,-846.177 449.283,-840.177 449.283,-840.177 449.283,-828.177 449.283,-828.177 449.283,-822.177 455.283,-816.177 461.283,-816.177"/>
<text text-anchor="middle" x="476.283" y="-831.377" font-family="Times New Roman,serif" font-size="11.00">apple</text>
</g>
<!-- fruiting&#45;body&#45;&#45;apple -->
<g id="edge24" class="edge"><title>fruiting-body--apple</title>
<path fill="none" stroke="black" stroke-width="0.5" d="M368.358,-752.617C393.866,-771.894 428.869,-798.346 452.01,-815.834"/>
<polygon fill="none" stroke="black" stroke-width="0.5" points="370.191,-749.616 360.103,-746.379 365.971,-755.2 370.191,-749.616"/>
</g>
<!-- giraffe&#45;&#45;Sophie&#45;01 -->
<g id="edge33" class="edge"><title>giraffe--Sophie-01</title>
<path fill="none" stroke="black" stroke-width="0.5" stroke-dasharray="5,2" d="M647.667,-584.714C648.989,-577.384 650.377,-569.681 651.58,-563.009"/>
<polygon fill="none" stroke="black" stroke-width="0.5" points="644.2,-584.22 645.871,-594.682 651.089,-585.462 644.2,-584.22"/>
</g>
<!-- lion -->
<g id="node22" class="node"><title>lion</title>
<path fill="aliceblue" stroke="black" stroke-width="0.5" d="M982.639,-609.965C982.639,-609.965 1012.64,-609.965 1012.64,-609.965 1018.64,-609.965 1024.64,-615.965 1024.64,-621.965 1024.64,-621.965 1024.64,-633.965 1024.64,-633.965 1024.64,-639.965 1018.64,-645.965 1012.64,-645.965 1012.64,-645.965 982.639,-645.965 982.639,-645.965 976.639,-645.965 970.639,-639.965 970.639,-633.965 970.639,-633.965 970.639,-621.965 970.639,-621.965 970.639,-615.965 976.639,-609.965 982.639,-609.965"/>
<text text-anchor="middle" x="997.639" y="-625.165" font-family="Times New Roman,serif" font-size="11.00">lion</text>
</g>
<!-- Leo&#45;01 -->
<g id="node36" class="node"><title>Leo-01</title>
<path fill="whitesmoke" stroke="black" stroke-width="0.5" d="M783.232,-554.945C783.232,-554.945 813.232,-554.945 813.232,-554.945 819.232,-554.945 825.232,-560.945 825.232,-566.945 825.232,-566.945 825.232,-578.945 825.232,-578.945 825.232,-584.945 819.232,-590.945 813.232,-590.945 813.232,-590.945 783.232,-590.945 783.232,-590.945 777.232,-590.945 771.232,-584.945 771.232,-578.945 771.232,-578.945 771.232,-566.945 771.232,-566.945 771.232,-560.945 777.232,-554.945 783.232,-554.945"/>
<text text-anchor="middle" x="798.232" y="-570.145" font-family="Times New Roman,serif" font-size="11.00">Leo-01</text>
</g>
<!-- lion&#45;&#45;Leo&#45;01 -->
<g id="edge35" class="edge"><title>lion--Leo-01</title>
<path fill="none" stroke="black" stroke-width="0.5" stroke-dasharray="5,2" d="M960.626,-617.753C921.453,-606.944 860.555,-590.141 825.53,-580.477"/>
<polygon fill="none" stroke="black" stroke-width="0.5" points="959.76,-621.144 970.33,-620.43 961.622,-614.397 959.76,-621.144"/>
</g>
<!-- carnivore&#45;&#45;lion -->
<g id="edge17" class="edge"><title>carnivore--lion</title>
<path fill="none" stroke="black" stroke-width="0.5" d="M905.574,-554.68C927.115,-571.827 955.444,-594.377 974.959,-609.912"/>
<polygon fill="none" stroke="black" stroke-width="0.5" points="907.687,-551.888 897.683,-548.399 903.327,-557.365 907.687,-551.888"/>
</g>
<!-- Mary&#45;01 -->
<g id="node33" class="node"><title>Mary-01</title>
<path fill="whitesmoke" stroke="black" stroke-width="0.5" d="M508.2,-421.686C508.2,-421.686 539.2,-421.686 539.2,-421.686 545.2,-421.686 551.2,-427.686 551.2,-433.686 551.2,-433.686 551.2,-445.686 551.2,-445.686 551.2,-451.686 545.2,-457.686 539.2,-457.686 539.2,-457.686 508.2,-457.686 508.2,-457.686 502.2,-457.686 496.2,-451.686 496.2,-445.686 496.2,-445.686 496.2,-433.686 496.2,-433.686 496.2,-427.686 502.2,-421.686 508.2,-421.686"/>
<text text-anchor="middle" x="523.7" y="-436.886" font-family="Times New Roman,serif" font-size="11.00">Mary-01</text>
</g>
<!-- tree&#45;&#45;Mary&#45;01 -->
<g id="edge31" class="edge"><title>tree--Mary-01</title>
<path fill="none" stroke="black" stroke-width="0.5" stroke-dasharray="5,2" d="M556.042,-300.463C548.036,-334.928 534.703,-392.32 527.929,-421.48"/>
<polygon fill="none" stroke="black" stroke-width="0.5" points="559.489,-301.092 558.343,-290.56 552.671,-299.508 559.489,-301.092"/>
</g>
<!-- Leaf&#45;01 -->
<g id="node34" class="node"><title>Leaf-01</title>
<path fill="whitesmoke" stroke="black" stroke-width="0.5" d="M504.376,-481.734C504.376,-481.734 534.376,-481.734 534.376,-481.734 540.376,-481.734 546.376,-487.734 546.376,-493.734 546.376,-493.734 546.376,-505.734 546.376,-505.734 546.376,-511.734 540.376,-517.734 534.376,-517.734 534.376,-517.734 504.376,-517.734 504.376,-517.734 498.376,-517.734 492.376,-511.734 492.376,-505.734 492.376,-505.734 492.376,-493.734 492.376,-493.734 492.376,-487.734 498.376,-481.734 504.376,-481.734"/>
<text text-anchor="middle" x="519.376" y="-496.934" font-family="Times New Roman,serif" font-size="11.00">Leaf-01</text>
</g>
<!-- leaf&#45;&#45;Leaf&#45;01 -->
<g id="edge32" class="edge"><title>leaf--Leaf-01</title>
<path fill="none" stroke="black" stroke-width="0.5" stroke-dasharray="5,2" d="M406.598,-589.242C433.47,-567.915 471.935,-537.386 496.277,-518.066"/>
<polygon fill="none" stroke="black" stroke-width="0.5" points="404.316,-586.585 398.659,-595.543 408.667,-592.068 404.316,-586.585"/>
</g>
<!-- herb -->
<g id="node29" class="node"><title>herb</title>
<path fill="aliceblue" stroke="black" stroke-width="0.5" d="M333.797,-292.846C333.797,-292.846 363.797,-292.846 363.797,-292.846 369.797,-292.846 375.797,-298.846 375.797,-304.846 375.797,-304.846 375.797,-316.846 375.797,-316.846 375.797,-322.846 369.797,-328.846 363.797,-328.846 363.797,-328.846 333.797,-328.846 333.797,-328.846 327.797,-328.846 321.797,-322.846 321.797,-316.846 321.797,-316.846 321.797,-304.846 321.797,-304.846 321.797,-298.846 327.797,-292.846 333.797,-292.846"/>
<text text-anchor="middle" x="348.797" y="-308.046" font-family="Times New Roman,serif" font-size="11.00">herb</text>
</g>
<!-- herb&#45;&#45;plant&#45;part -->
<g id="edge27" class="edge"><title>herb--plant-part</title>
<path fill="none" stroke="black" stroke-width="0.5" d="M349.386,-339.151C349.043,-362.667 346.594,-396.679 336.831,-424.659 328.093,-449.701 310.709,-474.899 298.027,-491.239"/>
<polygon fill="none" stroke="black" stroke-width="0.5" points="352.885,-339.154 349.414,-329.144 345.885,-339.134 352.885,-339.154"/>
</g>
<!-- herb&#45;&#45;plant -->
<g id="edge26" class="edge"><title>herb--plant</title>
<path fill="none" stroke="black" stroke-width="0.5" d="M377.62,-285.792C410.627,-257.102 463.89,-210.805 493.053,-185.457"/>
<polygon fill="none" stroke="black" stroke-width="0.5" points="374.943,-283.482 369.692,-292.684 379.535,-288.765 374.943,-283.482"/>
</g>
<!-- Branch&#45;01&#45;&#45;Branch&#45;02 -->
<g id="edge36" class="edge"><title>Branch-01--Branch-02</title>
<path fill="none" stroke="black" stroke-width="0.5" d="M417.828,-433.454C418.214,-432.37 418.586,-431.268 418.943,-430.158"/>
<polygon fill="black" stroke="black" stroke-width="0.5" points="421.631,-420.167 423.378,-430.993 420.332,-424.996 419.032,-429.824 419.032,-429.824 419.032,-429.824 420.332,-424.996 414.687,-428.654 421.631,-420.167 421.631,-420.167"/>
<text text-anchor="middle" x="400.426" y="-421.41" font-family="Times New Roman,serif" font-size="11.00">has-part</text>
</g>
<!-- Branch&#45;01&#45;&#45;Mary&#45;01 -->
<g id="edge37" class="edge"><title>Branch-01--Mary-01</title>
<path fill="none" stroke="black" stroke-width="0.5" d="M437,-454.505C452.036,-453.825 470.113,-452.113 485.86,-449.912"/>
<polygon fill="black" stroke="black" stroke-width="0.5" points="495.817,-448.401 486.606,-454.35 490.874,-449.151 485.93,-449.901 485.93,-449.901 485.93,-449.901 490.874,-449.151 485.255,-445.452 495.817,-448.401 495.817,-448.401"/>
<text text-anchor="middle" x="466.66" y="-443.435" font-family="Times New Roman,serif" font-size="11.00">is-part-of</text>
</g>
<!-- Branch&#45;01&#45;&#45;Leaf&#45;01 -->
<g id="edge38" class="edge"><title>Branch-01--Leaf-01</title>
<path fill="none" stroke="black" stroke-width="0.5" d="M432.628,-469.698C447.588,-476.98 466.312,-484.96 482.539,-490.998"/>
<polygon fill="black" stroke="black" stroke-width="0.5" points="492.264,-494.484 481.332,-495.346 487.558,-492.797 482.851,-491.11 482.851,-491.11 482.851,-491.11 487.558,-492.797 484.369,-486.874 492.264,-494.484 492.264,-494.484"/>
<text text-anchor="middle" x="443.85" y="-486.223" font-family="Times New Roman,serif" font-size="11.00">has-part</text>
</g>
<!-- Branch&#45;02&#45;&#45;Branch&#45;01 -->
<g id="edge39" class="edge"><title>Branch-02--Branch-01</title>
<path fill="none" stroke="black" stroke-width="0.5" d="M407.966,-420.306C407.58,-421.39 407.208,-422.491 406.852,-423.602"/>
<polygon fill="black" stroke="black" stroke-width="0.5" points="404.163,-433.592 402.416,-422.766 405.462,-428.764 406.762,-423.936 406.762,-423.936 406.762,-423.936 405.462,-428.764 411.107,-425.105 404.163,-433.592 404.163,-433.592"/>
<text text-anchor="middle" x="427.368" y="-426.75" font-family="Times New Roman,serif" font-size="11.00">is-part-of</text>
</g>
<!-- Branch&#45;02&#45;&#45;Mary&#45;01 -->
<g id="edge40" class="edge"><title>Branch-02--Mary-01</title>
<path fill="none" stroke="black" stroke-width="0.5" d="M451.556,-420.171C462.503,-424.689 474.922,-429.242 486.336,-432.926"/>
<polygon fill="black" stroke="black" stroke-width="0.5" points="496.046,-435.918 485.164,-437.274 491.267,-434.446 486.489,-432.973 486.489,-432.973 486.489,-432.973 491.267,-434.446 487.814,-428.673 496.046,-435.918 496.046,-435.918"/>
<text text-anchor="middle" x="473.756" y="-419.86" font-family="Times New Roman,serif" font-size="11.00">is-part-of</text>
</g>
<!-- Branch&#45;02&#45;&#45;Leaf&#45;01 -->
<g id="edge41" class="edge"><title>Branch-02--Leaf-01</title>
<path fill="none" stroke="black" stroke-width="0.5" d="M432.009,-420.494C445.033,-435.856 466.615,-457.754 485.108,-474.686"/>
<polygon fill="black" stroke="black" stroke-width="0.5" points="492.811,-481.605 482.364,-478.27 489.091,-478.264 485.371,-474.922 485.371,-474.922 485.371,-474.922 489.091,-478.264 488.379,-471.575 492.811,-481.605 492.811,-481.605"/>
<text text-anchor="middle" x="479.874" y="-455.115" font-family="Times New Roman,serif" font-size="11.00">has-part</text>
</g>
<!-- Mary&#45;01&#45;&#45;Branch&#45;01 -->
<g id="edge42" class="edge"><title>Mary-01--Branch-01</title>
<path fill="none" stroke="black" stroke-width="0.5" d="M495.951,-436.681C481.514,-437.171 463.562,-438.74 447.449,-440.847"/>
<polygon fill="black" stroke="black" stroke-width="0.5" points="437.182,-442.303 446.451,-436.443 442.133,-441.601 447.083,-440.899 447.083,-440.899 447.083,-440.899 442.133,-441.601 447.715,-445.354 437.182,-442.303 437.182,-442.303"/>
<text text-anchor="middle" x="466.462" y="-429.894" font-family="Times New Roman,serif" font-size="11.00">has-part</text>
</g>
<!-- Mary&#45;01&#45;&#45;Branch&#45;02 -->
<g id="edge43" class="edge"><title>Mary-01--Branch-02</title>
<path fill="none" stroke="black" stroke-width="0.5" d="M495.971,-423.003C485.492,-418.56 473.334,-413.995 461.875,-410.173"/>
<polygon fill="black" stroke="black" stroke-width="0.5" points="452.045,-407.028 462.941,-405.79 456.807,-408.552 461.569,-410.076 461.569,-410.076 461.569,-410.076 456.807,-408.552 460.198,-414.362 452.045,-407.028 452.045,-407.028"/>
<text text-anchor="middle" x="492.89" y="-405.742" font-family="Times New Roman,serif" font-size="11.00">has-part</text>
</g>
<!-- Mary&#45;01&#45;&#45;Leaf&#45;01 -->
<g id="edge44" class="edge"><title>Mary-01--Leaf-01</title>
<path fill="none" stroke="black" stroke-width="0.5" d="M516.07,-457.904C515.412,-462.139 514.935,-466.747 514.67,-471.305"/>
<polygon fill="black" stroke="black" stroke-width="0.5" points="514.451,-481.654 510.164,-471.561 514.557,-476.655 514.663,-471.657 514.663,-471.657 514.663,-471.657 514.557,-476.655 519.162,-471.752 514.451,-481.654 514.451,-481.654"/>
<text text-anchor="middle" x="533.25" y="-461.222" font-family="Times New Roman,serif" font-size="11.00">has-part</text>
</g>
<!-- Leaf&#45;01&#45;&#45;Branch&#45;01 -->
<g id="edge45" class="edge"><title>Leaf-01--Branch-01</title>
<path fill="none" stroke="black" stroke-width="0.5" d="M492.319,-481.835C478.669,-475.177 461.831,-467.921 446.607,-462.089"/>
<polygon fill="black" stroke="black" stroke-width="0.5" points="436.886,-458.484 447.827,-457.742 441.574,-460.223 446.262,-461.961 446.262,-461.961 446.262,-461.961 441.574,-460.223 444.697,-466.181 436.886,-458.484 436.886,-458.484"/>
<text text-anchor="middle" x="485.4" y="-472.655" font-family="Times New Roman,serif" font-size="11.00">is-part-of</text>
</g>
<!-- Leaf&#45;01&#45;&#45;Branch&#45;02 -->
<g id="edge46" class="edge"><title>Leaf-01--Branch-02</title>
<path fill="none" stroke="black" stroke-width="0.5" d="M507.881,-481.341C494.856,-465.98 473.274,-444.082 454.781,-427.15"/>
<polygon fill="black" stroke="black" stroke-width="0.5" points="447.079,-420.231 457.525,-423.566 450.798,-423.572 454.518,-426.913 454.518,-426.913 454.518,-426.913 450.798,-423.572 451.511,-430.261 447.079,-420.231 447.079,-420.231"/>
<text text-anchor="middle" x="458.015" y="-453.12" font-family="Times New Roman,serif" font-size="11.00">is-part-of</text>
</g>
<!-- Leaf&#45;01&#45;&#45;Mary&#45;01 -->
<g id="edge47" class="edge"><title>Leaf-01--Mary-01</title>
<path fill="none" stroke="black" stroke-width="0.5" d="M527.005,-481.516C527.664,-477.281 528.141,-472.673 528.406,-468.115"/>
<polygon fill="black" stroke="black" stroke-width="0.5" points="528.625,-457.765 532.912,-467.858 528.519,-462.764 528.413,-467.763 528.413,-467.763 528.413,-467.763 528.519,-462.764 523.914,-467.668 528.625,-457.765 528.625,-457.765"/>
<text text-anchor="middle" x="548.826" y="-472.598" font-family="Times New Roman,serif" font-size="11.00">is-part-of</text>
</g>
<!-- Leaf&#45;01&#45;&#45;Sophie&#45;01 -->
<g id="edge48" class="edge"><title>Leaf-01--Sophie-01</title>
<path fill="none" stroke="black" stroke-width="0.5" d="M546.668,-514.737C566.23,-522.56 592.881,-531.56 614.845,-537.836"/>
<polygon fill="black" stroke="black" stroke-width="0.5" points="624.564,-540.514 613.728,-542.196 619.744,-539.186 614.924,-537.858 614.924,-537.858 614.924,-537.858 619.744,-539.186 616.119,-533.519 624.564,-540.514 624.564,-540.514"/>
<text text-anchor="middle" x="560.928" y="-531.932" font-family="Times New Roman,serif" font-size="11.00">is-eaten-by</text>
</g>
<!-- Sophie&#45;01&#45;&#45;Leaf&#45;01 -->
<g id="edge49" class="edge"><title>Sophie-01--Leaf-01</title>
<path fill="none" stroke="black" stroke-width="0.5" d="M624.613,-528.453C604.437,-520.547 577.803,-511.666 556.373,-505.673"/>
<polygon fill="black" stroke="black" stroke-width="0.5" points="546.628,-503.059 557.453,-501.304 551.458,-504.355 556.287,-505.65 556.287,-505.65 556.287,-505.65 551.458,-504.355 555.12,-509.997 546.628,-503.059 546.628,-503.059"/>
<text text-anchor="middle" x="576.455" y="-517.892" font-family="Times New Roman,serif" font-size="11.00">eats</text>
</g>
<!-- Sophie&#45;01&#45;&#45;Leo&#45;01 -->
<g id="edge50" class="edge"><title>Sophie-01--Leo-01</title>
<path fill="none" stroke="black" stroke-width="0.5" d="M684.894,-556.351C707.015,-562.076 737.243,-568.139 760.921,-571.644"/>
<polygon fill="black" stroke="black" stroke-width="0.5" points="770.955,-573.022 760.435,-576.119 766.001,-572.342 761.048,-571.661 761.048,-571.661 761.048,-571.661 766.001,-572.342 761.66,-567.203 770.955,-573.022 770.955,-573.022"/>
<text text-anchor="middle" x="703.433" y="-569.139" font-family="Times New Roman,serif" font-size="11.00">is-eaten-by</text>
</g>
<!-- Leo&#45;01&#45;&#45;Sophie&#45;01 -->
<g id="edge51" class="edge"><title>Leo-01--Sophie-01</title>
<path fill="none" stroke="black" stroke-width="0.5" d="M770.979,-561.953C749.554,-556.258 719.394,-550.104 695.183,-546.389"/>
<polygon fill="black" stroke="black" stroke-width="0.5" points="685.214,-544.955 695.753,-541.925 690.164,-545.667 695.113,-546.379 695.113,-546.379 695.113,-546.379 690.164,-545.667 694.472,-550.833 685.214,-544.955 685.214,-544.955"/>
<text text-anchor="middle" x="719.023" y="-555.499" font-family="Times New Roman,serif" font-size="11.00">eats</text>
</g>
</g>
</svg>