<svg height="817pt" viewBox="0.00 0.00 1151.00 817.00" width="1151pt" xmlns="http://www.w3.org/2000/svg" xmlns:xlink="http://www.w3.org/1999/xlink">
<g class="graph" id="graph0" transform="scale(1 1) rotate(0) translate(4 813)">
<title>G</title>
<polygon fill="white" points="-4,4 -4,-813 1147,-813 1147,4 -4,4" stroke="none"/>
<!-- tasty&#45;plant -->
<g class="node" id="node1"><title>tasty-plant</title>
<path d="M148.836,-683.709C148.836,-683.709 186.836,-683.709 186.836,-683.709 192.836,-683.709 198.836,-689.709 198.836,-695.709 198.836,-695.709 198.836,-707.709 198.836,-707.709 198.836,-713.709 192.836,-719.709 186.836,-719.709 186.836,-719.709 148.836,-719.709 148.836,-719.709 142.836,-719.709 136.836,-713.709 136.836,-707.709 136.836,-707.709 136.836,-695.709 136.836,-695.709 136.836,-689.709 142.836,-683.709 148.836,-683.709" fill="aliceblue" stroke="black" stroke-width="0.5"/>
<text font-family="Times New Roman,serif" font-size="11.00" text-anchor="middle" x="167.836" y="-698.909">tasty-plant</text>
</g>
<!-- plant -->
<g class="node" id="node2"><title>plant</title>
<path d="M274.53,-603.924C274.53,-603.924 304.53,-603.924 304.53,-603.924 310.53,-603.924 316.53,-609.924 316.53,-615.924 316.53,-615.924 316.53,-627.924 316.53,-627.924 316.53,-633.924 310.53,-639.924 304.53,-639.924 304.53,-639.924 274.53,-639.924 274.53,-639.924 268.53,-639.924 262.53,-633.924 262.53,-627.924 262.53,-627.924 262.53,-615.924 262.53,-615.924 262.53,-609.924 268.53,-603.924 274.53,-603.924" fill="aliceblue" stroke="black" stroke-width="0.5"/>
<text font-family="Times New Roman,serif" font-size="11.00" text-anchor="middle" x="289.53" y="-619.124">plant</text>
</g>
<!-- plant&#45;&#45;tasty&#45;plant -->
<g class="edge" id="edge1"><title>plant--tasty-plant</title>
<path d="M254.005,-645.216C235.393,-657.418 212.934,-672.142 195.612,-683.499" fill="none" stroke="black" stroke-width="0.5"/>
<polygon fill="none" points="256.078,-648.041 262.522,-639.631 252.24,-642.187 256.078,-648.041" stroke="black" stroke-width="0.5"/>
</g>
<!-- carnivorous&#45;plant -->
<g class="node" id="node15"><title>carnivorous-plant</title>
<path d="M143.354,-750.118C143.354,-750.118 211.354,-750.118 211.354,-750.118 217.354,-750.118 223.354,-756.118 223.354,-762.118 223.354,-762.118 223.354,-774.118 223.354,-774.118 223.354,-780.118 217.354,-786.118 211.354,-786.118 211.354,-786.118 143.354,-786.118 143.354,-786.118 137.354,-786.118 131.354,-780.118 131.354,-774.118 131.354,-774.118 131.354,-762.118 131.354,-762.118 131.354,-756.118 137.354,-750.118 143.354,-750.118" fill="aliceblue" stroke="black" stroke-width="0.5"/>
<text font-family="Times New Roman,serif" font-size="11.00" text-anchor="middle" x="177.354" y="-765.318">carnivorous-plant</text>
</g>
<!-- plant&#45;&#45;carnivorous&#45;plant -->
<g class="edge" id="edge12"><title>plant--carnivorous-plant</title>
<path d="M269.313,-648.272C246.853,-677.543 211.172,-724.045 191.511,-749.668" fill="none" stroke="black" stroke-width="0.5"/>
<polygon fill="none" points="272.239,-650.209 275.55,-640.144 266.686,-645.947 272.239,-650.209" stroke="black" stroke-width="0.5"/>
</g>
<!-- palm&#45;tree -->
<g class="node" id="node20"><title>palm-tree</title>
<path d="M461.233,-507.526C461.233,-507.526 496.233,-507.526 496.233,-507.526 502.233,-507.526 508.233,-513.526 508.233,-519.526 508.233,-519.526 508.233,-531.526 508.233,-531.526 508.233,-537.526 502.233,-543.526 496.233,-543.526 496.233,-543.526 461.233,-543.526 461.233,-543.526 455.233,-543.526 449.233,-537.526 449.233,-531.526 449.233,-531.526 449.233,-519.526 449.233,-519.526 449.233,-513.526 455.233,-507.526 461.233,-507.526" fill="aliceblue" stroke="black" stroke-width="0.5"/>
<text font-family="Times New Roman,serif" font-size="11.00" text-anchor="middle" x="478.733" y="-522.726">palm-tree</text>
</g>
<!-- plant&#45;&#45;palm&#45;tree -->
<g class="edge" id="edge17"><title>plant--palm-tree</title>
<path d="M316.019,-597.047C329.819,-585.138 347.47,-571.454 365.127,-562.026 391.99,-547.681 425.461,-537.776 449.094,-531.941" fill="none" stroke="black" stroke-width="0.5"/>
<polygon fill="none" points="313.544,-594.564 308.368,-603.808 318.179,-599.809 313.544,-594.564" stroke="black" stroke-width="0.5"/>
</g>
<!-- tree -->
<g class="node" id="node22"><title>tree</title>
<path d="M365.983,-756.383C365.983,-756.383 395.983,-756.383 395.983,-756.383 401.983,-756.383 407.983,-762.383 407.983,-768.383 407.983,-768.383 407.983,-780.383 407.983,-780.383 407.983,-786.383 401.983,-792.383 395.983,-792.383 395.983,-792.383 365.983,-792.383 365.983,-792.383 359.983,-792.383 353.983,-786.383 353.983,-780.383 353.983,-780.383 353.983,-768.383 353.983,-768.383 353.983,-762.383 359.983,-756.383 365.983,-756.383" fill="aliceblue" stroke="black" stroke-width="0.5"/>
<text font-family="Times New Roman,serif" font-size="11.00" text-anchor="middle" x="380.983" y="-771.583">tree</text>
</g>
<!-- plant&#45;&#45;tree -->
<g class="edge" id="edge19"><title>plant--tree</title>
<path d="M305.75,-648.964C324.315,-679.912 354.205,-729.741 370.147,-756.319" fill="none" stroke="black" stroke-width="0.5"/>
<polygon fill="none" points="308.526,-646.787 300.38,-640.012 302.523,-650.388 308.526,-646.787" stroke="black" stroke-width="0.5"/>
</g>
<!-- grass -->
<g class="node" id="node26"><title>grass</title>
<path d="M253.504,-772.618C253.504,-772.618 283.504,-772.618 283.504,-772.618 289.504,-772.618 295.504,-778.618 295.504,-784.618 295.504,-784.618 295.504,-796.618 295.504,-796.618 295.504,-802.618 289.504,-808.618 283.504,-808.618 283.504,-808.618 253.504,-808.618 253.504,-808.618 247.504,-808.618 241.504,-802.618 241.504,-796.618 241.504,-796.618 241.504,-784.618 241.504,-784.618 241.504,-778.618 247.504,-772.618 253.504,-772.618" fill="aliceblue" stroke="black" stroke-width="0.5"/>
<text font-family="Times New Roman,serif" font-size="11.00" text-anchor="middle" x="268.504" y="-787.818">grass</text>
</g>
<!-- plant&#45;&#45;grass -->
<g class="edge" id="edge23"><title>plant--grass</title>
<path d="M286.036,-649.956C281.702,-684.729 274.438,-743.01 270.77,-772.44" fill="none" stroke="black" stroke-width="0.5"/>
<polygon fill="none" points="289.516,-650.334 287.28,-639.978 282.57,-649.468 289.516,-650.334" stroke="black" stroke-width="0.5"/>
</g>
<!-- apple -->
<g class="node" id="node3"><title>apple</title>
<path d="M278.647,-536.952C278.647,-536.952 308.647,-536.952 308.647,-536.952 314.647,-536.952 320.647,-542.952 320.647,-548.952 320.647,-548.952 320.647,-560.952 320.647,-560.952 320.647,-566.952 314.647,-572.952 308.647,-572.952 308.647,-572.952 278.647,-572.952 278.647,-572.952 272.647,-572.952 266.647,-566.952 266.647,-560.952 266.647,-560.952 266.647,-548.952 266.647,-548.952 266.647,-542.952 272.647,-536.952 278.647,-536.952" fill="aliceblue" stroke="black" stroke-width="0.5"/>
<text font-family="Times New Roman,serif" font-size="11.00" text-anchor="middle" x="293.647" y="-552.152">apple</text>
</g>
<!-- fruiting&#45;body -->
<g class="node" id="node4"><title>fruiting-body</title>
<path d="M289.697,-459.269C289.697,-459.269 337.697,-459.269 337.697,-459.269 343.697,-459.269 349.697,-465.269 349.697,-471.269 349.697,-471.269 349.697,-483.269 349.697,-483.269 349.697,-489.269 343.697,-495.269 337.697,-495.269 337.697,-495.269 289.697,-495.269 289.697,-495.269 283.697,-495.269 277.697,-489.269 277.697,-483.269 277.697,-483.269 277.697,-471.269 277.697,-471.269 277.697,-465.269 283.697,-459.269 289.697,-459.269" fill="aliceblue" stroke="black" stroke-width="0.5"/>
<text font-family="Times New Roman,serif" font-size="11.00" text-anchor="middle" x="313.697" y="-474.469">fruiting-body</text>
</g>
<!-- fruiting&#45;body&#45;&#45;apple -->
<g class="edge" id="edge2"><title>fruiting-body--apple</title>
<path d="M306.471,-505.266C303.764,-515.755 300.761,-527.39 298.341,-536.763" fill="none" stroke="black" stroke-width="0.5"/>
<polygon fill="none" points="309.936,-505.844 309.047,-495.286 303.158,-504.094 309.936,-505.844" stroke="black" stroke-width="0.5"/>
</g>
<!-- berry -->
<g class="node" id="node12"><title>berry</title>
<path d="M380.327,-565.226C380.327,-565.226 410.327,-565.226 410.327,-565.226 416.327,-565.226 422.327,-571.226 422.327,-577.226 422.327,-577.226 422.327,-589.226 422.327,-589.226 422.327,-595.226 416.327,-601.226 410.327,-601.226 410.327,-601.226 380.327,-601.226 380.327,-601.226 374.327,-601.226 368.327,-595.226 368.327,-589.226 368.327,-589.226 368.327,-577.226 368.327,-577.226 368.327,-571.226 374.327,-565.226 380.327,-565.226" fill="aliceblue" stroke="black" stroke-width="0.5"/>
<text font-family="Times New Roman,serif" font-size="11.00" text-anchor="middle" x="395.327" y="-580.426">berry</text>
</g>
<!-- fruiting&#45;body&#45;&#45;berry -->
<g class="edge" id="edge9"><title>fruiting-body--berry</title>
<path d="M334.095,-503.747C348.803,-522.837 368.273,-548.11 381.271,-564.981" fill="none" stroke="black" stroke-width="0.5"/>
<polygon fill="none" points="336.791,-501.511 327.916,-495.726 331.246,-505.783 336.791,-501.511" stroke="black" stroke-width="0.5"/>
</g>
<!-- rock&#45;dassie -->
<g class="node" id="node5"><title>rock-dassie</title>
<path d="M1087.51,-368.948C1087.51,-368.948 1130.51,-368.948 1130.51,-368.948 1136.51,-368.948 1142.51,-374.948 1142.51,-380.948 1142.51,-380.948 1142.51,-392.948 1142.51,-392.948 1142.51,-398.948 1136.51,-404.948 1130.51,-404.948 1130.51,-404.948 1087.51,-404.948 1087.51,-404.948 1081.51,-404.948 1075.51,-398.948 1075.51,-392.948 1075.51,-392.948 1075.51,-380.948 1075.51,-380.948 1075.51,-374.948 1081.51,-368.948 1087.51,-368.948" fill="aliceblue" stroke="black" stroke-width="0.5"/>
<text font-family="Times New Roman,serif" font-size="11.00" text-anchor="middle" x="1109.01" y="-384.148">rock-dassie</text>
</g>
<!-- animal -->
<g class="node" id="node6"><title>animal</title>
<path d="M913.762,-362.885C913.762,-362.885 943.762,-362.885 943.762,-362.885 949.762,-362.885 955.762,-368.885 955.762,-374.885 955.762,-374.885 955.762,-386.885 955.762,-386.885 955.762,-392.885 949.762,-398.885 943.762,-398.885 943.762,-398.885 913.762,-398.885 913.762,-398.885 907.762,-398.885 901.762,-392.885 901.762,-386.885 901.762,-386.885 901.762,-374.885 901.762,-374.885 901.762,-368.885 907.762,-362.885 913.762,-362.885" fill="aliceblue" stroke="black" stroke-width="0.5"/>
<text font-family="Times New Roman,serif" font-size="11.00" text-anchor="middle" x="928.762" y="-378.085">animal</text>
</g>
<!-- animal&#45;&#45;rock&#45;dassie -->
<g class="edge" id="edge3"><title>animal--rock-dassie</title>
<path d="M966.464,-382.153C998.57,-383.233 1044.28,-384.771 1075.22,-385.812" fill="none" stroke="black" stroke-width="0.5"/>
<polygon fill="none" points="966.25,-378.644 956.138,-381.806 966.014,-385.64 966.25,-378.644" stroke="black" stroke-width="0.5"/>
</g>
<!-- warthog -->
<g class="node" id="node11"><title>warthog</title>
<path d="M1008.9,-492.758C1008.9,-492.758 1038.9,-492.758 1038.9,-492.758 1044.9,-492.758 1050.9,-498.758 1050.9,-504.758 1050.9,-504.758 1050.9,-516.758 1050.9,-516.758 1050.9,-522.758 1044.9,-528.758 1038.9,-528.758 1038.9,-528.758 1008.9,-528.758 1008.9,-528.758 1002.9,-528.758 996.904,-522.758 996.904,-516.758 996.904,-516.758 996.904,-504.758 996.904,-504.758 996.904,-498.758 1002.9,-492.758 1008.9,-492.758" fill="aliceblue" stroke="black" stroke-width="0.5"/>
<text font-family="Times New Roman,serif" font-size="11.00" text-anchor="middle" x="1023.9" y="-507.958">warthog</text>
</g>
<!-- animal&#45;&#45;warthog -->
<g class="edge" id="edge7"><title>animal--warthog</title>
<path d="M947.907,-407.019C966.47,-432.357 994.151,-470.143 1010.48,-492.434" fill="none" stroke="black" stroke-width="0.5"/>
<polygon fill="none" points="950.724,-404.942 941.991,-398.943 945.078,-409.079 950.724,-404.942" stroke="black" stroke-width="0.5"/>
</g>
<!-- herbivore -->
<g class="node" id="node13"><title>herbivore</title>
<path d="M787.356,-354.546C787.356,-354.546 821.356,-354.546 821.356,-354.546 827.356,-354.546 833.356,-360.546 833.356,-366.546 833.356,-366.546 833.356,-378.546 833.356,-378.546 833.356,-384.546 827.356,-390.546 821.356,-390.546 821.356,-390.546 787.356,-390.546 787.356,-390.546 781.356,-390.546 775.356,-384.546 775.356,-378.546 775.356,-378.546 775.356,-366.546 775.356,-366.546 775.356,-360.546 781.356,-354.546 787.356,-354.546" fill="aliceblue" stroke="black" stroke-width="0.5"/>
<text font-family="Times New Roman,serif" font-size="11.00" text-anchor="middle" x="804.356" y="-369.746">herbivore</text>
</g>
<!-- animal&#45;&#45;herbivore -->
<g class="edge" id="edge10"><title>animal--herbivore</title>
<path d="M891.346,-378.377C872.903,-377.141 850.986,-375.672 833.764,-374.518" fill="none" stroke="black" stroke-width="0.5"/>
<polygon fill="none" points="891.249,-381.878 901.461,-379.055 891.717,-374.894 891.249,-381.878" stroke="black" stroke-width="0.5"/>
</g>
<!-- omnivore -->
<g class="node" id="node14"><title>omnivore</title>
<path d="M1064.42,-440.825C1064.42,-440.825 1097.42,-440.825 1097.42,-440.825 1103.42,-440.825 1109.42,-446.825 1109.42,-452.825 1109.42,-452.825 1109.42,-464.825 1109.42,-464.825 1109.42,-470.825 1103.42,-476.825 1097.42,-476.825 1097.42,-476.825 1064.42,-476.825 1064.42,-476.825 1058.42,-476.825 1052.42,-470.825 1052.42,-464.825 1052.42,-464.825 1052.42,-452.825 1052.42,-452.825 1052.42,-446.825 1058.42,-440.825 1064.42,-440.825" fill="aliceblue" stroke="black" stroke-width="0.5"/>
<text font-family="Times New Roman,serif" font-size="11.00" text-anchor="middle" x="1080.92" y="-456.025">omnivore</text>
</g>
<!-- animal&#45;&#45;omnivore -->
<g class="edge" id="edge11"><title>animal--omnivore</title>
<path d="M965.015,-399.454C991.773,-413.16 1027.68,-431.555 1052.41,-444.218" fill="none" stroke="black" stroke-width="0.5"/>
<polygon fill="none" points="966.462,-396.263 955.966,-394.819 963.271,-402.493 966.462,-396.263" stroke="black" stroke-width="0.5"/>
</g>
<!-- carnivore -->
<g class="node" id="node17"><title>carnivore</title>
<path d="M944.499,-236.415C944.499,-236.415 978.499,-236.415 978.499,-236.415 984.499,-236.415 990.499,-242.415 990.499,-248.415 990.499,-248.415 990.499,-260.415 990.499,-260.415 990.499,-266.415 984.499,-272.415 978.499,-272.415 978.499,-272.415 944.499,-272.415 944.499,-272.415 938.499,-272.415 932.499,-266.415 932.499,-260.415 932.499,-260.415 932.499,-248.415 932.499,-248.415 932.499,-242.415 938.499,-236.415 944.499,-236.415" fill="aliceblue" stroke="black" stroke-width="0.5"/>
<text font-family="Times New Roman,serif" font-size="11.00" text-anchor="middle" x="961.499" y="-251.615">carnivore</text>
</g>
<!-- animal&#45;&#45;carnivore -->
<g class="edge" id="edge14"><title>animal--carnivore</title>
<path d="M935.988,-352.969C942.333,-328.458 951.376,-293.524 956.817,-272.502" fill="none" stroke="black" stroke-width="0.5"/>
<polygon fill="none" points="932.57,-352.207 933.453,-362.765 939.347,-353.961 932.57,-352.207" stroke="black" stroke-width="0.5"/>
</g>
<!-- impala -->
<g class="node" id="node21"><title>impala</title>
<path d="M1065.05,-292.553C1065.05,-292.553 1095.05,-292.553 1095.05,-292.553 1101.05,-292.553 1107.05,-298.553 1107.05,-304.553 1107.05,-304.553 1107.05,-316.553 1107.05,-316.553 1107.05,-322.553 1101.05,-328.553 1095.05,-328.553 1095.05,-328.553 1065.05,-328.553 1065.05,-328.553 1059.05,-328.553 1053.05,-322.553 1053.05,-316.553 1053.05,-316.553 1053.05,-304.553 1053.05,-304.553 1053.05,-298.553 1059.05,-292.553 1065.05,-292.553" fill="aliceblue" stroke="black" stroke-width="0.5"/>
<text font-family="Times New Roman,serif" font-size="11.00" text-anchor="middle" x="1080.05" y="-307.753">impala</text>
</g>
<!-- animal&#45;&#45;impala -->
<g class="edge" id="edge18"><title>animal--impala</title>
<path d="M964.956,-364.059C992.013,-351.481 1028.42,-334.556 1052.98,-323.136" fill="none" stroke="black" stroke-width="0.5"/>
<polygon fill="none" points="963.403,-360.921 955.81,-368.311 966.354,-367.269 963.403,-360.921" stroke="black" stroke-width="0.5"/>
</g>
<!-- giraffe -->
<g class="node" id="node28"><title>giraffe</title>
<path d="M870.942,-462.609C870.942,-462.609 900.942,-462.609 900.942,-462.609 906.942,-462.609 912.942,-468.609 912.942,-474.609 912.942,-474.609 912.942,-486.609 912.942,-486.609 912.942,-492.609 906.942,-498.609 900.942,-498.609 900.942,-498.609 870.942,-498.609 870.942,-498.609 864.942,-498.609 858.942,-492.609 858.942,-486.609 858.942,-486.609 858.942,-474.609 858.942,-474.609 858.942,-468.609 864.942,-462.609 870.942,-462.609" fill="aliceblue" stroke="black" stroke-width="0.5"/>
<text font-family="Times New Roman,serif" font-size="11.00" text-anchor="middle" x="885.942" y="-477.809">giraffe</text>
</g>
<!-- animal&#45;&#45;giraffe -->
<g class="edge" id="edge25"><title>animal--giraffe</title>
<path d="M916.818,-408.702C909.443,-425.879 900.191,-447.426 893.746,-462.434" fill="none" stroke="black" stroke-width="0.5"/>
<polygon fill="none" points="920.179,-409.745 920.908,-399.176 913.747,-406.984 920.179,-409.745" stroke="black" stroke-width="0.5"/>
</g>
<!-- twig -->
<g class="node" id="node7"><title>twig</title>
<path d="M11.8144,-363.835C11.8144,-363.835 41.8144,-363.835 41.8144,-363.835 47.8144,-363.835 53.8144,-369.835 53.8144,-375.835 53.8144,-375.835 53.8144,-387.835 53.8144,-387.835 53.8144,-393.835 47.8144,-399.835 41.8144,-399.835 41.8144,-399.835 11.8144,-399.835 11.8144,-399.835 5.81441,-399.835 -0.185587,-393.835 -0.185587,-387.835 -0.185587,-387.835 -0.185587,-375.835 -0.185587,-375.835 -0.185587,-369.835 5.81441,-363.835 11.8144,-363.835" fill="aliceblue" stroke="black" stroke-width="0.5"/>
<text font-family="Times New Roman,serif" font-size="11.00" text-anchor="middle" x="26.8144" y="-379.035">twig</text>
</g>
<!-- plant&#45;part -->
<g class="node" id="node8"><title>plant-part</title>
<path d="M139.307,-312.484C139.307,-312.484 174.307,-312.484 174.307,-312.484 180.307,-312.484 186.307,-318.484 186.307,-324.484 186.307,-324.484 186.307,-336.484 186.307,-336.484 186.307,-342.484 180.307,-348.484 174.307,-348.484 174.307,-348.484 139.307,-348.484 139.307,-348.484 133.307,-348.484 127.307,-342.484 127.307,-336.484 127.307,-336.484 127.307,-324.484 127.307,-324.484 127.307,-318.484 133.307,-312.484 139.307,-312.484" fill="aliceblue" stroke="black" stroke-width="0.5"/>
<text font-family="Times New Roman,serif" font-size="11.00" text-anchor="middle" x="156.807" y="-327.684">plant-part</text>
</g>
<!-- plant&#45;part&#45;&#45;fruiting&#45;body -->
<g class="edge" id="edge8"><title>plant-part--fruiting-body</title>
<path d="M183.922,-355.853C215.439,-385.34 266.662,-433.264 294.39,-459.206" fill="none" stroke="black" stroke-width="0.5"/>
<polygon fill="none" points="186.054,-353.054 176.36,-348.778 181.271,-358.166 186.054,-353.054" stroke="black" stroke-width="0.5"/>
</g>
<!-- plant&#45;part&#45;&#45;twig -->
<g class="edge" id="edge4"><title>plant-part--twig</title>
<path d="M117.554,-345.99C96.9671,-354.123 72.2709,-363.879 53.844,-371.158" fill="none" stroke="black" stroke-width="0.5"/>
<polygon fill="none" points="118.97,-349.194 126.984,-342.265 116.398,-342.684 118.97,-349.194" stroke="black" stroke-width="0.5"/>
</g>
<!-- stem -->
<g class="node" id="node9"><title>stem</title>
<path d="M15.938,-302.958C15.938,-302.958 45.938,-302.958 45.938,-302.958 51.938,-302.958 57.938,-308.958 57.938,-314.958 57.938,-314.958 57.938,-326.958 57.938,-326.958 57.938,-332.958 51.938,-338.958 45.938,-338.958 45.938,-338.958 15.938,-338.958 15.938,-338.958 9.93797,-338.958 3.93797,-332.958 3.93797,-326.958 3.93797,-326.958 3.93797,-314.958 3.93797,-314.958 3.93797,-308.958 9.93797,-302.958 15.938,-302.958" fill="aliceblue" stroke="black" stroke-width="0.5"/>
<text font-family="Times New Roman,serif" font-size="11.00" text-anchor="middle" x="30.938" y="-318.158">stem</text>
</g>
<!-- plant&#45;part&#45;&#45;stem -->
<g class="edge" id="edge5"><title>plant-part--stem</title>
<path d="M117.3,-327.494C98.0511,-326.037 75.3919,-324.322 58.1141,-323.014" fill="none" stroke="black" stroke-width="0.5"/>
<polygon fill="none" points="117.061,-330.986 127.297,-328.251 117.589,-324.006 117.061,-330.986" stroke="black" stroke-width="0.5"/>
</g>
<!-- leaf -->
<g class="node" id="node10"><title>leaf</title>
<path d="M218.186,-226.768C218.186,-226.768 248.186,-226.768 248.186,-226.768 254.186,-226.768 260.186,-232.768 260.186,-238.768 260.186,-238.768 260.186,-250.768 260.186,-250.768 260.186,-256.768 254.186,-262.768 248.186,-262.768 248.186,-262.768 218.186,-262.768 218.186,-262.768 212.186,-262.768 206.186,-256.768 206.186,-250.768 206.186,-250.768 206.186,-238.768 206.186,-238.768 206.186,-232.768 212.186,-226.768 218.186,-226.768" fill="aliceblue" stroke="black" stroke-width="0.5"/>
<text font-family="Times New Roman,serif" font-size="11.00" text-anchor="middle" x="233.186" y="-241.968">leaf</text>
</g>
<!-- plant&#45;part&#45;&#45;leaf -->
<g class="edge" id="edge6"><title>plant-part--leaf</title>
<path d="M179.754,-304.733C191.764,-291.254 206.181,-275.074 217.011,-262.92" fill="none" stroke="black" stroke-width="0.5"/>
<polygon fill="none" points="177.045,-302.511 173.005,-312.306 182.271,-307.168 177.045,-302.511" stroke="black" stroke-width="0.5"/>
</g>
<!-- phloem -->
<g class="node" id="node16"><title>phloem</title>
<path d="M53.4032,-424.739C53.4032,-424.739 83.4032,-424.739 83.4032,-424.739 89.4032,-424.739 95.4032,-430.739 95.4032,-436.739 95.4032,-436.739 95.4032,-448.739 95.4032,-448.739 95.4032,-454.739 89.4032,-460.739 83.4032,-460.739 83.4032,-460.739 53.4032,-460.739 53.4032,-460.739 47.4032,-460.739 41.4032,-454.739 41.4032,-448.739 41.4032,-448.739 41.4032,-436.739 41.4032,-436.739 41.4032,-430.739 47.4032,-424.739 53.4032,-424.739" fill="aliceblue" stroke="black" stroke-width="0.5"/>
<text font-family="Times New Roman,serif" font-size="11.00" text-anchor="middle" x="68.4032" y="-439.939">phloem</text>
</g>
<!-- plant&#45;part&#45;&#45;phloem -->
<g class="edge" id="edge13"><title>plant-part--phloem</title>
<path d="M136.224,-356.621C119.857,-377.403 97.3745,-405.952 82.8653,-424.375" fill="none" stroke="black" stroke-width="0.5"/>
<polygon fill="none" points="139.166,-358.542 142.604,-348.52 133.667,-354.211 139.166,-358.542" stroke="black" stroke-width="0.5"/>
</g>
<!-- branch -->
<g class="node" id="node18"><title>branch</title>
<path d="M45.5209,-251.505C45.5209,-251.505 75.5209,-251.505 75.5209,-251.505 81.5209,-251.505 87.5209,-257.505 87.5209,-263.505 87.5209,-263.505 87.5209,-275.505 87.5209,-275.505 87.5209,-281.505 81.5209,-287.505 75.5209,-287.505 75.5209,-287.505 45.5209,-287.505 45.5209,-287.505 39.5209,-287.505 33.5209,-281.505 33.5209,-275.505 33.5209,-275.505 33.5209,-263.505 33.5209,-263.505 33.5209,-257.505 39.5209,-251.505 45.5209,-251.505" fill="aliceblue" stroke="black" stroke-width="0.5"/>
<text font-family="Times New Roman,serif" font-size="11.00" text-anchor="middle" x="60.5209" y="-266.705">branch</text>
</g>
<!-- plant&#45;part&#45;&#45;branch -->
<g class="edge" id="edge15"><title>plant-part--branch</title>
<path d="M119.467,-306.836C108.829,-300.099 97.4498,-292.892 87.5542,-286.625" fill="none" stroke="black" stroke-width="0.5"/>
<polygon fill="none" points="117.858,-309.96 128.179,-312.353 121.603,-304.046 117.858,-309.96" stroke="black" stroke-width="0.5"/>
</g>
<!-- root -->
<g class="node" id="node24"><title>root</title>
<path d="M161.967,-166.929C161.967,-166.929 191.967,-166.929 191.967,-166.929 197.967,-166.929 203.967,-172.929 203.967,-178.929 203.967,-178.929 203.967,-190.929 203.967,-190.929 203.967,-196.929 197.967,-202.929 191.967,-202.929 191.967,-202.929 161.967,-202.929 161.967,-202.929 155.967,-202.929 149.967,-196.929 149.967,-190.929 149.967,-190.929 149.967,-178.929 149.967,-178.929 149.967,-172.929 155.967,-166.929 161.967,-166.929" fill="aliceblue" stroke="black" stroke-width="0.5"/>
<text font-family="Times New Roman,serif" font-size="11.00" text-anchor="middle" x="176.967" y="-182.129">root</text>
</g>
<!-- plant&#45;part&#45;&#45;root -->
<g class="edge" id="edge21"><title>plant-part--root</title>
<path d="M160.704,-302.352C164.751,-273.131 170.965,-228.262 174.423,-203.298" fill="none" stroke="black" stroke-width="0.5"/>
<polygon fill="none" points="157.225,-301.958 159.32,-312.344 164.159,-302.919 157.225,-301.958" stroke="black" stroke-width="0.5"/>
</g>
<!-- xylem -->
<g class="node" id="node27"><title>xylem</title>
<path d="M110.926,-215.561C110.926,-215.561 140.926,-215.561 140.926,-215.561 146.926,-215.561 152.926,-221.561 152.926,-227.561 152.926,-227.561 152.926,-239.561 152.926,-239.561 152.926,-245.561 146.926,-251.561 140.926,-251.561 140.926,-251.561 110.926,-251.561 110.926,-251.561 104.926,-251.561 98.9264,-245.561 98.9264,-239.561 98.9264,-239.561 98.9264,-227.561 98.9264,-227.561 98.9264,-221.561 104.926,-215.561 110.926,-215.561" fill="aliceblue" stroke="black" stroke-width="0.5"/>
<text font-family="Times New Roman,serif" font-size="11.00" text-anchor="middle" x="125.926" y="-230.761">xylem</text>
</g>
<!-- plant&#45;part&#45;&#45;xylem -->
<g class="edge" id="edge24"><title>plant-part--xylem</title>
<path d="M147.937,-302.645C142.721,-286.272 136.274,-266.037 131.709,-251.71" fill="none" stroke="black" stroke-width="0.5"/>
<polygon fill="none" points="144.628,-303.788 150.999,-312.254 151.298,-301.663 144.628,-303.788" stroke="black" stroke-width="0.5"/>
</g>
<!-- elephant -->
<g class="node" id="node25"><title>elephant</title>
<path d="M751.391,-202.055C751.391,-202.055 781.391,-202.055 781.391,-202.055 787.391,-202.055 793.391,-208.055 793.391,-214.055 793.391,-214.055 793.391,-226.055 793.391,-226.055 793.391,-232.055 787.391,-238.055 781.391,-238.055 781.391,-238.055 751.391,-238.055 751.391,-238.055 745.391,-238.055 739.391,-232.055 739.391,-226.055 739.391,-226.055 739.391,-214.055 739.391,-214.055 739.391,-208.055 745.391,-202.055 751.391,-202.055" fill="aliceblue" stroke="black" stroke-width="0.5"/>
<text font-family="Times New Roman,serif" font-size="11.00" text-anchor="middle" x="766.391" y="-217.255">elephant</text>
</g>
<!-- herbivore&#45;&#45;elephant -->
<g class="edge" id="edge22"><title>herbivore--elephant</title>
<path d="M797.422,-344.696C789.702,-313.688 777.451,-264.477 770.89,-238.123" fill="none" stroke="black" stroke-width="0.5"/>
<polygon fill="none" points="794.039,-345.597 799.852,-354.455 800.832,-343.905 794.039,-345.597" stroke="black" stroke-width="0.5"/>
</g>
<!-- Mary&#45;01 -->
<g class="node" id="node30"><title>Mary-01</title>
<path d="M597.596,-419.164C597.596,-419.164 628.596,-419.164 628.596,-419.164 634.596,-419.164 640.596,-425.164 640.596,-431.164 640.596,-431.164 640.596,-443.164 640.596,-443.164 640.596,-449.164 634.596,-455.164 628.596,-455.164 628.596,-455.164 597.596,-455.164 597.596,-455.164 591.596,-455.164 585.596,-449.164 585.596,-443.164 585.596,-443.164 585.596,-431.164 585.596,-431.164 585.596,-425.164 591.596,-419.164 597.596,-419.164" fill="whitesmoke" stroke="black" stroke-width="0.5"/>
<text font-family="Times New Roman,serif" font-size="11.00" text-anchor="middle" x="613.096" y="-434.364">Mary-01</text>
</g>
<!-- herbivore&#45;&#45;Mary&#45;01 -->
<g class="edge" id="edge29"><title>herbivore--Mary-01</title>
<path d="M765.37,-385.718C728.354,-398.224 673.636,-416.711 640.861,-427.784" fill="none" stroke="black" stroke-dasharray="5,2" stroke-width="0.5"/>
<polygon fill="none" points="766.954,-388.877 775.308,-382.36 764.713,-382.245 766.954,-388.877" stroke="black" stroke-width="0.5"/>
</g>
<!-- Sophie&#45;01 -->
<g class="node" id="node31"><title>Sophie-01</title>
<path d="M782.263,-414.756C782.263,-414.756 818.263,-414.756 818.263,-414.756 824.263,-414.756 830.263,-420.756 830.263,-426.756 830.263,-426.756 830.263,-438.756 830.263,-438.756 830.263,-444.756 824.263,-450.756 818.263,-450.756 818.263,-450.756 782.263,-450.756 782.263,-450.756 776.263,-450.756 770.263,-444.756 770.263,-438.756 770.263,-438.756 770.263,-426.756 770.263,-426.756 770.263,-420.756 776.263,-414.756 782.263,-414.756" fill="whitesmoke" stroke="black" stroke-width="0.5"/>
<text font-family="Times New Roman,serif" font-size="11.00" text-anchor="middle" x="800.263" y="-429.956">Sophie-01</text>
</g>
<!-- herbivore&#45;&#45;Sophie&#45;01 -->
<g class="edge" id="edge31"><title>herbivore--Sophie-01</title>
<path d="M802.44,-400.729C802.117,-405.482 801.79,-410.299 801.49,-414.704" fill="none" stroke="black" stroke-dasharray="5,2" stroke-width="0.5"/>
<polygon fill="none" points="805.942,-400.826 803.128,-390.611 798.958,-400.351 805.942,-400.826" stroke="black" stroke-width="0.5"/>
</g>
<!-- lion -->
<g class="node" id="node19"><title>lion</title>
<path d="M823.991,-232.507C823.991,-232.507 853.991,-232.507 853.991,-232.507 859.991,-232.507 865.991,-238.507 865.991,-244.507 865.991,-244.507 865.991,-256.507 865.991,-256.507 865.991,-262.507 859.991,-268.507 853.991,-268.507 853.991,-268.507 823.991,-268.507 823.991,-268.507 817.991,-268.507 811.991,-262.507 811.991,-256.507 811.991,-256.507 811.991,-244.507 811.991,-244.507 811.991,-238.507 817.991,-232.507 823.991,-232.507" fill="aliceblue" stroke="black" stroke-width="0.5"/>
<text font-family="Times New Roman,serif" font-size="11.00" text-anchor="middle" x="838.991" y="-247.707">lion</text>
</g>
<!-- carnivore&#45;&#45;lion -->
<g class="edge" id="edge16"><title>carnivore--lion</title>
<path d="M922.368,-253.167C904.04,-252.582 882.658,-251.9 866.137,-251.373" fill="none" stroke="black" stroke-width="0.5"/>
<polygon fill="none" points="922.36,-256.668 932.466,-253.489 922.583,-249.672 922.36,-256.668" stroke="black" stroke-width="0.5"/>
</g>
<!-- Leo&#45;01 -->
<g class="node" id="node32"><title>Leo-01</title>
<path d="M667.902,-288.006C667.902,-288.006 697.902,-288.006 697.902,-288.006 703.902,-288.006 709.902,-294.006 709.902,-300.006 709.902,-300.006 709.902,-312.006 709.902,-312.006 709.902,-318.006 703.902,-324.006 697.902,-324.006 697.902,-324.006 667.902,-324.006 667.902,-324.006 661.902,-324.006 655.902,-318.006 655.902,-312.006 655.902,-312.006 655.902,-300.006 655.902,-300.006 655.902,-294.006 661.902,-288.006 667.902,-288.006" fill="whitesmoke" stroke="black" stroke-width="0.5"/>
<text font-family="Times New Roman,serif" font-size="11.00" text-anchor="middle" x="682.902" y="-303.206">Leo-01</text>
</g>
<!-- lion&#45;&#45;Leo&#45;01 -->
<g class="edge" id="edge32"><title>lion--Leo-01</title>
<path d="M802.266,-263.565C774,-273.615 735.573,-287.278 710.041,-296.357" fill="none" stroke="black" stroke-dasharray="5,2" stroke-width="0.5"/>
<polygon fill="none" points="803.553,-266.822 811.802,-260.174 801.208,-260.227 803.553,-266.822" stroke="black" stroke-width="0.5"/>
</g>
<!-- palm&#45;tree&#45;&#45;Mary&#45;01 -->
<g class="edge" id="edge28"><title>palm-tree--Mary-01</title>
<path d="M514.772,-501.825C537.035,-487.184 565.158,-468.69 585.618,-455.234" fill="none" stroke="black" stroke-dasharray="5,2" stroke-width="0.5"/>
<polygon fill="none" points="512.679,-499.012 506.247,-507.431 516.526,-504.861 512.679,-499.012" stroke="black" stroke-width="0.5"/>
</g>
<!-- parsnip -->
<g class="node" id="node23"><title>parsnip</title>
<path d="M151.479,-0.708794C151.479,-0.708794 181.479,-0.708794 181.479,-0.708794 187.479,-0.708794 193.479,-6.70879 193.479,-12.7088 193.479,-12.7088 193.479,-24.7088 193.479,-24.7088 193.479,-30.7088 187.479,-36.7088 181.479,-36.7088 181.479,-36.7088 151.479,-36.7088 151.479,-36.7088 145.479,-36.7088 139.479,-30.7088 139.479,-24.7088 139.479,-24.7088 139.479,-12.7088 139.479,-12.7088 139.479,-6.70879 145.479,-0.708794 151.479,-0.708794" fill="aliceblue" stroke="black" stroke-width="0.5"/>
<text font-family="Times New Roman,serif" font-size="11.00" text-anchor="middle" x="166.479" y="-15.9088">parsnip</text>
</g>
<!-- root&#45;&#45;parsnip -->
<g class="edge" id="edge20"><title>root--parsnip</title>
<path d="M175.176,-156.544C173.013,-122.265 169.439,-65.6285 167.62,-36.7914" fill="none" stroke="black" stroke-width="0.5"/>
<polygon fill="none" points="171.702,-157.064 175.825,-166.824 178.688,-156.624 171.702,-157.064" stroke="black" stroke-width="0.5"/>
</g>
<!-- giraffe&#45;&#45;Sophie&#45;01 -->
<g class="edge" id="edge30"><title>giraffe--Sophie-01</title>
<path d="M849.673,-460.352C843.276,-456.779 836.679,-453.094 830.47,-449.627" fill="none" stroke="black" stroke-dasharray="5,2" stroke-width="0.5"/>
<polygon fill="none" points="848.396,-463.647 858.833,-465.468 851.809,-457.536 848.396,-463.647" stroke="black" stroke-width="0.5"/>
</g>
<!-- herb -->
<g class="node" id="node29"><title>herb</title>
<path d="M199.819,-495.025C199.819,-495.025 229.819,-495.025 229.819,-495.025 235.819,-495.025 241.819,-501.025 241.819,-507.025 241.819,-507.025 241.819,-519.025 241.819,-519.025 241.819,-525.025 235.819,-531.025 229.819,-531.025 229.819,-531.025 199.819,-531.025 199.819,-531.025 193.819,-531.025 187.819,-525.025 187.819,-519.025 187.819,-519.025 187.819,-507.025 187.819,-507.025 187.819,-501.025 193.819,-495.025 199.819,-495.025" fill="aliceblue" stroke="black" stroke-width="0.5"/>
<text font-family="Times New Roman,serif" font-size="11.00" text-anchor="middle" x="214.819" y="-510.225">herb</text>
</g>
<!-- herb&#45;&#45;plant -->
<g class="edge" id="edge26"><title>herb--plant</title>
<path d="M233.21,-539.831C246.845,-559.706 265.068,-586.268 277.044,-603.724" fill="none" stroke="black" stroke-width="0.5"/>
<polygon fill="none" points="236.036,-537.764 227.493,-531.498 230.264,-541.724 236.036,-537.764" stroke="black" stroke-width="0.5"/>
</g>
<!-- herb&#45;&#45;plant&#45;part -->
<g class="edge" id="edge27"><title>herb--plant-part</title>
<path d="M205.903,-484.97C193.852,-447.048 172.706,-380.51 162.558,-348.581" fill="none" stroke="black" stroke-width="0.5"/>
<polygon fill="none" points="202.68,-486.384 209.045,-494.855 209.351,-484.264 202.68,-486.384" stroke="black" stroke-width="0.5"/>
</g>
<!-- Leo&#45;01&#45;&#45;Mary&#45;01 -->
<g class="edge" id="edge33"><title>Leo-01--Mary-01</title>
<path d="M673.196,-324.243C661.318,-346.56 641.104,-384.541 627.433,-410.227" fill="none" stroke="black" stroke-width="0.5"/>
<polygon fill="black" points="622.72,-419.082 623.446,-408.14 625.069,-414.668 627.418,-410.254 627.418,-410.254 627.418,-410.254 625.069,-414.668 631.391,-412.369 622.72,-419.082 622.72,-419.082" stroke="black" stroke-width="0.5"/>
<text font-family="Times New Roman,serif" font-size="11.00" text-anchor="middle" x="638.581" y="-374.631">eats</text>
</g>
<!-- Leo&#45;01&#45;&#45;Sophie&#45;01 -->
<g class="edge" id="edge34"><title>Leo-01--Sophie-01</title>
<path d="M699.717,-324.166C719.849,-345.908 753.698,-382.465 776.497,-407.088" fill="none" stroke="black" stroke-width="0.5"/>
<polygon fill="black" points="783.479,-414.629 773.383,-410.349 780.082,-410.961 776.685,-407.292 776.685,-407.292 776.685,-407.292 780.082,-410.961 779.987,-404.234 783.479,-414.629 783.479,-414.629" stroke="black" stroke-width="0.5"/>
<text font-family="Times New Roman,serif" font-size="11.00" text-anchor="middle" x="732.152" y="-372.656">eats</text>
</g>
</g>
</svg>