<svg height="989pt" viewBox="0.00 0.00 954.00 989.00" width="954pt" xmlns="http://www.w3.org/2000/svg" xmlns:xlink="http://www.w3.org/1999/xlink">
<g class="graph" id="graph0" transform="scale(1 1) rotate(0) translate(4 985)">
<title>G</title>
<polygon fill="white" points="-4,4 -4,-985 950,-985 950,4 -4,4" stroke="none"/>
<!-- warthog -->
<g class="node" id="node1"><title>warthog</title>
<path d="M644.363,-886.808C644.363,-886.808 674.363,-886.808 674.363,-886.808 680.363,-886.808 686.363,-892.808 686.363,-898.808 686.363,-898.808 686.363,-910.808 686.363,-910.808 686.363,-916.808 680.363,-922.808 674.363,-922.808 674.363,-922.808 644.363,-922.808 644.363,-922.808 638.363,-922.808 632.363,-916.808 632.363,-910.808 632.363,-910.808 632.363,-898.808 632.363,-898.808 632.363,-892.808 638.363,-886.808 644.363,-886.808" fill="aliceblue" stroke="black" stroke-width="0.5"/>
<text font-family="Times New Roman,serif" font-size="11.00" text-anchor="middle" x="659.363" y="-902.008">warthog</text>
</g>
<!-- animal -->
<g class="node" id="node2"><title>animal</title>
<path d="M802.154,-696.667C802.154,-696.667 832.154,-696.667 832.154,-696.667 838.154,-696.667 844.154,-702.667 844.154,-708.667 844.154,-708.667 844.154,-720.667 844.154,-720.667 844.154,-726.667 838.154,-732.667 832.154,-732.667 832.154,-732.667 802.154,-732.667 802.154,-732.667 796.154,-732.667 790.154,-726.667 790.154,-720.667 790.154,-720.667 790.154,-708.667 790.154,-708.667 790.154,-702.667 796.154,-696.667 802.154,-696.667" fill="aliceblue" stroke="black" stroke-width="0.5"/>
<text font-family="Times New Roman,serif" font-size="11.00" text-anchor="middle" x="817.154" y="-711.867">animal</text>
</g>
<!-- animal&#45;&#45;warthog -->
<g class="edge" id="edge1"><title>animal--warthog</title>
<path d="M795.546,-740.705C763.09,-779.815 702.569,-852.744 674.447,-886.632" fill="none" stroke="black" stroke-width="0.5"/>
<polygon fill="none" points="798.331,-742.829 802.024,-732.899 792.945,-738.359 798.331,-742.829" stroke="black" stroke-width="0.5"/>
</g>
<!-- impala -->
<g class="node" id="node3"><title>impala</title>
<path d="M901.094,-662.121C901.094,-662.121 931.094,-662.121 931.094,-662.121 937.094,-662.121 943.094,-668.121 943.094,-674.121 943.094,-674.121 943.094,-686.121 943.094,-686.121 943.094,-692.121 937.094,-698.121 931.094,-698.121 931.094,-698.121 901.094,-698.121 901.094,-698.121 895.094,-698.121 889.094,-692.121 889.094,-686.121 889.094,-686.121 889.094,-674.121 889.094,-674.121 889.094,-668.121 895.094,-662.121 901.094,-662.121" fill="aliceblue" stroke="black" stroke-width="0.5"/>
<text font-family="Times New Roman,serif" font-size="11.00" text-anchor="middle" x="916.094" y="-677.321">impala</text>
</g>
<!-- animal&#45;&#45;impala -->
<g class="edge" id="edge2"><title>animal--impala</title>
<path d="M853.722,-701.899C865.436,-697.809 878.188,-693.357 889.091,-689.55" fill="none" stroke="black" stroke-width="0.5"/>
<polygon fill="none" points="852.477,-698.627 844.19,-705.228 854.784,-705.235 852.477,-698.627" stroke="black" stroke-width="0.5"/>
</g>
<!-- rock&#45;dassie -->
<g class="node" id="node13"><title>rock-dassie</title>
<path d="M548.96,-740.578C548.96,-740.578 591.96,-740.578 591.96,-740.578 597.96,-740.578 603.96,-746.578 603.96,-752.578 603.96,-752.578 603.96,-764.578 603.96,-764.578 603.96,-770.578 597.96,-776.578 591.96,-776.578 591.96,-776.578 548.96,-776.578 548.96,-776.578 542.96,-776.578 536.96,-770.578 536.96,-764.578 536.96,-764.578 536.96,-752.578 536.96,-752.578 536.96,-746.578 542.96,-740.578 548.96,-740.578" fill="aliceblue" stroke="black" stroke-width="0.5"/>
<text font-family="Times New Roman,serif" font-size="11.00" text-anchor="middle" x="570.46" y="-755.778">rock-dassie</text>
</g>
<!-- animal&#45;&#45;rock&#45;dassie -->
<g class="edge" id="edge9"><title>animal--rock-dassie</title>
<path d="M779.888,-721.301C732.172,-729.794 650.177,-744.389 604.216,-752.57" fill="none" stroke="black" stroke-width="0.5"/>
<polygon fill="none" points="780.579,-724.733 789.811,-719.535 779.352,-717.841 780.579,-724.733" stroke="black" stroke-width="0.5"/>
</g>
<!-- herbivore -->
<g class="node" id="node15"><title>herbivore</title>
<path d="M779.16,-605.808C779.16,-605.808 813.16,-605.808 813.16,-605.808 819.16,-605.808 825.16,-611.808 825.16,-617.808 825.16,-617.808 825.16,-629.808 825.16,-629.808 825.16,-635.808 819.16,-641.808 813.16,-641.808 813.16,-641.808 779.16,-641.808 779.16,-641.808 773.16,-641.808 767.16,-635.808 767.16,-629.808 767.16,-629.808 767.16,-617.808 767.16,-617.808 767.16,-611.808 773.16,-605.808 779.16,-605.808" fill="aliceblue" stroke="black" stroke-width="0.5"/>
<text font-family="Times New Roman,serif" font-size="11.00" text-anchor="middle" x="796.16" y="-621.008">herbivore</text>
</g>
<!-- animal&#45;&#45;herbivore -->
<g class="edge" id="edge19"><title>animal--herbivore</title>
<path d="M810.598,-686.295C807.244,-671.78 803.262,-654.546 800.33,-641.858" fill="none" stroke="black" stroke-width="0.5"/>
<polygon fill="none" points="807.244,-687.326 812.905,-696.281 814.064,-685.75 807.244,-687.326" stroke="black" stroke-width="0.5"/>
</g>
<!-- giraffe -->
<g class="node" id="node21"><title>giraffe</title>
<path d="M684.048,-553.857C684.048,-553.857 714.048,-553.857 714.048,-553.857 720.048,-553.857 726.048,-559.857 726.048,-565.857 726.048,-565.857 726.048,-577.857 726.048,-577.857 726.048,-583.857 720.048,-589.857 714.048,-589.857 714.048,-589.857 684.048,-589.857 684.048,-589.857 678.048,-589.857 672.048,-583.857 672.048,-577.857 672.048,-577.857 672.048,-565.857 672.048,-565.857 672.048,-559.857 678.048,-553.857 684.048,-553.857" fill="aliceblue" stroke="black" stroke-width="0.5"/>
<text font-family="Times New Roman,serif" font-size="11.00" text-anchor="middle" x="699.048" y="-569.057">giraffe</text>
</g>
<!-- animal&#45;&#45;giraffe -->
<g class="edge" id="edge16"><title>animal--giraffe</title>
<path d="M795.65,-688.666C772.107,-660.198 734.956,-615.277 714.258,-590.249" fill="none" stroke="black" stroke-width="0.5"/>
<polygon fill="none" points="793.125,-691.105 802.196,-696.581 798.52,-686.644 793.125,-691.105" stroke="black" stroke-width="0.5"/>
</g>
<!-- carnivore -->
<g class="node" id="node23"><title>carnivore</title>
<path d="M861.714,-847.702C861.714,-847.702 895.714,-847.702 895.714,-847.702 901.714,-847.702 907.714,-853.702 907.714,-859.702 907.714,-859.702 907.714,-871.702 907.714,-871.702 907.714,-877.702 901.714,-883.702 895.714,-883.702 895.714,-883.702 861.714,-883.702 861.714,-883.702 855.714,-883.702 849.714,-877.702 849.714,-871.702 849.714,-871.702 849.714,-859.702 849.714,-859.702 849.714,-853.702 855.714,-847.702 861.714,-847.702" fill="aliceblue" stroke="black" stroke-width="0.5"/>
<text font-family="Times New Roman,serif" font-size="11.00" text-anchor="middle" x="878.714" y="-862.902">carnivore</text>
</g>
<!-- animal&#45;&#45;carnivore -->
<g class="edge" id="edge23"><title>animal--carnivore</title>
<path d="M828.507,-742.521C840.969,-773.096 860.617,-821.301 871.262,-847.419" fill="none" stroke="black" stroke-width="0.5"/>
<polygon fill="none" points="831.595,-740.825 824.579,-732.886 825.113,-743.467 831.595,-740.825" stroke="black" stroke-width="0.5"/>
</g>
<!-- omnivore -->
<g class="node" id="node28"><title>omnivore</title>
<path d="M901.038,-767.921C901.038,-767.921 934.038,-767.921 934.038,-767.921 940.038,-767.921 946.038,-773.921 946.038,-779.921 946.038,-779.921 946.038,-791.921 946.038,-791.921 946.038,-797.921 940.038,-803.921 934.038,-803.921 934.038,-803.921 901.038,-803.921 901.038,-803.921 895.038,-803.921 889.038,-797.921 889.038,-791.921 889.038,-791.921 889.038,-779.921 889.038,-779.921 889.038,-773.921 895.038,-767.921 901.038,-767.921" fill="aliceblue" stroke="black" stroke-width="0.5"/>
<text font-family="Times New Roman,serif" font-size="11.00" text-anchor="middle" x="917.538" y="-783.121">omnivore</text>
</g>
<!-- animal&#45;&#45;omnivore -->
<g class="edge" id="edge25"><title>animal--omnivore</title>
<path d="M851.223,-738.85C864.567,-748.321 879.611,-759 891.994,-767.789" fill="none" stroke="black" stroke-width="0.5"/>
<polygon fill="none" points="852.925,-735.766 842.745,-732.832 848.873,-741.474 852.925,-735.766" stroke="black" stroke-width="0.5"/>
</g>
<!-- phloem -->
<g class="node" id="node4"><title>phloem</title>
<path d="M301.729,-622.776C301.729,-622.776 331.729,-622.776 331.729,-622.776 337.729,-622.776 343.729,-628.776 343.729,-634.776 343.729,-634.776 343.729,-646.776 343.729,-646.776 343.729,-652.776 337.729,-658.776 331.729,-658.776 331.729,-658.776 301.729,-658.776 301.729,-658.776 295.729,-658.776 289.729,-652.776 289.729,-646.776 289.729,-646.776 289.729,-634.776 289.729,-634.776 289.729,-628.776 295.729,-622.776 301.729,-622.776" fill="aliceblue" stroke="black" stroke-width="0.5"/>
<text font-family="Times New Roman,serif" font-size="11.00" text-anchor="middle" x="316.729" y="-637.976">phloem</text>
</g>
<!-- plant&#45;part -->
<g class="node" id="node5"><title>plant-part</title>
<path d="M242.623,-547.804C242.623,-547.804 277.623,-547.804 277.623,-547.804 283.623,-547.804 289.623,-553.804 289.623,-559.804 289.623,-559.804 289.623,-571.804 289.623,-571.804 289.623,-577.804 283.623,-583.804 277.623,-583.804 277.623,-583.804 242.623,-583.804 242.623,-583.804 236.623,-583.804 230.623,-577.804 230.623,-571.804 230.623,-571.804 230.623,-559.804 230.623,-559.804 230.623,-553.804 236.623,-547.804 242.623,-547.804" fill="aliceblue" stroke="black" stroke-width="0.5"/>
<text font-family="Times New Roman,serif" font-size="11.00" text-anchor="middle" x="260.123" y="-563.004">plant-part</text>
</g>
<!-- plant&#45;part&#45;&#45;phloem -->
<g class="edge" id="edge3"><title>plant-part--phloem</title>
<path d="M279.944,-592.056C287.544,-602.122 296.044,-613.379 302.957,-622.535" fill="none" stroke="black" stroke-width="0.5"/>
<polygon fill="none" points="282.645,-589.824 273.826,-583.952 277.058,-594.042 282.645,-589.824" stroke="black" stroke-width="0.5"/>
</g>
<!-- stem -->
<g class="node" id="node6"><title>stem</title>
<path d="M193.579,-610.606C193.579,-610.606 223.579,-610.606 223.579,-610.606 229.579,-610.606 235.579,-616.606 235.579,-622.606 235.579,-622.606 235.579,-634.606 235.579,-634.606 235.579,-640.606 229.579,-646.606 223.579,-646.606 223.579,-646.606 193.579,-646.606 193.579,-646.606 187.579,-646.606 181.579,-640.606 181.579,-634.606 181.579,-634.606 181.579,-622.606 181.579,-622.606 181.579,-616.606 187.579,-610.606 193.579,-610.606" fill="aliceblue" stroke="black" stroke-width="0.5"/>
<text font-family="Times New Roman,serif" font-size="11.00" text-anchor="middle" x="208.579" y="-625.806">stem</text>
</g>
<!-- plant&#45;part&#45;&#45;stem -->
<g class="edge" id="edge4"><title>plant-part--stem</title>
<path d="M238.574,-592.059C233.55,-598.181 228.305,-604.571 223.633,-610.264" fill="none" stroke="black" stroke-width="0.5"/>
<polygon fill="none" points="241.576,-593.919 245.214,-583.969 236.165,-589.478 241.576,-593.919" stroke="black" stroke-width="0.5"/>
</g>
<!-- branch -->
<g class="node" id="node7"><title>branch</title>
<path d="M332.676,-414.722C332.676,-414.722 362.676,-414.722 362.676,-414.722 368.676,-414.722 374.676,-420.722 374.676,-426.722 374.676,-426.722 374.676,-438.722 374.676,-438.722 374.676,-444.722 368.676,-450.722 362.676,-450.722 362.676,-450.722 332.676,-450.722 332.676,-450.722 326.676,-450.722 320.676,-444.722 320.676,-438.722 320.676,-438.722 320.676,-426.722 320.676,-426.722 320.676,-420.722 326.676,-414.722 332.676,-414.722" fill="aliceblue" stroke="black" stroke-width="0.5"/>
<text font-family="Times New Roman,serif" font-size="11.00" text-anchor="middle" x="347.676" y="-429.922">branch</text>
</g>
<!-- plant&#45;part&#45;&#45;branch -->
<g class="edge" id="edge5"><title>plant-part--branch</title>
<path d="M277.611,-539.222C294.887,-512.963 320.837,-473.517 335.83,-450.728" fill="none" stroke="black" stroke-width="0.5"/>
<polygon fill="none" points="274.685,-537.3 272.113,-547.578 280.533,-541.148 274.685,-537.3" stroke="black" stroke-width="0.5"/>
</g>
<!-- root -->
<g class="node" id="node9"><title>root</title>
<path d="M99.1439,-397.429C99.1439,-397.429 129.144,-397.429 129.144,-397.429 135.144,-397.429 141.144,-403.429 141.144,-409.429 141.144,-409.429 141.144,-421.429 141.144,-421.429 141.144,-427.429 135.144,-433.429 129.144,-433.429 129.144,-433.429 99.1439,-433.429 99.1439,-433.429 93.1439,-433.429 87.1439,-427.429 87.1439,-421.429 87.1439,-421.429 87.1439,-409.429 87.1439,-409.429 87.1439,-403.429 93.1439,-397.429 99.1439,-397.429" fill="aliceblue" stroke="black" stroke-width="0.5"/>
<text font-family="Times New Roman,serif" font-size="11.00" text-anchor="middle" x="114.144" y="-412.629">root</text>
</g>
<!-- plant&#45;part&#45;&#45;root -->
<g class="edge" id="edge22"><title>plant-part--root</title>
<path d="M235.479,-540.417C206.095,-510.149 157.717,-460.314 131.815,-433.632" fill="none" stroke="black" stroke-width="0.5"/>
<polygon fill="none" points="233.038,-542.928 242.514,-547.665 238.06,-538.052 233.038,-542.928" stroke="black" stroke-width="0.5"/>
</g>
<!-- xylem -->
<g class="node" id="node10"><title>xylem</title>
<path d="M130.531,-546.647C130.531,-546.647 160.531,-546.647 160.531,-546.647 166.531,-546.647 172.531,-552.647 172.531,-558.647 172.531,-558.647 172.531,-570.647 172.531,-570.647 172.531,-576.647 166.531,-582.647 160.531,-582.647 160.531,-582.647 130.531,-582.647 130.531,-582.647 124.531,-582.647 118.531,-576.647 118.531,-570.647 118.531,-570.647 118.531,-558.647 118.531,-558.647 118.531,-552.647 124.531,-546.647 130.531,-546.647" fill="aliceblue" stroke="black" stroke-width="0.5"/>
<text font-family="Times New Roman,serif" font-size="11.00" text-anchor="middle" x="145.531" y="-561.847">xylem</text>
</g>
<!-- plant&#45;part&#45;&#45;xylem -->
<g class="edge" id="edge7"><title>plant-part--xylem</title>
<path d="M220.556,-565.404C204.726,-565.244 186.893,-565.064 172.586,-564.92" fill="none" stroke="black" stroke-width="0.5"/>
<polygon fill="none" points="220.578,-568.904 230.613,-565.506 220.649,-561.905 220.578,-568.904" stroke="black" stroke-width="0.5"/>
</g>
<!-- fruiting&#45;body -->
<g class="node" id="node17"><title>fruiting-body</title>
<path d="M243.364,-722.522C243.364,-722.522 291.364,-722.522 291.364,-722.522 297.364,-722.522 303.364,-728.522 303.364,-734.522 303.364,-734.522 303.364,-746.522 303.364,-746.522 303.364,-752.522 297.364,-758.522 291.364,-758.522 291.364,-758.522 243.364,-758.522 243.364,-758.522 237.364,-758.522 231.364,-752.522 231.364,-746.522 231.364,-746.522 231.364,-734.522 231.364,-734.522 231.364,-728.522 237.364,-722.522 243.364,-722.522" fill="aliceblue" stroke="black" stroke-width="0.5"/>
<text font-family="Times New Roman,serif" font-size="11.00" text-anchor="middle" x="267.364" y="-737.722">fruiting-body</text>
</g>
<!-- plant&#45;part&#45;&#45;fruiting&#45;body -->
<g class="edge" id="edge12"><title>plant-part--fruiting-body</title>
<path d="M261.3,-594.197C262.799,-630.378 265.348,-691.866 266.61,-722.319" fill="none" stroke="black" stroke-width="0.5"/>
<polygon fill="none" points="264.782,-593.69 260.871,-583.844 257.788,-593.98 264.782,-593.69" stroke="black" stroke-width="0.5"/>
</g>
<!-- twig -->
<g class="node" id="node24"><title>twig</title>
<path d="M77.133,-594.168C77.133,-594.168 107.133,-594.168 107.133,-594.168 113.133,-594.168 119.133,-600.168 119.133,-606.168 119.133,-606.168 119.133,-618.168 119.133,-618.168 119.133,-624.168 113.133,-630.168 107.133,-630.168 107.133,-630.168 77.133,-630.168 77.133,-630.168 71.133,-630.168 65.133,-624.168 65.133,-618.168 65.133,-618.168 65.133,-606.168 65.133,-606.168 65.133,-600.168 71.133,-594.168 77.133,-594.168" fill="aliceblue" stroke="black" stroke-width="0.5"/>
<text font-family="Times New Roman,serif" font-size="11.00" text-anchor="middle" x="92.133" y="-609.368">twig</text>
</g>
<!-- plant&#45;part&#45;&#45;twig -->
<g class="edge" id="edge18"><title>plant-part--twig</title>
<path d="M220.784,-576.661C189.569,-585.276 146.754,-597.093 119.262,-604.68" fill="none" stroke="black" stroke-width="0.5"/>
<polygon fill="none" points="221.768,-580.02 230.476,-573.986 219.906,-573.273 221.768,-580.02" stroke="black" stroke-width="0.5"/>
</g>
<!-- leaf -->
<g class="node" id="node26"><title>leaf</title>
<path d="M424.203,-550.567C424.203,-550.567 454.203,-550.567 454.203,-550.567 460.203,-550.567 466.203,-556.567 466.203,-562.567 466.203,-562.567 466.203,-574.567 466.203,-574.567 466.203,-580.567 460.203,-586.567 454.203,-586.567 454.203,-586.567 424.203,-586.567 424.203,-586.567 418.203,-586.567 412.203,-580.567 412.203,-574.567 412.203,-574.567 412.203,-562.567 412.203,-562.567 412.203,-556.567 418.203,-550.567 424.203,-550.567" fill="aliceblue" stroke="black" stroke-width="0.5"/>
<text font-family="Times New Roman,serif" font-size="11.00" text-anchor="middle" x="439.203" y="-565.767">leaf</text>
</g>
<!-- plant&#45;part&#45;&#45;leaf -->
<g class="edge" id="edge21"><title>plant-part--leaf</title>
<path d="M299.776,-566.416C333.841,-566.941 382.056,-567.685 411.938,-568.146" fill="none" stroke="black" stroke-width="0.5"/>
<polygon fill="none" points="299.747,-562.915 289.694,-566.26 299.639,-569.914 299.747,-562.915" stroke="black" stroke-width="0.5"/>
</g>
<!-- Branch&#45;03 -->
<g class="node" id="node30"><title>Branch-03</title>
<path d="M191.148,-280.764C191.148,-280.764 230.148,-280.764 230.148,-280.764 236.148,-280.764 242.148,-286.764 242.148,-292.764 242.148,-292.764 242.148,-304.764 242.148,-304.764 242.148,-310.764 236.148,-316.764 230.148,-316.764 230.148,-316.764 191.148,-316.764 191.148,-316.764 185.148,-316.764 179.148,-310.764 179.148,-304.764 179.148,-304.764 179.148,-292.764 179.148,-292.764 179.148,-286.764 185.148,-280.764 191.148,-280.764" fill="whitesmoke" stroke="black" stroke-width="0.5"/>
<text font-family="Times New Roman,serif" font-size="11.00" text-anchor="middle" x="210.648" y="-295.964">Branch-03</text>
</g>
<!-- branch&#45;&#45;Branch&#45;03 -->
<g class="edge" id="edge28"><title>branch--Branch-03</title>
<path d="M322.007,-407.628C295.03,-381.255 253.25,-340.412 229.273,-316.971" fill="none" stroke="black" stroke-dasharray="5,2" stroke-width="0.5"/>
<polygon fill="none" points="319.598,-410.168 329.196,-414.656 324.492,-405.163 319.598,-410.168" stroke="black" stroke-width="0.5"/>
</g>
<!-- Branch&#45;01 -->
<g class="node" id="node31"><title>Branch-01</title>
<path d="M444.142,-352.256C444.142,-352.256 483.142,-352.256 483.142,-352.256 489.142,-352.256 495.142,-358.256 495.142,-364.256 495.142,-364.256 495.142,-376.256 495.142,-376.256 495.142,-382.256 489.142,-388.256 483.142,-388.256 483.142,-388.256 444.142,-388.256 444.142,-388.256 438.142,-388.256 432.142,-382.256 432.142,-376.256 432.142,-376.256 432.142,-364.256 432.142,-364.256 432.142,-358.256 438.142,-352.256 444.142,-352.256" fill="whitesmoke" stroke="black" stroke-width="0.5"/>
<text font-family="Times New Roman,serif" font-size="11.00" text-anchor="middle" x="463.642" y="-367.456">Branch-01</text>
</g>
<!-- branch&#45;&#45;Branch&#45;01 -->
<g class="edge" id="edge29"><title>branch--Branch-01</title>
<path d="M384.102,-413.101C399.506,-404.804 417.275,-395.232 432.107,-387.243" fill="none" stroke="black" stroke-dasharray="5,2" stroke-width="0.5"/>
<polygon fill="none" points="382.009,-410.253 374.865,-418.077 385.329,-416.416 382.009,-410.253" stroke="black" stroke-width="0.5"/>
</g>
<!-- Branch&#45;02 -->
<g class="node" id="node32"><title>Branch-02</title>
<path d="M443.156,-475.121C443.156,-475.121 482.156,-475.121 482.156,-475.121 488.156,-475.121 494.156,-481.121 494.156,-487.121 494.156,-487.121 494.156,-499.121 494.156,-499.121 494.156,-505.121 488.156,-511.121 482.156,-511.121 482.156,-511.121 443.156,-511.121 443.156,-511.121 437.156,-511.121 431.156,-505.121 431.156,-499.121 431.156,-499.121 431.156,-487.121 431.156,-487.121 431.156,-481.121 437.156,-475.121 443.156,-475.121" fill="whitesmoke" stroke="black" stroke-width="0.5"/>
<text font-family="Times New Roman,serif" font-size="11.00" text-anchor="middle" x="462.656" y="-490.321">Branch-02</text>
</g>
<!-- branch&#45;&#45;Branch&#45;02 -->
<g class="edge" id="edge30"><title>branch--Branch-02</title>
<path d="M384.007,-451.807C399.138,-459.755 416.542,-468.898 431.125,-476.558" fill="none" stroke="black" stroke-dasharray="5,2" stroke-width="0.5"/>
<polygon fill="none" points="385.405,-448.588 374.925,-447.036 382.15,-454.785 385.405,-448.588" stroke="black" stroke-width="0.5"/>
</g>
<!-- parsnip -->
<g class="node" id="node8"><title>parsnip</title>
<path d="M11.6851,-377.998C11.6851,-377.998 41.6851,-377.998 41.6851,-377.998 47.6851,-377.998 53.6851,-383.998 53.6851,-389.998 53.6851,-389.998 53.6851,-401.998 53.6851,-401.998 53.6851,-407.998 47.6851,-413.998 41.6851,-413.998 41.6851,-413.998 11.6851,-413.998 11.6851,-413.998 5.6851,-413.998 -0.314903,-407.998 -0.314903,-401.998 -0.314903,-401.998 -0.314903,-389.998 -0.314903,-389.998 -0.314903,-383.998 5.6851,-377.998 11.6851,-377.998" fill="aliceblue" stroke="black" stroke-width="0.5"/>
<text font-family="Times New Roman,serif" font-size="11.00" text-anchor="middle" x="26.6851" y="-393.198">parsnip</text>
</g>
<!-- root&#45;&#45;parsnip -->
<g class="edge" id="edge6"><title>root--parsnip</title>
<path d="M76.9926,-407.175C69.2289,-405.45 61.1821,-403.662 53.8614,-402.036" fill="none" stroke="black" stroke-width="0.5"/>
<polygon fill="none" points="76.4297,-410.635 86.9508,-409.387 77.948,-403.802 76.4297,-410.635" stroke="black" stroke-width="0.5"/>
</g>
<!-- palm&#45;tree -->
<g class="node" id="node11"><title>palm-tree</title>
<path d="M533.61,-0.0171556C533.61,-0.0171556 568.61,-0.0171556 568.61,-0.0171556 574.61,-0.0171556 580.61,-6.01716 580.61,-12.0172 580.61,-12.0172 580.61,-24.0172 580.61,-24.0172 580.61,-30.0172 574.61,-36.0172 568.61,-36.0172 568.61,-36.0172 533.61,-36.0172 533.61,-36.0172 527.61,-36.0172 521.61,-30.0172 521.61,-24.0172 521.61,-24.0172 521.61,-12.0172 521.61,-12.0172 521.61,-6.01716 527.61,-0.0171556 533.61,-0.0171556" fill="aliceblue" stroke="black" stroke-width="0.5"/>
<text font-family="Times New Roman,serif" font-size="11.00" text-anchor="middle" x="551.11" y="-15.2172">palm-tree</text>
</g>
<!-- plant -->
<g class="node" id="node12"><title>plant</title>
<path d="M456.505,-167.738C456.505,-167.738 486.505,-167.738 486.505,-167.738 492.505,-167.738 498.505,-173.738 498.505,-179.738 498.505,-179.738 498.505,-191.738 498.505,-191.738 498.505,-197.738 492.505,-203.738 486.505,-203.738 486.505,-203.738 456.505,-203.738 456.505,-203.738 450.505,-203.738 444.505,-197.738 444.505,-191.738 444.505,-191.738 444.505,-179.738 444.505,-179.738 444.505,-173.738 450.505,-167.738 456.505,-167.738" fill="aliceblue" stroke="black" stroke-width="0.5"/>
<text font-family="Times New Roman,serif" font-size="11.00" text-anchor="middle" x="471.505" y="-182.938">plant</text>
</g>
<!-- plant&#45;&#45;palm&#45;tree -->
<g class="edge" id="edge8"><title>plant--palm-tree</title>
<path d="M484.465,-158.433C500.809,-123.998 528.461,-65.7383 542.45,-36.263" fill="none" stroke="black" stroke-width="0.5"/>
<polygon fill="none" points="481.302,-156.935 480.176,-167.47 487.626,-159.936 481.302,-156.935" stroke="black" stroke-width="0.5"/>
</g>
<!-- carnivorous&#45;plant -->
<g class="node" id="node16"><title>carnivorous-plant</title>
<path d="M277.206,-142.285C277.206,-142.285 345.206,-142.285 345.206,-142.285 351.206,-142.285 357.206,-148.285 357.206,-154.285 357.206,-154.285 357.206,-166.285 357.206,-166.285 357.206,-172.285 351.206,-178.285 345.206,-178.285 345.206,-178.285 277.206,-178.285 277.206,-178.285 271.206,-178.285 265.206,-172.285 265.206,-166.285 265.206,-166.285 265.206,-154.285 265.206,-154.285 265.206,-148.285 271.206,-142.285 277.206,-142.285" fill="aliceblue" stroke="black" stroke-width="0.5"/>
<text font-family="Times New Roman,serif" font-size="11.00" text-anchor="middle" x="311.206" y="-157.485">carnivorous-plant</text>
</g>
<!-- plant&#45;&#45;carnivorous&#45;plant -->
<g class="edge" id="edge11"><title>plant--carnivorous-plant</title>
<path d="M434.293,-179.829C411.377,-176.191 381.815,-171.497 357.407,-167.621" fill="none" stroke="black" stroke-width="0.5"/>
<polygon fill="none" points="433.888,-183.309 444.313,-181.42 434.985,-176.395 433.888,-183.309" stroke="black" stroke-width="0.5"/>
</g>
<!-- tasty&#45;plant -->
<g class="node" id="node19"><title>tasty-plant</title>
<path d="M576.731,-125.579C576.731,-125.579 614.731,-125.579 614.731,-125.579 620.731,-125.579 626.731,-131.579 626.731,-137.579 626.731,-137.579 626.731,-149.579 626.731,-149.579 626.731,-155.579 620.731,-161.579 614.731,-161.579 614.731,-161.579 576.731,-161.579 576.731,-161.579 570.731,-161.579 564.731,-155.579 564.731,-149.579 564.731,-149.579 564.731,-137.579 564.731,-137.579 564.731,-131.579 570.731,-125.579 576.731,-125.579" fill="aliceblue" stroke="black" stroke-width="0.5"/>
<text font-family="Times New Roman,serif" font-size="11.00" text-anchor="middle" x="595.731" y="-140.779">tasty-plant</text>
</g>
<!-- plant&#45;&#45;tasty&#45;plant -->
<g class="edge" id="edge14"><title>plant--tasty-plant</title>
<path d="M508.318,-173.245C526.222,-167.168 547.509,-159.944 564.594,-154.146" fill="none" stroke="black" stroke-width="0.5"/>
<polygon fill="none" points="507.112,-169.958 498.767,-176.486 509.361,-176.587 507.112,-169.958" stroke="black" stroke-width="0.5"/>
</g>
<!-- grass -->
<g class="node" id="node20"><title>grass</title>
<path d="M385.588,-8.63329C385.588,-8.63329 415.588,-8.63329 415.588,-8.63329 421.588,-8.63329 427.588,-14.6333 427.588,-20.6333 427.588,-20.6333 427.588,-32.6333 427.588,-32.6333 427.588,-38.6333 421.588,-44.6333 415.588,-44.6333 415.588,-44.6333 385.588,-44.6333 385.588,-44.6333 379.588,-44.6333 373.588,-38.6333 373.588,-32.6333 373.588,-32.6333 373.588,-20.6333 373.588,-20.6333 373.588,-14.6333 379.588,-8.63329 385.588,-8.63329" fill="aliceblue" stroke="black" stroke-width="0.5"/>
<text font-family="Times New Roman,serif" font-size="11.00" text-anchor="middle" x="400.588" y="-23.8333">grass</text>
</g>
<!-- plant&#45;&#45;grass -->
<g class="edge" id="edge15"><title>plant--grass</title>
<path d="M459.182,-158.092C444.666,-125.523 420.967,-72.3552 408.628,-44.6718" fill="none" stroke="black" stroke-width="0.5"/>
<polygon fill="none" points="456.102,-159.778 463.37,-167.487 462.496,-156.928 456.102,-159.778" stroke="black" stroke-width="0.5"/>
</g>
<!-- tree -->
<g class="node" id="node25"><title>tree</title>
<path d="M535.289,-223.059C535.289,-223.059 565.289,-223.059 565.289,-223.059 571.289,-223.059 577.289,-229.059 577.289,-235.059 577.289,-235.059 577.289,-247.059 577.289,-247.059 577.289,-253.059 571.289,-259.059 565.289,-259.059 565.289,-259.059 535.289,-259.059 535.289,-259.059 529.289,-259.059 523.289,-253.059 523.289,-247.059 523.289,-247.059 523.289,-235.059 523.289,-235.059 523.289,-229.059 529.289,-223.059 535.289,-223.059" fill="aliceblue" stroke="black" stroke-width="0.5"/>
<text font-family="Times New Roman,serif" font-size="11.00" text-anchor="middle" x="550.289" y="-238.259">tree</text>
</g>
<!-- plant&#45;&#45;tree -->
<g class="edge" id="edge20"><title>plant--tree</title>
<path d="M505.698,-209.748C511.982,-214.16 518.446,-218.699 524.434,-222.904" fill="none" stroke="black" stroke-width="0.5"/>
<polygon fill="none" points="507.497,-206.734 497.302,-203.852 503.475,-212.463 507.497,-206.734" stroke="black" stroke-width="0.5"/>
</g>
<!-- elephant -->
<g class="node" id="node14"><title>elephant</title>
<path d="M881.549,-468.907C881.549,-468.907 911.549,-468.907 911.549,-468.907 917.549,-468.907 923.549,-474.907 923.549,-480.907 923.549,-480.907 923.549,-492.907 923.549,-492.907 923.549,-498.907 917.549,-504.907 911.549,-504.907 911.549,-504.907 881.549,-504.907 881.549,-504.907 875.549,-504.907 869.549,-498.907 869.549,-492.907 869.549,-492.907 869.549,-480.907 869.549,-480.907 869.549,-474.907 875.549,-468.907 881.549,-468.907" fill="aliceblue" stroke="black" stroke-width="0.5"/>
<text font-family="Times New Roman,serif" font-size="11.00" text-anchor="middle" x="896.549" y="-484.107">elephant</text>
</g>
<!-- herbivore&#45;&#45;elephant -->
<g class="edge" id="edge10"><title>herbivore--elephant</title>
<path d="M815.545,-597.373C835.421,-570.267 865.809,-528.827 883.163,-505.162" fill="none" stroke="black" stroke-width="0.5"/>
<polygon fill="none" points="812.581,-595.495 809.49,-605.629 818.226,-599.634 812.581,-595.495" stroke="black" stroke-width="0.5"/>
</g>
<!-- Sophie&#45;01 -->
<g class="node" id="node35"><title>Sophie-01</title>
<path d="M637.3,-615.723C637.3,-615.723 673.3,-615.723 673.3,-615.723 679.3,-615.723 685.3,-621.723 685.3,-627.723 685.3,-627.723 685.3,-639.723 685.3,-639.723 685.3,-645.723 679.3,-651.723 673.3,-651.723 673.3,-651.723 637.3,-651.723 637.3,-651.723 631.3,-651.723 625.3,-645.723 625.3,-639.723 625.3,-639.723 625.3,-627.723 625.3,-627.723 625.3,-621.723 631.3,-615.723 637.3,-615.723" fill="whitesmoke" stroke="black" stroke-width="0.5"/>
<text font-family="Times New Roman,serif" font-size="11.00" text-anchor="middle" x="655.3" y="-630.923">Sophie-01</text>
</g>
<!-- herbivore&#45;&#45;Sophie&#45;01 -->
<g class="edge" id="edge34"><title>herbivore--Sophie-01</title>
<path d="M756.693,-626.586C734.111,-628.176 706.228,-630.138 685.42,-631.603" fill="none" stroke="black" stroke-dasharray="5,2" stroke-width="0.5"/>
<polygon fill="none" points="757.244,-630.056 766.973,-625.863 756.752,-623.073 757.244,-630.056" stroke="black" stroke-width="0.5"/>
</g>
<!-- berry -->
<g class="node" id="node18"><title>berry</title>
<path d="M128.24,-837.737C128.24,-837.737 158.24,-837.737 158.24,-837.737 164.24,-837.737 170.24,-843.737 170.24,-849.737 170.24,-849.737 170.24,-861.737 170.24,-861.737 170.24,-867.737 164.24,-873.737 158.24,-873.737 158.24,-873.737 128.24,-873.737 128.24,-873.737 122.24,-873.737 116.24,-867.737 116.24,-861.737 116.24,-861.737 116.24,-849.737 116.24,-849.737 116.24,-843.737 122.24,-837.737 128.24,-837.737" fill="aliceblue" stroke="black" stroke-width="0.5"/>
<text font-family="Times New Roman,serif" font-size="11.00" text-anchor="middle" x="143.24" y="-852.937">berry</text>
</g>
<!-- fruiting&#45;body&#45;&#45;berry -->
<g class="edge" id="edge13"><title>fruiting-body--berry</title>
<path d="M240.462,-765.493C217.109,-787.17 183.844,-818.048 162.908,-837.481" fill="none" stroke="black" stroke-width="0.5"/>
<polygon fill="none" points="243.022,-767.893 247.97,-758.525 238.259,-762.763 243.022,-767.893" stroke="black" stroke-width="0.5"/>
</g>
<!-- apple -->
<g class="node" id="node27"><title>apple</title>
<path d="M366.465,-850.764C366.465,-850.764 396.465,-850.764 396.465,-850.764 402.465,-850.764 408.465,-856.764 408.465,-862.764 408.465,-862.764 408.465,-874.764 408.465,-874.764 408.465,-880.764 402.465,-886.764 396.465,-886.764 396.465,-886.764 366.465,-886.764 366.465,-886.764 360.465,-886.764 354.465,-880.764 354.465,-874.764 354.465,-874.764 354.465,-862.764 354.465,-862.764 354.465,-856.764 360.465,-850.764 366.465,-850.764" fill="aliceblue" stroke="black" stroke-width="0.5"/>
<text font-family="Times New Roman,serif" font-size="11.00" text-anchor="middle" x="381.465" y="-865.964">apple</text>
</g>
<!-- fruiting&#45;body&#45;&#45;apple -->
<g class="edge" id="edge24"><title>fruiting-body--apple</title>
<path d="M290.29,-766.289C312.579,-791.341 345.857,-828.743 365.441,-850.754" fill="none" stroke="black" stroke-width="0.5"/>
<polygon fill="none" points="292.732,-763.769 283.47,-758.624 287.502,-768.422 292.732,-763.769" stroke="black" stroke-width="0.5"/>
</g>
<!-- giraffe&#45;&#45;Sophie&#45;01 -->
<g class="edge" id="edge33"><title>giraffe--Sophie-01</title>
<path d="M680.357,-598.289C676.277,-604.058 672.046,-610.042 668.248,-615.412" fill="none" stroke="black" stroke-dasharray="5,2" stroke-width="0.5"/>
<polygon fill="none" points="683.242,-600.27 686.159,-590.084 677.527,-596.228 683.242,-600.27" stroke="black" stroke-width="0.5"/>
</g>
<!-- lion -->
<g class="node" id="node22"><title>lion</title>
<path d="M721.394,-944.753C721.394,-944.753 751.394,-944.753 751.394,-944.753 757.394,-944.753 763.394,-950.753 763.394,-956.753 763.394,-956.753 763.394,-968.753 763.394,-968.753 763.394,-974.753 757.394,-980.753 751.394,-980.753 751.394,-980.753 721.394,-980.753 721.394,-980.753 715.394,-980.753 709.394,-974.753 709.394,-968.753 709.394,-968.753 709.394,-956.753 709.394,-956.753 709.394,-950.753 715.394,-944.753 721.394,-944.753" fill="aliceblue" stroke="black" stroke-width="0.5"/>
<text font-family="Times New Roman,serif" font-size="11.00" text-anchor="middle" x="736.394" y="-959.953">lion</text>
</g>
<!-- Leo&#45;01 -->
<g class="node" id="node36"><title>Leo-01</title>
<path d="M704.537,-751.611C704.537,-751.611 734.537,-751.611 734.537,-751.611 740.537,-751.611 746.537,-757.611 746.537,-763.611 746.537,-763.611 746.537,-775.611 746.537,-775.611 746.537,-781.611 740.537,-787.611 734.537,-787.611 734.537,-787.611 704.537,-787.611 704.537,-787.611 698.537,-787.611 692.537,-781.611 692.537,-775.611 692.537,-775.611 692.537,-763.611 692.537,-763.611 692.537,-757.611 698.537,-751.611 704.537,-751.611" fill="whitesmoke" stroke="black" stroke-width="0.5"/>
<text font-family="Times New Roman,serif" font-size="11.00" text-anchor="middle" x="719.537" y="-766.811">Leo-01</text>
</g>
<!-- lion&#45;&#45;Leo&#45;01 -->
<g class="edge" id="edge35"><title>lion--Leo-01</title>
<path d="M733.918,-934.385C730.407,-894.154 724.08,-821.664 721.131,-787.874" fill="none" stroke="black" stroke-dasharray="5,2" stroke-width="0.5"/>
<polygon fill="none" points="730.452,-934.925 734.808,-944.583 737.425,-934.316 730.452,-934.925" stroke="black" stroke-width="0.5"/>
</g>
<!-- carnivore&#45;&#45;lion -->
<g class="edge" id="edge17"><title>carnivore--lion</title>
<path d="M843.844,-889.48C818.962,-906.448 785.996,-928.928 763.171,-944.493" fill="none" stroke="black" stroke-width="0.5"/>
<polygon fill="none" points="845.988,-892.255 852.278,-883.729 842.045,-886.471 845.988,-892.255" stroke="black" stroke-width="0.5"/>
</g>
<!-- Mary&#45;01 -->
<g class="node" id="node33"><title>Mary-01</title>
<path d="M590.129,-367.94C590.129,-367.94 621.129,-367.94 621.129,-367.94 627.129,-367.94 633.129,-373.94 633.129,-379.94 633.129,-379.94 633.129,-391.94 633.129,-391.94 633.129,-397.94 627.129,-403.94 621.129,-403.94 621.129,-403.94 590.129,-403.94 590.129,-403.94 584.129,-403.94 578.129,-397.94 578.129,-391.94 578.129,-391.94 578.129,-379.94 578.129,-379.94 578.129,-373.94 584.129,-367.94 590.129,-367.94" fill="whitesmoke" stroke="black" stroke-width="0.5"/>
<text font-family="Times New Roman,serif" font-size="11.00" text-anchor="middle" x="605.629" y="-383.14">Mary-01</text>
</g>
<!-- tree&#45;&#45;Mary&#45;01 -->
<g class="edge" id="edge31"><title>tree--Mary-01</title>
<path d="M560.839,-268.679C571.945,-297.754 589.112,-342.699 598.645,-367.656" fill="none" stroke="black" stroke-dasharray="5,2" stroke-width="0.5"/>
<polygon fill="none" points="564.024,-267.208 557.186,-259.115 557.485,-269.706 564.024,-267.208" stroke="black" stroke-width="0.5"/>
</g>
<!-- Leaf&#45;01 -->
<g class="node" id="node34"><title>Leaf-01</title>
<path d="M542.727,-537.45C542.727,-537.45 572.727,-537.45 572.727,-537.45 578.727,-537.45 584.727,-543.45 584.727,-549.45 584.727,-549.45 584.727,-561.45 584.727,-561.45 584.727,-567.45 578.727,-573.45 572.727,-573.45 572.727,-573.45 542.727,-573.45 542.727,-573.45 536.727,-573.45 530.727,-567.45 530.727,-561.45 530.727,-561.45 530.727,-549.45 530.727,-549.45 530.727,-543.45 536.727,-537.45 542.727,-537.45" fill="whitesmoke" stroke="black" stroke-width="0.5"/>
<text font-family="Times New Roman,serif" font-size="11.00" text-anchor="middle" x="557.727" y="-552.65">Leaf-01</text>
</g>
<!-- leaf&#45;&#45;Leaf&#45;01 -->
<g class="edge" id="edge32"><title>leaf--Leaf-01</title>
<path d="M476.347,-564.457C493.942,-562.509 514.575,-560.226 530.662,-558.445" fill="none" stroke="black" stroke-dasharray="5,2" stroke-width="0.5"/>
<polygon fill="none" points="475.949,-560.979 466.395,-565.558 476.719,-567.937 475.949,-560.979" stroke="black" stroke-width="0.5"/>
</g>
<!-- herb -->
<g class="node" id="node29"><title>herb</title>
<path d="M358.449,-292.024C358.449,-292.024 388.449,-292.024 388.449,-292.024 394.449,-292.024 400.449,-298.024 400.449,-304.024 400.449,-304.024 400.449,-316.024 400.449,-316.024 400.449,-322.024 394.449,-328.024 388.449,-328.024 388.449,-328.024 358.449,-328.024 358.449,-328.024 352.449,-328.024 346.449,-322.024 346.449,-316.024 346.449,-316.024 346.449,-304.024 346.449,-304.024 346.449,-298.024 352.449,-292.024 358.449,-292.024" fill="aliceblue" stroke="black" stroke-width="0.5"/>
<text font-family="Times New Roman,serif" font-size="11.00" text-anchor="middle" x="373.449" y="-307.224">herb</text>
</g>
<!-- herb&#45;&#45;plant&#45;part -->
<g class="edge" id="edge27"><title>herb--plant-part</title>
<path d="M357.176,-336.935C345.354,-357.073 329.405,-385.508 317.476,-411.522 295.56,-459.317 275.52,-518.109 265.98,-547.399" fill="none" stroke="black" stroke-width="0.5"/>
<polygon fill="none" points="360.203,-338.692 362.288,-328.305 354.18,-335.125 360.203,-338.692" stroke="black" stroke-width="0.5"/>
</g>
<!-- herb&#45;&#45;plant -->
<g class="edge" id="edge26"><title>herb--plant</title>
<path d="M394.016,-283.955C412.965,-259.937 440.592,-224.92 457.23,-203.832" fill="none" stroke="black" stroke-width="0.5"/>
<polygon fill="none" points="391.153,-281.933 387.707,-291.951 396.649,-286.269 391.153,-281.933" stroke="black" stroke-width="0.5"/>
</g>
<!-- Branch&#45;01&#45;&#45;Branch&#45;02 -->
<g class="edge" id="edge36"><title>Branch-01--Branch-02</title>
<path d="M458.541,-388.345C456.307,-408.473 455.766,-441.255 457.096,-464.792" fill="none" stroke="black" stroke-width="0.5"/>
<polygon fill="black" points="457.839,-474.878 452.616,-465.235 457.471,-469.891 457.104,-464.905 457.104,-464.905 457.104,-464.905 457.471,-469.891 461.592,-464.574 457.839,-474.878 457.839,-474.878" stroke="black" stroke-width="0.5"/>
<text font-family="Times New Roman,serif" font-size="11.00" text-anchor="middle" x="437.898" y="-434.911">has-part</text>
</g>
<!-- Branch&#45;01&#45;&#45;Mary&#45;01 -->
<g class="edge" id="edge37"><title>Branch-01--Mary-01</title>
<path d="M495.228,-379.541C516.567,-383.126 544.857,-386.342 567.457,-387.793" fill="none" stroke="black" stroke-width="0.5"/>
<polygon fill="black" points="577.717,-388.343 567.49,-392.301 572.724,-388.075 567.731,-387.807 567.731,-387.807 567.731,-387.807 572.724,-388.075 567.972,-383.314 577.717,-388.343 577.717,-388.343" stroke="black" stroke-width="0.5"/>
<text font-family="Times New Roman,serif" font-size="11.00" text-anchor="middle" x="515.675" y="-388.256">is-part-of</text>
</g>
<!-- Branch&#45;01&#45;&#45;Leaf&#45;01 -->
<g class="edge" id="edge38"><title>Branch-01--Leaf-01</title>
<path d="M468.383,-388.524C481.438,-421.317 516.019,-490.152 538.284,-528.414" fill="none" stroke="black" stroke-width="0.5"/>
<polygon fill="black" points="543.659,-537.442 534.677,-531.151 541.101,-533.145 538.543,-528.849 538.543,-528.849 538.543,-528.849 541.101,-533.145 542.41,-526.547 543.659,-537.442 543.659,-537.442" stroke="black" stroke-width="0.5"/>
<text font-family="Times New Roman,serif" font-size="11.00" text-anchor="middle" x="485.39" y="-455.58">has-part</text>
</g>
<!-- Branch&#45;02&#45;&#45;Branch&#45;01 -->
<g class="edge" id="edge39"><title>Branch-02--Branch-01</title>
<path d="M467.756,-475.032C469.991,-454.904 470.531,-422.122 469.202,-398.585" fill="none" stroke="black" stroke-width="0.5"/>
<polygon fill="black" points="468.459,-388.499 473.681,-398.142 468.826,-393.486 469.193,-398.472 469.193,-398.472 469.193,-398.472 468.826,-393.486 464.706,-398.803 468.459,-388.499 468.459,-388.499" stroke="black" stroke-width="0.5"/>
<text font-family="Times New Roman,serif" font-size="11.00" text-anchor="middle" x="449.399" y="-422.866">is-part-of</text>
</g>
<!-- Branch&#45;02&#45;&#45;Mary&#45;01 -->
<g class="edge" id="edge40"><title>Branch-02--Mary-01</title>
<path d="M494.204,-476.349C520.661,-458.625 557.795,-430.754 581.822,-410.565" fill="none" stroke="black" stroke-width="0.5"/>
<polygon fill="black" points="589.433,-404.038 584.771,-413.964 585.637,-407.293 581.842,-410.548 581.842,-410.548 581.842,-410.548 585.637,-407.293 578.913,-407.132 589.433,-404.038 589.433,-404.038" stroke="black" stroke-width="0.5"/>
<text font-family="Times New Roman,serif" font-size="11.00" text-anchor="middle" x="563.072" y="-444.833">is-part-of</text>
</g>
<!-- Branch&#45;02&#45;&#45;Leaf&#45;01 -->
<g class="edge" id="edge41"><title>Branch-02--Leaf-01</title>
<path d="M480.171,-511.394C491.868,-520.382 507.616,-531.007 521.881,-539.641" fill="none" stroke="black" stroke-width="0.5"/>
<polygon fill="black" points="530.521,-544.727 519.621,-543.532 526.212,-542.191 521.903,-539.654 521.903,-539.654 521.903,-539.654 526.212,-542.191 524.186,-535.776 530.521,-544.727 530.521,-544.727" stroke="black" stroke-width="0.5"/>
<text font-family="Times New Roman,serif" font-size="11.00" text-anchor="middle" x="486.315" y="-532.028">has-part</text>
</g>
<!-- Mary&#45;01&#45;&#45;Branch&#45;01 -->
<g class="edge" id="edge42"><title>Mary-01--Branch-01</title>
<path d="M577.844,-377.311C557.198,-373.651 528.686,-370.281 505.316,-368.639" fill="none" stroke="black" stroke-width="0.5"/>
<polygon fill="black" points="495.32,-368.028 505.576,-364.146 500.311,-368.333 505.302,-368.638 505.302,-368.638 505.302,-368.638 500.311,-368.333 505.027,-373.129 495.32,-368.028 495.32,-368.028" stroke="black" stroke-width="0.5"/>
<text font-family="Times New Roman,serif" font-size="11.00" text-anchor="middle" x="518.162" y="-374.732">has-part</text>
</g>
<!-- Mary&#45;01&#45;&#45;Branch&#45;02 -->
<g class="edge" id="edge43"><title>Mary-01--Branch-02</title>
<path d="M577.907,-400.17C551.382,-417.627 511.883,-447.156 486.664,-468.327" fill="none" stroke="black" stroke-width="0.5"/>
<polygon fill="black" points="479.013,-474.881 483.68,-464.958 482.81,-471.628 486.608,-468.375 486.608,-468.375 486.608,-468.375 482.81,-471.628 489.535,-471.793 479.013,-474.881 479.013,-474.881" stroke="black" stroke-width="0.5"/>
<text font-family="Times New Roman,serif" font-size="11.00" text-anchor="middle" x="509.088" y="-439.212">has-part</text>
</g>
<!-- Mary&#45;01&#45;&#45;Leaf&#45;01 -->
<g class="edge" id="edge44"><title>Mary-01--Leaf-01</title>
<path d="M595.809,-404.162C584.543,-433.744 567.773,-492.367 560.396,-527.325" fill="none" stroke="black" stroke-width="0.5"/>
<polygon fill="black" points="558.424,-537.355 555.937,-526.675 559.388,-532.449 560.353,-527.543 560.353,-527.543 560.353,-527.543 559.388,-532.449 564.768,-528.411 558.424,-537.355 558.424,-537.355" stroke="black" stroke-width="0.5"/>
<text font-family="Times New Roman,serif" font-size="11.00" text-anchor="middle" x="556.324" y="-473.33">has-part</text>
</g>
<!-- Leaf&#45;01&#45;&#45;Branch&#45;01 -->
<g class="edge" id="edge45"><title>Leaf-01--Branch-01</title>
<path d="M552.986,-537.182C539.932,-504.389 505.35,-435.554 483.085,-397.293" fill="none" stroke="black" stroke-width="0.5"/>
<polygon fill="black" points="477.71,-388.264 486.692,-394.555 480.268,-392.561 482.826,-396.857 482.826,-396.857 482.826,-396.857 480.268,-392.561 478.959,-399.159 477.71,-388.264 477.71,-388.264" stroke="black" stroke-width="0.5"/>
<text font-family="Times New Roman,serif" font-size="11.00" text-anchor="middle" x="527.729" y="-452.526">is-part-of</text>
</g>
<!-- Leaf&#45;01&#45;&#45;Branch&#45;02 -->
<g class="edge" id="edge46"><title>Leaf-01--Branch-02</title>
<path d="M540.212,-537.177C529.748,-529.137 516.043,-519.787 503.057,-511.724" fill="none" stroke="black" stroke-width="0.5"/>
<polygon fill="black" points="494.231,-506.379 505.116,-507.71 498.508,-508.969 502.785,-511.559 502.785,-511.559 502.785,-511.559 498.508,-508.969 500.454,-515.408 494.231,-506.379 494.231,-506.379" stroke="black" stroke-width="0.5"/>
<text font-family="Times New Roman,serif" font-size="11.00" text-anchor="middle" x="537.957" y="-524.198">is-part-of</text>
</g>
<!-- Leaf&#45;01&#45;&#45;Mary&#45;01 -->
<g class="edge" id="edge47"><title>Leaf-01--Mary-01</title>
<path d="M567.547,-537.227C578.814,-507.646 595.583,-449.023 602.961,-414.065" fill="none" stroke="black" stroke-width="0.5"/>
<polygon fill="black" points="604.932,-404.034 607.419,-414.715 603.968,-408.94 603.004,-413.847 603.004,-413.847 603.004,-413.847 603.968,-408.94 598.588,-412.979 604.932,-404.034 604.932,-404.034" stroke="black" stroke-width="0.5"/>
<text font-family="Times New Roman,serif" font-size="11.00" text-anchor="middle" x="609.032" y="-474.459">is-part-of</text>
</g>
<!-- Leaf&#45;01&#45;&#45;Sophie&#45;01 -->
<g class="edge" id="edge48"><title>Leaf-01--Sophie-01</title>
<path d="M571.845,-573.59C583.684,-584.845 601.049,-599.272 616.898,-611.224" fill="none" stroke="black" stroke-width="0.5"/>
<polygon fill="black" points="625.011,-617.219 614.294,-614.895 620.989,-614.247 616.968,-611.276 616.968,-611.276 616.968,-611.276 620.989,-614.247 619.642,-607.657 625.011,-617.219 625.011,-617.219" stroke="black" stroke-width="0.5"/>
<text font-family="Times New Roman,serif" font-size="11.00" text-anchor="middle" x="573.177" y="-599.316">is-eaten-by</text>
</g>
<!-- Sophie&#45;01&#45;&#45;Leaf&#45;01 -->
<g class="edge" id="edge49"><title>Sophie-01--Leaf-01</title>
<path d="M641.182,-615.582C628.647,-603.666 609.916,-588.192 593.349,-575.866" fill="none" stroke="black" stroke-width="0.5"/>
<polygon fill="black" points="584.927,-569.743 595.662,-571.984 588.972,-572.683 593.016,-575.624 593.016,-575.624 593.016,-575.624 588.972,-572.683 590.369,-579.263 584.927,-569.743 584.927,-569.743" stroke="black" stroke-width="0.5"/>
<text font-family="Times New Roman,serif" font-size="11.00" text-anchor="middle" x="604.154" y="-582.875">eats</text>
</g>
<!-- Sophie&#45;01&#45;&#45;Leo&#45;01 -->
<g class="edge" id="edge50"><title>Sophie-01--Leo-01</title>
<path d="M658.803,-651.791C667.027,-674.987 685.69,-715.356 700.328,-742.3" fill="none" stroke="black" stroke-width="0.5"/>
<polygon fill="black" points="705.314,-751.22 696.507,-744.686 702.874,-746.855 700.435,-742.491 700.435,-742.491 700.435,-742.491 702.874,-746.855 704.363,-740.295 705.314,-751.22 705.314,-751.22" stroke="black" stroke-width="0.5"/>
<text font-family="Times New Roman,serif" font-size="11.00" text-anchor="middle" x="655.877" y="-705.759">is-eaten-by</text>
</g>
<!-- Leo&#45;01&#45;&#45;Sophie&#45;01 -->
<g class="edge" id="edge51"><title>Leo-01--Sophie-01</title>
<path d="M716.034,-751.543C707.81,-728.347 689.147,-687.978 674.509,-661.034" fill="none" stroke="black" stroke-width="0.5"/>
<polygon fill="black" points="669.523,-652.114 678.33,-658.647 671.963,-656.478 674.402,-660.843 674.402,-660.843 674.402,-660.843 671.963,-656.478 670.474,-663.038 669.523,-652.114 669.523,-652.114" stroke="black" stroke-width="0.5"/>
<text font-family="Times New Roman,serif" font-size="11.00" text-anchor="middle" x="684.96" y="-691.975">eats</text>
</g>
</g>
</svg>