<svg height="743pt" viewBox="0.00 0.00 1062.00 743.00" width="1062pt" xmlns="http://www.w3.org/2000/svg" xmlns:xlink="http://www.w3.org/1999/xlink">
<g class="graph" id="graph0" transform="scale(1 1) rotate(0) translate(4 739)">
<title>G</title>
<polygon fill="white" points="-4,4 -4,-739 1058,-739 1058,4 -4,4" stroke="none"/>
<!-- tasty&#45;plant -->
<g class="node" id="node1"><title>tasty-plant</title>
<path d="M126.548,-520.945C126.548,-520.945 164.548,-520.945 164.548,-520.945 170.548,-520.945 176.548,-526.945 176.548,-532.945 176.548,-532.945 176.548,-544.945 176.548,-544.945 176.548,-550.945 170.548,-556.945 164.548,-556.945 164.548,-556.945 126.548,-556.945 126.548,-556.945 120.548,-556.945 114.548,-550.945 114.548,-544.945 114.548,-544.945 114.548,-532.945 114.548,-532.945 114.548,-526.945 120.548,-520.945 126.548,-520.945" fill="aliceblue" stroke="black" stroke-width="0.5"/>
<text font-family="Times New Roman,serif" font-size="11.00" text-anchor="middle" x="145.548" y="-536.145">tasty-plant</text>
</g>
<!-- plant -->
<g class="node" id="node2"><title>plant</title>
<path d="M304.303,-520.154C304.303,-520.154 334.303,-520.154 334.303,-520.154 340.303,-520.154 346.303,-526.154 346.303,-532.154 346.303,-532.154 346.303,-544.154 346.303,-544.154 346.303,-550.154 340.303,-556.154 334.303,-556.154 334.303,-556.154 304.303,-556.154 304.303,-556.154 298.303,-556.154 292.303,-550.154 292.303,-544.154 292.303,-544.154 292.303,-532.154 292.303,-532.154 292.303,-526.154 298.303,-520.154 304.303,-520.154" fill="aliceblue" stroke="black" stroke-width="0.5"/>
<text font-family="Times New Roman,serif" font-size="11.00" text-anchor="middle" x="319.303" y="-535.354">plant</text>
</g>
<!-- plant&#45;&#45;tasty&#45;plant -->
<g class="edge" id="edge1"><title>plant--tasty-plant</title>
<path d="M282.035,-538.324C250.606,-538.467 206.147,-538.669 176.612,-538.803" fill="none" stroke="black" stroke-width="0.5"/>
<polygon fill="none" points="282.17,-541.823 292.154,-538.277 282.138,-534.823 282.17,-541.823" stroke="black" stroke-width="0.5"/>
</g>
<!-- carnivorous&#45;plant -->
<g class="node" id="node15"><title>carnivorous-plant</title>
<path d="M151.982,-680.443C151.982,-680.443 219.982,-680.443 219.982,-680.443 225.982,-680.443 231.982,-686.443 231.982,-692.443 231.982,-692.443 231.982,-704.443 231.982,-704.443 231.982,-710.443 225.982,-716.443 219.982,-716.443 219.982,-716.443 151.982,-716.443 151.982,-716.443 145.982,-716.443 139.982,-710.443 139.982,-704.443 139.982,-704.443 139.982,-692.443 139.982,-692.443 139.982,-686.443 145.982,-680.443 151.982,-680.443" fill="aliceblue" stroke="black" stroke-width="0.5"/>
<text font-family="Times New Roman,serif" font-size="11.00" text-anchor="middle" x="185.982" y="-695.643">carnivorous-plant</text>
</g>
<!-- plant&#45;&#45;carnivorous&#45;plant -->
<g class="edge" id="edge12"><title>plant--carnivorous-plant</title>
<path d="M297.813,-563.991C270.731,-596.552 224.865,-651.695 201.167,-680.188" fill="none" stroke="black" stroke-width="0.5"/>
<polygon fill="none" points="300.565,-566.156 304.269,-556.229 295.183,-561.68 300.565,-566.156" stroke="black" stroke-width="0.5"/>
</g>
<!-- palm&#45;tree -->
<g class="node" id="node20"><title>palm-tree</title>
<path d="M433.598,-378.141C433.598,-378.141 468.598,-378.141 468.598,-378.141 474.598,-378.141 480.598,-384.141 480.598,-390.141 480.598,-390.141 480.598,-402.141 480.598,-402.141 480.598,-408.141 474.598,-414.141 468.598,-414.141 468.598,-414.141 433.598,-414.141 433.598,-414.141 427.598,-414.141 421.598,-408.141 421.598,-402.141 421.598,-402.141 421.598,-390.141 421.598,-390.141 421.598,-384.141 427.598,-378.141 433.598,-378.141" fill="aliceblue" stroke="black" stroke-width="0.5"/>
<text font-family="Times New Roman,serif" font-size="11.00" text-anchor="middle" x="451.098" y="-393.341">palm-tree</text>
</g>
<!-- plant&#45;&#45;palm&#45;tree -->
<g class="edge" id="edge17"><title>plant--palm-tree</title>
<path d="M342.924,-512.45C356.188,-498.037 373.057,-479.744 388.136,-463.501 403.601,-446.842 421.282,-427.939 433.961,-414.407" fill="none" stroke="black" stroke-width="0.5"/>
<polygon fill="none" points="340.154,-510.291 335.96,-520.02 345.306,-515.03 340.154,-510.291" stroke="black" stroke-width="0.5"/>
</g>
<!-- tree -->
<g class="node" id="node22"><title>tree</title>
<path d="M435.973,-674.736C435.973,-674.736 465.973,-674.736 465.973,-674.736 471.973,-674.736 477.973,-680.736 477.973,-686.736 477.973,-686.736 477.973,-698.736 477.973,-698.736 477.973,-704.736 471.973,-710.736 465.973,-710.736 465.973,-710.736 435.973,-710.736 435.973,-710.736 429.973,-710.736 423.973,-704.736 423.973,-698.736 423.973,-698.736 423.973,-686.736 423.973,-686.736 423.973,-680.736 429.973,-674.736 435.973,-674.736" fill="aliceblue" stroke="black" stroke-width="0.5"/>
<text font-family="Times New Roman,serif" font-size="11.00" text-anchor="middle" x="450.973" y="-689.936">tree</text>
</g>
<!-- plant&#45;&#45;tree -->
<g class="edge" id="edge19"><title>plant--tree</title>
<path d="M341.348,-564.034C367.933,-595.246 411.951,-646.923 435.301,-674.337" fill="none" stroke="black" stroke-width="0.5"/>
<polygon fill="none" points="343.814,-561.532 334.665,-556.189 338.485,-566.071 343.814,-561.532" stroke="black" stroke-width="0.5"/>
</g>
<!-- grass -->
<g class="node" id="node26"><title>grass</title>
<path d="M298.881,-698.859C298.881,-698.859 328.881,-698.859 328.881,-698.859 334.881,-698.859 340.881,-704.859 340.881,-710.859 340.881,-710.859 340.881,-722.859 340.881,-722.859 340.881,-728.859 334.881,-734.859 328.881,-734.859 328.881,-734.859 298.881,-734.859 298.881,-734.859 292.881,-734.859 286.881,-728.859 286.881,-722.859 286.881,-722.859 286.881,-710.859 286.881,-710.859 286.881,-704.859 292.881,-698.859 298.881,-698.859" fill="aliceblue" stroke="black" stroke-width="0.5"/>
<text font-family="Times New Roman,serif" font-size="11.00" text-anchor="middle" x="313.881" y="-714.059">grass</text>
</g>
<!-- plant&#45;&#45;grass -->
<g class="edge" id="edge23"><title>plant--grass</title>
<path d="M318.446,-566.407C317.321,-603.48 315.38,-667.485 314.433,-698.693" fill="none" stroke="black" stroke-width="0.5"/>
<polygon fill="none" points="321.949,-566.374 318.754,-556.273 314.952,-566.162 321.949,-566.374" stroke="black" stroke-width="0.5"/>
</g>
<!-- apple -->
<g class="node" id="node3"><title>apple</title>
<path d="M496.477,-568.393C496.477,-568.393 526.477,-568.393 526.477,-568.393 532.477,-568.393 538.477,-574.393 538.477,-580.393 538.477,-580.393 538.477,-592.393 538.477,-592.393 538.477,-598.393 532.477,-604.393 526.477,-604.393 526.477,-604.393 496.477,-604.393 496.477,-604.393 490.477,-604.393 484.477,-598.393 484.477,-592.393 484.477,-592.393 484.477,-580.393 484.477,-580.393 484.477,-574.393 490.477,-568.393 496.477,-568.393" fill="aliceblue" stroke="black" stroke-width="0.5"/>
<text font-family="Times New Roman,serif" font-size="11.00" text-anchor="middle" x="511.477" y="-583.593">apple</text>
</g>
<!-- fruiting&#45;body -->
<g class="node" id="node4"><title>fruiting-body</title>
<path d="M403.336,-466.701C403.336,-466.701 451.336,-466.701 451.336,-466.701 457.336,-466.701 463.336,-472.701 463.336,-478.701 463.336,-478.701 463.336,-490.701 463.336,-490.701 463.336,-496.701 457.336,-502.701 451.336,-502.701 451.336,-502.701 403.336,-502.701 403.336,-502.701 397.336,-502.701 391.336,-496.701 391.336,-490.701 391.336,-490.701 391.336,-478.701 391.336,-478.701 391.336,-472.701 397.336,-466.701 403.336,-466.701" fill="aliceblue" stroke="black" stroke-width="0.5"/>
<text font-family="Times New Roman,serif" font-size="11.00" text-anchor="middle" x="427.336" y="-481.901">fruiting-body</text>
</g>
<!-- fruiting&#45;body&#45;&#45;apple -->
<g class="edge" id="edge2"><title>fruiting-body--apple</title>
<path d="M448.88,-510.739C463.816,-528.791 483.324,-552.368 496.564,-568.37" fill="none" stroke="black" stroke-width="0.5"/>
<polygon fill="none" points="451.45,-508.355 442.379,-502.881 446.057,-512.817 451.45,-508.355" stroke="black" stroke-width="0.5"/>
</g>
<!-- berry -->
<g class="node" id="node12"><title>berry</title>
<path d="M512.737,-469.668C512.737,-469.668 542.737,-469.668 542.737,-469.668 548.737,-469.668 554.737,-475.668 554.737,-481.668 554.737,-481.668 554.737,-493.668 554.737,-493.668 554.737,-499.668 548.737,-505.668 542.737,-505.668 542.737,-505.668 512.737,-505.668 512.737,-505.668 506.737,-505.668 500.737,-499.668 500.737,-493.668 500.737,-493.668 500.737,-481.668 500.737,-481.668 500.737,-475.668 506.737,-469.668 512.737,-469.668" fill="aliceblue" stroke="black" stroke-width="0.5"/>
<text font-family="Times New Roman,serif" font-size="11.00" text-anchor="middle" x="527.737" y="-484.868">berry</text>
</g>
<!-- fruiting&#45;body&#45;&#45;berry -->
<g class="edge" id="edge9"><title>fruiting-body--berry</title>
<path d="M473.831,-486.075C483.029,-486.347 492.395,-486.623 500.682,-486.868" fill="none" stroke="black" stroke-width="0.5"/>
<polygon fill="none" points="473.682,-482.569 463.583,-485.772 473.475,-489.566 473.682,-482.569" stroke="black" stroke-width="0.5"/>
</g>
<!-- rock&#45;dassie -->
<g class="node" id="node5"><title>rock-dassie</title>
<path d="M998.508,-410.27C998.508,-410.27 1041.51,-410.27 1041.51,-410.27 1047.51,-410.27 1053.51,-416.27 1053.51,-422.27 1053.51,-422.27 1053.51,-434.27 1053.51,-434.27 1053.51,-440.27 1047.51,-446.27 1041.51,-446.27 1041.51,-446.27 998.508,-446.27 998.508,-446.27 992.508,-446.27 986.508,-440.27 986.508,-434.27 986.508,-434.27 986.508,-422.27 986.508,-422.27 986.508,-416.27 992.508,-410.27 998.508,-410.27" fill="aliceblue" stroke="black" stroke-width="0.5"/>
<text font-family="Times New Roman,serif" font-size="11.00" text-anchor="middle" x="1020.01" y="-425.47">rock-dassie</text>
</g>
<!-- animal -->
<g class="node" id="node6"><title>animal</title>
<path d="M885.778,-393.429C885.778,-393.429 915.778,-393.429 915.778,-393.429 921.778,-393.429 927.778,-399.429 927.778,-405.429 927.778,-405.429 927.778,-417.429 927.778,-417.429 927.778,-423.429 921.778,-429.429 915.778,-429.429 915.778,-429.429 885.778,-429.429 885.778,-429.429 879.778,-429.429 873.778,-423.429 873.778,-417.429 873.778,-417.429 873.778,-405.429 873.778,-405.429 873.778,-399.429 879.778,-393.429 885.778,-393.429" fill="aliceblue" stroke="black" stroke-width="0.5"/>
<text font-family="Times New Roman,serif" font-size="11.00" text-anchor="middle" x="900.778" y="-408.629">animal</text>
</g>
<!-- animal&#45;&#45;rock&#45;dassie -->
<g class="edge" id="edge3"><title>animal--rock-dassie</title>
<path d="M938.068,-416.696C953.478,-418.873 971.214,-421.378 986.235,-423.5" fill="none" stroke="black" stroke-width="0.5"/>
<polygon fill="none" points="938.225,-413.184 927.833,-415.251 937.246,-420.115 938.225,-413.184" stroke="black" stroke-width="0.5"/>
</g>
<!-- warthog -->
<g class="node" id="node11"><title>warthog</title>
<path d="M927.635,-492.099C927.635,-492.099 957.635,-492.099 957.635,-492.099 963.635,-492.099 969.635,-498.099 969.635,-504.099 969.635,-504.099 969.635,-516.099 969.635,-516.099 969.635,-522.099 963.635,-528.099 957.635,-528.099 957.635,-528.099 927.635,-528.099 927.635,-528.099 921.635,-528.099 915.635,-522.099 915.635,-516.099 915.635,-516.099 915.635,-504.099 915.635,-504.099 915.635,-498.099 921.635,-492.099 927.635,-492.099" fill="aliceblue" stroke="black" stroke-width="0.5"/>
<text font-family="Times New Roman,serif" font-size="11.00" text-anchor="middle" x="942.635" y="-507.299">warthog</text>
</g>
<!-- animal&#45;&#45;warthog -->
<g class="edge" id="edge7"><title>animal--warthog</title>
<path d="M912.427,-438.89C919.587,-455.768 928.565,-476.93 934.865,-491.782" fill="none" stroke="black" stroke-width="0.5"/>
<polygon fill="none" points="915.583,-437.366 908.456,-429.527 909.139,-440.099 915.583,-437.366" stroke="black" stroke-width="0.5"/>
</g>
<!-- herbivore -->
<g class="node" id="node13"><title>herbivore</title>
<path d="M753.223,-243.236C753.223,-243.236 787.223,-243.236 787.223,-243.236 793.223,-243.236 799.223,-249.236 799.223,-255.236 799.223,-255.236 799.223,-267.236 799.223,-267.236 799.223,-273.236 793.223,-279.236 787.223,-279.236 787.223,-279.236 753.223,-279.236 753.223,-279.236 747.223,-279.236 741.223,-273.236 741.223,-267.236 741.223,-267.236 741.223,-255.236 741.223,-255.236 741.223,-249.236 747.223,-243.236 753.223,-243.236" fill="aliceblue" stroke="black" stroke-width="0.5"/>
<text font-family="Times New Roman,serif" font-size="11.00" text-anchor="middle" x="770.223" y="-258.436">herbivore</text>
</g>
<!-- animal&#45;&#45;herbivore -->
<g class="edge" id="edge10"><title>animal--herbivore</title>
<path d="M878.403,-385.688C852.093,-355.42 809.094,-305.954 786.027,-279.417" fill="none" stroke="black" stroke-width="0.5"/>
<polygon fill="none" points="875.828,-388.061 885.03,-393.312 881.111,-383.469 875.828,-388.061" stroke="black" stroke-width="0.5"/>
</g>
<!-- omnivore -->
<g class="node" id="node14"><title>omnivore</title>
<path d="M801.532,-497.461C801.532,-497.461 834.532,-497.461 834.532,-497.461 840.532,-497.461 846.532,-503.461 846.532,-509.461 846.532,-509.461 846.532,-521.461 846.532,-521.461 846.532,-527.461 840.532,-533.461 834.532,-533.461 834.532,-533.461 801.532,-533.461 801.532,-533.461 795.532,-533.461 789.532,-527.461 789.532,-521.461 789.532,-521.461 789.532,-509.461 789.532,-509.461 789.532,-503.461 795.532,-497.461 801.532,-497.461" fill="aliceblue" stroke="black" stroke-width="0.5"/>
<text font-family="Times New Roman,serif" font-size="11.00" text-anchor="middle" x="818.032" y="-512.661">omnivore</text>
</g>
<!-- animal&#45;&#45;omnivore -->
<g class="edge" id="edge11"><title>animal--omnivore</title>
<path d="M879.941,-437.626C865.157,-456.214 845.684,-480.695 832.558,-497.199" fill="none" stroke="black" stroke-width="0.5"/>
<polygon fill="none" points="882.879,-439.555 886.365,-429.55 877.401,-435.198 882.879,-439.555" stroke="black" stroke-width="0.5"/>
</g>
<!-- carnivore -->
<g class="node" id="node17"><title>carnivore</title>
<path d="M879.399,-210.061C879.399,-210.061 913.399,-210.061 913.399,-210.061 919.399,-210.061 925.399,-216.061 925.399,-222.061 925.399,-222.061 925.399,-234.061 925.399,-234.061 925.399,-240.061 919.399,-246.061 913.399,-246.061 913.399,-246.061 879.399,-246.061 879.399,-246.061 873.399,-246.061 867.399,-240.061 867.399,-234.061 867.399,-234.061 867.399,-222.061 867.399,-222.061 867.399,-216.061 873.399,-210.061 879.399,-210.061" fill="aliceblue" stroke="black" stroke-width="0.5"/>
<text font-family="Times New Roman,serif" font-size="11.00" text-anchor="middle" x="896.399" y="-225.261">carnivore</text>
</g>
<!-- animal&#45;&#45;carnivore -->
<g class="edge" id="edge14"><title>animal--carnivore</title>
<path d="M900.094,-382.757C899.182,-344.583 897.596,-278.177 896.833,-246.24" fill="none" stroke="black" stroke-width="0.5"/>
<polygon fill="none" points="896.605,-383.263 900.342,-393.177 903.603,-383.096 896.605,-383.263" stroke="black" stroke-width="0.5"/>
</g>
<!-- impala -->
<g class="node" id="node21"><title>impala</title>
<path d="M1001.95,-288.239C1001.95,-288.239 1031.95,-288.239 1031.95,-288.239 1037.95,-288.239 1043.95,-294.239 1043.95,-300.239 1043.95,-300.239 1043.95,-312.239 1043.95,-312.239 1043.95,-318.239 1037.95,-324.239 1031.95,-324.239 1031.95,-324.239 1001.95,-324.239 1001.95,-324.239 995.954,-324.239 989.954,-318.239 989.954,-312.239 989.954,-312.239 989.954,-300.239 989.954,-300.239 989.954,-294.239 995.954,-288.239 1001.95,-288.239" fill="aliceblue" stroke="black" stroke-width="0.5"/>
<text font-family="Times New Roman,serif" font-size="11.00" text-anchor="middle" x="1016.95" y="-303.439">impala</text>
</g>
<!-- animal&#45;&#45;impala -->
<g class="edge" id="edge18"><title>animal--impala</title>
<path d="M928.416,-386.405C949.462,-367.349 977.943,-341.561 996.855,-324.438" fill="none" stroke="black" stroke-width="0.5"/>
<polygon fill="none" points="925.813,-384.04 920.75,-393.346 930.512,-389.229 925.813,-384.04" stroke="black" stroke-width="0.5"/>
</g>
<!-- giraffe -->
<g class="node" id="node28"><title>giraffe</title>
<path d="M730.717,-384.382C730.717,-384.382 760.717,-384.382 760.717,-384.382 766.717,-384.382 772.717,-390.382 772.717,-396.382 772.717,-396.382 772.717,-408.382 772.717,-408.382 772.717,-414.382 766.717,-420.382 760.717,-420.382 760.717,-420.382 730.717,-420.382 730.717,-420.382 724.717,-420.382 718.717,-414.382 718.717,-408.382 718.717,-408.382 718.717,-396.382 718.717,-396.382 718.717,-390.382 724.717,-384.382 730.717,-384.382" fill="aliceblue" stroke="black" stroke-width="0.5"/>
<text font-family="Times New Roman,serif" font-size="11.00" text-anchor="middle" x="745.717" y="-399.582">giraffe</text>
</g>
<!-- animal&#45;&#45;giraffe -->
<g class="edge" id="edge25"><title>animal--giraffe</title>
<path d="M863.59,-409.259C835.676,-407.631 798.09,-405.437 772.938,-403.97" fill="none" stroke="black" stroke-width="0.5"/>
<polygon fill="none" points="863.582,-412.765 873.769,-409.853 863.99,-405.777 863.582,-412.765" stroke="black" stroke-width="0.5"/>
</g>
<!-- twig -->
<g class="node" id="node7"><title>twig</title>
<path d="M86.8943,-399.222C86.8943,-399.222 116.894,-399.222 116.894,-399.222 122.894,-399.222 128.894,-405.222 128.894,-411.222 128.894,-411.222 128.894,-423.222 128.894,-423.222 128.894,-429.222 122.894,-435.222 116.894,-435.222 116.894,-435.222 86.8943,-435.222 86.8943,-435.222 80.8943,-435.222 74.8943,-429.222 74.8943,-423.222 74.8943,-423.222 74.8943,-411.222 74.8943,-411.222 74.8943,-405.222 80.8943,-399.222 86.8943,-399.222" fill="aliceblue" stroke="black" stroke-width="0.5"/>
<text font-family="Times New Roman,serif" font-size="11.00" text-anchor="middle" x="101.894" y="-414.422">twig</text>
</g>
<!-- plant&#45;part -->
<g class="node" id="node8"><title>plant-part</title>
<path d="M226.315,-290.808C226.315,-290.808 261.315,-290.808 261.315,-290.808 267.315,-290.808 273.315,-296.808 273.315,-302.808 273.315,-302.808 273.315,-314.808 273.315,-314.808 273.315,-320.808 267.315,-326.808 261.315,-326.808 261.315,-326.808 226.315,-326.808 226.315,-326.808 220.315,-326.808 214.315,-320.808 214.315,-314.808 214.315,-314.808 214.315,-302.808 214.315,-302.808 214.315,-296.808 220.315,-290.808 226.315,-290.808" fill="aliceblue" stroke="black" stroke-width="0.5"/>
<text font-family="Times New Roman,serif" font-size="11.00" text-anchor="middle" x="243.815" y="-306.008">plant-part</text>
</g>
<!-- plant&#45;part&#45;&#45;fruiting&#45;body -->
<g class="edge" id="edge8"><title>plant-part--fruiting-body</title>
<path d="M258.034,-335.941C265.814,-349.414 276.22,-365.466 287.798,-378.096 321.069,-414.388 367.895,-447.317 397.932,-466.682" fill="none" stroke="black" stroke-width="0.5"/>
<polygon fill="none" points="261.024,-334.116 253.086,-327.099 254.916,-337.534 261.024,-334.116" stroke="black" stroke-width="0.5"/>
</g>
<!-- plant&#45;part&#45;&#45;twig -->
<g class="edge" id="edge4"><title>plant-part--twig</title>
<path d="M211.966,-333.138C185.827,-353.105 149.394,-380.937 125.726,-399.017" fill="none" stroke="black" stroke-width="0.5"/>
<polygon fill="none" points="214.239,-335.806 220.061,-326.954 209.99,-330.243 214.239,-335.806" stroke="black" stroke-width="0.5"/>
</g>
<!-- stem -->
<g class="node" id="node9"><title>stem</title>
<path d="M11.7037,-285.294C11.7037,-285.294 41.7037,-285.294 41.7037,-285.294 47.7037,-285.294 53.7037,-291.294 53.7037,-297.294 53.7037,-297.294 53.7037,-309.294 53.7037,-309.294 53.7037,-315.294 47.7037,-321.294 41.7037,-321.294 41.7037,-321.294 11.7037,-321.294 11.7037,-321.294 5.70371,-321.294 -0.296289,-315.294 -0.296289,-309.294 -0.296289,-309.294 -0.296289,-297.294 -0.296289,-297.294 -0.296289,-291.294 5.70371,-285.294 11.7037,-285.294" fill="aliceblue" stroke="black" stroke-width="0.5"/>
<text font-family="Times New Roman,serif" font-size="11.00" text-anchor="middle" x="26.7037" y="-300.494">stem</text>
</g>
<!-- plant&#45;part&#45;&#45;stem -->
<g class="edge" id="edge5"><title>plant-part--stem</title>
<path d="M203.851,-307.793C160.306,-306.687 91.8196,-304.948 54.0258,-303.988" fill="none" stroke="black" stroke-width="0.5"/>
<polygon fill="none" points="203.996,-311.297 214.082,-308.053 204.174,-304.3 203.996,-311.297" stroke="black" stroke-width="0.5"/>
</g>
<!-- leaf -->
<g class="node" id="node10"><title>leaf</title>
<path d="M350.065,-171.852C350.065,-171.852 380.065,-171.852 380.065,-171.852 386.065,-171.852 392.065,-177.852 392.065,-183.852 392.065,-183.852 392.065,-195.852 392.065,-195.852 392.065,-201.852 386.065,-207.852 380.065,-207.852 380.065,-207.852 350.065,-207.852 350.065,-207.852 344.065,-207.852 338.065,-201.852 338.065,-195.852 338.065,-195.852 338.065,-183.852 338.065,-183.852 338.065,-177.852 344.065,-171.852 350.065,-171.852" fill="aliceblue" stroke="black" stroke-width="0.5"/>
<text font-family="Times New Roman,serif" font-size="11.00" text-anchor="middle" x="365.065" y="-187.052">leaf</text>
</g>
<!-- plant&#45;part&#45;&#45;leaf -->
<g class="edge" id="edge6"><title>plant-part--leaf</title>
<path d="M259.311,-281.764C264.952,-273.009 271.747,-263.556 279.028,-255.764 296.629,-236.929 320.032,-219.377 337.986,-207.129" fill="none" stroke="black" stroke-width="0.5"/>
<polygon fill="none" points="256.168,-280.192 253.879,-290.537 262.119,-283.878 256.168,-280.192" stroke="black" stroke-width="0.5"/>
</g>
<!-- phloem -->
<g class="node" id="node16"><title>phloem</title>
<path d="M302.998,-338.896C302.998,-338.896 332.998,-338.896 332.998,-338.896 338.998,-338.896 344.998,-344.896 344.998,-350.896 344.998,-350.896 344.998,-362.896 344.998,-362.896 344.998,-368.896 338.998,-374.896 332.998,-374.896 332.998,-374.896 302.998,-374.896 302.998,-374.896 296.998,-374.896 290.998,-368.896 290.998,-362.896 290.998,-362.896 290.998,-350.896 290.998,-350.896 290.998,-344.896 296.998,-338.896 302.998,-338.896" fill="aliceblue" stroke="black" stroke-width="0.5"/>
<text font-family="Times New Roman,serif" font-size="11.00" text-anchor="middle" x="317.998" y="-354.096">phloem</text>
</g>
<!-- plant&#45;part&#45;&#45;phloem -->
<g class="edge" id="edge13"><title>plant-part--phloem</title>
<path d="M280.491,-332.582C283.996,-334.854 287.505,-337.129 290.895,-339.326" fill="none" stroke="black" stroke-width="0.5"/>
<polygon fill="none" points="282.156,-329.49 271.861,-326.988 278.348,-335.364 282.156,-329.49" stroke="black" stroke-width="0.5"/>
</g>
<!-- branch -->
<g class="node" id="node18"><title>branch</title>
<path d="M84.3771,-209.656C84.3771,-209.656 114.377,-209.656 114.377,-209.656 120.377,-209.656 126.377,-215.656 126.377,-221.656 126.377,-221.656 126.377,-233.656 126.377,-233.656 126.377,-239.656 120.377,-245.656 114.377,-245.656 114.377,-245.656 84.3771,-245.656 84.3771,-245.656 78.3771,-245.656 72.3771,-239.656 72.3771,-233.656 72.3771,-233.656 72.3771,-221.656 72.3771,-221.656 72.3771,-215.656 78.3771,-209.656 84.3771,-209.656" fill="aliceblue" stroke="black" stroke-width="0.5"/>
<text font-family="Times New Roman,serif" font-size="11.00" text-anchor="middle" x="99.3771" y="-224.856">branch</text>
</g>
<!-- plant&#45;part&#45;&#45;branch -->
<g class="edge" id="edge15"><title>plant-part--branch</title>
<path d="M205.414,-287.232C180.533,-273.253 148.734,-255.387 126.476,-242.881" fill="none" stroke="black" stroke-width="0.5"/>
<polygon fill="none" points="203.805,-290.343 214.238,-292.19 207.234,-284.24 203.805,-290.343" stroke="black" stroke-width="0.5"/>
</g>
<!-- root -->
<g class="node" id="node24"><title>root</title>
<path d="M215.265,-178.652C215.265,-178.652 245.265,-178.652 245.265,-178.652 251.265,-178.652 257.265,-184.652 257.265,-190.652 257.265,-190.652 257.265,-202.652 257.265,-202.652 257.265,-208.652 251.265,-214.652 245.265,-214.652 245.265,-214.652 215.265,-214.652 215.265,-214.652 209.265,-214.652 203.265,-208.652 203.265,-202.652 203.265,-202.652 203.265,-190.652 203.265,-190.652 203.265,-184.652 209.265,-178.652 215.265,-178.652" fill="aliceblue" stroke="black" stroke-width="0.5"/>
<text font-family="Times New Roman,serif" font-size="11.00" text-anchor="middle" x="230.265" y="-193.852">root</text>
</g>
<!-- plant&#45;part&#45;&#45;root -->
<g class="edge" id="edge21"><title>plant-part--root</title>
<path d="M240.424,-280.734C237.938,-260.166 234.636,-232.835 232.481,-215" fill="none" stroke="black" stroke-width="0.5"/>
<polygon fill="none" points="236.964,-281.28 241.638,-290.788 243.913,-280.44 236.964,-281.28" stroke="black" stroke-width="0.5"/>
</g>
<!-- xylem -->
<g class="node" id="node27"><title>xylem</title>
<path d="M294.228,-258.964C294.228,-258.964 324.228,-258.964 324.228,-258.964 330.228,-258.964 336.228,-264.964 336.228,-270.964 336.228,-270.964 336.228,-282.964 336.228,-282.964 336.228,-288.964 330.228,-294.964 324.228,-294.964 324.228,-294.964 294.228,-294.964 294.228,-294.964 288.228,-294.964 282.228,-288.964 282.228,-282.964 282.228,-282.964 282.228,-270.964 282.228,-270.964 282.228,-264.964 288.228,-258.964 294.228,-258.964" fill="aliceblue" stroke="black" stroke-width="0.5"/>
<text font-family="Times New Roman,serif" font-size="11.00" text-anchor="middle" x="309.228" y="-274.164">xylem</text>
</g>
<!-- plant&#45;part&#45;&#45;xylem -->
<g class="edge" id="edge24"><title>plant-part--xylem</title>
<path d="M281.721,-290.355C281.809,-290.312 281.897,-290.269 281.985,-290.226" fill="none" stroke="black" stroke-width="0.5"/>
<polygon fill="none" points="280.919,-286.852 273.46,-294.376 283.983,-293.146 280.919,-286.852" stroke="black" stroke-width="0.5"/>
</g>
<!-- elephant -->
<g class="node" id="node25"><title>elephant</title>
<path d="M885.471,-126.337C885.471,-126.337 915.471,-126.337 915.471,-126.337 921.471,-126.337 927.471,-132.337 927.471,-138.337 927.471,-138.337 927.471,-150.337 927.471,-150.337 927.471,-156.337 921.471,-162.337 915.471,-162.337 915.471,-162.337 885.471,-162.337 885.471,-162.337 879.471,-162.337 873.471,-156.337 873.471,-150.337 873.471,-150.337 873.471,-138.337 873.471,-138.337 873.471,-132.337 879.471,-126.337 885.471,-126.337" fill="aliceblue" stroke="black" stroke-width="0.5"/>
<text font-family="Times New Roman,serif" font-size="11.00" text-anchor="middle" x="900.471" y="-141.537">elephant</text>
</g>
<!-- herbivore&#45;&#45;elephant -->
<g class="edge" id="edge22"><title>herbivore--elephant</title>
<path d="M797.882,-236.412C822.537,-214.283 858.05,-182.41 880.168,-162.559" fill="none" stroke="black" stroke-width="0.5"/>
<polygon fill="none" points="795.393,-233.942 790.289,-243.227 800.069,-239.152 795.393,-233.942" stroke="black" stroke-width="0.5"/>
</g>
<!-- Mary&#45;01 -->
<g class="node" id="node30"><title>Mary-01</title>
<path d="M591.347,-236.66C591.347,-236.66 622.347,-236.66 622.347,-236.66 628.347,-236.66 634.347,-242.66 634.347,-248.66 634.347,-248.66 634.347,-260.66 634.347,-260.66 634.347,-266.66 628.347,-272.66 622.347,-272.66 622.347,-272.66 591.347,-272.66 591.347,-272.66 585.347,-272.66 579.347,-266.66 579.347,-260.66 579.347,-260.66 579.347,-248.66 579.347,-248.66 579.347,-242.66 585.347,-236.66 591.347,-236.66" fill="whitesmoke" stroke="black" stroke-width="0.5"/>
<text font-family="Times New Roman,serif" font-size="11.00" text-anchor="middle" x="606.847" y="-251.86">Mary-01</text>
</g>
<!-- herbivore&#45;&#45;Mary&#45;01 -->
<g class="edge" id="edge29"><title>herbivore--Mary-01</title>
<path d="M730.946,-259.655C701.14,-258.455 660.909,-256.836 634.441,-255.771" fill="none" stroke="black" stroke-dasharray="5,2" stroke-width="0.5"/>
<polygon fill="none" points="730.882,-263.155 741.015,-260.06 731.164,-256.161 730.882,-263.155" stroke="black" stroke-width="0.5"/>
</g>
<!-- Sophie&#45;01 -->
<g class="node" id="node31"><title>Sophie-01</title>
<path d="M685.273,-298.559C685.273,-298.559 721.273,-298.559 721.273,-298.559 727.273,-298.559 733.273,-304.559 733.273,-310.559 733.273,-310.559 733.273,-322.559 733.273,-322.559 733.273,-328.559 727.273,-334.559 721.273,-334.559 721.273,-334.559 685.273,-334.559 685.273,-334.559 679.273,-334.559 673.273,-328.559 673.273,-322.559 673.273,-322.559 673.273,-310.559 673.273,-310.559 673.273,-304.559 679.273,-298.559 685.273,-298.559" fill="whitesmoke" stroke="black" stroke-width="0.5"/>
<text font-family="Times New Roman,serif" font-size="11.00" text-anchor="middle" x="703.273" y="-313.759">Sophie-01</text>
</g>
<!-- herbivore&#45;&#45;Sophie&#45;01 -->
<g class="edge" id="edge31"><title>herbivore--Sophie-01</title>
<path d="M740.52,-285.781C735.464,-289.958 730.292,-294.232 725.473,-298.214" fill="none" stroke="black" stroke-dasharray="5,2" stroke-width="0.5"/>
<polygon fill="none" points="742.822,-288.419 748.301,-279.351 738.363,-283.023 742.822,-288.419" stroke="black" stroke-width="0.5"/>
</g>
<!-- lion -->
<g class="node" id="node19"><title>lion</title>
<path d="M790.775,-109.24C790.775,-109.24 820.775,-109.24 820.775,-109.24 826.775,-109.24 832.775,-115.24 832.775,-121.24 832.775,-121.24 832.775,-133.24 832.775,-133.24 832.775,-139.24 826.775,-145.24 820.775,-145.24 820.775,-145.24 790.775,-145.24 790.775,-145.24 784.775,-145.24 778.775,-139.24 778.775,-133.24 778.775,-133.24 778.775,-121.24 778.775,-121.24 778.775,-115.24 784.775,-109.24 790.775,-109.24" fill="aliceblue" stroke="black" stroke-width="0.5"/>
<text font-family="Times New Roman,serif" font-size="11.00" text-anchor="middle" x="805.775" y="-124.44">lion</text>
</g>
<!-- carnivore&#45;&#45;lion -->
<g class="edge" id="edge16"><title>carnivore--lion</title>
<path d="M873.24,-202.296C857.262,-184.52 836.41,-161.321 822.142,-145.449" fill="none" stroke="black" stroke-width="0.5"/>
<polygon fill="none" points="870.909,-204.939 880.197,-210.036 876.115,-200.259 870.909,-204.939" stroke="black" stroke-width="0.5"/>
</g>
<!-- Leo&#45;01 -->
<g class="node" id="node32"><title>Leo-01</title>
<path d="M640.956,-164.729C640.956,-164.729 670.956,-164.729 670.956,-164.729 676.956,-164.729 682.956,-170.729 682.956,-176.729 682.956,-176.729 682.956,-188.729 682.956,-188.729 682.956,-194.729 676.956,-200.729 670.956,-200.729 670.956,-200.729 640.956,-200.729 640.956,-200.729 634.956,-200.729 628.956,-194.729 628.956,-188.729 628.956,-188.729 628.956,-176.729 628.956,-176.729 628.956,-170.729 634.956,-164.729 640.956,-164.729" fill="whitesmoke" stroke="black" stroke-width="0.5"/>
<text font-family="Times New Roman,serif" font-size="11.00" text-anchor="middle" x="655.956" y="-179.929">Leo-01</text>
</g>
<!-- lion&#45;&#45;Leo&#45;01 -->
<g class="edge" id="edge32"><title>lion--Leo-01</title>
<path d="M768.937,-140.884C742.391,-150.716 707.156,-163.766 683.138,-172.662" fill="none" stroke="black" stroke-dasharray="5,2" stroke-width="0.5"/>
<polygon fill="none" points="770.482,-144.044 778.644,-137.289 768.051,-137.48 770.482,-144.044" stroke="black" stroke-width="0.5"/>
</g>
<!-- palm&#45;tree&#45;&#45;Mary&#45;01 -->
<g class="edge" id="edge28"><title>palm-tree--Mary-01</title>
<path d="M478.602,-371.156C509.633,-342.968 559.353,-297.803 586.881,-272.797" fill="none" stroke="black" stroke-dasharray="5,2" stroke-width="0.5"/>
<polygon fill="none" points="476.189,-368.62 471.14,-377.934 480.896,-373.801 476.189,-368.62" stroke="black" stroke-width="0.5"/>
</g>
<!-- parsnip -->
<g class="node" id="node23"><title>parsnip</title>
<path d="M216.494,-0.61783C216.494,-0.61783 246.494,-0.61783 246.494,-0.61783 252.494,-0.61783 258.494,-6.61783 258.494,-12.6178 258.494,-12.6178 258.494,-24.6178 258.494,-24.6178 258.494,-30.6178 252.494,-36.6178 246.494,-36.6178 246.494,-36.6178 216.494,-36.6178 216.494,-36.6178 210.494,-36.6178 204.494,-30.6178 204.494,-24.6178 204.494,-24.6178 204.494,-12.6178 204.494,-12.6178 204.494,-6.61783 210.494,-0.61783 216.494,-0.61783" fill="aliceblue" stroke="black" stroke-width="0.5"/>
<text font-family="Times New Roman,serif" font-size="11.00" text-anchor="middle" x="231.494" y="-15.8178">parsnip</text>
</g>
<!-- root&#45;&#45;parsnip -->
<g class="edge" id="edge20"><title>root--parsnip</title>
<path d="M230.459,-168.506C230.714,-131.572 231.155,-67.807 231.369,-36.7163" fill="none" stroke="black" stroke-width="0.5"/>
<polygon fill="none" points="226.959,-168.578 230.389,-178.602 233.958,-168.626 226.959,-168.578" stroke="black" stroke-width="0.5"/>
</g>
<!-- giraffe&#45;&#45;Sophie&#45;01 -->
<g class="edge" id="edge30"><title>giraffe--Sophie-01</title>
<path d="M732.212,-375.074C725.695,-361.897 718.054,-346.448 712.261,-334.734" fill="none" stroke="black" stroke-dasharray="5,2" stroke-width="0.5"/>
<polygon fill="none" points="729.145,-376.769 736.716,-384.181 735.42,-373.666 729.145,-376.769" stroke="black" stroke-width="0.5"/>
</g>
<!-- herb -->
<g class="node" id="node29"><title>herb</title>
<path d="M225.062,-459.772C225.062,-459.772 255.062,-459.772 255.062,-459.772 261.062,-459.772 267.062,-465.772 267.062,-471.772 267.062,-471.772 267.062,-483.772 267.062,-483.772 267.062,-489.772 261.062,-495.772 255.062,-495.772 255.062,-495.772 225.062,-495.772 225.062,-495.772 219.062,-495.772 213.062,-489.772 213.062,-483.772 213.062,-483.772 213.062,-471.772 213.062,-471.772 213.062,-465.772 219.062,-459.772 225.062,-459.772" fill="aliceblue" stroke="black" stroke-width="0.5"/>
<text font-family="Times New Roman,serif" font-size="11.00" text-anchor="middle" x="240.062" y="-474.972">herb</text>
</g>
<!-- herb&#45;&#45;plant -->
<g class="edge" id="edge26"><title>herb--plant</title>
<path d="M271.862,-502.003C279.766,-508.026 288.103,-514.379 295.545,-520.05" fill="none" stroke="black" stroke-width="0.5"/>
<polygon fill="none" points="273.912,-499.166 263.837,-495.888 269.67,-504.733 273.912,-499.166" stroke="black" stroke-width="0.5"/>
</g>
<!-- herb&#45;&#45;plant&#45;part -->
<g class="edge" id="edge27"><title>herb--plant-part</title>
<path d="M240.696,-449.243C241.471,-414.365 242.759,-356.365 243.411,-327.015" fill="none" stroke="black" stroke-width="0.5"/>
<polygon fill="none" points="237.187,-449.614 240.464,-459.69 244.185,-449.77 237.187,-449.614" stroke="black" stroke-width="0.5"/>
</g>
<!-- Leo&#45;01&#45;&#45;Mary&#45;01 -->
<g class="edge" id="edge33"><title>Leo-01--Mary-01</title>
<path d="M643.564,-200.881C637.965,-209.081 631.238,-218.934 625.08,-227.954" fill="none" stroke="black" stroke-width="0.5"/>
<polygon fill="black" points="619.406,-236.265 621.328,-225.468 622.225,-232.135 625.045,-228.006 625.045,-228.006 625.045,-228.006 622.225,-232.135 628.761,-230.543 619.406,-236.265 619.406,-236.265" stroke="black" stroke-width="0.5"/>
<text font-family="Times New Roman,serif" font-size="11.00" text-anchor="middle" x="622.063" y="-221.658">eats</text>
</g>
<!-- Leo&#45;01&#45;&#45;Sophie&#45;01 -->
<g class="edge" id="edge34"><title>Leo-01--Sophie-01</title>
<path d="M662.337,-200.778C670.345,-223.427 684.159,-262.499 693.501,-288.922" fill="none" stroke="black" stroke-width="0.5"/>
<polygon fill="black" points="696.841,-298.369 689.265,-290.441 695.175,-293.655 693.508,-288.941 693.508,-288.941 693.508,-288.941 695.175,-293.655 697.751,-287.441 696.841,-298.369 696.841,-298.369" stroke="black" stroke-width="0.5"/>
<text font-family="Times New Roman,serif" font-size="11.00" text-anchor="middle" x="670.165" y="-252.987">eats</text>
</g>
</g>
</svg>