<svg height="665pt" viewBox="0.00 0.00 1134.00 665.00" width="1134pt" xmlns="http://www.w3.org/2000/svg" xmlns:xlink="http://www.w3.org/1999/xlink">
<g class="graph" id="graph0" transform="scale(1 1) rotate(0) translate(4 661)">
<title>G</title>
<polygon fill="white" points="-4,4 -4,-661 1130,-661 1130,4 -4,4" stroke="none"/>
<!-- tasty&#45;plant -->
<g class="node" id="node1"><title>tasty-plant</title>
<path d="M200.867,-413.267C200.867,-413.267 238.867,-413.267 238.867,-413.267 244.867,-413.267 250.867,-419.267 250.867,-425.267 250.867,-425.267 250.867,-437.267 250.867,-437.267 250.867,-443.267 244.867,-449.267 238.867,-449.267 238.867,-449.267 200.867,-449.267 200.867,-449.267 194.867,-449.267 188.867,-443.267 188.867,-437.267 188.867,-437.267 188.867,-425.267 188.867,-425.267 188.867,-419.267 194.867,-413.267 200.867,-413.267" fill="aliceblue" stroke="black" stroke-width="0.5"/>
<text font-family="Times New Roman,serif" font-size="11.00" text-anchor="middle" x="219.867" y="-428.467">tasty-plant</text>
</g>
<!-- plant -->
<g class="node" id="node2"><title>plant</title>
<path d="M356.801,-428.23C356.801,-428.23 386.801,-428.23 386.801,-428.23 392.801,-428.23 398.801,-434.23 398.801,-440.23 398.801,-440.23 398.801,-452.23 398.801,-452.23 398.801,-458.23 392.801,-464.23 386.801,-464.23 386.801,-464.23 356.801,-464.23 356.801,-464.23 350.801,-464.23 344.801,-458.23 344.801,-452.23 344.801,-452.23 344.801,-440.23 344.801,-440.23 344.801,-434.23 350.801,-428.23 356.801,-428.23" fill="aliceblue" stroke="black" stroke-width="0.5"/>
<text font-family="Times New Roman,serif" font-size="11.00" text-anchor="middle" x="371.801" y="-443.43">plant</text>
</g>
<!-- plant&#45;&#45;tasty&#45;plant -->
<g class="edge" id="edge1"><title>plant--tasty-plant</title>
<path d="M334.539,-442.561C308.887,-440.034 275.201,-436.716 250.985,-434.331" fill="none" stroke="black" stroke-width="0.5"/>
<polygon fill="none" points="334.343,-446.058 344.638,-443.555 335.029,-439.092 334.343,-446.058" stroke="black" stroke-width="0.5"/>
</g>
<!-- carnivorous&#45;plant -->
<g class="node" id="node15"><title>carnivorous-plant</title>
<path d="M177.223,-566.966C177.223,-566.966 245.223,-566.966 245.223,-566.966 251.223,-566.966 257.223,-572.966 257.223,-578.966 257.223,-578.966 257.223,-590.966 257.223,-590.966 257.223,-596.966 251.223,-602.966 245.223,-602.966 245.223,-602.966 177.223,-602.966 177.223,-602.966 171.223,-602.966 165.223,-596.966 165.223,-590.966 165.223,-590.966 165.223,-578.966 165.223,-578.966 165.223,-572.966 171.223,-566.966 177.223,-566.966" fill="aliceblue" stroke="black" stroke-width="0.5"/>
<text font-family="Times New Roman,serif" font-size="11.00" text-anchor="middle" x="211.223" y="-582.166">carnivorous-plant</text>
</g>
<!-- plant&#45;&#45;carnivorous&#45;plant -->
<g class="edge" id="edge12"><title>plant--carnivorous-plant</title>
<path d="M343.139,-470.993C311.282,-498.517 260.594,-542.311 232.221,-566.824" fill="none" stroke="black" stroke-width="0.5"/>
<polygon fill="none" points="345.529,-473.554 350.808,-464.368 340.953,-468.257 345.529,-473.554" stroke="black" stroke-width="0.5"/>
</g>
<!-- palm&#45;tree -->
<g class="node" id="node20"><title>palm-tree</title>
<path d="M495.491,-274.711C495.491,-274.711 530.491,-274.711 530.491,-274.711 536.491,-274.711 542.491,-280.711 542.491,-286.711 542.491,-286.711 542.491,-298.711 542.491,-298.711 542.491,-304.711 536.491,-310.711 530.491,-310.711 530.491,-310.711 495.491,-310.711 495.491,-310.711 489.491,-310.711 483.491,-304.711 483.491,-298.711 483.491,-298.711 483.491,-286.711 483.491,-286.711 483.491,-280.711 489.491,-274.711 495.491,-274.711" fill="aliceblue" stroke="black" stroke-width="0.5"/>
<text font-family="Times New Roman,serif" font-size="11.00" text-anchor="middle" x="512.991" y="-289.911">palm-tree</text>
</g>
<!-- plant&#45;&#45;palm&#45;tree -->
<g class="edge" id="edge17"><title>plant--palm-tree</title>
<path d="M378.842,-418.14C385.599,-395.902 397.698,-365.199 417.157,-344.226 435.273,-324.701 462.505,-311.057 483.316,-302.738" fill="none" stroke="black" stroke-width="0.5"/>
<polygon fill="none" points="375.408,-417.42 376.026,-427.997 382.139,-419.343 375.408,-417.42" stroke="black" stroke-width="0.5"/>
</g>
<!-- tree -->
<g class="node" id="node22"><title>tree</title>
<path d="M473.523,-552.144C473.523,-552.144 503.523,-552.144 503.523,-552.144 509.523,-552.144 515.523,-558.144 515.523,-564.144 515.523,-564.144 515.523,-576.144 515.523,-576.144 515.523,-582.144 509.523,-588.144 503.523,-588.144 503.523,-588.144 473.523,-588.144 473.523,-588.144 467.523,-588.144 461.523,-582.144 461.523,-576.144 461.523,-576.144 461.523,-564.144 461.523,-564.144 461.523,-558.144 467.523,-552.144 473.523,-552.144" fill="aliceblue" stroke="black" stroke-width="0.5"/>
<text font-family="Times New Roman,serif" font-size="11.00" text-anchor="middle" x="488.523" y="-567.344">tree</text>
</g>
<!-- plant&#45;&#45;tree -->
<g class="edge" id="edge19"><title>plant--tree</title>
<path d="M395.694,-471.596C418.264,-495.556 451.552,-530.895 471.53,-552.104" fill="none" stroke="black" stroke-width="0.5"/>
<polygon fill="none" points="398.178,-469.128 388.773,-464.248 393.082,-473.927 398.178,-469.128" stroke="black" stroke-width="0.5"/>
</g>
<!-- grass -->
<g class="node" id="node26"><title>grass</title>
<path d="M332.393,-620.385C332.393,-620.385 362.393,-620.385 362.393,-620.385 368.393,-620.385 374.393,-626.385 374.393,-632.385 374.393,-632.385 374.393,-644.385 374.393,-644.385 374.393,-650.385 368.393,-656.385 362.393,-656.385 362.393,-656.385 332.393,-656.385 332.393,-656.385 326.393,-656.385 320.393,-650.385 320.393,-644.385 320.393,-644.385 320.393,-632.385 320.393,-632.385 320.393,-626.385 326.393,-620.385 332.393,-620.385" fill="aliceblue" stroke="black" stroke-width="0.5"/>
<text font-family="Times New Roman,serif" font-size="11.00" text-anchor="middle" x="347.393" y="-635.585">grass</text>
</g>
<!-- plant&#45;&#45;grass -->
<g class="edge" id="edge23"><title>plant--grass</title>
<path d="M368.216,-474.453C363.132,-514.479 353.971,-586.598 349.701,-620.216" fill="none" stroke="black" stroke-width="0.5"/>
<polygon fill="none" points="371.717,-474.669 369.505,-464.308 364.772,-473.787 371.717,-474.669" stroke="black" stroke-width="0.5"/>
</g>
<!-- apple -->
<g class="node" id="node3"><title>apple</title>
<path d="M549.209,-365.511C549.209,-365.511 579.209,-365.511 579.209,-365.511 585.209,-365.511 591.209,-371.511 591.209,-377.511 591.209,-377.511 591.209,-389.511 591.209,-389.511 591.209,-395.511 585.209,-401.511 579.209,-401.511 579.209,-401.511 549.209,-401.511 549.209,-401.511 543.209,-401.511 537.209,-395.511 537.209,-389.511 537.209,-389.511 537.209,-377.511 537.209,-377.511 537.209,-371.511 543.209,-365.511 549.209,-365.511" fill="aliceblue" stroke="black" stroke-width="0.5"/>
<text font-family="Times New Roman,serif" font-size="11.00" text-anchor="middle" x="564.209" y="-380.711">apple</text>
</g>
<!-- fruiting&#45;body -->
<g class="node" id="node4"><title>fruiting-body</title>
<path d="M432.357,-347.426C432.357,-347.426 480.357,-347.426 480.357,-347.426 486.357,-347.426 492.357,-353.426 492.357,-359.426 492.357,-359.426 492.357,-371.426 492.357,-371.426 492.357,-377.426 486.357,-383.426 480.357,-383.426 480.357,-383.426 432.357,-383.426 432.357,-383.426 426.357,-383.426 420.357,-377.426 420.357,-371.426 420.357,-371.426 420.357,-359.426 420.357,-359.426 420.357,-353.426 426.357,-347.426 432.357,-347.426" fill="aliceblue" stroke="black" stroke-width="0.5"/>
<text font-family="Times New Roman,serif" font-size="11.00" text-anchor="middle" x="456.357" y="-362.626">fruiting-body</text>
</g>
<!-- fruiting&#45;body&#45;&#45;apple -->
<g class="edge" id="edge2"><title>fruiting-body--apple</title>
<path d="M502.711,-373.199C514.458,-375.169 526.695,-377.221 537.131,-378.971" fill="none" stroke="black" stroke-width="0.5"/>
<polygon fill="none" points="503.011,-369.7 492.57,-371.498 501.854,-376.604 503.011,-369.7" stroke="black" stroke-width="0.5"/>
</g>
<!-- berry -->
<g class="node" id="node12"><title>berry</title>
<path d="M530.153,-455.946C530.153,-455.946 560.153,-455.946 560.153,-455.946 566.153,-455.946 572.153,-461.946 572.153,-467.946 572.153,-467.946 572.153,-479.946 572.153,-479.946 572.153,-485.946 566.153,-491.946 560.153,-491.946 560.153,-491.946 530.153,-491.946 530.153,-491.946 524.153,-491.946 518.153,-485.946 518.153,-479.946 518.153,-479.946 518.153,-467.946 518.153,-467.946 518.153,-461.946 524.153,-455.946 530.153,-455.946" fill="aliceblue" stroke="black" stroke-width="0.5"/>
<text font-family="Times New Roman,serif" font-size="11.00" text-anchor="middle" x="545.153" y="-471.146">berry</text>
</g>
<!-- fruiting&#45;body&#45;&#45;berry -->
<g class="edge" id="edge9"><title>fruiting-body--berry</title>
<path d="M477.78,-391.607C494.031,-411.469 515.952,-438.259 530.313,-455.809" fill="none" stroke="black" stroke-width="0.5"/>
<polygon fill="none" points="480.462,-389.358 471.42,-383.835 475.044,-393.79 480.462,-389.358" stroke="black" stroke-width="0.5"/>
</g>
<!-- rock&#45;dassie -->
<g class="node" id="node5"><title>rock-dassie</title>
<path d="M1066.48,-393.571C1066.48,-393.571 1109.48,-393.571 1109.48,-393.571 1115.48,-393.571 1121.48,-399.571 1121.48,-405.571 1121.48,-405.571 1121.48,-417.571 1121.48,-417.571 1121.48,-423.571 1115.48,-429.571 1109.48,-429.571 1109.48,-429.571 1066.48,-429.571 1066.48,-429.571 1060.48,-429.571 1054.48,-423.571 1054.48,-417.571 1054.48,-417.571 1054.48,-405.571 1054.48,-405.571 1054.48,-399.571 1060.48,-393.571 1066.48,-393.571" fill="aliceblue" stroke="black" stroke-width="0.5"/>
<text font-family="Times New Roman,serif" font-size="11.00" text-anchor="middle" x="1087.98" y="-408.771">rock-dassie</text>
</g>
<!-- animal -->
<g class="node" id="node6"><title>animal</title>
<path d="M913.819,-305.678C913.819,-305.678 943.819,-305.678 943.819,-305.678 949.819,-305.678 955.819,-311.678 955.819,-317.678 955.819,-317.678 955.819,-329.678 955.819,-329.678 955.819,-335.678 949.819,-341.678 943.819,-341.678 943.819,-341.678 913.819,-341.678 913.819,-341.678 907.819,-341.678 901.819,-335.678 901.819,-329.678 901.819,-329.678 901.819,-317.678 901.819,-317.678 901.819,-311.678 907.819,-305.678 913.819,-305.678" fill="aliceblue" stroke="black" stroke-width="0.5"/>
<text font-family="Times New Roman,serif" font-size="11.00" text-anchor="middle" x="928.819" y="-320.878">animal</text>
</g>
<!-- animal&#45;&#45;rock&#45;dassie -->
<g class="edge" id="edge3"><title>animal--rock-dassie</title>
<path d="M964.978,-343.646C992.105,-358.626 1028.93,-378.963 1055.21,-393.471" fill="none" stroke="black" stroke-width="0.5"/>
<polygon fill="none" points="966.626,-340.557 956.18,-338.787 963.242,-346.685 966.626,-340.557" stroke="black" stroke-width="0.5"/>
</g>
<!-- warthog -->
<g class="node" id="node11"><title>warthog</title>
<path d="M953.965,-435.608C953.965,-435.608 983.965,-435.608 983.965,-435.608 989.965,-435.608 995.965,-441.608 995.965,-447.608 995.965,-447.608 995.965,-459.608 995.965,-459.608 995.965,-465.608 989.965,-471.608 983.965,-471.608 983.965,-471.608 953.965,-471.608 953.965,-471.608 947.965,-471.608 941.965,-465.608 941.965,-459.608 941.965,-459.608 941.965,-447.608 941.965,-447.608 941.965,-441.608 947.965,-435.608 953.965,-435.608" fill="aliceblue" stroke="black" stroke-width="0.5"/>
<text font-family="Times New Roman,serif" font-size="11.00" text-anchor="middle" x="968.965" y="-450.808">warthog</text>
</g>
<!-- animal&#45;&#45;warthog -->
<g class="edge" id="edge7"><title>animal--warthog</title>
<path d="M937.414,-351.494C945.236,-376.809 956.56,-413.461 963.301,-435.277" fill="none" stroke="black" stroke-width="0.5"/>
<polygon fill="none" points="940.697,-350.265 934.401,-341.744 934.009,-352.332 940.697,-350.265" stroke="black" stroke-width="0.5"/>
</g>
<!-- herbivore -->
<g class="node" id="node13"><title>herbivore</title>
<path d="M704.112,-198.523C704.112,-198.523 738.112,-198.523 738.112,-198.523 744.112,-198.523 750.112,-204.523 750.112,-210.523 750.112,-210.523 750.112,-222.523 750.112,-222.523 750.112,-228.523 744.112,-234.523 738.112,-234.523 738.112,-234.523 704.112,-234.523 704.112,-234.523 698.112,-234.523 692.112,-228.523 692.112,-222.523 692.112,-222.523 692.112,-210.523 692.112,-210.523 692.112,-204.523 698.112,-198.523 704.112,-198.523" fill="aliceblue" stroke="black" stroke-width="0.5"/>
<text font-family="Times New Roman,serif" font-size="11.00" text-anchor="middle" x="721.112" y="-213.723">herbivore</text>
</g>
<!-- animal&#45;&#45;herbivore -->
<g class="edge" id="edge10"><title>animal--herbivore</title>
<path d="M892.125,-308.83C879.347,-303.41 865.007,-297.043 852.186,-290.679 816.355,-272.893 776.534,-249.879 750.292,-234.239" fill="none" stroke="black" stroke-width="0.5"/>
<polygon fill="none" points="890.964,-312.139 901.54,-312.775 893.669,-305.683 890.964,-312.139" stroke="black" stroke-width="0.5"/>
</g>
<!-- omnivore -->
<g class="node" id="node14"><title>omnivore</title>
<path d="M845.096,-382.533C845.096,-382.533 878.096,-382.533 878.096,-382.533 884.096,-382.533 890.096,-388.533 890.096,-394.533 890.096,-394.533 890.096,-406.533 890.096,-406.533 890.096,-412.533 884.096,-418.533 878.096,-418.533 878.096,-418.533 845.096,-418.533 845.096,-418.533 839.096,-418.533 833.096,-412.533 833.096,-406.533 833.096,-406.533 833.096,-394.533 833.096,-394.533 833.096,-388.533 839.096,-382.533 845.096,-382.533" fill="aliceblue" stroke="black" stroke-width="0.5"/>
<text font-family="Times New Roman,serif" font-size="11.00" text-anchor="middle" x="861.596" y="-397.733">omnivore</text>
</g>
<!-- animal&#45;&#45;omnivore -->
<g class="edge" id="edge11"><title>animal--omnivore</title>
<path d="M906.276,-349.451C896.806,-360.278 886.016,-372.614 877.412,-382.45" fill="none" stroke="black" stroke-width="0.5"/>
<polygon fill="none" points="908.939,-351.723 912.888,-341.891 903.67,-347.114 908.939,-351.723" stroke="black" stroke-width="0.5"/>
</g>
<!-- carnivore -->
<g class="node" id="node17"><title>carnivore</title>
<path d="M954.895,-123.842C954.895,-123.842 988.895,-123.842 988.895,-123.842 994.895,-123.842 1000.9,-129.842 1000.9,-135.842 1000.9,-135.842 1000.9,-147.842 1000.9,-147.842 1000.9,-153.842 994.895,-159.842 988.895,-159.842 988.895,-159.842 954.895,-159.842 954.895,-159.842 948.895,-159.842 942.895,-153.842 942.895,-147.842 942.895,-147.842 942.895,-135.842 942.895,-135.842 942.895,-129.842 948.895,-123.842 954.895,-123.842" fill="aliceblue" stroke="black" stroke-width="0.5"/>
<text font-family="Times New Roman,serif" font-size="11.00" text-anchor="middle" x="971.895" y="-139.042">carnivore</text>
</g>
<!-- animal&#45;&#45;carnivore -->
<g class="edge" id="edge14"><title>animal--carnivore</title>
<path d="M935.439,-295.731C944.388,-257.956 960.09,-191.675 967.625,-159.868" fill="none" stroke="black" stroke-width="0.5"/>
<polygon fill="none" points="932.006,-295.04 933.107,-305.578 938.818,-296.654 932.006,-295.04" stroke="black" stroke-width="0.5"/>
</g>
<!-- impala -->
<g class="node" id="node21"><title>impala</title>
<path d="M1083.67,-237.381C1083.67,-237.381 1113.67,-237.381 1113.67,-237.381 1119.67,-237.381 1125.67,-243.381 1125.67,-249.381 1125.67,-249.381 1125.67,-261.381 1125.67,-261.381 1125.67,-267.381 1119.67,-273.381 1113.67,-273.381 1113.67,-273.381 1083.67,-273.381 1083.67,-273.381 1077.67,-273.381 1071.67,-267.381 1071.67,-261.381 1071.67,-261.381 1071.67,-249.381 1071.67,-249.381 1071.67,-243.381 1077.67,-237.381 1083.67,-237.381" fill="aliceblue" stroke="black" stroke-width="0.5"/>
<text font-family="Times New Roman,serif" font-size="11.00" text-anchor="middle" x="1098.67" y="-252.581">impala</text>
</g>
<!-- animal&#45;&#45;impala -->
<g class="edge" id="edge18"><title>animal--impala</title>
<path d="M965.525,-308.919C997.372,-296.113 1042.75,-277.866 1071.45,-266.327" fill="none" stroke="black" stroke-width="0.5"/>
<polygon fill="none" points="964.081,-305.727 956.109,-312.705 966.693,-312.221 964.081,-305.727" stroke="black" stroke-width="0.5"/>
</g>
<!-- giraffe -->
<g class="node" id="node28"><title>giraffe</title>
<path d="M867.386,-251.479C867.386,-251.479 897.386,-251.479 897.386,-251.479 903.386,-251.479 909.386,-257.479 909.386,-263.479 909.386,-263.479 909.386,-275.479 909.386,-275.479 909.386,-281.479 903.386,-287.479 897.386,-287.479 897.386,-287.479 867.386,-287.479 867.386,-287.479 861.386,-287.479 855.386,-281.479 855.386,-275.479 855.386,-275.479 855.386,-263.479 855.386,-263.479 855.386,-257.479 861.386,-251.479 867.386,-251.479" fill="aliceblue" stroke="black" stroke-width="0.5"/>
<text font-family="Times New Roman,serif" font-size="11.00" text-anchor="middle" x="882.386" y="-266.679">giraffe</text>
</g>
<!-- animal&#45;&#45;giraffe -->
<g class="edge" id="edge25"><title>animal--giraffe</title>
<path d="M906.63,-297.778C903.692,-294.348 900.732,-290.893 897.938,-287.632" fill="none" stroke="black" stroke-width="0.5"/>
<polygon fill="none" points="904.193,-300.313 913.357,-305.63 909.509,-295.759 904.193,-300.313" stroke="black" stroke-width="0.5"/>
</g>
<!-- twig -->
<g class="node" id="node7"><title>twig</title>
<path d="M117.822,-213.239C117.822,-213.239 147.822,-213.239 147.822,-213.239 153.822,-213.239 159.822,-219.239 159.822,-225.239 159.822,-225.239 159.822,-237.239 159.822,-237.239 159.822,-243.239 153.822,-249.239 147.822,-249.239 147.822,-249.239 117.822,-249.239 117.822,-249.239 111.822,-249.239 105.822,-243.239 105.822,-237.239 105.822,-237.239 105.822,-225.239 105.822,-225.239 105.822,-219.239 111.822,-213.239 117.822,-213.239" fill="aliceblue" stroke="black" stroke-width="0.5"/>
<text font-family="Times New Roman,serif" font-size="11.00" text-anchor="middle" x="132.822" y="-228.439">twig</text>
</g>
<!-- plant&#45;part -->
<g class="node" id="node8"><title>plant-part</title>
<path d="M274.414,-139.013C274.414,-139.013 309.414,-139.013 309.414,-139.013 315.414,-139.013 321.414,-145.013 321.414,-151.013 321.414,-151.013 321.414,-163.013 321.414,-163.013 321.414,-169.013 315.414,-175.013 309.414,-175.013 309.414,-175.013 274.414,-175.013 274.414,-175.013 268.414,-175.013 262.414,-169.013 262.414,-163.013 262.414,-163.013 262.414,-151.013 262.414,-151.013 262.414,-145.013 268.414,-139.013 274.414,-139.013" fill="aliceblue" stroke="black" stroke-width="0.5"/>
<text font-family="Times New Roman,serif" font-size="11.00" text-anchor="middle" x="291.914" y="-154.213">plant-part</text>
</g>
<!-- plant&#45;part&#45;&#45;fruiting&#45;body -->
<g class="edge" id="edge8"><title>plant-part--fruiting-body</title>
<path d="M312.527,-183.137C346.338,-225.989 412.74,-310.146 441.968,-347.188" fill="none" stroke="black" stroke-width="0.5"/>
<polygon fill="none" points="315.162,-180.826 306.22,-175.143 309.666,-185.162 315.162,-180.826" stroke="black" stroke-width="0.5"/>
</g>
<!-- plant&#45;part&#45;&#45;twig -->
<g class="edge" id="edge4"><title>plant-part--twig</title>
<path d="M252.969,-175.183C224.069,-188.667 185.398,-206.709 159.829,-218.639" fill="none" stroke="black" stroke-width="0.5"/>
<polygon fill="none" points="254.781,-178.2 262.363,-170.8 251.821,-171.857 254.781,-178.2" stroke="black" stroke-width="0.5"/>
</g>
<!-- stem -->
<g class="node" id="node9"><title>stem</title>
<path d="M155.753,-286.466C155.753,-286.466 185.753,-286.466 185.753,-286.466 191.753,-286.466 197.753,-292.466 197.753,-298.466 197.753,-298.466 197.753,-310.466 197.753,-310.466 197.753,-316.466 191.753,-322.466 185.753,-322.466 185.753,-322.466 155.753,-322.466 155.753,-322.466 149.753,-322.466 143.753,-316.466 143.753,-310.466 143.753,-310.466 143.753,-298.466 143.753,-298.466 143.753,-292.466 149.753,-286.466 155.753,-286.466" fill="aliceblue" stroke="black" stroke-width="0.5"/>
<text font-family="Times New Roman,serif" font-size="11.00" text-anchor="middle" x="170.753" y="-301.666">stem</text>
</g>
<!-- plant&#45;part&#45;&#45;stem -->
<g class="edge" id="edge5"><title>plant-part--stem</title>
<path d="M270.613,-182.936C246.271,-212.56 207.055,-260.286 185.731,-286.237" fill="none" stroke="black" stroke-width="0.5"/>
<polygon fill="none" points="273.413,-185.042 277.057,-175.093 268.004,-180.598 273.413,-185.042" stroke="black" stroke-width="0.5"/>
</g>
<!-- leaf -->
<g class="node" id="node10"><title>leaf</title>
<path d="M236.183,-3.49776C236.183,-3.49776 266.183,-3.49776 266.183,-3.49776 272.183,-3.49776 278.183,-9.49776 278.183,-15.4978 278.183,-15.4978 278.183,-27.4978 278.183,-27.4978 278.183,-33.4978 272.183,-39.4978 266.183,-39.4978 266.183,-39.4978 236.183,-39.4978 236.183,-39.4978 230.183,-39.4978 224.183,-33.4978 224.183,-27.4978 224.183,-27.4978 224.183,-15.4978 224.183,-15.4978 224.183,-9.49776 230.183,-3.49776 236.183,-3.49776" fill="aliceblue" stroke="black" stroke-width="0.5"/>
<text font-family="Times New Roman,serif" font-size="11.00" text-anchor="middle" x="251.183" y="-18.6978">leaf</text>
</g>
<!-- plant&#45;part&#45;&#45;leaf -->
<g class="edge" id="edge6"><title>plant-part--leaf</title>
<path d="M283.446,-128.84C275.422,-102.143 263.603,-62.8189 256.719,-39.9172" fill="none" stroke="black" stroke-width="0.5"/>
<polygon fill="none" points="280.19,-130.167 286.421,-138.737 286.894,-128.152 280.19,-130.167" stroke="black" stroke-width="0.5"/>
</g>
<!-- phloem -->
<g class="node" id="node16"><title>phloem</title>
<path d="M377.384,-182.058C377.384,-182.058 407.384,-182.058 407.384,-182.058 413.384,-182.058 419.384,-188.058 419.384,-194.058 419.384,-194.058 419.384,-206.058 419.384,-206.058 419.384,-212.058 413.384,-218.058 407.384,-218.058 407.384,-218.058 377.384,-218.058 377.384,-218.058 371.384,-218.058 365.384,-212.058 365.384,-206.058 365.384,-206.058 365.384,-194.058 365.384,-194.058 365.384,-188.058 371.384,-182.058 377.384,-182.058" fill="aliceblue" stroke="black" stroke-width="0.5"/>
<text font-family="Times New Roman,serif" font-size="11.00" text-anchor="middle" x="392.384" y="-197.258">phloem</text>
</g>
<!-- plant&#45;part&#45;&#45;phloem -->
<g class="edge" id="edge13"><title>plant-part--phloem</title>
<path d="M330.86,-173.699C342.28,-178.592 354.522,-183.836 365.055,-188.349" fill="none" stroke="black" stroke-width="0.5"/>
<polygon fill="none" points="332.085,-170.416 321.515,-169.695 329.328,-176.85 332.085,-170.416" stroke="black" stroke-width="0.5"/>
</g>
<!-- branch -->
<g class="node" id="node18"><title>branch</title>
<path d="M342.564,-5.19926C342.564,-5.19926 372.564,-5.19926 372.564,-5.19926 378.564,-5.19926 384.564,-11.1993 384.564,-17.1993 384.564,-17.1993 384.564,-29.1993 384.564,-29.1993 384.564,-35.1993 378.564,-41.1993 372.564,-41.1993 372.564,-41.1993 342.564,-41.1993 342.564,-41.1993 336.564,-41.1993 330.564,-35.1993 330.564,-29.1993 330.564,-29.1993 330.564,-17.1993 330.564,-17.1993 330.564,-11.1993 336.564,-5.19926 342.564,-5.19926" fill="aliceblue" stroke="black" stroke-width="0.5"/>
<text font-family="Times New Roman,serif" font-size="11.00" text-anchor="middle" x="357.564" y="-20.3993">branch</text>
</g>
<!-- plant&#45;part&#45;&#45;branch -->
<g class="edge" id="edge15"><title>plant-part--branch</title>
<path d="M305.22,-129.891C318.157,-103.521 337.448,-64.2017 348.64,-41.3874" fill="none" stroke="black" stroke-width="0.5"/>
<polygon fill="none" points="302.03,-128.447 300.768,-138.966 308.315,-131.53 302.03,-128.447" stroke="black" stroke-width="0.5"/>
</g>
<!-- root -->
<g class="node" id="node24"><title>root</title>
<path d="M167.287,-90.1101C167.287,-90.1101 197.287,-90.1101 197.287,-90.1101 203.287,-90.1101 209.287,-96.1101 209.287,-102.11 209.287,-102.11 209.287,-114.11 209.287,-114.11 209.287,-120.11 203.287,-126.11 197.287,-126.11 197.287,-126.11 167.287,-126.11 167.287,-126.11 161.287,-126.11 155.287,-120.11 155.287,-114.11 155.287,-114.11 155.287,-102.11 155.287,-102.11 155.287,-96.1101 161.287,-90.1101 167.287,-90.1101" fill="aliceblue" stroke="black" stroke-width="0.5"/>
<text font-family="Times New Roman,serif" font-size="11.00" text-anchor="middle" x="182.287" y="-105.31">root</text>
</g>
<!-- plant&#45;part&#45;&#45;root -->
<g class="edge" id="edge21"><title>plant-part--root</title>
<path d="M253.032,-139.668C238.582,-133.222 222.515,-126.055 209.349,-120.182" fill="none" stroke="black" stroke-width="0.5"/>
<polygon fill="none" points="251.689,-142.901 262.247,-143.779 254.541,-136.509 251.689,-142.901" stroke="black" stroke-width="0.5"/>
</g>
<!-- xylem -->
<g class="node" id="node27"><title>xylem</title>
<path d="M355.22,-113.281C355.22,-113.281 385.22,-113.281 385.22,-113.281 391.22,-113.281 397.22,-119.281 397.22,-125.281 397.22,-125.281 397.22,-137.281 397.22,-137.281 397.22,-143.281 391.22,-149.281 385.22,-149.281 385.22,-149.281 355.22,-149.281 355.22,-149.281 349.22,-149.281 343.22,-143.281 343.22,-137.281 343.22,-137.281 343.22,-125.281 343.22,-125.281 343.22,-119.281 349.22,-113.281 355.22,-113.281" fill="aliceblue" stroke="black" stroke-width="0.5"/>
<text font-family="Times New Roman,serif" font-size="11.00" text-anchor="middle" x="370.22" y="-128.481">xylem</text>
</g>
<!-- plant&#45;part&#45;&#45;xylem -->
<g class="edge" id="edge24"><title>plant-part--xylem</title>
<path d="M331.354,-144.052C335.346,-142.741 339.334,-141.43 343.151,-140.176" fill="none" stroke="black" stroke-width="0.5"/>
<polygon fill="none" points="329.926,-140.838 321.518,-147.285 332.111,-147.488 329.926,-140.838" stroke="black" stroke-width="0.5"/>
</g>
<!-- elephant -->
<g class="node" id="node25"><title>elephant</title>
<path d="M608.489,-65.6559C608.489,-65.6559 638.489,-65.6559 638.489,-65.6559 644.489,-65.6559 650.489,-71.6559 650.489,-77.6559 650.489,-77.6559 650.489,-89.6559 650.489,-89.6559 650.489,-95.6559 644.489,-101.656 638.489,-101.656 638.489,-101.656 608.489,-101.656 608.489,-101.656 602.489,-101.656 596.489,-95.6559 596.489,-89.6559 596.489,-89.6559 596.489,-77.6559 596.489,-77.6559 596.489,-71.6559 602.489,-65.6559 608.489,-65.6559" fill="aliceblue" stroke="black" stroke-width="0.5"/>
<text font-family="Times New Roman,serif" font-size="11.00" text-anchor="middle" x="623.489" y="-80.8559">elephant</text>
</g>
<!-- herbivore&#45;&#45;elephant -->
<g class="edge" id="edge22"><title>herbivore--elephant</title>
<path d="M707.233,-189.362C700.371,-176.766 691.612,-161.829 682.48,-149.222 670.085,-132.109 653.911,-114.393 641.635,-101.697" fill="none" stroke="black" stroke-width="0.5"/>
<polygon fill="none" points="704.291,-191.283 712.085,-198.46 710.467,-187.989 704.291,-191.283" stroke="black" stroke-width="0.5"/>
</g>
<!-- Mary&#45;01 -->
<g class="node" id="node30"><title>Mary-01</title>
<path d="M636.28,-152.422C636.28,-152.422 667.28,-152.422 667.28,-152.422 673.28,-152.422 679.28,-158.422 679.28,-164.422 679.28,-164.422 679.28,-176.422 679.28,-176.422 679.28,-182.422 673.28,-188.422 667.28,-188.422 667.28,-188.422 636.28,-188.422 636.28,-188.422 630.28,-188.422 624.28,-182.422 624.28,-176.422 624.28,-176.422 624.28,-164.422 624.28,-164.422 624.28,-158.422 630.28,-152.422 636.28,-152.422" fill="whitesmoke" stroke="black" stroke-width="0.5"/>
<text font-family="Times New Roman,serif" font-size="11.00" text-anchor="middle" x="651.78" y="-167.622">Mary-01</text>
</g>
<!-- herbivore&#45;&#45;Mary&#45;01 -->
<g class="edge" id="edge29"><title>herbivore--Mary-01</title>
<path d="M684.955,-192.481C682.949,-191.147 680.949,-189.817 678.983,-188.51" fill="none" stroke="black" stroke-dasharray="5,2" stroke-width="0.5"/>
<polygon fill="none" points="683.445,-195.68 693.711,-198.302 687.321,-189.851 683.445,-195.68" stroke="black" stroke-width="0.5"/>
</g>
<!-- Sophie&#45;01 -->
<g class="node" id="node31"><title>Sophie-01</title>
<path d="M791.191,-108.092C791.191,-108.092 827.191,-108.092 827.191,-108.092 833.191,-108.092 839.191,-114.092 839.191,-120.092 839.191,-120.092 839.191,-132.092 839.191,-132.092 839.191,-138.092 833.191,-144.092 827.191,-144.092 827.191,-144.092 791.191,-144.092 791.191,-144.092 785.191,-144.092 779.191,-138.092 779.191,-132.092 779.191,-132.092 779.191,-120.092 779.191,-120.092 779.191,-114.092 785.191,-108.092 791.191,-108.092" fill="whitesmoke" stroke="black" stroke-width="0.5"/>
<text font-family="Times New Roman,serif" font-size="11.00" text-anchor="middle" x="809.191" y="-123.292">Sophie-01</text>
</g>
<!-- herbivore&#45;&#45;Sophie&#45;01 -->
<g class="edge" id="edge31"><title>herbivore--Sophie-01</title>
<path d="M746.136,-190.831C760.574,-176.007 778.387,-157.719 791.393,-144.365" fill="none" stroke="black" stroke-dasharray="5,2" stroke-width="0.5"/>
<polygon fill="none" points="743.406,-188.617 738.936,-198.223 748.421,-193.501 743.406,-188.617" stroke="black" stroke-width="0.5"/>
</g>
<!-- lion -->
<g class="node" id="node19"><title>lion</title>
<path d="M900.488,-16.1841C900.488,-16.1841 930.488,-16.1841 930.488,-16.1841 936.488,-16.1841 942.488,-22.1841 942.488,-28.1841 942.488,-28.1841 942.488,-40.1841 942.488,-40.1841 942.488,-46.1841 936.488,-52.1841 930.488,-52.1841 930.488,-52.1841 900.488,-52.1841 900.488,-52.1841 894.488,-52.1841 888.488,-46.1841 888.488,-40.1841 888.488,-40.1841 888.488,-28.1841 888.488,-28.1841 888.488,-22.1841 894.488,-16.1841 900.488,-16.1841" fill="aliceblue" stroke="black" stroke-width="0.5"/>
<text font-family="Times New Roman,serif" font-size="11.00" text-anchor="middle" x="915.488" y="-31.3841">lion</text>
</g>
<!-- carnivore&#45;&#45;lion -->
<g class="edge" id="edge16"><title>carnivore--lion</title>
<path d="M957.623,-114.602C947.445,-95.1759 934.033,-69.5793 925.103,-52.5363" fill="none" stroke="black" stroke-width="0.5"/>
<polygon fill="none" points="954.585,-116.346 962.327,-123.579 960.786,-113.097 954.585,-116.346" stroke="black" stroke-width="0.5"/>
</g>
<!-- Leo&#45;01 -->
<g class="node" id="node32"><title>Leo-01</title>
<path d="M731.557,-39.7751C731.557,-39.7751 761.557,-39.7751 761.557,-39.7751 767.557,-39.7751 773.557,-45.7751 773.557,-51.7751 773.557,-51.7751 773.557,-63.7751 773.557,-63.7751 773.557,-69.7751 767.557,-75.7751 761.557,-75.7751 761.557,-75.7751 731.557,-75.7751 731.557,-75.7751 725.557,-75.7751 719.557,-69.7751 719.557,-63.7751 719.557,-63.7751 719.557,-51.7751 719.557,-51.7751 719.557,-45.7751 725.557,-39.7751 731.557,-39.7751" fill="whitesmoke" stroke="black" stroke-width="0.5"/>
<text font-family="Times New Roman,serif" font-size="11.00" text-anchor="middle" x="746.557" y="-54.9751">Leo-01</text>
</g>
<!-- lion&#45;&#45;Leo&#45;01 -->
<g class="edge" id="edge32"><title>lion--Leo-01</title>
<path d="M878.159,-39.397C846.53,-43.814 801.928,-50.0426 773.632,-53.9942" fill="none" stroke="black" stroke-dasharray="5,2" stroke-width="0.5"/>
<polygon fill="none" points="878.926,-42.8239 888.346,-37.9744 877.958,-35.8912 878.926,-42.8239" stroke="black" stroke-width="0.5"/>
</g>
<!-- palm&#45;tree&#45;&#45;Mary&#45;01 -->
<g class="edge" id="edge28"><title>palm-tree--Mary-01</title>
<path d="M540.975,-268.054C567.684,-244.521 607.298,-209.616 631.218,-188.54" fill="none" stroke="black" stroke-dasharray="5,2" stroke-width="0.5"/>
<polygon fill="none" points="538.659,-265.43 533.47,-274.667 543.287,-270.682 538.659,-265.43" stroke="black" stroke-width="0.5"/>
</g>
<!-- parsnip -->
<g class="node" id="node23"><title>parsnip</title>
<path d="M12.2518,-0.515727C12.2518,-0.515727 42.2518,-0.515727 42.2518,-0.515727 48.2518,-0.515727 54.2518,-6.51573 54.2518,-12.5157 54.2518,-12.5157 54.2518,-24.5157 54.2518,-24.5157 54.2518,-30.5157 48.2518,-36.5157 42.2518,-36.5157 42.2518,-36.5157 12.2518,-36.5157 12.2518,-36.5157 6.25175,-36.5157 0.251751,-30.5157 0.251751,-24.5157 0.251751,-24.5157 0.251751,-12.5157 0.251751,-12.5157 0.251751,-6.51573 6.25175,-0.515727 12.2518,-0.515727" fill="aliceblue" stroke="black" stroke-width="0.5"/>
<text font-family="Times New Roman,serif" font-size="11.00" text-anchor="middle" x="27.2518" y="-15.7157">parsnip</text>
</g>
<!-- root&#45;&#45;parsnip -->
<g class="edge" id="edge20"><title>root--parsnip</title>
<path d="M146.571,-87.4699C118.523,-71.2612 80.0588,-49.0327 54.4676,-34.2436" fill="none" stroke="black" stroke-width="0.5"/>
<polygon fill="none" points="144.873,-90.5307 155.282,-92.5039 148.375,-84.47 144.873,-90.5307" stroke="black" stroke-width="0.5"/>
</g>
<!-- giraffe&#45;&#45;Sophie&#45;01 -->
<g class="edge" id="edge30"><title>giraffe--Sophie-01</title>
<path d="M868.464,-242.207C853.759,-213.401 830.995,-168.806 818.386,-144.105" fill="none" stroke="black" stroke-dasharray="5,2" stroke-width="0.5"/>
<polygon fill="none" points="865.451,-244.003 873.115,-251.319 871.686,-240.821 865.451,-244.003" stroke="black" stroke-width="0.5"/>
</g>
<!-- herb -->
<g class="node" id="node29"><title>herb</title>
<path d="M307.756,-326.408C307.756,-326.408 337.756,-326.408 337.756,-326.408 343.756,-326.408 349.756,-332.408 349.756,-338.408 349.756,-338.408 349.756,-350.408 349.756,-350.408 349.756,-356.408 343.756,-362.408 337.756,-362.408 337.756,-362.408 307.756,-362.408 307.756,-362.408 301.756,-362.408 295.756,-356.408 295.756,-350.408 295.756,-350.408 295.756,-338.408 295.756,-338.408 295.756,-332.408 301.756,-326.408 307.756,-326.408" fill="aliceblue" stroke="black" stroke-width="0.5"/>
<text font-family="Times New Roman,serif" font-size="11.00" text-anchor="middle" x="322.756" y="-341.608">herb</text>
</g>
<!-- herb&#45;&#45;plant -->
<g class="edge" id="edge26"><title>herb--plant</title>
<path d="M336.026,-371.957C344.632,-389.825 355.6,-412.595 363.109,-428.184" fill="none" stroke="black" stroke-width="0.5"/>
<polygon fill="none" points="339.017,-370.102 331.525,-362.612 332.711,-373.14 339.017,-370.102" stroke="black" stroke-width="0.5"/>
</g>
<!-- herb&#45;&#45;plant&#45;part -->
<g class="edge" id="edge27"><title>herb--plant-part</title>
<path d="M318.07,-315.933C311.641,-276.872 300.273,-207.803 294.894,-175.121" fill="none" stroke="black" stroke-width="0.5"/>
<polygon fill="none" points="314.665,-316.8 319.743,-326.099 321.572,-315.663 314.665,-316.8" stroke="black" stroke-width="0.5"/>
</g>
<!-- Leo&#45;01&#45;&#45;Mary&#45;01 -->
<g class="edge" id="edge33"><title>Leo-01--Mary-01</title>
<path d="M731.33,-75.8738C715.716,-94.4316 691.283,-123.472 673.613,-144.473" fill="none" stroke="black" stroke-width="0.5"/>
<polygon fill="black" points="666.97,-152.368 669.965,-141.819 670.189,-148.542 673.408,-144.717 673.408,-144.717 673.408,-144.717 670.189,-148.542 676.852,-147.614 666.97,-152.368 666.97,-152.368" stroke="black" stroke-width="0.5"/>
<text font-family="Times New Roman,serif" font-size="11.00" text-anchor="middle" x="689.642" y="-117.331">eats</text>
</g>
<!-- Leo&#45;01&#45;&#45;Sophie&#45;01 -->
<g class="edge" id="edge34"><title>Leo-01--Sophie-01</title>
<path d="M763.342,-76.0828C770.082,-83.4343 777.976,-92.0444 785.295,-100.028" fill="none" stroke="black" stroke-width="0.5"/>
<polygon fill="black" points="792.36,-107.734 782.285,-103.404 788.981,-104.048 785.602,-100.363 785.602,-100.363 785.602,-100.363 788.981,-104.048 788.919,-97.3218 792.36,-107.734 792.36,-107.734" stroke="black" stroke-width="0.5"/>
<text font-family="Times New Roman,serif" font-size="11.00" text-anchor="middle" x="768.466" y="-95.2335">eats</text>
</g>
</g>
</svg>