<svg height="1029pt" viewBox="0.00 0.00 902.00 1029.00" width="902pt" xmlns="http://www.w3.org/2000/svg" xmlns:xlink="http://www.w3.org/1999/xlink">
<g class="graph" id="graph0" transform="scale(1 1) rotate(0) translate(4 1025)">
<title>G</title>
<polygon fill="white" points="-4,4 -4,-1025 898,-1025 898,4 -4,4" stroke="none"/>
<!-- warthog -->
<g class="node" id="node1"><title>warthog</title>
<path d="M447.935,-779.308C447.935,-779.308 477.935,-779.308 477.935,-779.308 483.935,-779.308 489.935,-785.308 489.935,-791.308 489.935,-791.308 489.935,-803.308 489.935,-803.308 489.935,-809.308 483.935,-815.308 477.935,-815.308 477.935,-815.308 447.935,-815.308 447.935,-815.308 441.935,-815.308 435.935,-809.308 435.935,-803.308 435.935,-803.308 435.935,-791.308 435.935,-791.308 435.935,-785.308 441.935,-779.308 447.935,-779.308" fill="aliceblue" stroke="black" stroke-width="0.5"/>
<text font-family="Times New Roman,serif" font-size="11.00" text-anchor="middle" x="462.935" y="-794.508">warthog</text>
</g>
<!-- animal -->
<g class="node" id="node2"><title>animal</title>
<path d="M628.178,-807.34C628.178,-807.34 658.178,-807.34 658.178,-807.34 664.178,-807.34 670.178,-813.34 670.178,-819.34 670.178,-819.34 670.178,-831.34 670.178,-831.34 670.178,-837.34 664.178,-843.34 658.178,-843.34 658.178,-843.34 628.178,-843.34 628.178,-843.34 622.178,-843.34 616.178,-837.34 616.178,-831.34 616.178,-831.34 616.178,-819.34 616.178,-819.34 616.178,-813.34 622.178,-807.34 628.178,-807.34" fill="aliceblue" stroke="black" stroke-width="0.5"/>
<text font-family="Times New Roman,serif" font-size="11.00" text-anchor="middle" x="643.178" y="-822.54">animal</text>
</g>
<!-- animal&#45;&#45;warthog -->
<g class="edge" id="edge1"><title>animal--warthog</title>
<path d="M605.632,-819.501C571.095,-814.13 520.716,-806.295 489.977,-801.514" fill="none" stroke="black" stroke-width="0.5"/>
<polygon fill="none" points="605.384,-823.004 615.803,-821.083 606.46,-816.088 605.384,-823.004" stroke="black" stroke-width="0.5"/>
</g>
<!-- impala -->
<g class="node" id="node3"><title>impala</title>
<path d="M731.243,-877.129C731.243,-877.129 761.243,-877.129 761.243,-877.129 767.243,-877.129 773.243,-883.129 773.243,-889.129 773.243,-889.129 773.243,-901.129 773.243,-901.129 773.243,-907.129 767.243,-913.129 761.243,-913.129 761.243,-913.129 731.243,-913.129 731.243,-913.129 725.243,-913.129 719.243,-907.129 719.243,-901.129 719.243,-901.129 719.243,-889.129 719.243,-889.129 719.243,-883.129 725.243,-877.129 731.243,-877.129" fill="aliceblue" stroke="black" stroke-width="0.5"/>
<text font-family="Times New Roman,serif" font-size="11.00" text-anchor="middle" x="746.243" y="-892.329">impala</text>
</g>
<!-- animal&#45;&#45;impala -->
<g class="edge" id="edge2"><title>animal--impala</title>
<path d="M678.542,-849.287C691.984,-858.389 707.06,-868.597 719.567,-877.066" fill="none" stroke="black" stroke-width="0.5"/>
<polygon fill="none" points="680.231,-846.203 669.988,-843.494 676.306,-851.999 680.231,-846.203" stroke="black" stroke-width="0.5"/>
</g>
<!-- rock&#45;dassie -->
<g class="node" id="node13"><title>rock-dassie</title>
<path d="M488.609,-944.633C488.609,-944.633 531.609,-944.633 531.609,-944.633 537.609,-944.633 543.609,-950.633 543.609,-956.633 543.609,-956.633 543.609,-968.633 543.609,-968.633 543.609,-974.633 537.609,-980.633 531.609,-980.633 531.609,-980.633 488.609,-980.633 488.609,-980.633 482.609,-980.633 476.609,-974.633 476.609,-968.633 476.609,-968.633 476.609,-956.633 476.609,-956.633 476.609,-950.633 482.609,-944.633 488.609,-944.633" fill="aliceblue" stroke="black" stroke-width="0.5"/>
<text font-family="Times New Roman,serif" font-size="11.00" text-anchor="middle" x="510.109" y="-959.833">rock-dassie</text>
</g>
<!-- animal&#45;&#45;rock&#45;dassie -->
<g class="edge" id="edge9"><title>animal--rock-dassie</title>
<path d="M618.502,-850.8C592.184,-877.952 551.154,-920.285 527.853,-944.326" fill="none" stroke="black" stroke-width="0.5"/>
<polygon fill="none" points="621.061,-853.188 625.507,-843.572 616.034,-848.316 621.061,-853.188" stroke="black" stroke-width="0.5"/>
</g>
<!-- herbivore -->
<g class="node" id="node15"><title>herbivore</title>
<path d="M538,-673C538,-673 572,-673 572,-673 578,-673 584,-679 584,-685 584,-685 584,-697 584,-697 584,-703 578,-709 572,-709 572,-709 538,-709 538,-709 532,-709 526,-703 526,-697 526,-697 526,-685 526,-685 526,-679 532,-673 538,-673" fill="aliceblue" stroke="black" stroke-width="0.5"/>
<text font-family="Times New Roman,serif" font-size="11.00" text-anchor="middle" x="555" y="-688.2">herbivore</text>
</g>
<!-- animal&#45;&#45;herbivore -->
<g class="edge" id="edge19"><title>animal--herbivore</title>
<path d="M625.761,-798.805C608.384,-772.331 582.151,-732.365 566.985,-709.26" fill="none" stroke="black" stroke-width="0.5"/>
<polygon fill="none" points="622.872,-800.783 631.286,-807.223 628.724,-796.942 622.872,-800.783" stroke="black" stroke-width="0.5"/>
</g>
<!-- giraffe -->
<g class="node" id="node21"><title>giraffe</title>
<path d="M663.806,-743.014C663.806,-743.014 693.806,-743.014 693.806,-743.014 699.806,-743.014 705.806,-749.014 705.806,-755.014 705.806,-755.014 705.806,-767.014 705.806,-767.014 705.806,-773.014 699.806,-779.014 693.806,-779.014 693.806,-779.014 663.806,-779.014 663.806,-779.014 657.806,-779.014 651.806,-773.014 651.806,-767.014 651.806,-767.014 651.806,-755.014 651.806,-755.014 651.806,-749.014 657.806,-743.014 663.806,-743.014" fill="aliceblue" stroke="black" stroke-width="0.5"/>
<text font-family="Times New Roman,serif" font-size="11.00" text-anchor="middle" x="678.806" y="-758.214">giraffe</text>
</g>
<!-- animal&#45;&#45;giraffe -->
<g class="edge" id="edge16"><title>animal--giraffe</title>
<path d="M658.309,-798.02C661.85,-791.627 665.536,-784.972 668.79,-779.098" fill="none" stroke="black" stroke-width="0.5"/>
<polygon fill="none" points="655.076,-796.635 653.292,-807.079 661.199,-800.027 655.076,-796.635" stroke="black" stroke-width="0.5"/>
</g>
<!-- carnivore -->
<g class="node" id="node23"><title>carnivore</title>
<path d="M756.128,-739.363C756.128,-739.363 790.128,-739.363 790.128,-739.363 796.128,-739.363 802.128,-745.363 802.128,-751.363 802.128,-751.363 802.128,-763.363 802.128,-763.363 802.128,-769.363 796.128,-775.363 790.128,-775.363 790.128,-775.363 756.128,-775.363 756.128,-775.363 750.128,-775.363 744.128,-769.363 744.128,-763.363 744.128,-763.363 744.128,-751.363 744.128,-751.363 744.128,-745.363 750.128,-739.363 756.128,-739.363" fill="aliceblue" stroke="black" stroke-width="0.5"/>
<text font-family="Times New Roman,serif" font-size="11.00" text-anchor="middle" x="773.128" y="-754.563">carnivore</text>
</g>
<!-- animal&#45;&#45;carnivore -->
<g class="edge" id="edge23"><title>animal--carnivore</title>
<path d="M679.43,-806.377C699.852,-795.694 725.013,-782.532 744.118,-772.538" fill="none" stroke="black" stroke-width="0.5"/>
<polygon fill="none" points="677.658,-803.353 670.42,-811.09 680.903,-809.556 677.658,-803.353" stroke="black" stroke-width="0.5"/>
</g>
<!-- omnivore -->
<g class="node" id="node28"><title>omnivore</title>
<path d="M655.818,-984.535C655.818,-984.535 688.818,-984.535 688.818,-984.535 694.818,-984.535 700.818,-990.535 700.818,-996.535 700.818,-996.535 700.818,-1008.54 700.818,-1008.54 700.818,-1014.54 694.818,-1020.54 688.818,-1020.54 688.818,-1020.54 655.818,-1020.54 655.818,-1020.54 649.818,-1020.54 643.818,-1014.54 643.818,-1008.54 643.818,-1008.54 643.818,-996.535 643.818,-996.535 643.818,-990.535 649.818,-984.535 655.818,-984.535" fill="aliceblue" stroke="black" stroke-width="0.5"/>
<text font-family="Times New Roman,serif" font-size="11.00" text-anchor="middle" x="672.318" y="-999.735">omnivore</text>
</g>
<!-- animal&#45;&#45;omnivore -->
<g class="edge" id="edge25"><title>animal--omnivore</title>
<path d="M647.84,-853.691C653.882,-890.428 664.241,-953.423 669.325,-984.339" fill="none" stroke="black" stroke-width="0.5"/>
<polygon fill="none" points="651.263,-852.935 646.187,-843.636 644.356,-854.071 651.263,-852.935" stroke="black" stroke-width="0.5"/>
</g>
<!-- phloem -->
<g class="node" id="node4"><title>phloem</title>
<path d="M271.672,-586.406C271.672,-586.406 301.672,-586.406 301.672,-586.406 307.672,-586.406 313.672,-592.406 313.672,-598.406 313.672,-598.406 313.672,-610.406 313.672,-610.406 313.672,-616.406 307.672,-622.406 301.672,-622.406 301.672,-622.406 271.672,-622.406 271.672,-622.406 265.672,-622.406 259.672,-616.406 259.672,-610.406 259.672,-610.406 259.672,-598.406 259.672,-598.406 259.672,-592.406 265.672,-586.406 271.672,-586.406" fill="aliceblue" stroke="black" stroke-width="0.5"/>
<text font-family="Times New Roman,serif" font-size="11.00" text-anchor="middle" x="286.672" y="-601.606">phloem</text>
</g>
<!-- plant&#45;part -->
<g class="node" id="node5"><title>plant-part</title>
<path d="M173.56,-453.754C173.56,-453.754 208.56,-453.754 208.56,-453.754 214.56,-453.754 220.56,-459.754 220.56,-465.754 220.56,-465.754 220.56,-477.754 220.56,-477.754 220.56,-483.754 214.56,-489.754 208.56,-489.754 208.56,-489.754 173.56,-489.754 173.56,-489.754 167.56,-489.754 161.56,-483.754 161.56,-477.754 161.56,-477.754 161.56,-465.754 161.56,-465.754 161.56,-459.754 167.56,-453.754 173.56,-453.754" fill="aliceblue" stroke="black" stroke-width="0.5"/>
<text font-family="Times New Roman,serif" font-size="11.00" text-anchor="middle" x="191.06" y="-468.954">plant-part</text>
</g>
<!-- plant&#45;part&#45;&#45;phloem -->
<g class="edge" id="edge3"><title>plant-part--phloem</title>
<path d="M210.122,-498.201C228.87,-524.212 257.001,-563.24 273.43,-586.033" fill="none" stroke="black" stroke-width="0.5"/>
<polygon fill="none" points="212.84,-495.987 204.154,-489.921 207.162,-500.08 212.84,-495.987" stroke="black" stroke-width="0.5"/>
</g>
<!-- stem -->
<g class="node" id="node6"><title>stem</title>
<path d="M115.542,-595.844C115.542,-595.844 145.542,-595.844 145.542,-595.844 151.542,-595.844 157.542,-601.844 157.542,-607.844 157.542,-607.844 157.542,-619.844 157.542,-619.844 157.542,-625.844 151.542,-631.844 145.542,-631.844 145.542,-631.844 115.542,-631.844 115.542,-631.844 109.542,-631.844 103.542,-625.844 103.542,-619.844 103.542,-619.844 103.542,-607.844 103.542,-607.844 103.542,-601.844 109.542,-595.844 115.542,-595.844" fill="aliceblue" stroke="black" stroke-width="0.5"/>
<text font-family="Times New Roman,serif" font-size="11.00" text-anchor="middle" x="130.542" y="-611.044">stem</text>
</g>
<!-- plant&#45;part&#45;&#45;stem -->
<g class="edge" id="edge4"><title>plant-part--stem</title>
<path d="M179.281,-499.409C167.177,-527.829 148.679,-571.26 138.3,-595.629" fill="none" stroke="black" stroke-width="0.5"/>
<polygon fill="none" points="182.573,-500.611 183.272,-490.039 176.133,-497.868 182.573,-500.611" stroke="black" stroke-width="0.5"/>
</g>
<!-- branch -->
<g class="node" id="node7"><title>branch</title>
<path d="M267.358,-381.067C267.358,-381.067 297.358,-381.067 297.358,-381.067 303.358,-381.067 309.358,-387.067 309.358,-393.067 309.358,-393.067 309.358,-405.067 309.358,-405.067 309.358,-411.067 303.358,-417.067 297.358,-417.067 297.358,-417.067 267.358,-417.067 267.358,-417.067 261.358,-417.067 255.358,-411.067 255.358,-405.067 255.358,-405.067 255.358,-393.067 255.358,-393.067 255.358,-387.067 261.358,-381.067 267.358,-381.067" fill="aliceblue" stroke="black" stroke-width="0.5"/>
<text font-family="Times New Roman,serif" font-size="11.00" text-anchor="middle" x="282.358" y="-396.267">branch</text>
</g>
<!-- plant&#45;part&#45;&#45;branch -->
<g class="edge" id="edge5"><title>plant-part--branch</title>
<path d="M221.937,-447.171C234.286,-437.34 248.252,-426.221 259.643,-417.151" fill="none" stroke="black" stroke-width="0.5"/>
<polygon fill="none" points="219.741,-444.445 214.098,-453.412 224.101,-449.922 219.741,-444.445" stroke="black" stroke-width="0.5"/>
</g>
<!-- root -->
<g class="node" id="node9"><title>root</title>
<path d="M120.186,-356.541C120.186,-356.541 150.186,-356.541 150.186,-356.541 156.186,-356.541 162.186,-362.541 162.186,-368.541 162.186,-368.541 162.186,-380.541 162.186,-380.541 162.186,-386.541 156.186,-392.541 150.186,-392.541 150.186,-392.541 120.186,-392.541 120.186,-392.541 114.186,-392.541 108.186,-386.541 108.186,-380.541 108.186,-380.541 108.186,-368.541 108.186,-368.541 108.186,-362.541 114.186,-356.541 120.186,-356.541" fill="aliceblue" stroke="black" stroke-width="0.5"/>
<text font-family="Times New Roman,serif" font-size="11.00" text-anchor="middle" x="135.186" y="-371.741">root</text>
</g>
<!-- plant&#45;part&#45;&#45;root -->
<g class="edge" id="edge22"><title>plant-part--root</title>
<path d="M175.543,-444.757C166.014,-428.177 154.063,-407.386 145.648,-392.744" fill="none" stroke="black" stroke-width="0.5"/>
<polygon fill="none" points="172.532,-446.543 180.55,-453.469 178.601,-443.055 172.532,-446.543" stroke="black" stroke-width="0.5"/>
</g>
<!-- xylem -->
<g class="node" id="node10"><title>xylem</title>
<path d="M39.0603,-436.385C39.0603,-436.385 69.0603,-436.385 69.0603,-436.385 75.0603,-436.385 81.0603,-442.385 81.0603,-448.385 81.0603,-448.385 81.0603,-460.385 81.0603,-460.385 81.0603,-466.385 75.0603,-472.385 69.0603,-472.385 69.0603,-472.385 39.0603,-472.385 39.0603,-472.385 33.0603,-472.385 27.0603,-466.385 27.0603,-460.385 27.0603,-460.385 27.0603,-448.385 27.0603,-448.385 27.0603,-442.385 33.0603,-436.385 39.0603,-436.385" fill="aliceblue" stroke="black" stroke-width="0.5"/>
<text font-family="Times New Roman,serif" font-size="11.00" text-anchor="middle" x="54.0603" y="-451.585">xylem</text>
</g>
<!-- plant&#45;part&#45;&#45;xylem -->
<g class="edge" id="edge7"><title>plant-part--xylem</title>
<path d="M151.113,-466.69C128.715,-463.85 101.355,-460.381 81.401,-457.851" fill="none" stroke="black" stroke-width="0.5"/>
<polygon fill="none" points="150.972,-470.2 161.333,-467.985 151.852,-463.255 150.972,-470.2" stroke="black" stroke-width="0.5"/>
</g>
<!-- fruiting&#45;body -->
<g class="node" id="node17"><title>fruiting-body</title>
<path d="M157.981,-731.062C157.981,-731.062 205.981,-731.062 205.981,-731.062 211.981,-731.062 217.981,-737.062 217.981,-743.062 217.981,-743.062 217.981,-755.062 217.981,-755.062 217.981,-761.062 211.981,-767.062 205.981,-767.062 205.981,-767.062 157.981,-767.062 157.981,-767.062 151.981,-767.062 145.981,-761.062 145.981,-755.062 145.981,-755.062 145.981,-743.062 145.981,-743.062 145.981,-737.062 151.981,-731.062 157.981,-731.062" fill="aliceblue" stroke="black" stroke-width="0.5"/>
<text font-family="Times New Roman,serif" font-size="11.00" text-anchor="middle" x="181.981" y="-746.262">fruiting-body</text>
</g>
<!-- plant&#45;part&#45;&#45;fruiting&#45;body -->
<g class="edge" id="edge12"><title>plant-part--fruiting-body</title>
<path d="M190.134,-500.026C188.274,-556.853 184.127,-683.521 182.579,-730.8" fill="none" stroke="black" stroke-width="0.5"/>
<polygon fill="none" points="193.635,-500.058 190.464,-489.949 186.638,-499.829 193.635,-500.058" stroke="black" stroke-width="0.5"/>
</g>
<!-- twig -->
<g class="node" id="node24"><title>twig</title>
<path d="M48.5541,-548.444C48.5541,-548.444 78.5541,-548.444 78.5541,-548.444 84.5541,-548.444 90.5541,-554.444 90.5541,-560.444 90.5541,-560.444 90.5541,-572.444 90.5541,-572.444 90.5541,-578.444 84.5541,-584.444 78.5541,-584.444 78.5541,-584.444 48.5541,-584.444 48.5541,-584.444 42.5541,-584.444 36.5541,-578.444 36.5541,-572.444 36.5541,-572.444 36.5541,-560.444 36.5541,-560.444 36.5541,-554.444 42.5541,-548.444 48.5541,-548.444" fill="aliceblue" stroke="black" stroke-width="0.5"/>
<text font-family="Times New Roman,serif" font-size="11.00" text-anchor="middle" x="63.5541" y="-563.644">twig</text>
</g>
<!-- plant&#45;part&#45;&#45;twig -->
<g class="edge" id="edge18"><title>plant-part--twig</title>
<path d="M158.729,-495.764C136.804,-512.046 108.268,-533.238 88.1809,-548.155" fill="none" stroke="black" stroke-width="0.5"/>
<polygon fill="none" points="160.835,-498.56 166.777,-489.787 156.662,-492.94 160.835,-498.56" stroke="black" stroke-width="0.5"/>
</g>
<!-- leaf -->
<g class="node" id="node26"><title>leaf</title>
<path d="M372.418,-596.942C372.418,-596.942 402.418,-596.942 402.418,-596.942 408.418,-596.942 414.418,-602.942 414.418,-608.942 414.418,-608.942 414.418,-620.942 414.418,-620.942 414.418,-626.942 408.418,-632.942 402.418,-632.942 402.418,-632.942 372.418,-632.942 372.418,-632.942 366.418,-632.942 360.418,-626.942 360.418,-620.942 360.418,-620.942 360.418,-608.942 360.418,-608.942 360.418,-602.942 366.418,-596.942 372.418,-596.942" fill="aliceblue" stroke="black" stroke-width="0.5"/>
<text font-family="Times New Roman,serif" font-size="11.00" text-anchor="middle" x="387.418" y="-612.142">leaf</text>
</g>
<!-- plant&#45;part&#45;&#45;leaf -->
<g class="edge" id="edge21"><title>plant-part--leaf</title>
<path d="M224.347,-496.028C263.431,-524.529 327.364,-571.149 362.442,-596.729" fill="none" stroke="black" stroke-width="0.5"/>
<polygon fill="none" points="226.071,-492.953 215.929,-489.889 221.946,-498.609 226.071,-492.953" stroke="black" stroke-width="0.5"/>
</g>
<!-- Branch&#45;03 -->
<g class="node" id="node30"><title>Branch-03</title>
<path d="M226.203,-295.387C226.203,-295.387 265.203,-295.387 265.203,-295.387 271.203,-295.387 277.203,-301.387 277.203,-307.387 277.203,-307.387 277.203,-319.387 277.203,-319.387 277.203,-325.387 271.203,-331.387 265.203,-331.387 265.203,-331.387 226.203,-331.387 226.203,-331.387 220.203,-331.387 214.203,-325.387 214.203,-319.387 214.203,-319.387 214.203,-307.387 214.203,-307.387 214.203,-301.387 220.203,-295.387 226.203,-295.387" fill="whitesmoke" stroke="black" stroke-width="0.5"/>
<text font-family="Times New Roman,serif" font-size="11.00" text-anchor="middle" x="245.703" y="-310.587">Branch-03</text>
</g>
<!-- branch&#45;&#45;Branch&#45;03 -->
<g class="edge" id="edge28"><title>branch--Branch-03</title>
<path d="M270.531,-371.42C264.939,-358.35 258.42,-343.112 253.466,-331.531" fill="none" stroke="black" stroke-dasharray="5,2" stroke-width="0.5"/>
<polygon fill="none" points="267.434,-373.079 274.585,-380.896 273.869,-370.325 267.434,-373.079" stroke="black" stroke-width="0.5"/>
</g>
<!-- Branch&#45;01 -->
<g class="node" id="node31"><title>Branch-01</title>
<path d="M414.341,-466.222C414.341,-466.222 453.341,-466.222 453.341,-466.222 459.341,-466.222 465.341,-472.222 465.341,-478.222 465.341,-478.222 465.341,-490.222 465.341,-490.222 465.341,-496.222 459.341,-502.222 453.341,-502.222 453.341,-502.222 414.341,-502.222 414.341,-502.222 408.341,-502.222 402.341,-496.222 402.341,-490.222 402.341,-490.222 402.341,-478.222 402.341,-478.222 402.341,-472.222 408.341,-466.222 414.341,-466.222" fill="whitesmoke" stroke="black" stroke-width="0.5"/>
<text font-family="Times New Roman,serif" font-size="11.00" text-anchor="middle" x="433.841" y="-481.422">Branch-01</text>
</g>
<!-- branch&#45;&#45;Branch&#45;01 -->
<g class="edge" id="edge29"><title>branch--Branch-01</title>
<path d="M318.43,-419.344C343.947,-433.688 377.832,-452.737 402.278,-466.479" fill="none" stroke="black" stroke-dasharray="5,2" stroke-width="0.5"/>
<polygon fill="none" points="319.873,-416.14 309.44,-414.291 316.442,-422.242 319.873,-416.14" stroke="black" stroke-width="0.5"/>
</g>
<!-- Branch&#45;02 -->
<g class="node" id="node32"><title>Branch-02</title>
<path d="M420.726,-404.214C420.726,-404.214 459.726,-404.214 459.726,-404.214 465.726,-404.214 471.726,-410.214 471.726,-416.214 471.726,-416.214 471.726,-428.214 471.726,-428.214 471.726,-434.214 465.726,-440.214 459.726,-440.214 459.726,-440.214 420.726,-440.214 420.726,-440.214 414.726,-440.214 408.726,-434.214 408.726,-428.214 408.726,-428.214 408.726,-416.214 408.726,-416.214 408.726,-410.214 414.726,-404.214 420.726,-404.214" fill="whitesmoke" stroke="black" stroke-width="0.5"/>
<text font-family="Times New Roman,serif" font-size="11.00" text-anchor="middle" x="440.226" y="-419.414">Branch-02</text>
</g>
<!-- branch&#45;&#45;Branch&#45;02 -->
<g class="edge" id="edge30"><title>branch--Branch-02</title>
<path d="M319.739,-404.548C346.784,-408.513 382.931,-413.813 408.558,-417.571" fill="none" stroke="black" stroke-dasharray="5,2" stroke-width="0.5"/>
<polygon fill="none" points="319.899,-401.034 309.497,-403.046 318.883,-407.96 319.899,-401.034" stroke="black" stroke-width="0.5"/>
</g>
<!-- parsnip -->
<g class="node" id="node8"><title>parsnip</title>
<path d="M12.0076,-199.277C12.0076,-199.277 42.0076,-199.277 42.0076,-199.277 48.0076,-199.277 54.0076,-205.277 54.0076,-211.277 54.0076,-211.277 54.0076,-223.277 54.0076,-223.277 54.0076,-229.277 48.0076,-235.277 42.0076,-235.277 42.0076,-235.277 12.0076,-235.277 12.0076,-235.277 6.00764,-235.277 0.00764154,-229.277 0.00764154,-223.277 0.00764154,-223.277 0.00764154,-211.277 0.00764154,-211.277 0.00764154,-205.277 6.00764,-199.277 12.0076,-199.277" fill="aliceblue" stroke="black" stroke-width="0.5"/>
<text font-family="Times New Roman,serif" font-size="11.00" text-anchor="middle" x="27.0076" y="-214.477">parsnip</text>
</g>
<!-- root&#45;&#45;parsnip -->
<g class="edge" id="edge6"><title>root--parsnip</title>
<path d="M116.991,-348.09C95.0341,-316.17 58.6923,-263.339 39.6055,-235.591" fill="none" stroke="black" stroke-width="0.5"/>
<polygon fill="none" points="114.225,-350.245 122.776,-356.501 119.993,-346.278 114.225,-350.245" stroke="black" stroke-width="0.5"/>
</g>
<!-- palm&#45;tree -->
<g class="node" id="node11"><title>palm-tree</title>
<path d="M470.509,-36.5175C470.509,-36.5175 505.509,-36.5175 505.509,-36.5175 511.509,-36.5175 517.509,-42.5175 517.509,-48.5175 517.509,-48.5175 517.509,-60.5175 517.509,-60.5175 517.509,-66.5175 511.509,-72.5175 505.509,-72.5175 505.509,-72.5175 470.509,-72.5175 470.509,-72.5175 464.509,-72.5175 458.509,-66.5175 458.509,-60.5175 458.509,-60.5175 458.509,-48.5175 458.509,-48.5175 458.509,-42.5175 464.509,-36.5175 470.509,-36.5175" fill="aliceblue" stroke="black" stroke-width="0.5"/>
<text font-family="Times New Roman,serif" font-size="11.00" text-anchor="middle" x="488.009" y="-51.7175">palm-tree</text>
</g>
<!-- plant -->
<g class="node" id="node12"><title>plant</title>
<path d="M433.701,-143.586C433.701,-143.586 463.701,-143.586 463.701,-143.586 469.701,-143.586 475.701,-149.586 475.701,-155.586 475.701,-155.586 475.701,-167.586 475.701,-167.586 475.701,-173.586 469.701,-179.586 463.701,-179.586 463.701,-179.586 433.701,-179.586 433.701,-179.586 427.701,-179.586 421.701,-173.586 421.701,-167.586 421.701,-167.586 421.701,-155.586 421.701,-155.586 421.701,-149.586 427.701,-143.586 433.701,-143.586" fill="aliceblue" stroke="black" stroke-width="0.5"/>
<text font-family="Times New Roman,serif" font-size="11.00" text-anchor="middle" x="448.701" y="-158.786">plant</text>
</g>
<!-- plant&#45;&#45;palm&#45;tree -->
<g class="edge" id="edge8"><title>plant--palm-tree</title>
<path d="M458.84,-133.967C465.909,-114.713 475.142,-89.5649 481.308,-72.7693" fill="none" stroke="black" stroke-width="0.5"/>
<polygon fill="none" points="455.53,-132.83 455.369,-143.423 462.101,-135.242 455.53,-132.83" stroke="black" stroke-width="0.5"/>
</g>
<!-- carnivorous&#45;plant -->
<g class="node" id="node16"><title>carnivorous-plant</title>
<path d="M221.773,-98.3511C221.773,-98.3511 289.773,-98.3511 289.773,-98.3511 295.773,-98.3511 301.773,-104.351 301.773,-110.351 301.773,-110.351 301.773,-122.351 301.773,-122.351 301.773,-128.351 295.773,-134.351 289.773,-134.351 289.773,-134.351 221.773,-134.351 221.773,-134.351 215.773,-134.351 209.773,-128.351 209.773,-122.351 209.773,-122.351 209.773,-110.351 209.773,-110.351 209.773,-104.351 215.773,-98.3511 221.773,-98.3511" fill="aliceblue" stroke="black" stroke-width="0.5"/>
<text font-family="Times New Roman,serif" font-size="11.00" text-anchor="middle" x="255.773" y="-113.551">carnivorous-plant</text>
</g>
<!-- plant&#45;&#45;carnivorous&#45;plant -->
<g class="edge" id="edge11"><title>plant--carnivorous-plant</title>
<path d="M411.415,-152.844C380.137,-145.51 335.331,-135.005 301.818,-127.147" fill="none" stroke="black" stroke-width="0.5"/>
<polygon fill="none" points="410.933,-156.326 421.468,-155.201 412.531,-149.51 410.933,-156.326" stroke="black" stroke-width="0.5"/>
</g>
<!-- tasty&#45;plant -->
<g class="node" id="node19"><title>tasty-plant</title>
<path d="M541.685,-139.021C541.685,-139.021 579.685,-139.021 579.685,-139.021 585.685,-139.021 591.685,-145.021 591.685,-151.021 591.685,-151.021 591.685,-163.021 591.685,-163.021 591.685,-169.021 585.685,-175.021 579.685,-175.021 579.685,-175.021 541.685,-175.021 541.685,-175.021 535.685,-175.021 529.685,-169.021 529.685,-163.021 529.685,-163.021 529.685,-151.021 529.685,-151.021 529.685,-145.021 535.685,-139.021 541.685,-139.021" fill="aliceblue" stroke="black" stroke-width="0.5"/>
<text font-family="Times New Roman,serif" font-size="11.00" text-anchor="middle" x="560.685" y="-154.221">tasty-plant</text>
</g>
<!-- plant&#45;&#45;tasty&#45;plant -->
<g class="edge" id="edge14"><title>plant--tasty-plant</title>
<path d="M486.15,-160.059C500.212,-159.486 516.032,-158.841 529.468,-158.294" fill="none" stroke="black" stroke-width="0.5"/>
<polygon fill="none" points="485.658,-156.576 475.809,-160.481 485.943,-163.571 485.658,-156.576" stroke="black" stroke-width="0.5"/>
</g>
<!-- grass -->
<g class="node" id="node20"><title>grass</title>
<path d="M363.648,-0.225117C363.648,-0.225117 393.648,-0.225117 393.648,-0.225117 399.648,-0.225117 405.648,-6.22512 405.648,-12.2251 405.648,-12.2251 405.648,-24.2251 405.648,-24.2251 405.648,-30.2251 399.648,-36.2251 393.648,-36.2251 393.648,-36.2251 363.648,-36.2251 363.648,-36.2251 357.648,-36.2251 351.648,-30.2251 351.648,-24.2251 351.648,-24.2251 351.648,-12.2251 351.648,-12.2251 351.648,-6.22512 357.648,-0.225117 363.648,-0.225117" fill="aliceblue" stroke="black" stroke-width="0.5"/>
<text font-family="Times New Roman,serif" font-size="11.00" text-anchor="middle" x="378.648" y="-15.4251">grass</text>
</g>
<!-- plant&#45;&#45;grass -->
<g class="edge" id="edge15"><title>plant--grass</title>
<path d="M435.377,-134.319C421.303,-105.518 399.516,-60.9309 387.448,-36.2344" fill="none" stroke="black" stroke-width="0.5"/>
<polygon fill="none" points="432.293,-135.981 439.828,-143.429 438.583,-132.908 432.293,-135.981" stroke="black" stroke-width="0.5"/>
</g>
<!-- tree -->
<g class="node" id="node25"><title>tree</title>
<path d="M500.457,-250.839C500.457,-250.839 530.457,-250.839 530.457,-250.839 536.457,-250.839 542.457,-256.839 542.457,-262.839 542.457,-262.839 542.457,-274.839 542.457,-274.839 542.457,-280.839 536.457,-286.839 530.457,-286.839 530.457,-286.839 500.457,-286.839 500.457,-286.839 494.457,-286.839 488.457,-280.839 488.457,-274.839 488.457,-274.839 488.457,-262.839 488.457,-262.839 488.457,-256.839 494.457,-250.839 500.457,-250.839" fill="aliceblue" stroke="black" stroke-width="0.5"/>
<text font-family="Times New Roman,serif" font-size="11.00" text-anchor="middle" x="515.457" y="-266.039">tree</text>
</g>
<!-- plant&#45;&#45;tree -->
<g class="edge" id="edge20"><title>plant--tree</title>
<path d="M465.427,-188.459C477.493,-207.844 493.461,-233.5 504.077,-250.556" fill="none" stroke="black" stroke-width="0.5"/>
<polygon fill="none" points="468.281,-186.42 460.025,-179.78 462.338,-190.119 468.281,-186.42" stroke="black" stroke-width="0.5"/>
</g>
<!-- elephant -->
<g class="node" id="node14"><title>elephant</title>
<path d="M659.039,-485.921C659.039,-485.921 689.039,-485.921 689.039,-485.921 695.039,-485.921 701.039,-491.921 701.039,-497.921 701.039,-497.921 701.039,-509.921 701.039,-509.921 701.039,-515.921 695.039,-521.921 689.039,-521.921 689.039,-521.921 659.039,-521.921 659.039,-521.921 653.039,-521.921 647.039,-515.921 647.039,-509.921 647.039,-509.921 647.039,-497.921 647.039,-497.921 647.039,-491.921 653.039,-485.921 659.039,-485.921" fill="aliceblue" stroke="black" stroke-width="0.5"/>
<text font-family="Times New Roman,serif" font-size="11.00" text-anchor="middle" x="674.039" y="-501.121">elephant</text>
</g>
<!-- herbivore&#45;&#45;elephant -->
<g class="edge" id="edge10"><title>herbivore--elephant</title>
<path d="M572.143,-664.058C596.772,-625.352 641.509,-555.044 662.536,-521.999" fill="none" stroke="black" stroke-width="0.5"/>
<polygon fill="none" points="569.046,-662.406 566.63,-672.722 574.952,-666.164 569.046,-662.406" stroke="black" stroke-width="0.5"/>
</g>
<!-- Sophie&#45;01 -->
<g class="node" id="node35"><title>Sophie-01</title>
<path d="M676.563,-592.935C676.563,-592.935 712.563,-592.935 712.563,-592.935 718.563,-592.935 724.563,-598.935 724.563,-604.935 724.563,-604.935 724.563,-616.935 724.563,-616.935 724.563,-622.935 718.563,-628.935 712.563,-628.935 712.563,-628.935 676.563,-628.935 676.563,-628.935 670.563,-628.935 664.563,-622.935 664.563,-616.935 664.563,-616.935 664.563,-604.935 664.563,-604.935 664.563,-598.935 670.563,-592.935 676.563,-592.935" fill="whitesmoke" stroke="black" stroke-width="0.5"/>
<text font-family="Times New Roman,serif" font-size="11.00" text-anchor="middle" x="694.563" y="-608.135">Sophie-01</text>
</g>
<!-- herbivore&#45;&#45;Sophie&#45;01 -->
<g class="edge" id="edge34"><title>herbivore--Sophie-01</title>
<path d="M593.174,-669.1C615.586,-656.243 643.514,-640.221 664.381,-628.25" fill="none" stroke="black" stroke-dasharray="5,2" stroke-width="0.5"/>
<polygon fill="none" points="591.189,-666.204 584.257,-674.216 594.673,-672.276 591.189,-666.204" stroke="black" stroke-width="0.5"/>
</g>
<!-- berry -->
<g class="node" id="node18"><title>berry</title>
<path d="M69.0536,-759.016C69.0536,-759.016 99.0536,-759.016 99.0536,-759.016 105.054,-759.016 111.054,-765.016 111.054,-771.016 111.054,-771.016 111.054,-783.016 111.054,-783.016 111.054,-789.016 105.054,-795.016 99.0536,-795.016 99.0536,-795.016 69.0536,-795.016 69.0536,-795.016 63.0536,-795.016 57.0536,-789.016 57.0536,-783.016 57.0536,-783.016 57.0536,-771.016 57.0536,-771.016 57.0536,-765.016 63.0536,-759.016 69.0536,-759.016" fill="aliceblue" stroke="black" stroke-width="0.5"/>
<text font-family="Times New Roman,serif" font-size="11.00" text-anchor="middle" x="84.0536" y="-774.216">berry</text>
</g>
<!-- fruiting&#45;body&#45;&#45;berry -->
<g class="edge" id="edge13"><title>fruiting-body--berry</title>
<path d="M135.964,-762.198C127.492,-764.617 118.902,-767.069 111.213,-769.264" fill="none" stroke="black" stroke-width="0.5"/>
<polygon fill="none" points="137.14,-765.503 145.795,-759.392 135.218,-758.771 137.14,-765.503" stroke="black" stroke-width="0.5"/>
</g>
<!-- apple -->
<g class="node" id="node27"><title>apple</title>
<path d="M244.825,-800.117C244.825,-800.117 274.825,-800.117 274.825,-800.117 280.825,-800.117 286.825,-806.117 286.825,-812.117 286.825,-812.117 286.825,-824.117 286.825,-824.117 286.825,-830.117 280.825,-836.117 274.825,-836.117 274.825,-836.117 244.825,-836.117 244.825,-836.117 238.825,-836.117 232.825,-830.117 232.825,-824.117 232.825,-824.117 232.825,-812.117 232.825,-812.117 232.825,-806.117 238.825,-800.117 244.825,-800.117" fill="aliceblue" stroke="black" stroke-width="0.5"/>
<text font-family="Times New Roman,serif" font-size="11.00" text-anchor="middle" x="259.825" y="-815.317">apple</text>
</g>
<!-- fruiting&#45;body&#45;&#45;apple -->
<g class="edge" id="edge24"><title>fruiting-body--apple</title>
<path d="M209.992,-773.911C219.748,-782.565 230.498,-792.102 239.509,-800.095" fill="none" stroke="black" stroke-width="0.5"/>
<polygon fill="none" points="212.237,-771.224 202.434,-767.206 207.592,-776.46 212.237,-771.224" stroke="black" stroke-width="0.5"/>
</g>
<!-- giraffe&#45;&#45;Sophie&#45;01 -->
<g class="edge" id="edge33"><title>giraffe--Sophie-01</title>
<path d="M681.754,-732.939C684.945,-702.539 689.943,-654.942 692.656,-629.102" fill="none" stroke="black" stroke-dasharray="5,2" stroke-width="0.5"/>
<polygon fill="none" points="678.27,-732.6 680.707,-742.911 685.232,-733.331 678.27,-732.6" stroke="black" stroke-width="0.5"/>
</g>
<!-- lion -->
<g class="node" id="node22"><title>lion</title>
<path d="M851.762,-553.949C851.762,-553.949 881.762,-553.949 881.762,-553.949 887.762,-553.949 893.762,-559.949 893.762,-565.949 893.762,-565.949 893.762,-577.949 893.762,-577.949 893.762,-583.949 887.762,-589.949 881.762,-589.949 881.762,-589.949 851.762,-589.949 851.762,-589.949 845.762,-589.949 839.762,-583.949 839.762,-577.949 839.762,-577.949 839.762,-565.949 839.762,-565.949 839.762,-559.949 845.762,-553.949 851.762,-553.949" fill="aliceblue" stroke="black" stroke-width="0.5"/>
<text font-family="Times New Roman,serif" font-size="11.00" text-anchor="middle" x="866.762" y="-569.149">lion</text>
</g>
<!-- Leo&#45;01 -->
<g class="node" id="node36"><title>Leo-01</title>
<path d="M848.04,-695.727C848.04,-695.727 878.04,-695.727 878.04,-695.727 884.04,-695.727 890.04,-701.727 890.04,-707.727 890.04,-707.727 890.04,-719.727 890.04,-719.727 890.04,-725.727 884.04,-731.727 878.04,-731.727 878.04,-731.727 848.04,-731.727 848.04,-731.727 842.04,-731.727 836.04,-725.727 836.04,-719.727 836.04,-719.727 836.04,-707.727 836.04,-707.727 836.04,-701.727 842.04,-695.727 848.04,-695.727" fill="whitesmoke" stroke="black" stroke-width="0.5"/>
<text font-family="Times New Roman,serif" font-size="11.00" text-anchor="middle" x="863.04" y="-710.927">Leo-01</text>
</g>
<!-- lion&#45;&#45;Leo&#45;01 -->
<g class="edge" id="edge35"><title>lion--Leo-01</title>
<path d="M866.018,-600.29C865.274,-628.656 864.15,-671.449 863.517,-695.552" fill="none" stroke="black" stroke-dasharray="5,2" stroke-width="0.5"/>
<polygon fill="none" points="869.52,-600.282 866.283,-590.194 862.522,-600.098 869.52,-600.282" stroke="black" stroke-width="0.5"/>
</g>
<!-- carnivore&#45;&#45;lion -->
<g class="edge" id="edge17"><title>carnivore--lion</title>
<path d="M786.847,-730.198C806.213,-691.849 841.047,-622.87 857.577,-590.138" fill="none" stroke="black" stroke-width="0.5"/>
<polygon fill="none" points="783.66,-728.743 782.277,-739.247 789.909,-731.899 783.66,-728.743" stroke="black" stroke-width="0.5"/>
</g>
<!-- Mary&#45;01 -->
<g class="node" id="node33"><title>Mary-01</title>
<path d="M514.626,-417.859C514.626,-417.859 545.626,-417.859 545.626,-417.859 551.626,-417.859 557.626,-423.859 557.626,-429.859 557.626,-429.859 557.626,-441.859 557.626,-441.859 557.626,-447.859 551.626,-453.859 545.626,-453.859 545.626,-453.859 514.626,-453.859 514.626,-453.859 508.626,-453.859 502.626,-447.859 502.626,-441.859 502.626,-441.859 502.626,-429.859 502.626,-429.859 502.626,-423.859 508.626,-417.859 514.626,-417.859" fill="whitesmoke" stroke="black" stroke-width="0.5"/>
<text font-family="Times New Roman,serif" font-size="11.00" text-anchor="middle" x="530.126" y="-433.059">Mary-01</text>
</g>
<!-- tree&#45;&#45;Mary&#45;01 -->
<g class="edge" id="edge31"><title>tree--Mary-01</title>
<path d="M517.962,-297.361C520.987,-331.804 525.985,-388.714 528.53,-417.689" fill="none" stroke="black" stroke-dasharray="5,2" stroke-width="0.5"/>
<polygon fill="none" points="521.416,-296.687 517.055,-287.031 514.443,-297.299 521.416,-296.687" stroke="black" stroke-width="0.5"/>
</g>
<!-- Leaf&#45;01 -->
<g class="node" id="node34"><title>Leaf-01</title>
<path d="M483.336,-518.979C483.336,-518.979 513.336,-518.979 513.336,-518.979 519.336,-518.979 525.336,-524.979 525.336,-530.979 525.336,-530.979 525.336,-542.979 525.336,-542.979 525.336,-548.979 519.336,-554.979 513.336,-554.979 513.336,-554.979 483.336,-554.979 483.336,-554.979 477.336,-554.979 471.336,-548.979 471.336,-542.979 471.336,-542.979 471.336,-530.979 471.336,-530.979 471.336,-524.979 477.336,-518.979 483.336,-518.979" fill="whitesmoke" stroke="black" stroke-width="0.5"/>
<text font-family="Times New Roman,serif" font-size="11.00" text-anchor="middle" x="498.336" y="-534.179">Leaf-01</text>
</g>
<!-- leaf&#45;&#45;Leaf&#45;01 -->
<g class="edge" id="edge32"><title>leaf--Leaf-01</title>
<path d="M421.411,-591.048C437.81,-579.522 457.17,-565.914 472.365,-555.233" fill="none" stroke="black" stroke-dasharray="5,2" stroke-width="0.5"/>
<polygon fill="none" points="419.312,-588.246 413.144,-596.86 423.337,-593.973 419.312,-588.246" stroke="black" stroke-width="0.5"/>
</g>
<!-- herb -->
<g class="node" id="node29"><title>herb</title>
<path d="M315.727,-293.259C315.727,-293.259 345.727,-293.259 345.727,-293.259 351.727,-293.259 357.727,-299.259 357.727,-305.259 357.727,-305.259 357.727,-317.259 357.727,-317.259 357.727,-323.259 351.727,-329.259 345.727,-329.259 345.727,-329.259 315.727,-329.259 315.727,-329.259 309.727,-329.259 303.727,-323.259 303.727,-317.259 303.727,-317.259 303.727,-305.259 303.727,-305.259 303.727,-299.259 309.727,-293.259 315.727,-293.259" fill="aliceblue" stroke="black" stroke-width="0.5"/>
<text font-family="Times New Roman,serif" font-size="11.00" text-anchor="middle" x="330.727" y="-308.459">herb</text>
</g>
<!-- herb&#45;&#45;plant&#45;part -->
<g class="edge" id="edge27"><title>herb--plant-part</title>
<path d="M297.754,-335.654C282.914,-347.493 265.724,-362.47 252.158,-377.867 230.945,-401.943 211.696,-433.986 200.691,-453.725" fill="none" stroke="black" stroke-width="0.5"/>
<polygon fill="none" points="300.004,-338.337 305.719,-329.416 295.688,-332.826 300.004,-338.337" stroke="black" stroke-width="0.5"/>
</g>
<!-- herb&#45;&#45;plant -->
<g class="edge" id="edge26"><title>herb--plant</title>
<path d="M351.25,-285.221C375.051,-255.025 413.664,-206.036 434.42,-179.704" fill="none" stroke="black" stroke-width="0.5"/>
<polygon fill="none" points="348.399,-283.185 344.957,-293.205 353.896,-287.518 348.399,-283.185" stroke="black" stroke-width="0.5"/>
</g>
<!-- Branch&#45;01&#45;&#45;Branch&#45;02 -->
<g class="edge" id="edge36"><title>Branch-01--Branch-02</title>
<path d="M442.032,-465.923C442.926,-461.143 443.618,-455.875 444.046,-450.702" fill="none" stroke="black" stroke-width="0.5"/>
<polygon fill="black" points="444.536,-440.401 448.555,-450.603 444.298,-445.395 444.061,-450.389 444.061,-450.389 444.061,-450.389 444.298,-445.395 439.566,-450.175 444.536,-440.401 444.536,-440.401" stroke="black" stroke-width="0.5"/>
<text font-family="Times New Roman,serif" font-size="11.00" text-anchor="middle" x="425.326" y="-444.331">has-part</text>
</g>
<!-- Branch&#45;01&#45;&#45;Mary&#45;01 -->
<g class="edge" id="edge37"><title>Branch-01--Mary-01</title>
<path d="M465.533,-475.292C476.158,-470.596 487.991,-464.748 498.603,-458.968" fill="none" stroke="black" stroke-width="0.5"/>
<polygon fill="black" points="507.553,-453.936 501.041,-462.759 503.194,-456.386 498.836,-458.837 498.836,-458.837 498.836,-458.837 503.194,-456.386 496.631,-454.914 507.553,-453.936 507.553,-453.936" stroke="black" stroke-width="0.5"/>
<text font-family="Times New Roman,serif" font-size="11.00" text-anchor="middle" x="507.302" y="-468.369">is-part-of</text>
</g>
<!-- Branch&#45;01&#45;&#45;Leaf&#45;01 -->
<g class="edge" id="edge38"><title>Branch-01--Leaf-01</title>
<path d="M446.658,-502.443C451.495,-507.107 457.229,-512.124 463.095,-516.867" fill="none" stroke="black" stroke-width="0.5"/>
<polygon fill="black" points="471.103,-523.105 460.449,-520.509 467.159,-520.032 463.214,-516.959 463.214,-516.959 463.214,-516.959 467.159,-520.032 465.98,-513.409 471.103,-523.105 471.103,-523.105" stroke="black" stroke-width="0.5"/>
<text font-family="Times New Roman,serif" font-size="11.00" text-anchor="middle" x="439.963" y="-516.241">has-part</text>
</g>
<!-- Branch&#45;02&#45;&#45;Branch&#45;01 -->
<g class="edge" id="edge39"><title>Branch-02--Branch-01</title>
<path d="M432.035,-440.513C431.14,-445.293 430.449,-450.561 430.021,-455.734" fill="none" stroke="black" stroke-width="0.5"/>
<polygon fill="black" points="429.53,-466.035 425.511,-455.833 429.768,-461.041 430.006,-456.047 430.006,-456.047 430.006,-456.047 429.768,-461.041 434.501,-456.261 429.53,-466.035 429.53,-466.035" stroke="black" stroke-width="0.5"/>
<text font-family="Times New Roman,serif" font-size="11.00" text-anchor="middle" x="409.741" y="-456.505">is-part-of</text>
</g>
<!-- Branch&#45;02&#45;&#45;Mary&#45;01 -->
<g class="edge" id="edge40"><title>Branch-02--Mary-01</title>
<path d="M471.957,-433.628C478.509,-434.876 485.472,-435.976 492.218,-436.835" fill="none" stroke="black" stroke-width="0.5"/>
<polygon fill="black" points="502.55,-437.97 492.118,-441.351 497.58,-437.424 492.61,-436.878 492.61,-436.878 492.61,-436.878 497.58,-437.424 493.101,-432.405 502.55,-437.97 502.55,-437.97" stroke="black" stroke-width="0.5"/>
<text font-family="Times New Roman,serif" font-size="11.00" text-anchor="middle" x="466.947" y="-439.392">is-part-of</text>
</g>
<!-- Branch&#45;02&#45;&#45;Leaf&#45;01 -->
<g class="edge" id="edge41"><title>Branch-02--Leaf-01</title>
<path d="M454.135,-440.389C459.042,-447.261 464.373,-455.296 468.541,-463.022 476.464,-477.708 483.532,-494.966 488.79,-509.105" fill="none" stroke="black" stroke-width="0.5"/>
<polygon fill="black" points="492.285,-518.768 484.652,-510.895 490.585,-514.066 488.884,-509.365 488.884,-509.365 488.884,-509.365 490.585,-514.066 493.116,-507.834 492.285,-518.768 492.285,-518.768" stroke="black" stroke-width="0.5"/>
<text font-family="Times New Roman,serif" font-size="11.00" text-anchor="middle" x="494.531" y="-481.308">has-part</text>
</g>
<!-- Mary&#45;01&#45;&#45;Branch&#45;01 -->
<g class="edge" id="edge42"><title>Mary-01--Branch-01</title>
<path d="M502.384,-443.073C490.753,-448.034 477.185,-454.667 465.196,-461.205" fill="none" stroke="black" stroke-width="0.5"/>
<polygon fill="black" points="456.394,-466.156 462.903,-457.331 460.752,-463.705 465.11,-461.253 465.11,-461.253 465.11,-461.253 460.752,-463.705 467.316,-465.175 456.394,-466.156 456.394,-466.156" stroke="black" stroke-width="0.5"/>
<text font-family="Times New Roman,serif" font-size="11.00" text-anchor="middle" x="460.367" y="-457.252">has-part</text>
</g>
<!-- Mary&#45;01&#45;&#45;Branch&#45;02 -->
<g class="edge" id="edge43"><title>Mary-01--Branch-02</title>
<path d="M502.14,-425.184C495.856,-423.901 489.054,-422.742 482.337,-421.801" fill="none" stroke="black" stroke-width="0.5"/>
<polygon fill="black" points="471.938,-420.513 482.416,-417.276 476.9,-421.127 481.862,-421.742 481.862,-421.742 481.862,-421.742 476.9,-421.127 481.309,-426.208 471.938,-420.513 471.938,-420.513" stroke="black" stroke-width="0.5"/>
<text font-family="Times New Roman,serif" font-size="11.00" text-anchor="middle" x="486.751" y="-413.649">has-part</text>
</g>
<!-- Mary&#45;01&#45;&#45;Leaf&#45;01 -->
<g class="edge" id="edge44"><title>Mary-01--Leaf-01</title>
<path d="M518.595,-454.186C512.281,-469.381 505.237,-491.212 500.931,-508.65" fill="none" stroke="black" stroke-width="0.5"/>
<polygon fill="black" points="498.635,-518.842 496.443,-508.097 499.734,-513.964 500.833,-509.086 500.833,-509.086 500.833,-509.086 499.734,-513.964 505.223,-510.075 498.635,-518.842 498.635,-518.842" stroke="black" stroke-width="0.5"/>
<text font-family="Times New Roman,serif" font-size="11.00" text-anchor="middle" x="525.663" y="-489.612">has-part</text>
</g>
<!-- Leaf&#45;01&#45;&#45;Branch&#45;01 -->
<g class="edge" id="edge45"><title>Leaf-01--Branch-01</title>
<path d="M485.518,-518.758C481.862,-515.232 477.691,-511.503 473.339,-507.845" fill="none" stroke="black" stroke-width="0.5"/>
<polygon fill="black" points="465.381,-501.392 475.982,-504.194 469.265,-504.541 473.149,-507.69 473.149,-507.69 473.149,-507.69 469.265,-504.541 470.315,-511.186 465.381,-501.392 465.381,-501.392" stroke="black" stroke-width="0.5"/>
<text font-family="Times New Roman,serif" font-size="11.00" text-anchor="middle" x="486.016" y="-501.108">is-part-of</text>
</g>
<!-- Leaf&#45;01&#45;&#45;Branch&#45;02 -->
<g class="edge" id="edge46"><title>Leaf-01--Branch-02</title>
<path d="M494.107,-518.933C489.333,-499.334 481.448,-469.381 475.583,-459.222 473.982,-456.45 470.479,-452.304 466.273,-447.779" fill="none" stroke="black" stroke-width="0.5"/>
<polygon fill="black" points="459.258,-440.5 469.438,-444.578 462.728,-444.101 466.198,-447.701 466.198,-447.701 466.198,-447.701 462.728,-444.101 462.957,-450.823 459.258,-440.5 459.258,-440.5" stroke="black" stroke-width="0.5"/>
<text font-family="Times New Roman,serif" font-size="11.00" text-anchor="middle" x="503.185" y="-480.369">is-part-of</text>
</g>
<!-- Leaf&#45;01&#45;&#45;Mary&#45;01 -->
<g class="edge" id="edge47"><title>Leaf-01--Mary-01</title>
<path d="M509.867,-518.652C516.181,-503.458 523.225,-481.626 527.531,-464.188" fill="none" stroke="black" stroke-width="0.5"/>
<polygon fill="black" points="529.827,-453.997 532.019,-464.741 528.728,-458.874 527.629,-463.752 527.629,-463.752 527.629,-463.752 528.728,-458.874 523.239,-462.763 529.827,-453.997 529.827,-453.997" stroke="black" stroke-width="0.5"/>
<text font-family="Times New Roman,serif" font-size="11.00" text-anchor="middle" x="541.799" y="-477.627">is-part-of</text>
</g>
<!-- Leaf&#45;01&#45;&#45;Sophie&#45;01 -->
<g class="edge" id="edge48"><title>Leaf-01--Sophie-01</title>
<path d="M525.542,-552.529C559.016,-567.503 616.089,-589.196 654.556,-601.702" fill="none" stroke="black" stroke-width="0.5"/>
<polygon fill="black" points="664.393,-604.824 653.5,-606.088 659.627,-603.311 654.861,-601.799 654.861,-601.799 654.861,-601.799 659.627,-603.311 656.222,-597.51 664.393,-604.824 664.393,-604.824" stroke="black" stroke-width="0.5"/>
<text font-family="Times New Roman,serif" font-size="11.00" text-anchor="middle" x="569.684" y="-583.517">is-eaten-by</text>
</g>
<!-- Sophie&#45;01&#45;&#45;Leaf&#45;01 -->
<g class="edge" id="edge49"><title>Sophie-01--Leaf-01</title>
<path d="M664.412,-594.078C629.709,-578.771 572.739,-557.236 535.371,-545.252" fill="none" stroke="black" stroke-width="0.5"/>
<polygon fill="black" points="525.386,-542.139 536.272,-540.82 530.159,-543.627 534.933,-545.116 534.933,-545.116 534.933,-545.116 530.159,-543.627 533.593,-549.412 525.386,-542.139 525.386,-542.139" stroke="black" stroke-width="0.5"/>
<text font-family="Times New Roman,serif" font-size="11.00" text-anchor="middle" x="585.938" y="-569.566">eats</text>
</g>
<!-- Sophie&#45;01&#45;&#45;Leo&#45;01 -->
<g class="edge" id="edge50"><title>Sophie-01--Leo-01</title>
<path d="M715.127,-629.124C742.835,-648.743 792.485,-679.31 826.584,-697.951" fill="none" stroke="black" stroke-width="0.5"/>
<polygon fill="black" points="835.758,-702.873 824.819,-702.11 831.352,-700.509 826.946,-698.145 826.946,-698.145 826.946,-698.145 831.352,-700.509 829.074,-694.179 835.758,-702.873 835.758,-702.873" stroke="black" stroke-width="0.5"/>
<text font-family="Times New Roman,serif" font-size="11.00" text-anchor="middle" x="750.115" y="-670.883">is-eaten-by</text>
</g>
<!-- Leo&#45;01&#45;&#45;Sophie&#45;01 -->
<g class="edge" id="edge51"><title>Leo-01--Sophie-01</title>
<path d="M842.476,-695.538C815.558,-676.478 767.93,-647.084 733.971,-628.333" fill="none" stroke="black" stroke-width="0.5"/>
<polygon fill="black" points="724.784,-623.344 735.72,-624.162 729.178,-625.73 733.572,-628.116 733.572,-628.116 733.572,-628.116 729.178,-625.73 731.424,-632.071 724.784,-623.344 724.784,-623.344" stroke="black" stroke-width="0.5"/>
<text font-family="Times New Roman,serif" font-size="11.00" text-anchor="middle" x="774.934" y="-649.062">eats</text>
</g>
</g>
</svg>