<svg height="1104pt" viewBox="0.00 0.00 883.00 1104.00" width="883pt" xmlns="http://www.w3.org/2000/svg" xmlns:xlink="http://www.w3.org/1999/xlink">
<g class="graph" id="graph0" transform="scale(1 1) rotate(0) translate(4 1100)">
<title>G</title>
<polygon fill="white" points="-4,4 -4,-1100 879,-1100 879,4 -4,4" stroke="none"/>
<!-- warthog -->
<g class="node" id="node1"><title>warthog</title>
<path d="M768.28,-1059.66C768.28,-1059.66 798.28,-1059.66 798.28,-1059.66 804.28,-1059.66 810.28,-1065.66 810.28,-1071.66 810.28,-1071.66 810.28,-1083.66 810.28,-1083.66 810.28,-1089.66 804.28,-1095.66 798.28,-1095.66 798.28,-1095.66 768.28,-1095.66 768.28,-1095.66 762.28,-1095.66 756.28,-1089.66 756.28,-1083.66 756.28,-1083.66 756.28,-1071.66 756.28,-1071.66 756.28,-1065.66 762.28,-1059.66 768.28,-1059.66" fill="aliceblue" stroke="black" stroke-width="0.5"/>
<text font-family="Times New Roman,serif" font-size="11.00" text-anchor="middle" x="783.28" y="-1074.86">warthog</text>
</g>
<!-- animal -->
<g class="node" id="node2"><title>animal</title>
<path d="M688.304,-882.179C688.304,-882.179 718.304,-882.179 718.304,-882.179 724.304,-882.179 730.304,-888.179 730.304,-894.179 730.304,-894.179 730.304,-906.179 730.304,-906.179 730.304,-912.179 724.304,-918.179 718.304,-918.179 718.304,-918.179 688.304,-918.179 688.304,-918.179 682.304,-918.179 676.304,-912.179 676.304,-906.179 676.304,-906.179 676.304,-894.179 676.304,-894.179 676.304,-888.179 682.304,-882.179 688.304,-882.179" fill="aliceblue" stroke="black" stroke-width="0.5"/>
<text font-family="Times New Roman,serif" font-size="11.00" text-anchor="middle" x="703.304" y="-897.379">animal</text>
</g>
<!-- animal&#45;&#45;warthog -->
<g class="edge" id="edge1"><title>animal--warthog</title>
<path d="M715.675,-927.635C732.192,-964.288 760.994,-1028.21 775.068,-1059.44" fill="none" stroke="black" stroke-width="0.5"/>
<polygon fill="none" points="718.861,-926.184 711.561,-918.504 712.479,-929.059 718.861,-926.184" stroke="black" stroke-width="0.5"/>
</g>
<!-- impala -->
<g class="node" id="node3"><title>impala</title>
<path d="M611.32,-1053.98C611.32,-1053.98 641.32,-1053.98 641.32,-1053.98 647.32,-1053.98 653.32,-1059.98 653.32,-1065.98 653.32,-1065.98 653.32,-1077.98 653.32,-1077.98 653.32,-1083.98 647.32,-1089.98 641.32,-1089.98 641.32,-1089.98 611.32,-1089.98 611.32,-1089.98 605.32,-1089.98 599.32,-1083.98 599.32,-1077.98 599.32,-1077.98 599.32,-1065.98 599.32,-1065.98 599.32,-1059.98 605.32,-1053.98 611.32,-1053.98" fill="aliceblue" stroke="black" stroke-width="0.5"/>
<text font-family="Times New Roman,serif" font-size="11.00" text-anchor="middle" x="626.32" y="-1069.18">impala</text>
</g>
<!-- animal&#45;&#45;impala -->
<g class="edge" id="edge2"><title>animal--impala</title>
<path d="M691.056,-927.512C675.181,-962.938 647.94,-1023.73 634.42,-1053.9" fill="none" stroke="black" stroke-width="0.5"/>
<polygon fill="none" points="694.315,-928.797 695.21,-918.24 687.927,-925.934 694.315,-928.797" stroke="black" stroke-width="0.5"/>
</g>
<!-- rock&#45;dassie -->
<g class="node" id="node13"><title>rock-dassie</title>
<path d="M500.515,-932.533C500.515,-932.533 543.515,-932.533 543.515,-932.533 549.515,-932.533 555.515,-938.533 555.515,-944.533 555.515,-944.533 555.515,-956.533 555.515,-956.533 555.515,-962.533 549.515,-968.533 543.515,-968.533 543.515,-968.533 500.515,-968.533 500.515,-968.533 494.515,-968.533 488.515,-962.533 488.515,-956.533 488.515,-956.533 488.515,-944.533 488.515,-944.533 488.515,-938.533 494.515,-932.533 500.515,-932.533" fill="aliceblue" stroke="black" stroke-width="0.5"/>
<text font-family="Times New Roman,serif" font-size="11.00" text-anchor="middle" x="522.015" y="-947.733">rock-dassie</text>
</g>
<!-- animal&#45;&#45;rock&#45;dassie -->
<g class="edge" id="edge9"><title>animal--rock-dassie</title>
<path d="M666.152,-910.498C633.656,-919.524 586.879,-932.517 555.515,-941.228" fill="none" stroke="black" stroke-width="0.5"/>
<polygon fill="none" points="667.464,-913.766 676.163,-907.718 665.591,-907.022 667.464,-913.766" stroke="black" stroke-width="0.5"/>
</g>
<!-- herbivore -->
<g class="node" id="node15"><title>herbivore</title>
<path d="M602.801,-795.386C602.801,-795.386 636.801,-795.386 636.801,-795.386 642.801,-795.386 648.801,-801.386 648.801,-807.386 648.801,-807.386 648.801,-819.386 648.801,-819.386 648.801,-825.386 642.801,-831.386 636.801,-831.386 636.801,-831.386 602.801,-831.386 602.801,-831.386 596.801,-831.386 590.801,-825.386 590.801,-819.386 590.801,-819.386 590.801,-807.386 590.801,-807.386 590.801,-801.386 596.801,-795.386 602.801,-795.386" fill="aliceblue" stroke="black" stroke-width="0.5"/>
<text font-family="Times New Roman,serif" font-size="11.00" text-anchor="middle" x="619.801" y="-810.586">herbivore</text>
</g>
<!-- animal&#45;&#45;herbivore -->
<g class="edge" id="edge19"><title>animal--herbivore</title>
<path d="M678.535,-874.434C665.236,-860.611 649.165,-843.907 637.198,-831.469" fill="none" stroke="black" stroke-width="0.5"/>
<polygon fill="none" points="676.14,-876.993 685.595,-881.772 681.184,-872.14 676.14,-876.993" stroke="black" stroke-width="0.5"/>
</g>
<!-- giraffe -->
<g class="node" id="node21"><title>giraffe</title>
<path d="M695.056,-765.284C695.056,-765.284 725.056,-765.284 725.056,-765.284 731.056,-765.284 737.056,-771.284 737.056,-777.284 737.056,-777.284 737.056,-789.284 737.056,-789.284 737.056,-795.284 731.056,-801.284 725.056,-801.284 725.056,-801.284 695.056,-801.284 695.056,-801.284 689.056,-801.284 683.056,-795.284 683.056,-789.284 683.056,-789.284 683.056,-777.284 683.056,-777.284 683.056,-771.284 689.056,-765.284 695.056,-765.284" fill="aliceblue" stroke="black" stroke-width="0.5"/>
<text font-family="Times New Roman,serif" font-size="11.00" text-anchor="middle" x="710.056" y="-780.484">giraffe</text>
</g>
<!-- animal&#45;&#45;giraffe -->
<g class="edge" id="edge16"><title>animal--giraffe</title>
<path d="M704.924,-872.131C706.189,-850.22 707.911,-820.411 709.003,-801.505" fill="none" stroke="black" stroke-width="0.5"/>
<polygon fill="none" points="701.426,-871.985 704.344,-882.17 708.415,-872.389 701.426,-871.985" stroke="black" stroke-width="0.5"/>
</g>
<!-- carnivore -->
<g class="node" id="node23"><title>carnivore</title>
<path d="M777.781,-842.16C777.781,-842.16 811.781,-842.16 811.781,-842.16 817.781,-842.16 823.781,-848.16 823.781,-854.16 823.781,-854.16 823.781,-866.16 823.781,-866.16 823.781,-872.16 817.781,-878.16 811.781,-878.16 811.781,-878.16 777.781,-878.16 777.781,-878.16 771.781,-878.16 765.781,-872.16 765.781,-866.16 765.781,-866.16 765.781,-854.16 765.781,-854.16 765.781,-848.16 771.781,-842.16 777.781,-842.16" fill="aliceblue" stroke="black" stroke-width="0.5"/>
<text font-family="Times New Roman,serif" font-size="11.00" text-anchor="middle" x="794.781" y="-857.36">carnivore</text>
</g>
<!-- animal&#45;&#45;carnivore -->
<g class="edge" id="edge23"><title>animal--carnivore</title>
<path d="M740.132,-884.068C748.662,-880.336 757.623,-876.416 765.764,-872.854" fill="none" stroke="black" stroke-width="0.5"/>
<polygon fill="none" points="738.509,-880.957 730.75,-888.172 741.314,-887.371 738.509,-880.957" stroke="black" stroke-width="0.5"/>
</g>
<!-- omnivore -->
<g class="node" id="node28"><title>omnivore</title>
<path d="M819.947,-939.237C819.947,-939.237 852.947,-939.237 852.947,-939.237 858.947,-939.237 864.947,-945.237 864.947,-951.237 864.947,-951.237 864.947,-963.237 864.947,-963.237 864.947,-969.237 858.947,-975.237 852.947,-975.237 852.947,-975.237 819.947,-975.237 819.947,-975.237 813.947,-975.237 807.947,-969.237 807.947,-963.237 807.947,-963.237 807.947,-951.237 807.947,-951.237 807.947,-945.237 813.947,-939.237 819.947,-939.237" fill="aliceblue" stroke="black" stroke-width="0.5"/>
<text font-family="Times New Roman,serif" font-size="11.00" text-anchor="middle" x="836.447" y="-954.437">omnivore</text>
</g>
<!-- animal&#45;&#45;omnivore -->
<g class="edge" id="edge25"><title>animal--omnivore</title>
<path d="M739.993,-915.902C761.395,-925.074 787.996,-936.473 807.839,-944.977" fill="none" stroke="black" stroke-width="0.5"/>
<polygon fill="none" points="741.139,-912.585 730.568,-911.863 738.381,-919.019 741.139,-912.585" stroke="black" stroke-width="0.5"/>
</g>
<!-- phloem -->
<g class="node" id="node4"><title>phloem</title>
<path d="M42.498,-550.157C42.498,-550.157 72.498,-550.157 72.498,-550.157 78.498,-550.157 84.498,-556.157 84.498,-562.157 84.498,-562.157 84.498,-574.157 84.498,-574.157 84.498,-580.157 78.498,-586.157 72.498,-586.157 72.498,-586.157 42.498,-586.157 42.498,-586.157 36.498,-586.157 30.498,-580.157 30.498,-574.157 30.498,-574.157 30.498,-562.157 30.498,-562.157 30.498,-556.157 36.498,-550.157 42.498,-550.157" fill="aliceblue" stroke="black" stroke-width="0.5"/>
<text font-family="Times New Roman,serif" font-size="11.00" text-anchor="middle" x="57.498" y="-565.357">phloem</text>
</g>
<!-- plant&#45;part -->
<g class="node" id="node5"><title>plant-part</title>
<path d="M194.953,-525.091C194.953,-525.091 229.953,-525.091 229.953,-525.091 235.953,-525.091 241.953,-531.091 241.953,-537.091 241.953,-537.091 241.953,-549.091 241.953,-549.091 241.953,-555.091 235.953,-561.091 229.953,-561.091 229.953,-561.091 194.953,-561.091 194.953,-561.091 188.953,-561.091 182.953,-555.091 182.953,-549.091 182.953,-549.091 182.953,-537.091 182.953,-537.091 182.953,-531.091 188.953,-525.091 194.953,-525.091" fill="aliceblue" stroke="black" stroke-width="0.5"/>
<text font-family="Times New Roman,serif" font-size="11.00" text-anchor="middle" x="212.453" y="-540.291">plant-part</text>
</g>
<!-- plant&#45;part&#45;&#45;phloem -->
<g class="edge" id="edge3"><title>plant-part--phloem</title>
<path d="M172.802,-549.505C145.143,-553.979 108.961,-559.832 84.5646,-563.778" fill="none" stroke="black" stroke-width="0.5"/>
<polygon fill="none" points="173.63,-552.917 182.943,-547.865 172.512,-546.007 173.63,-552.917" stroke="black" stroke-width="0.5"/>
</g>
<!-- stem -->
<g class="node" id="node6"><title>stem</title>
<path d="M104.645,-502.987C104.645,-502.987 134.645,-502.987 134.645,-502.987 140.645,-502.987 146.645,-508.987 146.645,-514.987 146.645,-514.987 146.645,-526.987 146.645,-526.987 146.645,-532.987 140.645,-538.987 134.645,-538.987 134.645,-538.987 104.645,-538.987 104.645,-538.987 98.6453,-538.987 92.6453,-532.987 92.6453,-526.987 92.6453,-526.987 92.6453,-514.987 92.6453,-514.987 92.6453,-508.987 98.6453,-502.987 104.645,-502.987" fill="aliceblue" stroke="black" stroke-width="0.5"/>
<text font-family="Times New Roman,serif" font-size="11.00" text-anchor="middle" x="119.645" y="-518.187">stem</text>
</g>
<!-- plant&#45;part&#45;&#45;stem -->
<g class="edge" id="edge4"><title>plant-part--stem</title>
<path d="M173.057,-533.708C164.204,-531.6 155.003,-529.408 146.783,-527.451" fill="none" stroke="black" stroke-width="0.5"/>
<polygon fill="none" points="172.294,-537.124 182.833,-536.037 173.916,-530.315 172.294,-537.124" stroke="black" stroke-width="0.5"/>
</g>
<!-- branch -->
<g class="node" id="node7"><title>branch</title>
<path d="M268.683,-382.751C268.683,-382.751 298.683,-382.751 298.683,-382.751 304.683,-382.751 310.683,-388.751 310.683,-394.751 310.683,-394.751 310.683,-406.751 310.683,-406.751 310.683,-412.751 304.683,-418.751 298.683,-418.751 298.683,-418.751 268.683,-418.751 268.683,-418.751 262.683,-418.751 256.683,-412.751 256.683,-406.751 256.683,-406.751 256.683,-394.751 256.683,-394.751 256.683,-388.751 262.683,-382.751 268.683,-382.751" fill="aliceblue" stroke="black" stroke-width="0.5"/>
<text font-family="Times New Roman,serif" font-size="11.00" text-anchor="middle" x="283.683" y="-397.951">branch</text>
</g>
<!-- plant&#45;part&#45;&#45;branch -->
<g class="edge" id="edge5"><title>plant-part--branch</title>
<path d="M225.975,-516.071C240.197,-487.651 262.188,-443.706 274.51,-419.081" fill="none" stroke="black" stroke-width="0.5"/>
<polygon fill="none" points="222.82,-514.555 221.475,-525.064 229.08,-517.687 222.82,-514.555" stroke="black" stroke-width="0.5"/>
</g>
<!-- root -->
<g class="node" id="node9"><title>root</title>
<path d="M166.137,-397.093C166.137,-397.093 196.137,-397.093 196.137,-397.093 202.137,-397.093 208.137,-403.093 208.137,-409.093 208.137,-409.093 208.137,-421.093 208.137,-421.093 208.137,-427.093 202.137,-433.093 196.137,-433.093 196.137,-433.093 166.137,-433.093 166.137,-433.093 160.137,-433.093 154.137,-427.093 154.137,-421.093 154.137,-421.093 154.137,-409.093 154.137,-409.093 154.137,-403.093 160.137,-397.093 166.137,-397.093" fill="aliceblue" stroke="black" stroke-width="0.5"/>
<text font-family="Times New Roman,serif" font-size="11.00" text-anchor="middle" x="181.137" y="-412.293">root</text>
</g>
<!-- plant&#45;part&#45;&#45;root -->
<g class="edge" id="edge22"><title>plant-part--root</title>
<path d="M205.612,-515.127C199.547,-490.339 190.864,-454.851 185.636,-433.483" fill="none" stroke="black" stroke-width="0.5"/>
<polygon fill="none" points="202.257,-516.142 208.033,-525.024 209.056,-514.478 202.257,-516.142" stroke="black" stroke-width="0.5"/>
</g>
<!-- xylem -->
<g class="node" id="node10"><title>xylem</title>
<path d="M161.287,-581.163C161.287,-581.163 191.287,-581.163 191.287,-581.163 197.287,-581.163 203.287,-587.163 203.287,-593.163 203.287,-593.163 203.287,-605.163 203.287,-605.163 203.287,-611.163 197.287,-617.163 191.287,-617.163 191.287,-617.163 161.287,-617.163 161.287,-617.163 155.287,-617.163 149.287,-611.163 149.287,-605.163 149.287,-605.163 149.287,-593.163 149.287,-593.163 149.287,-587.163 155.287,-581.163 161.287,-581.163" fill="aliceblue" stroke="black" stroke-width="0.5"/>
<text font-family="Times New Roman,serif" font-size="11.00" text-anchor="middle" x="176.287" y="-596.363">xylem</text>
</g>
<!-- plant&#45;part&#45;&#45;xylem -->
<g class="edge" id="edge7"><title>plant-part--xylem</title>
<path d="M195.387,-569.551C192.854,-573.478 190.294,-577.446 187.908,-581.146" fill="none" stroke="black" stroke-width="0.5"/>
<polygon fill="none" points="198.332,-571.442 200.811,-561.141 192.45,-567.648 198.332,-571.442" stroke="black" stroke-width="0.5"/>
</g>
<!-- fruiting&#45;body -->
<g class="node" id="node17"><title>fruiting-body</title>
<path d="M184.161,-698.483C184.161,-698.483 232.161,-698.483 232.161,-698.483 238.161,-698.483 244.161,-704.483 244.161,-710.483 244.161,-710.483 244.161,-722.483 244.161,-722.483 244.161,-728.483 238.161,-734.483 232.161,-734.483 232.161,-734.483 184.161,-734.483 184.161,-734.483 178.161,-734.483 172.161,-728.483 172.161,-722.483 172.161,-722.483 172.161,-710.483 172.161,-710.483 172.161,-704.483 178.161,-698.483 184.161,-698.483" fill="aliceblue" stroke="black" stroke-width="0.5"/>
<text font-family="Times New Roman,serif" font-size="11.00" text-anchor="middle" x="208.161" y="-713.683">fruiting-body</text>
</g>
<!-- plant&#45;part&#45;&#45;fruiting&#45;body -->
<g class="edge" id="edge12"><title>plant-part--fruiting-body</title>
<path d="M211.748,-571.6C210.859,-607.478 209.36,-668.049 208.612,-698.239" fill="none" stroke="black" stroke-width="0.5"/>
<polygon fill="none" points="215.253,-571.403 212.002,-561.319 208.256,-571.23 215.253,-571.403" stroke="black" stroke-width="0.5"/>
</g>
<!-- twig -->
<g class="node" id="node24"><title>twig</title>
<path d="M251.147,-630.082C251.147,-630.082 281.147,-630.082 281.147,-630.082 287.147,-630.082 293.147,-636.082 293.147,-642.082 293.147,-642.082 293.147,-654.082 293.147,-654.082 293.147,-660.082 287.147,-666.082 281.147,-666.082 281.147,-666.082 251.147,-666.082 251.147,-666.082 245.147,-666.082 239.147,-660.082 239.147,-654.082 239.147,-654.082 239.147,-642.082 239.147,-642.082 239.147,-636.082 245.147,-630.082 251.147,-630.082" fill="aliceblue" stroke="black" stroke-width="0.5"/>
<text font-family="Times New Roman,serif" font-size="11.00" text-anchor="middle" x="266.147" y="-645.282">twig</text>
</g>
<!-- plant&#45;part&#45;&#45;twig -->
<g class="edge" id="edge18"><title>plant-part--twig</title>
<path d="M226.395,-570.351C236.003,-589.139 248.505,-613.586 256.901,-630.004" fill="none" stroke="black" stroke-width="0.5"/>
<polygon fill="none" points="229.476,-568.689 221.806,-561.379 223.243,-571.876 229.476,-568.689" stroke="black" stroke-width="0.5"/>
</g>
<!-- leaf -->
<g class="node" id="node26"><title>leaf</title>
<path d="M409.543,-567.27C409.543,-567.27 439.543,-567.27 439.543,-567.27 445.543,-567.27 451.543,-573.27 451.543,-579.27 451.543,-579.27 451.543,-591.27 451.543,-591.27 451.543,-597.27 445.543,-603.27 439.543,-603.27 439.543,-603.27 409.543,-603.27 409.543,-603.27 403.543,-603.27 397.543,-597.27 397.543,-591.27 397.543,-591.27 397.543,-579.27 397.543,-579.27 397.543,-573.27 403.543,-567.27 409.543,-567.27" fill="aliceblue" stroke="black" stroke-width="0.5"/>
<text font-family="Times New Roman,serif" font-size="11.00" text-anchor="middle" x="424.543" y="-582.47">leaf</text>
</g>
<!-- plant&#45;part&#45;&#45;leaf -->
<g class="edge" id="edge21"><title>plant-part--leaf</title>
<path d="M252.375,-551.03C294.792,-559.466 360.697,-572.573 397.445,-579.881" fill="none" stroke="black" stroke-width="0.5"/>
<polygon fill="none" points="252.882,-547.563 242.391,-549.045 251.516,-554.428 252.882,-547.563" stroke="black" stroke-width="0.5"/>
</g>
<!-- Branch&#45;03 -->
<g class="node" id="node30"><title>Branch-03</title>
<path d="M225.949,-283.216C225.949,-283.216 264.949,-283.216 264.949,-283.216 270.949,-283.216 276.949,-289.216 276.949,-295.216 276.949,-295.216 276.949,-307.216 276.949,-307.216 276.949,-313.216 270.949,-319.216 264.949,-319.216 264.949,-319.216 225.949,-319.216 225.949,-319.216 219.949,-319.216 213.949,-313.216 213.949,-307.216 213.949,-307.216 213.949,-295.216 213.949,-295.216 213.949,-289.216 219.949,-283.216 225.949,-283.216" fill="whitesmoke" stroke="black" stroke-width="0.5"/>
<text font-family="Times New Roman,serif" font-size="11.00" text-anchor="middle" x="245.449" y="-298.416">Branch-03</text>
</g>
<!-- branch&#45;&#45;Branch&#45;03 -->
<g class="edge" id="edge28"><title>branch--Branch-03</title>
<path d="M273.018,-372.987C266.433,-355.842 258.172,-334.336 252.418,-319.357" fill="none" stroke="black" stroke-dasharray="5,2" stroke-width="0.5"/>
<polygon fill="none" points="269.818,-374.415 276.671,-382.495 276.352,-371.905 269.818,-374.415" stroke="black" stroke-width="0.5"/>
</g>
<!-- Branch&#45;01 -->
<g class="node" id="node31"><title>Branch-01</title>
<path d="M415.374,-469.881C415.374,-469.881 454.374,-469.881 454.374,-469.881 460.374,-469.881 466.374,-475.881 466.374,-481.881 466.374,-481.881 466.374,-493.881 466.374,-493.881 466.374,-499.881 460.374,-505.881 454.374,-505.881 454.374,-505.881 415.374,-505.881 415.374,-505.881 409.374,-505.881 403.374,-499.881 403.374,-493.881 403.374,-493.881 403.374,-481.881 403.374,-481.881 403.374,-475.881 409.374,-469.881 415.374,-469.881" fill="whitesmoke" stroke="black" stroke-width="0.5"/>
<text font-family="Times New Roman,serif" font-size="11.00" text-anchor="middle" x="434.874" y="-485.081">Branch-01</text>
</g>
<!-- branch&#45;&#45;Branch&#45;01 -->
<g class="edge" id="edge29"><title>branch--Branch-01</title>
<path d="M319.685,-421.498C345.153,-436.175 378.973,-455.666 403.372,-469.727" fill="none" stroke="black" stroke-dasharray="5,2" stroke-width="0.5"/>
<polygon fill="none" points="321.125,-418.289 310.713,-416.328 317.63,-424.353 321.125,-418.289" stroke="black" stroke-width="0.5"/>
</g>
<!-- Branch&#45;02 -->
<g class="node" id="node32"><title>Branch-02</title>
<path d="M424.919,-396.211C424.919,-396.211 463.919,-396.211 463.919,-396.211 469.919,-396.211 475.919,-402.211 475.919,-408.211 475.919,-408.211 475.919,-420.211 475.919,-420.211 475.919,-426.211 469.919,-432.211 463.919,-432.211 463.919,-432.211 424.919,-432.211 424.919,-432.211 418.919,-432.211 412.919,-426.211 412.919,-420.211 412.919,-420.211 412.919,-408.211 412.919,-408.211 412.919,-402.211 418.919,-396.211 424.919,-396.211" fill="whitesmoke" stroke="black" stroke-width="0.5"/>
<text font-family="Times New Roman,serif" font-size="11.00" text-anchor="middle" x="444.419" y="-411.411">Branch-02</text>
</g>
<!-- branch&#45;&#45;Branch&#45;02 -->
<g class="edge" id="edge30"><title>branch--Branch-02</title>
<path d="M321.103,-403.884C348.953,-406.217 386.545,-409.365 412.877,-411.57" fill="none" stroke="black" stroke-dasharray="5,2" stroke-width="0.5"/>
<polygon fill="none" points="321.207,-400.381 310.95,-403.034 320.623,-407.356 321.207,-400.381" stroke="black" stroke-width="0.5"/>
</g>
<!-- parsnip -->
<g class="node" id="node8"><title>parsnip</title>
<path d="M11.6367,-293.422C11.6367,-293.422 41.6367,-293.422 41.6367,-293.422 47.6367,-293.422 53.6367,-299.422 53.6367,-305.422 53.6367,-305.422 53.6367,-317.422 53.6367,-317.422 53.6367,-323.422 47.6367,-329.422 41.6367,-329.422 41.6367,-329.422 11.6367,-329.422 11.6367,-329.422 5.63672,-329.422 -0.363275,-323.422 -0.363275,-317.422 -0.363275,-317.422 -0.363275,-305.422 -0.363275,-305.422 -0.363275,-299.422 5.63672,-293.422 11.6367,-293.422" fill="aliceblue" stroke="black" stroke-width="0.5"/>
<text font-family="Times New Roman,serif" font-size="11.00" text-anchor="middle" x="26.6367" y="-308.622">parsnip</text>
</g>
<!-- root&#45;&#45;parsnip -->
<g class="edge" id="edge6"><title>root--parsnip</title>
<path d="M145.88,-391.435C117.806,-372.597 79.1027,-346.627 53.499,-329.447" fill="none" stroke="black" stroke-width="0.5"/>
<polygon fill="none" points="143.971,-394.369 154.225,-397.035 147.872,-388.556 143.971,-394.369" stroke="black" stroke-width="0.5"/>
</g>
<!-- palm&#45;tree -->
<g class="node" id="node11"><title>palm-tree</title>
<path d="M536.414,-52.2677C536.414,-52.2677 571.414,-52.2677 571.414,-52.2677 577.414,-52.2677 583.414,-58.2677 583.414,-64.2677 583.414,-64.2677 583.414,-76.2677 583.414,-76.2677 583.414,-82.2677 577.414,-88.2677 571.414,-88.2677 571.414,-88.2677 536.414,-88.2677 536.414,-88.2677 530.414,-88.2677 524.414,-82.2677 524.414,-76.2677 524.414,-76.2677 524.414,-64.2677 524.414,-64.2677 524.414,-58.2677 530.414,-52.2677 536.414,-52.2677" fill="aliceblue" stroke="black" stroke-width="0.5"/>
<text font-family="Times New Roman,serif" font-size="11.00" text-anchor="middle" x="553.914" y="-67.4677">palm-tree</text>
</g>
<!-- plant -->
<g class="node" id="node12"><title>plant</title>
<path d="M479.554,-176.418C479.554,-176.418 509.554,-176.418 509.554,-176.418 515.554,-176.418 521.554,-182.418 521.554,-188.418 521.554,-188.418 521.554,-200.418 521.554,-200.418 521.554,-206.418 515.554,-212.418 509.554,-212.418 509.554,-212.418 479.554,-212.418 479.554,-212.418 473.554,-212.418 467.554,-206.418 467.554,-200.418 467.554,-200.418 467.554,-188.418 467.554,-188.418 467.554,-182.418 473.554,-176.418 479.554,-176.418" fill="aliceblue" stroke="black" stroke-width="0.5"/>
<text font-family="Times New Roman,serif" font-size="11.00" text-anchor="middle" x="494.554" y="-191.618">plant</text>
</g>
<!-- plant&#45;&#45;palm&#45;tree -->
<g class="edge" id="edge8"><title>plant--palm-tree</title>
<path d="M507.611,-167.111C519.059,-143.168 535.377,-109.039 545.273,-88.342" fill="none" stroke="black" stroke-width="0.5"/>
<polygon fill="none" points="504.342,-165.834 503.186,-176.365 510.657,-168.853 504.342,-165.834" stroke="black" stroke-width="0.5"/>
</g>
<!-- carnivorous&#45;plant -->
<g class="node" id="node16"><title>carnivorous-plant</title>
<path d="M275.888,-106.954C275.888,-106.954 343.888,-106.954 343.888,-106.954 349.888,-106.954 355.888,-112.954 355.888,-118.954 355.888,-118.954 355.888,-130.954 355.888,-130.954 355.888,-136.954 349.888,-142.954 343.888,-142.954 343.888,-142.954 275.888,-142.954 275.888,-142.954 269.888,-142.954 263.888,-136.954 263.888,-130.954 263.888,-130.954 263.888,-118.954 263.888,-118.954 263.888,-112.954 269.888,-106.954 275.888,-106.954" fill="aliceblue" stroke="black" stroke-width="0.5"/>
<text font-family="Times New Roman,serif" font-size="11.00" text-anchor="middle" x="309.888" y="-122.154">carnivorous-plant</text>
</g>
<!-- plant&#45;&#45;carnivorous&#45;plant -->
<g class="edge" id="edge11"><title>plant--carnivorous-plant</title>
<path d="M457.895,-180.628C428.715,-169.652 387.695,-154.222 356.238,-142.389" fill="none" stroke="black" stroke-width="0.5"/>
<polygon fill="none" points="456.714,-183.923 467.306,-184.168 459.179,-177.371 456.714,-183.923" stroke="black" stroke-width="0.5"/>
</g>
<!-- tasty&#45;plant -->
<g class="node" id="node19"><title>tasty-plant</title>
<path d="M582.508,-165.808C582.508,-165.808 620.508,-165.808 620.508,-165.808 626.508,-165.808 632.508,-171.808 632.508,-177.808 632.508,-177.808 632.508,-189.808 632.508,-189.808 632.508,-195.808 626.508,-201.808 620.508,-201.808 620.508,-201.808 582.508,-201.808 582.508,-201.808 576.508,-201.808 570.508,-195.808 570.508,-189.808 570.508,-189.808 570.508,-177.808 570.508,-177.808 570.508,-171.808 576.508,-165.808 582.508,-165.808" fill="aliceblue" stroke="black" stroke-width="0.5"/>
<text font-family="Times New Roman,serif" font-size="11.00" text-anchor="middle" x="601.508" y="-181.008">tasty-plant</text>
</g>
<!-- plant&#45;&#45;tasty&#45;plant -->
<g class="edge" id="edge14"><title>plant--tasty-plant</title>
<path d="M531.925,-190.71C544.396,-189.473 558.156,-188.108 570.124,-186.921" fill="none" stroke="black" stroke-width="0.5"/>
<polygon fill="none" points="531.426,-187.243 521.82,-191.713 532.117,-194.209 531.426,-187.243" stroke="black" stroke-width="0.5"/>
</g>
<!-- grass -->
<g class="node" id="node20"><title>grass</title>
<path d="M422.92,-0.393549C422.92,-0.393549 452.92,-0.393549 452.92,-0.393549 458.92,-0.393549 464.92,-6.39355 464.92,-12.3935 464.92,-12.3935 464.92,-24.3935 464.92,-24.3935 464.92,-30.3935 458.92,-36.3935 452.92,-36.3935 452.92,-36.3935 422.92,-36.3935 422.92,-36.3935 416.92,-36.3935 410.92,-30.3935 410.92,-24.3935 410.92,-24.3935 410.92,-12.3935 410.92,-12.3935 410.92,-6.39355 416.92,-0.393549 422.92,-0.393549" fill="aliceblue" stroke="black" stroke-width="0.5"/>
<text font-family="Times New Roman,serif" font-size="11.00" text-anchor="middle" x="437.92" y="-15.5935">grass</text>
</g>
<!-- plant&#45;&#45;grass -->
<g class="edge" id="edge15"><title>plant--grass</title>
<path d="M485.644,-166.722C473.924,-130.297 453.66,-67.3128 443.736,-36.4694" fill="none" stroke="black" stroke-width="0.5"/>
<polygon fill="none" points="482.312,-167.796 488.707,-176.243 488.976,-165.652 482.312,-167.796" stroke="black" stroke-width="0.5"/>
</g>
<!-- tree -->
<g class="node" id="node25"><title>tree</title>
<path d="M534.973,-267.078C534.973,-267.078 564.973,-267.078 564.973,-267.078 570.973,-267.078 576.973,-273.078 576.973,-279.078 576.973,-279.078 576.973,-291.078 576.973,-291.078 576.973,-297.078 570.973,-303.078 564.973,-303.078 564.973,-303.078 534.973,-303.078 534.973,-303.078 528.973,-303.078 522.973,-297.078 522.973,-291.078 522.973,-291.078 522.973,-279.078 522.973,-279.078 522.973,-273.078 528.973,-267.078 534.973,-267.078" fill="aliceblue" stroke="black" stroke-width="0.5"/>
<text font-family="Times New Roman,serif" font-size="11.00" text-anchor="middle" x="549.973" y="-282.278">tree</text>
</g>
<!-- plant&#45;&#45;tree -->
<g class="edge" id="edge20"><title>plant--tree</title>
<path d="M511.091,-221.469C520.099,-236.206 531,-254.039 538.964,-267.068" fill="none" stroke="black" stroke-width="0.5"/>
<polygon fill="none" points="513.971,-219.471 505.769,-212.764 507.999,-223.122 513.971,-219.471" stroke="black" stroke-width="0.5"/>
</g>
<!-- elephant -->
<g class="node" id="node14"><title>elephant</title>
<path d="M429.413,-774.688C429.413,-774.688 459.413,-774.688 459.413,-774.688 465.413,-774.688 471.413,-780.688 471.413,-786.688 471.413,-786.688 471.413,-798.688 471.413,-798.688 471.413,-804.688 465.413,-810.688 459.413,-810.688 459.413,-810.688 429.413,-810.688 429.413,-810.688 423.413,-810.688 417.413,-804.688 417.413,-798.688 417.413,-798.688 417.413,-786.688 417.413,-786.688 417.413,-780.688 423.413,-774.688 429.413,-774.688" fill="aliceblue" stroke="black" stroke-width="0.5"/>
<text font-family="Times New Roman,serif" font-size="11.00" text-anchor="middle" x="444.413" y="-789.888">elephant</text>
</g>
<!-- herbivore&#45;&#45;elephant -->
<g class="edge" id="edge10"><title>herbivore--elephant</title>
<path d="M580.188,-808.711C547.04,-804.799 500.626,-799.322 471.556,-795.891" fill="none" stroke="black" stroke-width="0.5"/>
<polygon fill="none" points="580.104,-812.226 590.445,-809.922 580.925,-805.274 580.104,-812.226" stroke="black" stroke-width="0.5"/>
</g>
<!-- Sophie&#45;01 -->
<g class="node" id="node35"><title>Sophie-01</title>
<path d="M597.392,-627.478C597.392,-627.478 633.392,-627.478 633.392,-627.478 639.392,-627.478 645.392,-633.478 645.392,-639.478 645.392,-639.478 645.392,-651.478 645.392,-651.478 645.392,-657.478 639.392,-663.478 633.392,-663.478 633.392,-663.478 597.392,-663.478 597.392,-663.478 591.392,-663.478 585.392,-657.478 585.392,-651.478 585.392,-651.478 585.392,-639.478 585.392,-639.478 585.392,-633.478 591.392,-627.478 597.392,-627.478" fill="whitesmoke" stroke="black" stroke-width="0.5"/>
<text font-family="Times New Roman,serif" font-size="11.00" text-anchor="middle" x="615.392" y="-642.678">Sophie-01</text>
</g>
<!-- herbivore&#45;&#45;Sophie&#45;01 -->
<g class="edge" id="edge34"><title>herbivore--Sophie-01</title>
<path d="M619.048,-784.683C618.136,-749.953 616.628,-692.532 615.865,-663.49" fill="none" stroke="black" stroke-dasharray="5,2" stroke-width="0.5"/>
<polygon fill="none" points="615.56,-785.193 619.321,-795.098 622.557,-785.009 615.56,-785.193" stroke="black" stroke-width="0.5"/>
</g>
<!-- berry -->
<g class="node" id="node18"><title>berry</title>
<path d="M41.6579,-773.207C41.6579,-773.207 71.6579,-773.207 71.6579,-773.207 77.6579,-773.207 83.6579,-779.207 83.6579,-785.207 83.6579,-785.207 83.6579,-797.207 83.6579,-797.207 83.6579,-803.207 77.6579,-809.207 71.6579,-809.207 71.6579,-809.207 41.6579,-809.207 41.6579,-809.207 35.6579,-809.207 29.6579,-803.207 29.6579,-797.207 29.6579,-797.207 29.6579,-785.207 29.6579,-785.207 29.6579,-779.207 35.6579,-773.207 41.6579,-773.207" fill="aliceblue" stroke="black" stroke-width="0.5"/>
<text font-family="Times New Roman,serif" font-size="11.00" text-anchor="middle" x="56.6579" y="-788.407">berry</text>
</g>
<!-- fruiting&#45;body&#45;&#45;berry -->
<g class="edge" id="edge13"><title>fruiting-body--berry</title>
<path d="M162.72,-738.895C137.126,-751.519 106.004,-766.869 84.1131,-777.666" fill="none" stroke="black" stroke-width="0.5"/>
<polygon fill="none" points="164.452,-741.944 171.872,-734.381 161.355,-735.666 164.452,-741.944" stroke="black" stroke-width="0.5"/>
</g>
<!-- apple -->
<g class="node" id="node27"><title>apple</title>
<path d="M246.854,-864.066C246.854,-864.066 276.854,-864.066 276.854,-864.066 282.854,-864.066 288.854,-870.066 288.854,-876.066 288.854,-876.066 288.854,-888.066 288.854,-888.066 288.854,-894.066 282.854,-900.066 276.854,-900.066 276.854,-900.066 246.854,-900.066 246.854,-900.066 240.854,-900.066 234.854,-894.066 234.854,-888.066 234.854,-888.066 234.854,-876.066 234.854,-876.066 234.854,-870.066 240.854,-864.066 246.854,-864.066" fill="aliceblue" stroke="black" stroke-width="0.5"/>
<text font-family="Times New Roman,serif" font-size="11.00" text-anchor="middle" x="261.854" y="-879.266">apple</text>
</g>
<!-- fruiting&#45;body&#45;&#45;apple -->
<g class="edge" id="edge24"><title>fruiting-body--apple</title>
<path d="M217.186,-744.317C228.244,-778.417 246.657,-835.202 256.012,-864.053" fill="none" stroke="black" stroke-width="0.5"/>
<polygon fill="none" points="220.423,-742.951 214.009,-734.519 213.764,-745.111 220.423,-742.951" stroke="black" stroke-width="0.5"/>
</g>
<!-- giraffe&#45;&#45;Sophie&#45;01 -->
<g class="edge" id="edge33"><title>giraffe--Sophie-01</title>
<path d="M691.951,-756.928C673.119,-729.513 644.143,-687.332 627.771,-663.499" fill="none" stroke="black" stroke-dasharray="5,2" stroke-width="0.5"/>
<polygon fill="none" points="689.133,-759.007 697.68,-765.268 694.903,-755.044 689.133,-759.007" stroke="black" stroke-width="0.5"/>
</g>
<!-- lion -->
<g class="node" id="node22"><title>lion</title>
<path d="M833.436,-665.287C833.436,-665.287 863.436,-665.287 863.436,-665.287 869.436,-665.287 875.436,-671.287 875.436,-677.287 875.436,-677.287 875.436,-689.287 875.436,-689.287 875.436,-695.287 869.436,-701.287 863.436,-701.287 863.436,-701.287 833.436,-701.287 833.436,-701.287 827.436,-701.287 821.436,-695.287 821.436,-689.287 821.436,-689.287 821.436,-677.287 821.436,-677.287 821.436,-671.287 827.436,-665.287 833.436,-665.287" fill="aliceblue" stroke="black" stroke-width="0.5"/>
<text font-family="Times New Roman,serif" font-size="11.00" text-anchor="middle" x="848.436" y="-680.487">lion</text>
</g>
<!-- Leo&#45;01 -->
<g class="node" id="node36"><title>Leo-01</title>
<path d="M758.86,-591.44C758.86,-591.44 788.86,-591.44 788.86,-591.44 794.86,-591.44 800.86,-597.44 800.86,-603.44 800.86,-603.44 800.86,-615.44 800.86,-615.44 800.86,-621.44 794.86,-627.44 788.86,-627.44 788.86,-627.44 758.86,-627.44 758.86,-627.44 752.86,-627.44 746.86,-621.44 746.86,-615.44 746.86,-615.44 746.86,-603.44 746.86,-603.44 746.86,-597.44 752.86,-591.44 758.86,-591.44" fill="whitesmoke" stroke="black" stroke-width="0.5"/>
<text font-family="Times New Roman,serif" font-size="11.00" text-anchor="middle" x="773.86" y="-606.64">Leo-01</text>
</g>
<!-- lion&#45;&#45;Leo&#45;01 -->
<g class="edge" id="edge35"><title>lion--Leo-01</title>
<path d="M822.607,-657.71C812.55,-647.752 801.262,-636.574 792.083,-627.485" fill="none" stroke="black" stroke-dasharray="5,2" stroke-width="0.5"/>
<polygon fill="none" points="820.433,-660.484 830.002,-665.033 825.359,-655.51 820.433,-660.484" stroke="black" stroke-width="0.5"/>
</g>
<!-- carnivore&#45;&#45;lion -->
<g class="edge" id="edge17"><title>carnivore--lion</title>
<path d="M803.365,-831.861C814.49,-795.191 833.565,-732.31 842.927,-701.45" fill="none" stroke="black" stroke-width="0.5"/>
<polygon fill="none" points="799.874,-831.313 800.321,-841.898 806.573,-833.345 799.874,-831.313" stroke="black" stroke-width="0.5"/>
</g>
<!-- Mary&#45;01 -->
<g class="node" id="node33"><title>Mary-01</title>
<path d="M506.327,-445.562C506.327,-445.562 537.327,-445.562 537.327,-445.562 543.327,-445.562 549.327,-451.562 549.327,-457.562 549.327,-457.562 549.327,-469.562 549.327,-469.562 549.327,-475.562 543.327,-481.562 537.327,-481.562 537.327,-481.562 506.327,-481.562 506.327,-481.562 500.327,-481.562 494.327,-475.562 494.327,-469.562 494.327,-469.562 494.327,-457.562 494.327,-457.562 494.327,-451.562 500.327,-445.562 506.327,-445.562" fill="whitesmoke" stroke="black" stroke-width="0.5"/>
<text font-family="Times New Roman,serif" font-size="11.00" text-anchor="middle" x="521.827" y="-460.762">Mary-01</text>
</g>
<!-- tree&#45;&#45;Mary&#45;01 -->
<g class="edge" id="edge31"><title>tree--Mary-01</title>
<path d="M545.524,-313.296C539.684,-350.323 529.603,-414.249 524.688,-445.418" fill="none" stroke="black" stroke-dasharray="5,2" stroke-width="0.5"/>
<polygon fill="none" points="549.019,-313.597 547.12,-303.174 542.105,-312.507 549.019,-313.597" stroke="black" stroke-width="0.5"/>
</g>
<!-- Leaf&#45;01 -->
<g class="node" id="node34"><title>Leaf-01</title>
<path d="M488.175,-523.382C488.175,-523.382 518.175,-523.382 518.175,-523.382 524.175,-523.382 530.175,-529.382 530.175,-535.382 530.175,-535.382 530.175,-547.382 530.175,-547.382 530.175,-553.382 524.175,-559.382 518.175,-559.382 518.175,-559.382 488.175,-559.382 488.175,-559.382 482.175,-559.382 476.175,-553.382 476.175,-547.382 476.175,-547.382 476.175,-535.382 476.175,-535.382 476.175,-529.382 482.175,-523.382 488.175,-523.382" fill="whitesmoke" stroke="black" stroke-width="0.5"/>
<text font-family="Times New Roman,serif" font-size="11.00" text-anchor="middle" x="503.175" y="-538.582">Leaf-01</text>
</g>
<!-- leaf&#45;&#45;Leaf&#45;01 -->
<g class="edge" id="edge32"><title>leaf--Leaf-01</title>
<path d="M460.346,-565.287C465.628,-562.339 470.997,-559.342 476.064,-556.514" fill="none" stroke="black" stroke-dasharray="5,2" stroke-width="0.5"/>
<polygon fill="none" points="458.63,-562.237 451.604,-570.166 462.041,-568.349 458.63,-562.237" stroke="black" stroke-width="0.5"/>
</g>
<!-- herb -->
<g class="node" id="node29"><title>herb</title>
<path d="M315.843,-279.342C315.843,-279.342 345.843,-279.342 345.843,-279.342 351.843,-279.342 357.843,-285.342 357.843,-291.342 357.843,-291.342 357.843,-303.342 357.843,-303.342 357.843,-309.342 351.843,-315.342 345.843,-315.342 345.843,-315.342 315.843,-315.342 315.843,-315.342 309.843,-315.342 303.843,-309.342 303.843,-303.342 303.843,-303.342 303.843,-291.342 303.843,-291.342 303.843,-285.342 309.843,-279.342 315.843,-279.342" fill="aliceblue" stroke="black" stroke-width="0.5"/>
<text font-family="Times New Roman,serif" font-size="11.00" text-anchor="middle" x="330.843" y="-294.542">herb</text>
</g>
<!-- herb&#45;&#45;plant&#45;part -->
<g class="edge" id="edge27"><title>herb--plant-part</title>
<path d="M300.549,-322.532C284.355,-337.526 265.362,-357.829 253.483,-379.551 227.08,-427.835 217.329,-493.4 214.011,-524.825" fill="none" stroke="black" stroke-width="0.5"/>
<polygon fill="none" points="303.141,-324.907 308.23,-315.615 298.457,-319.706 303.141,-324.907" stroke="black" stroke-width="0.5"/>
</g>
<!-- herb&#45;&#45;plant -->
<g class="edge" id="edge26"><title>herb--plant</title>
<path d="M366.476,-274.94C396.85,-255.844 439.858,-228.805 467.481,-211.439" fill="none" stroke="black" stroke-width="0.5"/>
<polygon fill="none" points="364.48,-272.061 357.877,-280.347 368.205,-277.987 364.48,-272.061" stroke="black" stroke-width="0.5"/>
</g>
<!-- Branch&#45;01&#45;&#45;Branch&#45;02 -->
<g class="edge" id="edge36"><title>Branch-01--Branch-02</title>
<path d="M443.27,-469.679C445.102,-461.504 446.566,-451.668 447.354,-442.563" fill="none" stroke="black" stroke-width="0.5"/>
<polygon fill="black" points="447.95,-432.354 451.86,-442.599 447.659,-437.345 447.367,-442.337 447.367,-442.337 447.367,-442.337 447.659,-437.345 442.875,-442.075 447.95,-432.354 447.95,-432.354" stroke="black" stroke-width="0.5"/>
<text font-family="Times New Roman,serif" font-size="11.00" text-anchor="middle" x="427.927" y="-454.44">has-part</text>
</g>
<!-- Branch&#45;01&#45;&#45;Mary&#45;01 -->
<g class="edge" id="edge37"><title>Branch-01--Mary-01</title>
<path d="M466.535,-485.723C472.333,-484.373 478.434,-482.761 484.382,-481.014" fill="none" stroke="black" stroke-width="0.5"/>
<polygon fill="black" points="494.166,-477.969 485.955,-485.238 489.392,-479.455 484.618,-480.941 484.618,-480.941 484.618,-480.941 489.392,-479.455 483.281,-476.644 494.166,-477.969 494.166,-477.969" stroke="black" stroke-width="0.5"/>
<text font-family="Times New Roman,serif" font-size="11.00" text-anchor="middle" x="500.962" y="-485.34">is-part-of</text>
</g>
<!-- Branch&#45;01&#45;&#45;Leaf&#45;01 -->
<g class="edge" id="edge38"><title>Branch-01--Leaf-01</title>
<path d="M448.438,-506.067C454.132,-511.32 461.008,-517.034 467.943,-522.328" fill="none" stroke="black" stroke-width="0.5"/>
<polygon fill="black" points="476.045,-528.298 465.325,-525.989 472.019,-525.332 467.994,-522.366 467.994,-522.366 467.994,-522.366 472.019,-525.332 470.664,-518.743 476.045,-528.298 476.045,-528.298" stroke="black" stroke-width="0.5"/>
<text font-family="Times New Roman,serif" font-size="11.00" text-anchor="middle" x="443.631" y="-520.981">has-part</text>
</g>
<!-- Branch&#45;02&#45;&#45;Branch&#45;01 -->
<g class="edge" id="edge39"><title>Branch-02--Branch-01</title>
<path d="M436.022,-432.414C434.191,-440.589 432.727,-450.424 431.938,-459.529" fill="none" stroke="black" stroke-width="0.5"/>
<polygon fill="black" points="431.343,-469.738 427.433,-459.493 431.634,-464.747 431.925,-459.755 431.925,-459.755 431.925,-459.755 431.634,-464.747 436.418,-460.018 431.343,-469.738 431.343,-469.738" stroke="black" stroke-width="0.5"/>
<text font-family="Times New Roman,serif" font-size="11.00" text-anchor="middle" x="412.366" y="-442.052">is-part-of</text>
</g>
<!-- Branch&#45;02&#45;&#45;Mary&#45;01 -->
<g class="edge" id="edge40"><title>Branch-02--Mary-01</title>
<path d="M461.519,-432.256C468.549,-437.486 476.955,-443.106 485.234,-448.16" fill="none" stroke="black" stroke-width="0.5"/>
<polygon fill="black" points="494.097,-453.376 483.196,-452.182 489.788,-450.84 485.479,-448.304 485.479,-448.304 485.479,-448.304 489.788,-450.84 487.761,-444.426 494.097,-453.376 494.097,-453.376" stroke="black" stroke-width="0.5"/>
<text font-family="Times New Roman,serif" font-size="11.00" text-anchor="middle" x="497.981" y="-434.485">is-part-of</text>
</g>
<!-- Branch&#45;02&#45;&#45;Leaf&#45;01 -->
<g class="edge" id="edge41"><title>Branch-02--Leaf-01</title>
<path d="M453.407,-432.671C458.251,-442.695 464.306,-455.34 469.574,-466.681 476.817,-482.275 484.716,-499.806 491.03,-513.953" fill="none" stroke="black" stroke-width="0.5"/>
<polygon fill="black" points="495.121,-523.142 486.943,-515.837 493.088,-518.574 491.054,-514.006 491.054,-514.006 491.054,-514.006 493.088,-518.574 495.165,-512.176 495.121,-523.142 495.121,-523.142" stroke="black" stroke-width="0.5"/>
<text font-family="Times New Roman,serif" font-size="11.00" text-anchor="middle" x="474.746" y="-469.096">has-part</text>
</g>
<!-- Mary&#45;01&#45;&#45;Branch&#45;01 -->
<g class="edge" id="edge42"><title>Mary-01--Branch-01</title>
<path d="M494.056,-464.844C488.453,-466.061 482.449,-467.565 476.492,-469.232" fill="none" stroke="black" stroke-width="0.5"/>
<polygon fill="black" points="466.589,-472.169 474.897,-465.011 471.383,-470.747 476.176,-469.326 476.176,-469.326 476.176,-469.326 471.383,-470.747 477.456,-473.64 466.589,-472.169 466.589,-472.169" stroke="black" stroke-width="0.5"/>
<text font-family="Times New Roman,serif" font-size="11.00" text-anchor="middle" x="471.153" y="-459.363">has-part</text>
</g>
<!-- Mary&#45;01&#45;&#45;Branch&#45;02 -->
<g class="edge" id="edge43"><title>Mary-01--Branch-02</title>
<path d="M504.727,-445.517C498.777,-441.091 491.842,-436.385 484.832,-431.98" fill="none" stroke="black" stroke-width="0.5"/>
<polygon fill="black" points="475.981,-426.604 486.865,-427.95 480.255,-429.2 484.528,-431.796 484.528,-431.796 484.528,-431.796 480.255,-429.2 482.192,-435.642 475.981,-426.604 475.981,-426.604" stroke="black" stroke-width="0.5"/>
<text font-family="Times New Roman,serif" font-size="11.00" text-anchor="middle" x="472.208" y="-438.955">has-part</text>
</g>
<!-- Mary&#45;01&#45;&#45;Leaf&#45;01 -->
<g class="edge" id="edge44"><title>Mary-01--Leaf-01</title>
<path d="M511.332,-481.812C508.192,-491.201 505.235,-502.844 503.276,-513.342" fill="none" stroke="black" stroke-width="0.5"/>
<polygon fill="black" points="501.679,-523.332 498.814,-512.748 502.468,-518.395 503.257,-513.458 503.257,-513.458 503.257,-513.458 502.468,-518.395 507.701,-514.168 501.679,-523.332 501.679,-523.332" stroke="black" stroke-width="0.5"/>
<text font-family="Times New Roman,serif" font-size="11.00" text-anchor="middle" x="487.117" y="-505.448">has-part</text>
</g>
<!-- Leaf&#45;01&#45;&#45;Branch&#45;01 -->
<g class="edge" id="edge45"><title>Leaf-01--Branch-01</title>
<path d="M489.61,-523.196C485.134,-519.065 479.926,-514.65 474.533,-510.378" fill="none" stroke="black" stroke-width="0.5"/>
<polygon fill="black" points="466.563,-504.271 477.238,-506.782 470.532,-507.313 474.501,-510.354 474.501,-510.354 474.501,-510.354 470.532,-507.313 471.764,-513.926 466.563,-504.271 466.563,-504.271" stroke="black" stroke-width="0.5"/>
<text font-family="Times New Roman,serif" font-size="11.00" text-anchor="middle" x="498.54" y="-516.398">is-part-of</text>
</g>
<!-- Leaf&#45;01&#45;&#45;Branch&#45;02 -->
<g class="edge" id="edge46"><title>Leaf-01--Branch-02</title>
<path d="M498.427,-523.126C493.902,-506.989 486.349,-482.985 476.758,-463.344 473.047,-455.743 468.351,-447.917 463.698,-440.809" fill="none" stroke="black" stroke-width="0.5"/>
<polygon fill="black" points="457.905,-432.262 467.24,-438.015 460.71,-436.401 463.515,-440.54 463.515,-440.54 463.515,-440.54 460.71,-436.401 459.79,-443.065 457.905,-432.262 457.905,-432.262" stroke="black" stroke-width="0.5"/>
<text font-family="Times New Roman,serif" font-size="11.00" text-anchor="middle" x="461.842" y="-478.95">is-part-of</text>
</g>
<!-- Leaf&#45;01&#45;&#45;Mary&#45;01 -->
<g class="edge" id="edge47"><title>Leaf-01--Mary-01</title>
<path d="M513.67,-523.132C516.809,-513.743 519.766,-502.1 521.726,-491.602" fill="none" stroke="black" stroke-width="0.5"/>
<polygon fill="black" points="523.322,-481.612 526.188,-492.197 522.533,-486.549 521.744,-491.487 521.744,-491.487 521.744,-491.487 522.533,-486.549 517.3,-490.776 523.322,-481.612 523.322,-481.612" stroke="black" stroke-width="0.5"/>
<text font-family="Times New Roman,serif" font-size="11.00" text-anchor="middle" x="539.884" y="-505.896">is-part-of</text>
</g>
<!-- Leaf&#45;01&#45;&#45;Sophie&#45;01 -->
<g class="edge" id="edge48"><title>Leaf-01--Sophie-01</title>
<path d="M515.483,-559.408C530.866,-576.388 557.6,-601.777 579.581,-620.639" fill="none" stroke="black" stroke-width="0.5"/>
<polygon fill="black" points="587.435,-627.265 576.89,-624.256 583.613,-624.041 579.792,-620.816 579.792,-620.816 579.792,-620.816 583.613,-624.041 582.694,-617.377 587.435,-627.265 587.435,-627.265" stroke="black" stroke-width="0.5"/>
<text font-family="Times New Roman,serif" font-size="11.00" text-anchor="middle" x="525.933" y="-597.604">is-eaten-by</text>
</g>
<!-- Sophie&#45;01&#45;&#45;Leaf&#45;01 -->
<g class="edge" id="edge49"><title>Sophie-01--Leaf-01</title>
<path d="M603.084,-627.452C587.503,-610.255 560.28,-584.431 538.142,-565.5" fill="none" stroke="black" stroke-width="0.5"/>
<polygon fill="black" points="530.248,-558.866 540.799,-561.854 534.076,-562.082 537.904,-565.299 537.904,-565.299 537.904,-565.299 534.076,-562.082 535.009,-568.744 530.248,-558.866 530.248,-558.866" stroke="black" stroke-width="0.5"/>
<text font-family="Times New Roman,serif" font-size="11.00" text-anchor="middle" x="558.119" y="-583.174">eats</text>
</g>
<!-- Sophie&#45;01&#45;&#45;Leo&#45;01 -->
<g class="edge" id="edge50"><title>Sophie-01--Leo-01</title>
<path d="M645.647,-644.099C671.64,-639.89 709.194,-631.523 736.949,-623.856" fill="none" stroke="black" stroke-width="0.5"/>
<polygon fill="black" points="746.691,-621.072 738.313,-628.146 741.884,-622.445 737.076,-623.819 737.076,-623.819 737.076,-623.819 741.884,-622.445 735.84,-619.493 746.691,-621.072 746.691,-621.072" stroke="black" stroke-width="0.5"/>
<text font-family="Times New Roman,serif" font-size="11.00" text-anchor="middle" x="671.805" y="-637.2">is-eaten-by</text>
</g>
<!-- Leo&#45;01&#45;&#45;Sophie&#45;01 -->
<g class="edge" id="edge51"><title>Leo-01--Sophie-01</title>
<path d="M746.547,-610.353C721.381,-614.25 683.742,-622.524 655.228,-630.262" fill="none" stroke="black" stroke-width="0.5"/>
<polygon fill="black" points="645.559,-632.969 653.976,-625.94 650.374,-631.621 655.189,-630.273 655.189,-630.273 655.189,-630.273 650.374,-631.621 656.402,-634.607 645.559,-632.969 645.559,-632.969" stroke="black" stroke-width="0.5"/>
<text font-family="Times New Roman,serif" font-size="11.00" text-anchor="middle" x="686.205" y="-623.495">eats</text>
</g>
</g>
</svg>