<svg xmlns="http://www.w3.org/2000/svg" xmlns:xlink="http://www.w3.org/1999/xlink" width="638pt" height="118pt" viewBox="0.00 0.00 638.00 118.00">
<g id="graph0" class="graph" transform="scale(1 1) rotate(0) translate(4 114)">
<title>G</title>
<polygon fill="white" stroke="none" points="-4,4 -4,-114 634,-114 634,4 -4,4"/>
<!-- classi -->
<g id="node1" class="node"><title>classi</title>
<path fill="aliceblue" stroke="black" stroke-width="0.5" d="M12,-0.5C12,-0.5 42,-0.5 42,-0.5 48,-0.5 54,-6.5 54,-12.5 54,-12.5 54,-24.5 54,-24.5 54,-30.5 48,-36.5 42,-36.5 42,-36.5 12,-36.5 12,-36.5 6,-36.5 0,-30.5 0,-24.5 0,-24.5 0,-12.5 0,-12.5 0,-6.5 6,-0.5 12,-0.5"/>
<text text-anchor="middle" x="27" y="-15.7" font-family="Times New Roman,serif" font-size="11.00">classi</text>
</g>
<!-- superclass -->
<g id="node2" class="node"><title>superclass</title>
<path fill="aliceblue" stroke="black" stroke-width="0.5" d="M296,-73.5C296,-73.5 334,-73.5 334,-73.5 340,-73.5 346,-79.5 346,-85.5 346,-85.5 346,-97.5 346,-97.5 346,-103.5 340,-109.5 334,-109.5 334,-109.5 296,-109.5 296,-109.5 290,-109.5 284,-103.5 284,-97.5 284,-97.5 284,-85.5 284,-85.5 284,-79.5 290,-73.5 296,-73.5"/>
<text text-anchor="middle" x="315" y="-88.7" font-family="Times New Roman,serif" font-size="11.00">superclass</text>
</g>
<!-- superclass&#45;&#45;classi -->
<g id="edge1" class="edge"><title>superclass--classi</title>
<path fill="none" stroke="black" stroke-width="0.5" d="M273.793,-84.904C223.2,-77.3205 135.221,-61.805 63,-37 60.1081,-36.0068 57.1468,-34.838 54.2254,-33.5833"/>
<polygon fill="none" stroke="black" stroke-width="0.5" points="273.298,-88.3686 283.7,-86.3588 274.315,-81.4429 273.298,-88.3686"/>
</g>
<!-- classb -->
<g id="node3" class="node"><title>classb</title>
<path fill="aliceblue" stroke="black" stroke-width="0.5" d="M84,-0.5C84,-0.5 114,-0.5 114,-0.5 120,-0.5 126,-6.5 126,-12.5 126,-12.5 126,-24.5 126,-24.5 126,-30.5 120,-36.5 114,-36.5 114,-36.5 84,-36.5 84,-36.5 78,-36.5 72,-30.5 72,-24.5 72,-24.5 72,-12.5 72,-12.5 72,-6.5 78,-0.5 84,-0.5"/>
<text text-anchor="middle" x="99" y="-15.7" font-family="Times New Roman,serif" font-size="11.00">classb</text>
</g>
<!-- superclass&#45;&#45;classb -->
<g id="edge2" class="edge"><title>superclass--classb</title>
<path fill="none" stroke="black" stroke-width="0.5" d="M274.017,-80.3683C237.112,-70.7646 181.663,-55.1358 135,-37 132.15,-35.8923 129.216,-34.6484 126.312,-33.3479"/>
<polygon fill="none" stroke="black" stroke-width="0.5" points="273.354,-83.8118 283.911,-82.9143 275.099,-77.0326 273.354,-83.8118"/>
</g>
<!-- classe -->
<g id="node4" class="node"><title>classe</title>
<path fill="aliceblue" stroke="black" stroke-width="0.5" d="M156,-0.5C156,-0.5 186,-0.5 186,-0.5 192,-0.5 198,-6.5 198,-12.5 198,-12.5 198,-24.5 198,-24.5 198,-30.5 192,-36.5 186,-36.5 186,-36.5 156,-36.5 156,-36.5 150,-36.5 144,-30.5 144,-24.5 144,-24.5 144,-12.5 144,-12.5 144,-6.5 150,-0.5 156,-0.5"/>
<text text-anchor="middle" x="171" y="-15.7" font-family="Times New Roman,serif" font-size="11.00">classe</text>
</g>
<!-- superclass&#45;&#45;classe -->
<g id="edge3" class="edge"><title>superclass--classe</title>
<path fill="none" stroke="black" stroke-width="0.5" d="M274.736,-70.6477C250.35,-58.6239 219.891,-43.6059 198.302,-32.9615"/>
<polygon fill="none" stroke="black" stroke-width="0.5" points="273.237,-73.8109 283.754,-75.0941 276.333,-67.5326 273.237,-73.8109"/>
</g>
<!-- classh -->
<g id="node5" class="node"><title>classh</title>
<path fill="aliceblue" stroke="black" stroke-width="0.5" d="M228,-0.5C228,-0.5 258,-0.5 258,-0.5 264,-0.5 270,-6.5 270,-12.5 270,-12.5 270,-24.5 270,-24.5 270,-30.5 264,-36.5 258,-36.5 258,-36.5 228,-36.5 228,-36.5 222,-36.5 216,-30.5 216,-24.5 216,-24.5 216,-12.5 216,-12.5 216,-6.5 222,-0.5 228,-0.5"/>
<text text-anchor="middle" x="243" y="-15.7" font-family="Times New Roman,serif" font-size="11.00">classh</text>
</g>
<!-- superclass&#45;&#45;classh -->
<g id="edge4" class="edge"><title>superclass--classh</title>
<path fill="none" stroke="black" stroke-width="0.5" d="M290.312,-66.1547C280.422,-56.402 269.264,-45.3991 260.269,-36.5288"/>
<polygon fill="none" stroke="black" stroke-width="0.5" points="287.993,-68.7835 297.571,-73.3129 292.908,-63.7993 287.993,-68.7835"/>
</g>
<!-- classg -->
<g id="node6" class="node"><title>classg</title>
<path fill="aliceblue" stroke="black" stroke-width="0.5" d="M300,-0.5C300,-0.5 330,-0.5 330,-0.5 336,-0.5 342,-6.5 342,-12.5 342,-12.5 342,-24.5 342,-24.5 342,-30.5 336,-36.5 330,-36.5 330,-36.5 300,-36.5 300,-36.5 294,-36.5 288,-30.5 288,-24.5 288,-24.5 288,-12.5 288,-12.5 288,-6.5 294,-0.5 300,-0.5"/>
<text text-anchor="middle" x="315" y="-15.7" font-family="Times New Roman,serif" font-size="11.00">classg</text>
</g>
<!-- superclass&#45;&#45;classg -->
<g id="edge5" class="edge"><title>superclass--classg</title>
<path fill="none" stroke="black" stroke-width="0.5" d="M315,-63.2534C315,-54.2651 315,-44.5295 315,-36.5288"/>
<polygon fill="none" stroke="black" stroke-width="0.5" points="311.5,-63.3128 315,-73.3129 318.5,-63.3129 311.5,-63.3128"/>
</g>
<!-- classd -->
<g id="node7" class="node"><title>classd</title>
<path fill="aliceblue" stroke="black" stroke-width="0.5" d="M372,-0.5C372,-0.5 402,-0.5 402,-0.5 408,-0.5 414,-6.5 414,-12.5 414,-12.5 414,-24.5 414,-24.5 414,-30.5 408,-36.5 402,-36.5 402,-36.5 372,-36.5 372,-36.5 366,-36.5 360,-30.5 360,-24.5 360,-24.5 360,-12.5 360,-12.5 360,-6.5 366,-0.5 372,-0.5"/>
<text text-anchor="middle" x="387" y="-15.7" font-family="Times New Roman,serif" font-size="11.00">classd</text>
</g>
<!-- superclass&#45;&#45;classd -->
<g id="edge6" class="edge"><title>superclass--classd</title>
<path fill="none" stroke="black" stroke-width="0.5" d="M339.688,-66.1547C349.578,-56.402 360.736,-45.3991 369.731,-36.5288"/>
<polygon fill="none" stroke="black" stroke-width="0.5" points="337.092,-63.7993 332.429,-73.3129 342.007,-68.7835 337.092,-63.7993"/>
</g>
<!-- classf -->
<g id="node8" class="node"><title>classf</title>
<path fill="aliceblue" stroke="black" stroke-width="0.5" d="M444,-0.5C444,-0.5 474,-0.5 474,-0.5 480,-0.5 486,-6.5 486,-12.5 486,-12.5 486,-24.5 486,-24.5 486,-30.5 480,-36.5 474,-36.5 474,-36.5 444,-36.5 444,-36.5 438,-36.5 432,-30.5 432,-24.5 432,-24.5 432,-12.5 432,-12.5 432,-6.5 438,-0.5 444,-0.5"/>
<text text-anchor="middle" x="459" y="-15.7" font-family="Times New Roman,serif" font-size="11.00">classf</text>
</g>
<!-- superclass&#45;&#45;classf -->
<g id="edge7" class="edge"><title>superclass--classf</title>
<path fill="none" stroke="black" stroke-width="0.5" d="M355.264,-70.6477C379.65,-58.6239 410.109,-43.6059 431.698,-32.9615"/>
<polygon fill="none" stroke="black" stroke-width="0.5" points="353.667,-67.5326 346.246,-75.0941 356.763,-73.8109 353.667,-67.5326"/>
</g>
<!-- classa -->
<g id="node9" class="node"><title>classa</title>
<path fill="aliceblue" stroke="black" stroke-width="0.5" d="M516,-0.5C516,-0.5 546,-0.5 546,-0.5 552,-0.5 558,-6.5 558,-12.5 558,-12.5 558,-24.5 558,-24.5 558,-30.5 552,-36.5 546,-36.5 546,-36.5 516,-36.5 516,-36.5 510,-36.5 504,-30.5 504,-24.5 504,-24.5 504,-12.5 504,-12.5 504,-6.5 510,-0.5 516,-0.5"/>
<text text-anchor="middle" x="531" y="-15.7" font-family="Times New Roman,serif" font-size="11.00">classa</text>
</g>
<!-- superclass&#45;&#45;classa -->
<g id="edge8" class="edge"><title>superclass--classa</title>
<path fill="none" stroke="black" stroke-width="0.5" d="M355.983,-80.3683C392.888,-70.7646 448.337,-55.1358 495,-37 497.85,-35.8923 500.784,-34.6484 503.688,-33.3479"/>
<polygon fill="none" stroke="black" stroke-width="0.5" points="354.901,-77.0326 346.089,-82.9143 356.646,-83.8118 354.901,-77.0326"/>
</g>
<!-- classc -->
<g id="node10" class="node"><title>classc</title>
<path fill="aliceblue" stroke="black" stroke-width="0.5" d="M588,-0.5C588,-0.5 618,-0.5 618,-0.5 624,-0.5 630,-6.5 630,-12.5 630,-12.5 630,-24.5 630,-24.5 630,-30.5 624,-36.5 618,-36.5 618,-36.5 588,-36.5 588,-36.5 582,-36.5 576,-30.5 576,-24.5 576,-24.5 576,-12.5 576,-12.5 576,-6.5 582,-0.5 588,-0.5"/>
<text text-anchor="middle" x="603" y="-15.7" font-family="Times New Roman,serif" font-size="11.00">classc</text>
</g>
<!-- superclass&#45;&#45;classc -->
<g id="edge9" class="edge"><title>superclass--classc</title>
<path fill="none" stroke="black" stroke-width="0.5" d="M356.207,-84.904C406.8,-77.3205 494.779,-61.805 567,-37 569.892,-36.0068 572.853,-34.838 575.775,-33.5833"/>
<polygon fill="none" stroke="black" stroke-width="0.5" points="355.685,-81.4429 346.3,-86.3588 356.702,-88.3686 355.685,-81.4429"/>
</g>
</g>
</svg>